G04 EAGLE Gerber X2 export*
G75*
%MOMM*%
%FSLAX34Y34*%
%LPD*%
%AMOC8*
5,1,8,0,0,1.08239X$1,22.5*%
G01*
%ADD10P,1.948302X8X292.500000*%
%ADD11P,2.597736X8X292.500000*%
%ADD12P,1.415766X8X292.500000*%
%ADD13R,0.558800X0.762000*%
%ADD14R,0.889000X1.016000*%
%ADD15P,1.924489X8X202.500000*%
%ADD16R,0.800000X0.800000*%
%ADD17R,1.250000X0.300000*%
%ADD18R,0.300000X1.250000*%
%ADD19R,1.400000X1.600000*%
%ADD20R,0.500000X0.500000*%
%ADD21P,0.654629X8X22.500000*%
%ADD22C,0.200000*%
%ADD23C,0.304800*%

G36*
X471716Y2552D02*
X471716Y2552D01*
X471817Y2554D01*
X471889Y2572D01*
X471963Y2581D01*
X472057Y2614D01*
X472155Y2639D01*
X472221Y2673D01*
X472291Y2698D01*
X472375Y2753D01*
X472464Y2799D01*
X472521Y2847D01*
X472583Y2887D01*
X472653Y2959D01*
X472730Y3024D01*
X472774Y3084D01*
X472826Y3138D01*
X472877Y3224D01*
X472937Y3305D01*
X472966Y3373D01*
X473005Y3437D01*
X473035Y3533D01*
X473075Y3625D01*
X473088Y3698D01*
X473111Y3769D01*
X473119Y3869D01*
X473137Y3968D01*
X473133Y4042D01*
X473139Y4116D01*
X473124Y4216D01*
X473119Y4316D01*
X473098Y4387D01*
X473087Y4461D01*
X473050Y4554D01*
X473022Y4651D01*
X472986Y4716D01*
X472958Y4785D01*
X472901Y4867D01*
X472852Y4955D01*
X472787Y5031D01*
X472759Y5071D01*
X472733Y5095D01*
X472693Y5141D01*
X468569Y9265D01*
X468569Y11461D01*
X478984Y11461D01*
X479010Y11464D01*
X479036Y11462D01*
X479183Y11484D01*
X479330Y11501D01*
X479355Y11509D01*
X479381Y11513D01*
X479518Y11568D01*
X479658Y11618D01*
X479680Y11632D01*
X479705Y11642D01*
X479826Y11727D01*
X479951Y11807D01*
X479969Y11826D01*
X479991Y11841D01*
X480005Y11857D01*
X480090Y11775D01*
X480113Y11761D01*
X480132Y11744D01*
X480262Y11672D01*
X480389Y11596D01*
X480414Y11588D01*
X480437Y11575D01*
X480580Y11535D01*
X480721Y11490D01*
X480747Y11487D01*
X480772Y11480D01*
X481016Y11461D01*
X491431Y11461D01*
X491431Y9265D01*
X487307Y5141D01*
X487244Y5063D01*
X487174Y4990D01*
X487136Y4926D01*
X487090Y4868D01*
X487047Y4777D01*
X486995Y4691D01*
X486973Y4620D01*
X486941Y4553D01*
X486920Y4455D01*
X486889Y4359D01*
X486883Y4285D01*
X486868Y4212D01*
X486869Y4112D01*
X486861Y4012D01*
X486872Y3938D01*
X486874Y3864D01*
X486898Y3767D01*
X486913Y3667D01*
X486940Y3598D01*
X486959Y3526D01*
X487005Y3436D01*
X487042Y3343D01*
X487084Y3282D01*
X487118Y3216D01*
X487183Y3139D01*
X487241Y3057D01*
X487296Y3007D01*
X487344Y2951D01*
X487425Y2891D01*
X487499Y2824D01*
X487565Y2788D01*
X487624Y2743D01*
X487717Y2704D01*
X487804Y2655D01*
X487876Y2635D01*
X487944Y2605D01*
X488043Y2588D01*
X488140Y2560D01*
X488240Y2552D01*
X488287Y2544D01*
X488323Y2546D01*
X488384Y2541D01*
X497616Y2541D01*
X497716Y2552D01*
X497817Y2554D01*
X497889Y2572D01*
X497963Y2581D01*
X498057Y2614D01*
X498155Y2639D01*
X498221Y2673D01*
X498291Y2698D01*
X498375Y2753D01*
X498464Y2799D01*
X498521Y2847D01*
X498583Y2887D01*
X498653Y2959D01*
X498730Y3024D01*
X498774Y3084D01*
X498826Y3138D01*
X498877Y3224D01*
X498937Y3305D01*
X498966Y3373D01*
X499005Y3437D01*
X499035Y3533D01*
X499075Y3625D01*
X499088Y3698D01*
X499111Y3769D01*
X499119Y3869D01*
X499137Y3968D01*
X499133Y4042D01*
X499139Y4116D01*
X499124Y4216D01*
X499119Y4316D01*
X499098Y4387D01*
X499087Y4461D01*
X499050Y4554D01*
X499022Y4651D01*
X498986Y4716D01*
X498958Y4785D01*
X498901Y4867D01*
X498852Y4955D01*
X498787Y5031D01*
X498759Y5071D01*
X498733Y5095D01*
X498693Y5141D01*
X494569Y9265D01*
X494569Y11461D01*
X504984Y11461D01*
X505010Y11464D01*
X505036Y11462D01*
X505183Y11484D01*
X505330Y11501D01*
X505355Y11509D01*
X505381Y11513D01*
X505518Y11568D01*
X505658Y11618D01*
X505680Y11632D01*
X505705Y11642D01*
X505826Y11727D01*
X505951Y11807D01*
X505969Y11826D01*
X505991Y11841D01*
X506090Y11951D01*
X506193Y12058D01*
X506207Y12080D01*
X506224Y12100D01*
X506296Y12230D01*
X506372Y12357D01*
X506380Y12382D01*
X506393Y12405D01*
X506433Y12548D01*
X506478Y12689D01*
X506480Y12715D01*
X506487Y12740D01*
X506507Y12984D01*
X506507Y13493D01*
X507016Y13493D01*
X507042Y13496D01*
X507068Y13494D01*
X507215Y13516D01*
X507362Y13533D01*
X507387Y13542D01*
X507413Y13546D01*
X507551Y13600D01*
X507690Y13650D01*
X507712Y13665D01*
X507737Y13674D01*
X507858Y13759D01*
X507983Y13839D01*
X508001Y13858D01*
X508023Y13873D01*
X508122Y13983D01*
X508225Y14090D01*
X508239Y14113D01*
X508256Y14132D01*
X508328Y14262D01*
X508404Y14389D01*
X508412Y14414D01*
X508425Y14437D01*
X508465Y14580D01*
X508510Y14721D01*
X508512Y14747D01*
X508520Y14772D01*
X508539Y15016D01*
X508539Y25431D01*
X510735Y25431D01*
X514859Y21307D01*
X514937Y21244D01*
X515010Y21174D01*
X515074Y21136D01*
X515132Y21090D01*
X515223Y21047D01*
X515309Y20995D01*
X515380Y20973D01*
X515447Y20941D01*
X515545Y20920D01*
X515641Y20889D01*
X515715Y20883D01*
X515788Y20868D01*
X515888Y20869D01*
X515988Y20861D01*
X516062Y20872D01*
X516136Y20874D01*
X516233Y20898D01*
X516333Y20913D01*
X516402Y20940D01*
X516474Y20959D01*
X516564Y21005D01*
X516657Y21042D01*
X516718Y21084D01*
X516784Y21118D01*
X516861Y21183D01*
X516943Y21241D01*
X516993Y21296D01*
X517049Y21344D01*
X517109Y21425D01*
X517176Y21499D01*
X517212Y21565D01*
X517257Y21624D01*
X517296Y21717D01*
X517345Y21804D01*
X517365Y21876D01*
X517395Y21944D01*
X517412Y22043D01*
X517440Y22140D01*
X517448Y22240D01*
X517456Y22287D01*
X517454Y22323D01*
X517459Y22384D01*
X517459Y31780D01*
X517448Y31880D01*
X517446Y31980D01*
X517428Y32052D01*
X517419Y32126D01*
X517386Y32221D01*
X517361Y32318D01*
X517327Y32384D01*
X517302Y32454D01*
X517247Y32539D01*
X517201Y32628D01*
X517153Y32685D01*
X517113Y32747D01*
X517041Y32817D01*
X516976Y32893D01*
X516916Y32938D01*
X516862Y32989D01*
X516776Y33041D01*
X516695Y33101D01*
X516627Y33130D01*
X516563Y33168D01*
X516467Y33199D01*
X516375Y33239D01*
X516302Y33252D01*
X516231Y33274D01*
X516131Y33282D01*
X516032Y33300D01*
X515958Y33296D01*
X515884Y33302D01*
X515784Y33287D01*
X515684Y33282D01*
X515613Y33262D01*
X515539Y33251D01*
X515446Y33214D01*
X515349Y33186D01*
X515284Y33149D01*
X515215Y33122D01*
X515133Y33065D01*
X515045Y33016D01*
X514969Y32950D01*
X514929Y32923D01*
X514905Y32897D01*
X514859Y32857D01*
X510511Y28509D01*
X501489Y28509D01*
X495109Y34889D01*
X495109Y43911D01*
X501489Y50291D01*
X510511Y50291D01*
X514859Y45943D01*
X514937Y45881D01*
X515010Y45811D01*
X515074Y45772D01*
X515132Y45726D01*
X515223Y45683D01*
X515309Y45632D01*
X515380Y45609D01*
X515447Y45577D01*
X515545Y45556D01*
X515641Y45526D01*
X515715Y45520D01*
X515788Y45504D01*
X515888Y45506D01*
X515988Y45498D01*
X516062Y45509D01*
X516136Y45510D01*
X516233Y45534D01*
X516333Y45549D01*
X516402Y45577D01*
X516474Y45595D01*
X516564Y45641D01*
X516657Y45678D01*
X516718Y45720D01*
X516784Y45755D01*
X516861Y45820D01*
X516943Y45877D01*
X516993Y45932D01*
X517049Y45980D01*
X517109Y46061D01*
X517176Y46136D01*
X517212Y46201D01*
X517257Y46261D01*
X517296Y46353D01*
X517345Y46441D01*
X517365Y46512D01*
X517395Y46581D01*
X517412Y46679D01*
X517440Y46776D01*
X517448Y46876D01*
X517456Y46924D01*
X517454Y46959D01*
X517459Y47020D01*
X517459Y57180D01*
X517448Y57280D01*
X517446Y57380D01*
X517428Y57452D01*
X517419Y57526D01*
X517386Y57621D01*
X517361Y57718D01*
X517327Y57784D01*
X517302Y57854D01*
X517247Y57939D01*
X517201Y58028D01*
X517153Y58085D01*
X517113Y58147D01*
X517041Y58217D01*
X516976Y58293D01*
X516916Y58338D01*
X516862Y58389D01*
X516776Y58441D01*
X516695Y58501D01*
X516627Y58530D01*
X516563Y58568D01*
X516467Y58599D01*
X516375Y58639D01*
X516302Y58652D01*
X516231Y58674D01*
X516131Y58682D01*
X516032Y58700D01*
X515958Y58696D01*
X515884Y58702D01*
X515784Y58687D01*
X515684Y58682D01*
X515613Y58662D01*
X515539Y58651D01*
X515446Y58614D01*
X515349Y58586D01*
X515284Y58549D01*
X515215Y58522D01*
X515133Y58465D01*
X515045Y58416D01*
X514969Y58350D01*
X514929Y58323D01*
X514905Y58297D01*
X514859Y58257D01*
X510511Y53909D01*
X501489Y53909D01*
X495109Y60289D01*
X495109Y69311D01*
X501489Y75691D01*
X510511Y75691D01*
X514859Y71343D01*
X514937Y71281D01*
X515010Y71211D01*
X515074Y71172D01*
X515132Y71126D01*
X515223Y71083D01*
X515309Y71032D01*
X515380Y71009D01*
X515447Y70977D01*
X515545Y70956D01*
X515641Y70926D01*
X515715Y70920D01*
X515788Y70904D01*
X515888Y70906D01*
X515988Y70898D01*
X516062Y70909D01*
X516136Y70910D01*
X516233Y70934D01*
X516333Y70949D01*
X516402Y70977D01*
X516474Y70995D01*
X516564Y71041D01*
X516657Y71078D01*
X516718Y71120D01*
X516784Y71155D01*
X516861Y71220D01*
X516943Y71277D01*
X516993Y71332D01*
X517049Y71380D01*
X517109Y71461D01*
X517176Y71536D01*
X517212Y71601D01*
X517257Y71661D01*
X517296Y71753D01*
X517345Y71841D01*
X517365Y71912D01*
X517395Y71981D01*
X517412Y72079D01*
X517440Y72176D01*
X517448Y72276D01*
X517456Y72324D01*
X517454Y72359D01*
X517459Y72420D01*
X517459Y88823D01*
X517445Y88948D01*
X517439Y89073D01*
X517425Y89120D01*
X517419Y89170D01*
X517377Y89288D01*
X517343Y89408D01*
X517319Y89451D01*
X517302Y89498D01*
X517234Y89603D01*
X517173Y89712D01*
X517140Y89749D01*
X517113Y89791D01*
X517023Y89878D01*
X516939Y89970D01*
X516898Y89998D01*
X516862Y90033D01*
X516755Y90097D01*
X516652Y90168D01*
X516606Y90186D01*
X516563Y90212D01*
X516444Y90250D01*
X516328Y90296D01*
X516279Y90303D01*
X516231Y90318D01*
X516106Y90328D01*
X515983Y90346D01*
X515933Y90342D01*
X515884Y90346D01*
X515760Y90327D01*
X515635Y90317D01*
X515588Y90301D01*
X515539Y90294D01*
X515423Y90248D01*
X515304Y90209D01*
X515261Y90184D01*
X515215Y90165D01*
X515113Y90094D01*
X515005Y90029D01*
X514970Y89995D01*
X514929Y89966D01*
X514845Y89874D01*
X514756Y89786D01*
X514720Y89735D01*
X514696Y89708D01*
X514673Y89666D01*
X514617Y89585D01*
X514533Y89440D01*
X514060Y88967D01*
X513481Y88632D01*
X512835Y88459D01*
X510499Y88459D01*
X510499Y94524D01*
X510496Y94550D01*
X510498Y94576D01*
X510476Y94723D01*
X510459Y94870D01*
X510451Y94895D01*
X510447Y94921D01*
X510414Y95002D01*
X510425Y95040D01*
X510470Y95181D01*
X510472Y95207D01*
X510480Y95232D01*
X510499Y95476D01*
X510499Y101541D01*
X512835Y101541D01*
X513481Y101368D01*
X514060Y101033D01*
X514533Y100560D01*
X514617Y100415D01*
X514691Y100314D01*
X514759Y100209D01*
X514795Y100175D01*
X514824Y100135D01*
X514920Y100054D01*
X515010Y99967D01*
X515052Y99942D01*
X515090Y99910D01*
X515202Y99853D01*
X515309Y99788D01*
X515356Y99773D01*
X515400Y99751D01*
X515522Y99720D01*
X515641Y99682D01*
X515690Y99678D01*
X515738Y99666D01*
X515864Y99664D01*
X515988Y99654D01*
X516037Y99662D01*
X516087Y99661D01*
X516209Y99687D01*
X516333Y99706D01*
X516379Y99724D01*
X516427Y99735D01*
X516541Y99788D01*
X516657Y99835D01*
X516697Y99863D01*
X516742Y99884D01*
X516840Y99962D01*
X516943Y100034D01*
X516976Y100070D01*
X517015Y100101D01*
X517093Y100200D01*
X517176Y100292D01*
X517200Y100336D01*
X517231Y100375D01*
X517284Y100488D01*
X517345Y100597D01*
X517358Y100645D01*
X517379Y100690D01*
X517406Y100812D01*
X517440Y100933D01*
X517445Y100995D01*
X517452Y101031D01*
X517451Y101078D01*
X517459Y101177D01*
X517459Y108823D01*
X517445Y108948D01*
X517439Y109073D01*
X517425Y109120D01*
X517419Y109170D01*
X517377Y109288D01*
X517343Y109408D01*
X517319Y109451D01*
X517302Y109498D01*
X517234Y109603D01*
X517173Y109712D01*
X517140Y109749D01*
X517113Y109791D01*
X517023Y109878D01*
X516939Y109970D01*
X516898Y109998D01*
X516862Y110033D01*
X516755Y110097D01*
X516652Y110168D01*
X516606Y110186D01*
X516563Y110212D01*
X516444Y110250D01*
X516328Y110296D01*
X516279Y110303D01*
X516231Y110318D01*
X516106Y110328D01*
X515983Y110346D01*
X515933Y110342D01*
X515884Y110346D01*
X515760Y110327D01*
X515635Y110317D01*
X515588Y110301D01*
X515539Y110294D01*
X515423Y110248D01*
X515304Y110209D01*
X515261Y110184D01*
X515215Y110165D01*
X515113Y110094D01*
X515005Y110029D01*
X514970Y109995D01*
X514929Y109966D01*
X514845Y109874D01*
X514756Y109786D01*
X514720Y109735D01*
X514696Y109708D01*
X514673Y109666D01*
X514617Y109585D01*
X514533Y109440D01*
X514060Y108967D01*
X513481Y108632D01*
X512835Y108459D01*
X510499Y108459D01*
X510499Y114524D01*
X510496Y114550D01*
X510498Y114576D01*
X510476Y114723D01*
X510459Y114870D01*
X510451Y114895D01*
X510447Y114921D01*
X510414Y115002D01*
X510425Y115040D01*
X510470Y115181D01*
X510472Y115207D01*
X510480Y115232D01*
X510499Y115476D01*
X510499Y121541D01*
X512835Y121541D01*
X513481Y121368D01*
X514060Y121033D01*
X514533Y120560D01*
X514617Y120415D01*
X514691Y120314D01*
X514759Y120209D01*
X514795Y120175D01*
X514824Y120135D01*
X514920Y120054D01*
X515010Y119967D01*
X515052Y119942D01*
X515090Y119910D01*
X515202Y119853D01*
X515309Y119788D01*
X515356Y119773D01*
X515400Y119751D01*
X515522Y119720D01*
X515641Y119682D01*
X515690Y119678D01*
X515738Y119666D01*
X515864Y119664D01*
X515988Y119654D01*
X516037Y119662D01*
X516087Y119661D01*
X516209Y119687D01*
X516333Y119706D01*
X516379Y119724D01*
X516427Y119735D01*
X516541Y119788D01*
X516657Y119835D01*
X516697Y119863D01*
X516742Y119884D01*
X516840Y119962D01*
X516943Y120034D01*
X516976Y120070D01*
X517015Y120101D01*
X517093Y120200D01*
X517176Y120292D01*
X517200Y120336D01*
X517231Y120375D01*
X517284Y120488D01*
X517345Y120597D01*
X517358Y120645D01*
X517379Y120690D01*
X517406Y120812D01*
X517440Y120933D01*
X517445Y120995D01*
X517452Y121031D01*
X517451Y121078D01*
X517459Y121177D01*
X517459Y136616D01*
X517458Y136630D01*
X517458Y136639D01*
X517451Y136688D01*
X517448Y136716D01*
X517446Y136817D01*
X517428Y136889D01*
X517419Y136963D01*
X517386Y137057D01*
X517361Y137155D01*
X517327Y137221D01*
X517302Y137291D01*
X517247Y137375D01*
X517201Y137464D01*
X517153Y137521D01*
X517113Y137583D01*
X517041Y137653D01*
X516976Y137730D01*
X516916Y137774D01*
X516862Y137826D01*
X516776Y137877D01*
X516695Y137937D01*
X516627Y137966D01*
X516563Y138005D01*
X516467Y138035D01*
X516375Y138075D01*
X516302Y138088D01*
X516231Y138111D01*
X516131Y138119D01*
X516032Y138137D01*
X515958Y138133D01*
X515884Y138139D01*
X515784Y138124D01*
X515684Y138119D01*
X515613Y138098D01*
X515539Y138087D01*
X515446Y138050D01*
X515349Y138022D01*
X515284Y137986D01*
X515215Y137958D01*
X515133Y137901D01*
X515045Y137852D01*
X514969Y137787D01*
X514929Y137759D01*
X514905Y137733D01*
X514859Y137693D01*
X510735Y133569D01*
X508539Y133569D01*
X508539Y143984D01*
X508536Y144010D01*
X508538Y144036D01*
X508516Y144183D01*
X508499Y144330D01*
X508491Y144355D01*
X508487Y144381D01*
X508432Y144518D01*
X508382Y144658D01*
X508368Y144680D01*
X508358Y144705D01*
X508273Y144826D01*
X508193Y144951D01*
X508174Y144969D01*
X508159Y144991D01*
X508143Y145005D01*
X508225Y145090D01*
X508239Y145113D01*
X508256Y145132D01*
X508328Y145262D01*
X508404Y145389D01*
X508412Y145414D01*
X508425Y145437D01*
X508465Y145580D01*
X508510Y145721D01*
X508512Y145747D01*
X508520Y145772D01*
X508539Y146016D01*
X508539Y156431D01*
X510735Y156431D01*
X514859Y152307D01*
X514937Y152244D01*
X515010Y152174D01*
X515074Y152136D01*
X515132Y152090D01*
X515223Y152047D01*
X515309Y151995D01*
X515380Y151973D01*
X515447Y151941D01*
X515545Y151920D01*
X515641Y151889D01*
X515715Y151883D01*
X515788Y151868D01*
X515888Y151869D01*
X515988Y151861D01*
X516062Y151872D01*
X516136Y151874D01*
X516233Y151898D01*
X516333Y151913D01*
X516402Y151940D01*
X516474Y151959D01*
X516564Y152005D01*
X516657Y152042D01*
X516718Y152084D01*
X516784Y152118D01*
X516861Y152183D01*
X516943Y152241D01*
X516993Y152296D01*
X517049Y152344D01*
X517109Y152425D01*
X517176Y152499D01*
X517212Y152565D01*
X517257Y152624D01*
X517296Y152717D01*
X517345Y152804D01*
X517365Y152876D01*
X517395Y152944D01*
X517412Y153043D01*
X517440Y153140D01*
X517448Y153240D01*
X517456Y153287D01*
X517454Y153323D01*
X517459Y153384D01*
X517459Y162780D01*
X517448Y162880D01*
X517446Y162980D01*
X517428Y163052D01*
X517419Y163126D01*
X517386Y163221D01*
X517361Y163318D01*
X517327Y163384D01*
X517302Y163454D01*
X517247Y163539D01*
X517201Y163628D01*
X517153Y163685D01*
X517113Y163747D01*
X517041Y163817D01*
X516976Y163893D01*
X516916Y163938D01*
X516862Y163989D01*
X516776Y164041D01*
X516695Y164101D01*
X516627Y164130D01*
X516563Y164168D01*
X516467Y164199D01*
X516375Y164239D01*
X516302Y164252D01*
X516231Y164274D01*
X516131Y164282D01*
X516032Y164300D01*
X515958Y164296D01*
X515884Y164302D01*
X515784Y164287D01*
X515684Y164282D01*
X515613Y164262D01*
X515539Y164251D01*
X515446Y164214D01*
X515349Y164186D01*
X515284Y164149D01*
X515215Y164122D01*
X515133Y164065D01*
X515045Y164016D01*
X514969Y163950D01*
X514929Y163923D01*
X514905Y163897D01*
X514859Y163857D01*
X510511Y159509D01*
X501489Y159509D01*
X495109Y165889D01*
X495109Y174911D01*
X501489Y181291D01*
X510511Y181291D01*
X514859Y176943D01*
X514937Y176881D01*
X515010Y176811D01*
X515074Y176772D01*
X515132Y176726D01*
X515223Y176683D01*
X515309Y176632D01*
X515380Y176609D01*
X515447Y176577D01*
X515545Y176556D01*
X515641Y176526D01*
X515715Y176520D01*
X515788Y176504D01*
X515888Y176506D01*
X515988Y176498D01*
X516062Y176509D01*
X516136Y176510D01*
X516233Y176534D01*
X516333Y176549D01*
X516402Y176577D01*
X516474Y176595D01*
X516564Y176641D01*
X516657Y176678D01*
X516718Y176720D01*
X516784Y176755D01*
X516861Y176820D01*
X516943Y176877D01*
X516993Y176932D01*
X517049Y176980D01*
X517109Y177061D01*
X517176Y177136D01*
X517212Y177201D01*
X517257Y177261D01*
X517296Y177353D01*
X517345Y177441D01*
X517365Y177512D01*
X517395Y177581D01*
X517412Y177679D01*
X517440Y177776D01*
X517448Y177876D01*
X517456Y177924D01*
X517454Y177959D01*
X517459Y178020D01*
X517459Y188180D01*
X517448Y188280D01*
X517446Y188380D01*
X517428Y188452D01*
X517419Y188526D01*
X517386Y188621D01*
X517361Y188718D01*
X517327Y188784D01*
X517302Y188854D01*
X517247Y188939D01*
X517201Y189028D01*
X517153Y189085D01*
X517113Y189147D01*
X517041Y189217D01*
X516976Y189293D01*
X516916Y189338D01*
X516862Y189389D01*
X516776Y189441D01*
X516695Y189501D01*
X516627Y189530D01*
X516563Y189568D01*
X516467Y189599D01*
X516375Y189639D01*
X516302Y189652D01*
X516231Y189674D01*
X516131Y189682D01*
X516032Y189700D01*
X515958Y189696D01*
X515884Y189702D01*
X515784Y189687D01*
X515684Y189682D01*
X515613Y189662D01*
X515539Y189651D01*
X515446Y189614D01*
X515349Y189586D01*
X515284Y189549D01*
X515215Y189522D01*
X515133Y189465D01*
X515045Y189416D01*
X514969Y189350D01*
X514929Y189323D01*
X514905Y189297D01*
X514859Y189257D01*
X510511Y184909D01*
X501487Y184909D01*
X501478Y184916D01*
X501460Y184936D01*
X501370Y185003D01*
X501321Y185048D01*
X501292Y185064D01*
X501225Y185117D01*
X501201Y185128D01*
X501180Y185144D01*
X501044Y185202D01*
X501023Y185212D01*
X501016Y185216D01*
X501013Y185217D01*
X500910Y185266D01*
X500884Y185271D01*
X500860Y185282D01*
X500714Y185308D01*
X500569Y185339D01*
X500543Y185339D01*
X500517Y185343D01*
X500369Y185336D01*
X500221Y185333D01*
X500195Y185327D01*
X500169Y185325D01*
X500027Y185284D01*
X499883Y185248D01*
X499860Y185236D01*
X499834Y185229D01*
X499742Y185177D01*
X499731Y185173D01*
X499705Y185156D01*
X499704Y185156D01*
X499573Y185089D01*
X499553Y185072D01*
X499530Y185059D01*
X499457Y184996D01*
X499438Y184984D01*
X499417Y184963D01*
X499344Y184900D01*
X496447Y182003D01*
X494243Y179799D01*
X489680Y179799D01*
X489580Y179788D01*
X489480Y179786D01*
X489408Y179768D01*
X489334Y179759D01*
X489239Y179726D01*
X489142Y179701D01*
X489076Y179667D01*
X489006Y179642D01*
X488921Y179587D01*
X488832Y179541D01*
X488775Y179493D01*
X488713Y179453D01*
X488643Y179381D01*
X488567Y179316D01*
X488522Y179256D01*
X488471Y179202D01*
X488419Y179116D01*
X488359Y179035D01*
X488330Y178967D01*
X488292Y178903D01*
X488261Y178807D01*
X488221Y178715D01*
X488208Y178642D01*
X488186Y178571D01*
X488178Y178471D01*
X488160Y178372D01*
X488164Y178298D01*
X488158Y178224D01*
X488173Y178124D01*
X488178Y178024D01*
X488198Y177953D01*
X488209Y177879D01*
X488246Y177786D01*
X488274Y177689D01*
X488311Y177624D01*
X488338Y177555D01*
X488395Y177473D01*
X488444Y177385D01*
X488510Y177309D01*
X488537Y177269D01*
X488563Y177245D01*
X488603Y177199D01*
X490891Y174911D01*
X490891Y165889D01*
X484511Y159509D01*
X475489Y159509D01*
X472601Y162397D01*
X472523Y162459D01*
X472450Y162529D01*
X472386Y162568D01*
X472328Y162614D01*
X472237Y162657D01*
X472151Y162708D01*
X472080Y162731D01*
X472013Y162763D01*
X471915Y162784D01*
X471819Y162814D01*
X471745Y162820D01*
X471672Y162836D01*
X471572Y162834D01*
X471472Y162842D01*
X471398Y162831D01*
X471324Y162830D01*
X471227Y162806D01*
X471127Y162791D01*
X471058Y162763D01*
X470986Y162745D01*
X470897Y162699D01*
X470803Y162662D01*
X470742Y162619D01*
X470676Y162585D01*
X470600Y162520D01*
X470517Y162463D01*
X470467Y162408D01*
X470411Y162360D01*
X470351Y162279D01*
X470284Y162204D01*
X470248Y162139D01*
X470203Y162079D01*
X470164Y161987D01*
X470115Y161899D01*
X470095Y161828D01*
X470065Y161759D01*
X470048Y161661D01*
X470020Y161564D01*
X470012Y161464D01*
X470004Y161416D01*
X470006Y161381D01*
X470001Y161320D01*
X470001Y154844D01*
X470003Y154827D01*
X470002Y154814D01*
X470012Y154743D01*
X470014Y154643D01*
X470032Y154571D01*
X470041Y154497D01*
X470074Y154403D01*
X470099Y154305D01*
X470133Y154239D01*
X470158Y154169D01*
X470213Y154085D01*
X470259Y153996D01*
X470307Y153939D01*
X470347Y153877D01*
X470419Y153807D01*
X470484Y153730D01*
X470544Y153686D01*
X470598Y153634D01*
X470684Y153583D01*
X470765Y153523D01*
X470833Y153494D01*
X470897Y153455D01*
X470993Y153425D01*
X471085Y153385D01*
X471158Y153372D01*
X471229Y153349D01*
X471329Y153341D01*
X471428Y153323D01*
X471502Y153327D01*
X471576Y153321D01*
X471676Y153336D01*
X471776Y153341D01*
X471847Y153362D01*
X471921Y153373D01*
X472014Y153410D01*
X472111Y153438D01*
X472176Y153474D01*
X472245Y153502D01*
X472327Y153559D01*
X472415Y153608D01*
X472491Y153673D01*
X472531Y153701D01*
X472555Y153727D01*
X472601Y153767D01*
X475265Y156431D01*
X477461Y156431D01*
X477461Y146016D01*
X477464Y145990D01*
X477462Y145964D01*
X477484Y145817D01*
X477501Y145670D01*
X477509Y145645D01*
X477513Y145619D01*
X477568Y145482D01*
X477618Y145342D01*
X477632Y145320D01*
X477642Y145295D01*
X477727Y145174D01*
X477807Y145049D01*
X477826Y145031D01*
X477841Y145009D01*
X477857Y144995D01*
X477775Y144910D01*
X477761Y144887D01*
X477744Y144868D01*
X477672Y144738D01*
X477596Y144611D01*
X477588Y144586D01*
X477575Y144563D01*
X477535Y144420D01*
X477490Y144279D01*
X477487Y144253D01*
X477480Y144228D01*
X477461Y143984D01*
X477461Y133569D01*
X475265Y133569D01*
X472601Y136233D01*
X472523Y136296D01*
X472450Y136366D01*
X472386Y136404D01*
X472328Y136450D01*
X472237Y136493D01*
X472151Y136545D01*
X472080Y136567D01*
X472013Y136599D01*
X471915Y136620D01*
X471819Y136651D01*
X471745Y136657D01*
X471672Y136672D01*
X471572Y136671D01*
X471472Y136679D01*
X471398Y136668D01*
X471324Y136666D01*
X471227Y136642D01*
X471127Y136627D01*
X471058Y136600D01*
X470986Y136581D01*
X470897Y136535D01*
X470803Y136498D01*
X470742Y136456D01*
X470676Y136422D01*
X470600Y136357D01*
X470517Y136299D01*
X470467Y136244D01*
X470411Y136196D01*
X470351Y136115D01*
X470284Y136041D01*
X470248Y135975D01*
X470203Y135916D01*
X470164Y135823D01*
X470115Y135736D01*
X470095Y135664D01*
X470065Y135596D01*
X470048Y135497D01*
X470020Y135400D01*
X470012Y135300D01*
X470004Y135253D01*
X470006Y135217D01*
X470001Y135156D01*
X470001Y132736D01*
X470015Y132611D01*
X470022Y132484D01*
X470035Y132438D01*
X470041Y132390D01*
X470083Y132271D01*
X470118Y132150D01*
X470142Y132107D01*
X470158Y132062D01*
X470227Y131956D01*
X470288Y131845D01*
X470328Y131799D01*
X470347Y131769D01*
X470382Y131736D01*
X470447Y131659D01*
X472025Y130081D01*
X472025Y125919D01*
X469517Y123411D01*
X469455Y123333D01*
X469385Y123260D01*
X469347Y123196D01*
X469300Y123138D01*
X469258Y123047D01*
X469206Y122961D01*
X469183Y122890D01*
X469152Y122823D01*
X469130Y122725D01*
X469100Y122629D01*
X469094Y122555D01*
X469078Y122482D01*
X469080Y122382D01*
X469072Y122282D01*
X469083Y122208D01*
X469084Y122134D01*
X469109Y122037D01*
X469124Y121937D01*
X469151Y121868D01*
X469169Y121796D01*
X469215Y121707D01*
X469252Y121613D01*
X469295Y121552D01*
X469329Y121486D01*
X469394Y121410D01*
X469451Y121327D01*
X469506Y121277D01*
X469555Y121221D01*
X469635Y121161D01*
X469710Y121094D01*
X469775Y121058D01*
X469835Y121013D01*
X469927Y120974D01*
X470015Y120925D01*
X470087Y120905D01*
X470155Y120875D01*
X470254Y120858D01*
X470350Y120830D01*
X470450Y120822D01*
X470498Y120814D01*
X470534Y120816D01*
X470594Y120811D01*
X471123Y120811D01*
X472295Y119639D01*
X472295Y110361D01*
X471123Y109189D01*
X463524Y109189D01*
X463498Y109186D01*
X463472Y109188D01*
X463325Y109166D01*
X463178Y109149D01*
X463153Y109141D01*
X463127Y109137D01*
X462989Y109082D01*
X462850Y109032D01*
X462828Y109018D01*
X462803Y109008D01*
X462682Y108923D01*
X462557Y108843D01*
X462539Y108824D01*
X462517Y108809D01*
X462418Y108699D01*
X462315Y108592D01*
X462301Y108570D01*
X462284Y108550D01*
X462212Y108420D01*
X462136Y108293D01*
X462128Y108268D01*
X462115Y108245D01*
X462075Y108102D01*
X462030Y107961D01*
X462028Y107935D01*
X462020Y107910D01*
X462001Y107666D01*
X462001Y102334D01*
X462004Y102308D01*
X462002Y102282D01*
X462024Y102135D01*
X462041Y101988D01*
X462049Y101963D01*
X462053Y101937D01*
X462108Y101799D01*
X462158Y101660D01*
X462172Y101638D01*
X462182Y101613D01*
X462267Y101492D01*
X462347Y101367D01*
X462366Y101349D01*
X462381Y101327D01*
X462491Y101228D01*
X462598Y101125D01*
X462620Y101111D01*
X462640Y101094D01*
X462770Y101022D01*
X462897Y100946D01*
X462922Y100938D01*
X462945Y100925D01*
X463088Y100885D01*
X463229Y100840D01*
X463255Y100838D01*
X463280Y100830D01*
X463524Y100811D01*
X471123Y100811D01*
X472295Y99639D01*
X472295Y90361D01*
X471123Y89189D01*
X463877Y89189D01*
X463232Y89834D01*
X463212Y89851D01*
X463195Y89871D01*
X463075Y89959D01*
X462959Y90051D01*
X462936Y90062D01*
X462914Y90078D01*
X462778Y90137D01*
X462644Y90200D01*
X462618Y90205D01*
X462594Y90216D01*
X462448Y90242D01*
X462303Y90273D01*
X462277Y90273D01*
X462251Y90277D01*
X462103Y90270D01*
X461955Y90267D01*
X461929Y90261D01*
X461903Y90260D01*
X461761Y90218D01*
X461617Y90182D01*
X461594Y90170D01*
X461568Y90163D01*
X461439Y90091D01*
X461307Y90023D01*
X461287Y90006D01*
X461264Y89993D01*
X461078Y89834D01*
X445752Y74508D01*
X445736Y74488D01*
X445716Y74471D01*
X445627Y74351D01*
X445535Y74235D01*
X445524Y74212D01*
X445509Y74190D01*
X445450Y74054D01*
X445386Y73920D01*
X445381Y73895D01*
X445371Y73870D01*
X445344Y73724D01*
X445313Y73579D01*
X445313Y73553D01*
X445309Y73527D01*
X445316Y73379D01*
X445319Y73231D01*
X445325Y73206D01*
X445327Y73179D01*
X445368Y73037D01*
X445404Y72893D01*
X445416Y72870D01*
X445423Y72845D01*
X445496Y72715D01*
X445564Y72583D01*
X445581Y72563D01*
X445593Y72540D01*
X445752Y72354D01*
X448025Y70081D01*
X448025Y65919D01*
X446447Y64341D01*
X446368Y64242D01*
X446284Y64148D01*
X446260Y64106D01*
X446230Y64068D01*
X446176Y63954D01*
X446115Y63843D01*
X446102Y63796D01*
X446081Y63753D01*
X446055Y63629D01*
X446020Y63508D01*
X446015Y63447D01*
X446008Y63412D01*
X446009Y63364D01*
X446001Y63264D01*
X446001Y37757D01*
X430447Y22203D01*
X430368Y22104D01*
X430284Y22010D01*
X430260Y21968D01*
X430230Y21930D01*
X430176Y21816D01*
X430115Y21705D01*
X430102Y21659D01*
X430081Y21615D01*
X430055Y21492D01*
X430020Y21370D01*
X430015Y21309D01*
X430008Y21274D01*
X430009Y21226D01*
X430001Y21126D01*
X430001Y18024D01*
X430004Y17998D01*
X430002Y17972D01*
X430024Y17825D01*
X430041Y17678D01*
X430049Y17653D01*
X430053Y17627D01*
X430108Y17489D01*
X430158Y17350D01*
X430172Y17328D01*
X430182Y17303D01*
X430267Y17182D01*
X430347Y17057D01*
X430366Y17039D01*
X430381Y17017D01*
X430491Y16918D01*
X430598Y16815D01*
X430620Y16801D01*
X430640Y16784D01*
X430770Y16712D01*
X430897Y16636D01*
X430922Y16628D01*
X430945Y16615D01*
X431088Y16575D01*
X431229Y16530D01*
X431255Y16528D01*
X431280Y16520D01*
X431524Y16501D01*
X437182Y16501D01*
X437208Y16504D01*
X437234Y16502D01*
X437381Y16524D01*
X437528Y16541D01*
X437553Y16549D01*
X437579Y16553D01*
X437717Y16608D01*
X437856Y16658D01*
X437878Y16672D01*
X437903Y16682D01*
X438024Y16766D01*
X438149Y16847D01*
X438167Y16866D01*
X438189Y16881D01*
X438288Y16991D01*
X438391Y17098D01*
X438405Y17120D01*
X438422Y17140D01*
X438494Y17270D01*
X438570Y17397D01*
X438578Y17422D01*
X438591Y17445D01*
X438631Y17588D01*
X438676Y17729D01*
X438678Y17755D01*
X438686Y17780D01*
X438705Y18024D01*
X438705Y18639D01*
X439877Y19811D01*
X447123Y19811D01*
X448366Y18567D01*
X448385Y18514D01*
X448431Y18372D01*
X448444Y18351D01*
X448452Y18327D01*
X448533Y18202D01*
X448610Y18073D01*
X448628Y18055D01*
X448641Y18035D01*
X448749Y17930D01*
X448853Y17823D01*
X448874Y17810D01*
X448892Y17792D01*
X449020Y17715D01*
X449146Y17635D01*
X449170Y17626D01*
X449191Y17614D01*
X449333Y17568D01*
X449475Y17518D01*
X449499Y17515D01*
X449523Y17507D01*
X449672Y17495D01*
X449821Y17478D01*
X449846Y17481D01*
X449870Y17479D01*
X450018Y17502D01*
X450167Y17519D01*
X450190Y17527D01*
X450215Y17531D01*
X450354Y17586D01*
X450495Y17637D01*
X450516Y17651D01*
X450539Y17660D01*
X450662Y17745D01*
X450787Y17827D01*
X450805Y17845D01*
X450825Y17859D01*
X450925Y17970D01*
X451029Y18078D01*
X451042Y18099D01*
X451058Y18117D01*
X451131Y18249D01*
X451207Y18377D01*
X451217Y18405D01*
X451227Y18422D01*
X451240Y18468D01*
X451289Y18608D01*
X451338Y18791D01*
X451673Y19370D01*
X452146Y19843D01*
X452725Y20178D01*
X453371Y20351D01*
X454977Y20351D01*
X454977Y14000D01*
X454977Y7649D01*
X453371Y7649D01*
X452725Y7822D01*
X452146Y8157D01*
X451673Y8630D01*
X451338Y9209D01*
X451289Y9392D01*
X451234Y9532D01*
X451184Y9673D01*
X451170Y9693D01*
X451161Y9717D01*
X451076Y9840D01*
X450995Y9965D01*
X450977Y9983D01*
X450963Y10003D01*
X450852Y10104D01*
X450744Y10208D01*
X450723Y10220D01*
X450705Y10237D01*
X450573Y10310D01*
X450445Y10386D01*
X450421Y10394D01*
X450400Y10406D01*
X450256Y10447D01*
X450113Y10493D01*
X450088Y10495D01*
X450065Y10501D01*
X449915Y10509D01*
X449766Y10521D01*
X449741Y10517D01*
X449716Y10518D01*
X449569Y10491D01*
X449421Y10469D01*
X449398Y10460D01*
X449374Y10455D01*
X449236Y10396D01*
X449097Y10340D01*
X449077Y10326D01*
X449054Y10316D01*
X448934Y10226D01*
X448811Y10141D01*
X448795Y10123D01*
X448775Y10108D01*
X448678Y9993D01*
X448578Y9883D01*
X448566Y9861D01*
X448550Y9842D01*
X448481Y9708D01*
X448409Y9578D01*
X448402Y9554D01*
X448391Y9532D01*
X448367Y9433D01*
X447123Y8189D01*
X439877Y8189D01*
X438626Y9441D01*
X438598Y9511D01*
X438548Y9650D01*
X438534Y9672D01*
X438524Y9697D01*
X438439Y9818D01*
X438359Y9943D01*
X438340Y9961D01*
X438325Y9983D01*
X438215Y10082D01*
X438108Y10185D01*
X438086Y10199D01*
X438066Y10216D01*
X437936Y10288D01*
X437809Y10364D01*
X437784Y10372D01*
X437761Y10385D01*
X437618Y10425D01*
X437477Y10470D01*
X437451Y10472D01*
X437426Y10480D01*
X437182Y10499D01*
X411874Y10499D01*
X411748Y10485D01*
X411622Y10478D01*
X411576Y10465D01*
X411528Y10459D01*
X411409Y10417D01*
X411287Y10382D01*
X411245Y10358D01*
X411200Y10342D01*
X411093Y10273D01*
X410983Y10212D01*
X410937Y10172D01*
X410907Y10153D01*
X410873Y10118D01*
X410797Y10053D01*
X408743Y7999D01*
X398460Y7999D01*
X398334Y7985D01*
X398208Y7978D01*
X398161Y7965D01*
X398113Y7959D01*
X397995Y7917D01*
X397873Y7882D01*
X397831Y7858D01*
X397785Y7842D01*
X397679Y7773D01*
X397569Y7712D01*
X397523Y7672D01*
X397493Y7653D01*
X397459Y7618D01*
X397383Y7553D01*
X396329Y6499D01*
X383524Y6499D01*
X383423Y6488D01*
X383321Y6486D01*
X383250Y6468D01*
X383178Y6459D01*
X383082Y6425D01*
X382983Y6400D01*
X382895Y6358D01*
X382850Y6342D01*
X382819Y6322D01*
X382763Y6295D01*
X382481Y6132D01*
X381835Y5959D01*
X380523Y5959D01*
X380523Y11000D01*
X380520Y11026D01*
X380522Y11052D01*
X380500Y11199D01*
X380484Y11346D01*
X380475Y11371D01*
X380471Y11397D01*
X380416Y11534D01*
X380366Y11674D01*
X380352Y11696D01*
X380342Y11720D01*
X380258Y11842D01*
X380177Y11967D01*
X380158Y11985D01*
X380143Y12007D01*
X380033Y12106D01*
X379926Y12209D01*
X379904Y12222D01*
X379884Y12240D01*
X379754Y12312D01*
X379627Y12388D01*
X379602Y12396D01*
X379579Y12409D01*
X379436Y12449D01*
X379295Y12494D01*
X379269Y12496D01*
X379244Y12503D01*
X379000Y12523D01*
X378974Y12520D01*
X378948Y12522D01*
X378801Y12500D01*
X378654Y12483D01*
X378629Y12474D01*
X378603Y12470D01*
X378465Y12416D01*
X378326Y12366D01*
X378303Y12351D01*
X378279Y12342D01*
X378158Y12257D01*
X378033Y12177D01*
X378014Y12158D01*
X377993Y12143D01*
X377894Y12033D01*
X377791Y11926D01*
X377777Y11903D01*
X377759Y11884D01*
X377688Y11754D01*
X377612Y11627D01*
X377604Y11602D01*
X377591Y11579D01*
X377551Y11436D01*
X377505Y11295D01*
X377503Y11269D01*
X377496Y11243D01*
X377477Y11000D01*
X377477Y5959D01*
X376165Y5959D01*
X375519Y6132D01*
X375403Y6200D01*
X375401Y6200D01*
X375400Y6201D01*
X375244Y6269D01*
X375083Y6338D01*
X375081Y6339D01*
X375080Y6339D01*
X374908Y6370D01*
X374740Y6401D01*
X374739Y6401D01*
X374737Y6401D01*
X374564Y6392D01*
X374392Y6383D01*
X374390Y6383D01*
X374389Y6383D01*
X374227Y6336D01*
X374057Y6287D01*
X374055Y6287D01*
X374054Y6286D01*
X373909Y6205D01*
X373752Y6118D01*
X373751Y6117D01*
X373750Y6116D01*
X373584Y5975D01*
X369419Y5975D01*
X368327Y7067D01*
X368307Y7083D01*
X368290Y7103D01*
X368170Y7191D01*
X368054Y7283D01*
X368030Y7295D01*
X368009Y7310D01*
X367873Y7369D01*
X367739Y7432D01*
X367713Y7438D01*
X367689Y7448D01*
X367543Y7475D01*
X367398Y7506D01*
X367372Y7505D01*
X367346Y7510D01*
X367198Y7502D01*
X367050Y7500D01*
X367024Y7493D01*
X366998Y7492D01*
X366856Y7451D01*
X366712Y7415D01*
X366689Y7403D01*
X366663Y7396D01*
X366534Y7323D01*
X366402Y7255D01*
X366382Y7238D01*
X366359Y7225D01*
X366173Y7067D01*
X365081Y5975D01*
X360919Y5975D01*
X357975Y8919D01*
X357975Y13081D01*
X359043Y14149D01*
X359105Y14228D01*
X359175Y14300D01*
X359213Y14364D01*
X359260Y14422D01*
X359302Y14513D01*
X359354Y14599D01*
X359377Y14670D01*
X359408Y14737D01*
X359430Y14835D01*
X359460Y14931D01*
X359466Y15005D01*
X359482Y15078D01*
X359480Y15178D01*
X359488Y15278D01*
X359477Y15352D01*
X359476Y15426D01*
X359451Y15523D01*
X359436Y15623D01*
X359409Y15692D01*
X359391Y15764D01*
X359345Y15853D01*
X359308Y15947D01*
X359265Y16008D01*
X359231Y16074D01*
X359166Y16150D01*
X359109Y16233D01*
X359054Y16283D01*
X359005Y16339D01*
X358925Y16399D01*
X358850Y16466D01*
X358785Y16502D01*
X358725Y16547D01*
X358633Y16586D01*
X358545Y16635D01*
X358473Y16655D01*
X358405Y16685D01*
X358306Y16702D01*
X358210Y16730D01*
X358110Y16738D01*
X358062Y16746D01*
X358026Y16744D01*
X357966Y16749D01*
X350034Y16749D01*
X349934Y16738D01*
X349834Y16736D01*
X349762Y16718D01*
X349688Y16709D01*
X349594Y16676D01*
X349496Y16651D01*
X349430Y16617D01*
X349360Y16592D01*
X349276Y16537D01*
X349186Y16491D01*
X349130Y16443D01*
X349067Y16403D01*
X348997Y16331D01*
X348921Y16266D01*
X348877Y16206D01*
X348825Y16152D01*
X348773Y16066D01*
X348714Y15985D01*
X348684Y15917D01*
X348646Y15853D01*
X348615Y15757D01*
X348576Y15665D01*
X348563Y15592D01*
X348540Y15521D01*
X348532Y15421D01*
X348514Y15322D01*
X348518Y15248D01*
X348512Y15174D01*
X348527Y15074D01*
X348532Y14974D01*
X348553Y14903D01*
X348564Y14829D01*
X348601Y14736D01*
X348628Y14639D01*
X348665Y14574D01*
X348692Y14505D01*
X348750Y14423D01*
X348799Y14335D01*
X348864Y14259D01*
X348891Y14219D01*
X348918Y14195D01*
X348957Y14149D01*
X350025Y13081D01*
X350025Y8919D01*
X347081Y5975D01*
X342919Y5975D01*
X342077Y6817D01*
X342057Y6833D01*
X342040Y6853D01*
X341920Y6941D01*
X341804Y7033D01*
X341780Y7045D01*
X341759Y7060D01*
X341623Y7119D01*
X341489Y7182D01*
X341463Y7188D01*
X341439Y7198D01*
X341293Y7225D01*
X341148Y7256D01*
X341122Y7255D01*
X341096Y7260D01*
X340948Y7252D01*
X340800Y7250D01*
X340774Y7243D01*
X340748Y7242D01*
X340606Y7201D01*
X340462Y7165D01*
X340439Y7153D01*
X340413Y7146D01*
X340284Y7073D01*
X340152Y7005D01*
X340132Y6988D01*
X340109Y6975D01*
X339923Y6817D01*
X339081Y5975D01*
X334919Y5975D01*
X332077Y8817D01*
X332057Y8833D01*
X332040Y8853D01*
X331920Y8941D01*
X331804Y9033D01*
X331780Y9045D01*
X331759Y9060D01*
X331623Y9119D01*
X331489Y9182D01*
X331463Y9188D01*
X331439Y9198D01*
X331293Y9225D01*
X331148Y9256D01*
X331122Y9255D01*
X331096Y9260D01*
X330948Y9252D01*
X330800Y9250D01*
X330774Y9243D01*
X330748Y9242D01*
X330606Y9201D01*
X330462Y9165D01*
X330439Y9153D01*
X330413Y9146D01*
X330284Y9073D01*
X330152Y9005D01*
X330132Y8988D01*
X330109Y8975D01*
X329923Y8817D01*
X327081Y5975D01*
X322919Y5975D01*
X320077Y8817D01*
X320057Y8833D01*
X320040Y8853D01*
X319920Y8941D01*
X319804Y9033D01*
X319780Y9045D01*
X319759Y9060D01*
X319623Y9119D01*
X319489Y9182D01*
X319463Y9188D01*
X319439Y9198D01*
X319293Y9225D01*
X319148Y9256D01*
X319122Y9255D01*
X319096Y9260D01*
X318948Y9252D01*
X318800Y9250D01*
X318774Y9243D01*
X318748Y9242D01*
X318606Y9201D01*
X318462Y9165D01*
X318439Y9153D01*
X318413Y9146D01*
X318284Y9073D01*
X318152Y9005D01*
X318132Y8988D01*
X318109Y8975D01*
X317923Y8817D01*
X315081Y5975D01*
X310919Y5975D01*
X310077Y6817D01*
X310057Y6833D01*
X310040Y6853D01*
X309920Y6941D01*
X309804Y7033D01*
X309780Y7045D01*
X309759Y7060D01*
X309623Y7119D01*
X309489Y7182D01*
X309463Y7188D01*
X309439Y7198D01*
X309293Y7225D01*
X309148Y7256D01*
X309122Y7255D01*
X309096Y7260D01*
X308948Y7252D01*
X308800Y7250D01*
X308774Y7243D01*
X308748Y7242D01*
X308606Y7201D01*
X308462Y7165D01*
X308439Y7153D01*
X308413Y7146D01*
X308284Y7073D01*
X308152Y7005D01*
X308132Y6988D01*
X308109Y6975D01*
X307923Y6817D01*
X307081Y5975D01*
X302919Y5975D01*
X302077Y6817D01*
X302057Y6833D01*
X302040Y6853D01*
X301920Y6941D01*
X301804Y7033D01*
X301780Y7045D01*
X301759Y7060D01*
X301623Y7119D01*
X301489Y7182D01*
X301463Y7188D01*
X301439Y7198D01*
X301293Y7225D01*
X301148Y7256D01*
X301122Y7255D01*
X301096Y7260D01*
X300948Y7252D01*
X300800Y7250D01*
X300774Y7243D01*
X300748Y7242D01*
X300606Y7201D01*
X300462Y7165D01*
X300439Y7153D01*
X300413Y7146D01*
X300284Y7073D01*
X300152Y7005D01*
X300132Y6988D01*
X300109Y6975D01*
X299923Y6817D01*
X299081Y5975D01*
X294919Y5975D01*
X291975Y8919D01*
X291975Y13081D01*
X293043Y14149D01*
X293105Y14228D01*
X293175Y14300D01*
X293213Y14364D01*
X293260Y14422D01*
X293302Y14513D01*
X293354Y14599D01*
X293377Y14670D01*
X293408Y14737D01*
X293430Y14835D01*
X293460Y14931D01*
X293466Y15005D01*
X293482Y15078D01*
X293480Y15178D01*
X293488Y15278D01*
X293477Y15352D01*
X293476Y15426D01*
X293451Y15523D01*
X293436Y15623D01*
X293409Y15692D01*
X293391Y15764D01*
X293345Y15853D01*
X293308Y15947D01*
X293265Y16008D01*
X293231Y16074D01*
X293166Y16150D01*
X293109Y16233D01*
X293054Y16283D01*
X293005Y16339D01*
X292925Y16399D01*
X292850Y16466D01*
X292785Y16502D01*
X292725Y16547D01*
X292633Y16586D01*
X292545Y16635D01*
X292473Y16655D01*
X292405Y16685D01*
X292306Y16702D01*
X292210Y16730D01*
X292110Y16738D01*
X292062Y16746D01*
X292026Y16744D01*
X291966Y16749D01*
X287671Y16749D01*
X286737Y17683D01*
X286717Y17699D01*
X286700Y17719D01*
X286580Y17808D01*
X286464Y17900D01*
X286441Y17911D01*
X286420Y17927D01*
X286283Y17985D01*
X286149Y18049D01*
X286124Y18054D01*
X286100Y18065D01*
X285953Y18091D01*
X285809Y18122D01*
X285783Y18122D01*
X285757Y18126D01*
X285608Y18119D01*
X285460Y18116D01*
X285435Y18110D01*
X285409Y18108D01*
X285266Y18067D01*
X285122Y18031D01*
X285099Y18019D01*
X285074Y18012D01*
X284944Y17939D01*
X284812Y17871D01*
X284792Y17854D01*
X284769Y17842D01*
X284583Y17683D01*
X282521Y15621D01*
X279152Y18990D01*
X282970Y22807D01*
X283899Y21878D01*
X283977Y21816D01*
X284050Y21746D01*
X284114Y21708D01*
X284172Y21662D01*
X284263Y21619D01*
X284349Y21567D01*
X284420Y21545D01*
X284487Y21513D01*
X284585Y21492D01*
X284681Y21461D01*
X284755Y21455D01*
X284828Y21439D01*
X284928Y21441D01*
X285028Y21433D01*
X285102Y21444D01*
X285176Y21445D01*
X285274Y21470D01*
X285373Y21485D01*
X285442Y21512D01*
X285514Y21530D01*
X285604Y21576D01*
X285697Y21614D01*
X285758Y21656D01*
X285824Y21690D01*
X285901Y21755D01*
X285983Y21812D01*
X286033Y21868D01*
X286089Y21916D01*
X286149Y21997D01*
X286216Y22071D01*
X286252Y22136D01*
X286297Y22196D01*
X286336Y22288D01*
X286385Y22376D01*
X286405Y22448D01*
X286435Y22516D01*
X286452Y22615D01*
X286480Y22712D01*
X286488Y22812D01*
X286496Y22859D01*
X286494Y22895D01*
X286499Y22955D01*
X286499Y32079D01*
X286553Y32133D01*
X286632Y32232D01*
X286716Y32325D01*
X286740Y32368D01*
X286770Y32406D01*
X286824Y32520D01*
X286885Y32631D01*
X286898Y32677D01*
X286919Y32721D01*
X286945Y32844D01*
X286980Y32966D01*
X286985Y33027D01*
X286992Y33061D01*
X286991Y33109D01*
X286999Y33210D01*
X286999Y35243D01*
X298248Y46492D01*
X298264Y46512D01*
X298284Y46529D01*
X298373Y46649D01*
X298465Y46765D01*
X298476Y46788D01*
X298491Y46810D01*
X298550Y46946D01*
X298614Y47080D01*
X298619Y47105D01*
X298629Y47130D01*
X298656Y47276D01*
X298687Y47420D01*
X298687Y47447D01*
X298691Y47473D01*
X298684Y47621D01*
X298681Y47769D01*
X298675Y47794D01*
X298673Y47821D01*
X298632Y47963D01*
X298596Y48107D01*
X298584Y48130D01*
X298577Y48155D01*
X298504Y48285D01*
X298436Y48417D01*
X298419Y48437D01*
X298407Y48460D01*
X298248Y48646D01*
X296975Y49919D01*
X296975Y54081D01*
X299919Y57025D01*
X304081Y57025D01*
X307025Y54081D01*
X307025Y49919D01*
X305447Y48341D01*
X305368Y48242D01*
X305284Y48148D01*
X305260Y48106D01*
X305230Y48068D01*
X305176Y47954D01*
X305115Y47843D01*
X305102Y47796D01*
X305081Y47753D01*
X305055Y47629D01*
X305020Y47508D01*
X305015Y47447D01*
X305008Y47412D01*
X305009Y47364D01*
X305001Y47264D01*
X305001Y44757D01*
X302797Y42553D01*
X296095Y35851D01*
X296032Y35773D01*
X295963Y35700D01*
X295924Y35636D01*
X295878Y35578D01*
X295835Y35487D01*
X295784Y35401D01*
X295761Y35330D01*
X295729Y35263D01*
X295708Y35165D01*
X295677Y35069D01*
X295671Y34995D01*
X295656Y34922D01*
X295658Y34822D01*
X295649Y34722D01*
X295661Y34648D01*
X295662Y34574D01*
X295686Y34477D01*
X295701Y34377D01*
X295729Y34308D01*
X295747Y34236D01*
X295793Y34146D01*
X295830Y34053D01*
X295872Y33992D01*
X295906Y33926D01*
X295972Y33849D01*
X296029Y33767D01*
X296084Y33717D01*
X296132Y33661D01*
X296213Y33601D01*
X296288Y33534D01*
X296353Y33498D01*
X296413Y33453D01*
X296505Y33414D01*
X296593Y33365D01*
X296664Y33345D01*
X296733Y33315D01*
X296831Y33298D01*
X296928Y33270D01*
X297028Y33262D01*
X297076Y33254D01*
X297111Y33256D01*
X297172Y33251D01*
X401476Y33251D01*
X401577Y33262D01*
X401679Y33264D01*
X401750Y33282D01*
X401822Y33291D01*
X401918Y33325D01*
X402017Y33350D01*
X402105Y33392D01*
X402150Y33408D01*
X402181Y33428D01*
X402237Y33455D01*
X402519Y33618D01*
X403165Y33791D01*
X403477Y33791D01*
X403477Y32734D01*
X403483Y32677D01*
X403481Y32619D01*
X403489Y32576D01*
X403490Y32534D01*
X403508Y32462D01*
X403516Y32388D01*
X403536Y32333D01*
X403547Y32277D01*
X403565Y32237D01*
X403575Y32196D01*
X403609Y32130D01*
X403634Y32060D01*
X403665Y32011D01*
X403689Y31959D01*
X403720Y31914D01*
X403735Y31886D01*
X403767Y31848D01*
X403812Y31783D01*
X403823Y31767D01*
X403826Y31764D01*
X403830Y31759D01*
X403899Y31693D01*
X403960Y31620D01*
X404020Y31576D01*
X404074Y31525D01*
X404078Y31522D01*
X404082Y31518D01*
X404164Y31470D01*
X404241Y31413D01*
X404310Y31383D01*
X404373Y31346D01*
X404377Y31344D01*
X404382Y31341D01*
X404473Y31313D01*
X404561Y31275D01*
X404635Y31262D01*
X404705Y31239D01*
X404709Y31239D01*
X404715Y31237D01*
X404810Y31230D01*
X404904Y31213D01*
X404979Y31217D01*
X405052Y31211D01*
X405057Y31212D01*
X405063Y31212D01*
X405157Y31226D01*
X405252Y31231D01*
X405324Y31252D01*
X405397Y31263D01*
X405401Y31265D01*
X405407Y31266D01*
X405495Y31302D01*
X405587Y31328D01*
X405652Y31365D01*
X405721Y31392D01*
X405725Y31395D01*
X405730Y31397D01*
X405808Y31452D01*
X405891Y31498D01*
X405968Y31563D01*
X406007Y31591D01*
X406010Y31595D01*
X406015Y31598D01*
X406036Y31622D01*
X406077Y31657D01*
X406156Y31756D01*
X406240Y31850D01*
X406243Y31854D01*
X406246Y31858D01*
X406267Y31896D01*
X406294Y31930D01*
X406348Y32044D01*
X406409Y32155D01*
X406410Y32160D01*
X406413Y32164D01*
X406424Y32205D01*
X406443Y32245D01*
X406469Y32368D01*
X406504Y32490D01*
X406504Y32497D01*
X406505Y32500D01*
X406506Y32516D01*
X406509Y32551D01*
X406516Y32586D01*
X406515Y32634D01*
X406523Y32734D01*
X406523Y33791D01*
X406835Y33791D01*
X407481Y33618D01*
X407763Y33455D01*
X407856Y33414D01*
X407945Y33365D01*
X408015Y33345D01*
X408082Y33316D01*
X408182Y33298D01*
X408280Y33270D01*
X408378Y33262D01*
X408425Y33254D01*
X408462Y33256D01*
X408524Y33251D01*
X412329Y33251D01*
X413501Y32079D01*
X413501Y18024D01*
X413504Y17998D01*
X413502Y17972D01*
X413524Y17825D01*
X413541Y17678D01*
X413549Y17653D01*
X413553Y17627D01*
X413608Y17489D01*
X413658Y17350D01*
X413672Y17328D01*
X413682Y17303D01*
X413767Y17182D01*
X413847Y17057D01*
X413866Y17039D01*
X413881Y17017D01*
X413991Y16918D01*
X414098Y16815D01*
X414120Y16801D01*
X414140Y16784D01*
X414270Y16712D01*
X414397Y16636D01*
X414422Y16628D01*
X414445Y16615D01*
X414588Y16575D01*
X414729Y16530D01*
X414755Y16528D01*
X414780Y16520D01*
X415024Y16501D01*
X422476Y16501D01*
X422502Y16504D01*
X422528Y16502D01*
X422675Y16524D01*
X422822Y16541D01*
X422847Y16549D01*
X422873Y16553D01*
X423011Y16608D01*
X423150Y16658D01*
X423172Y16672D01*
X423197Y16682D01*
X423318Y16766D01*
X423443Y16847D01*
X423461Y16866D01*
X423483Y16881D01*
X423582Y16991D01*
X423685Y17098D01*
X423699Y17120D01*
X423716Y17140D01*
X423788Y17270D01*
X423864Y17397D01*
X423872Y17422D01*
X423885Y17445D01*
X423925Y17588D01*
X423970Y17729D01*
X423972Y17755D01*
X423980Y17780D01*
X423999Y18024D01*
X423999Y24243D01*
X426203Y26447D01*
X438655Y38899D01*
X438718Y38977D01*
X438787Y39050D01*
X438826Y39114D01*
X438872Y39172D01*
X438915Y39263D01*
X438966Y39349D01*
X438989Y39420D01*
X439021Y39487D01*
X439042Y39585D01*
X439073Y39681D01*
X439079Y39755D01*
X439094Y39828D01*
X439092Y39928D01*
X439101Y40028D01*
X439089Y40102D01*
X439088Y40176D01*
X439064Y40273D01*
X439049Y40373D01*
X439021Y40442D01*
X439003Y40514D01*
X438957Y40604D01*
X438920Y40697D01*
X438878Y40758D01*
X438844Y40824D01*
X438778Y40901D01*
X438721Y40983D01*
X438666Y41033D01*
X438618Y41089D01*
X438537Y41149D01*
X438462Y41216D01*
X438397Y41252D01*
X438337Y41297D01*
X438245Y41336D01*
X438157Y41385D01*
X438086Y41405D01*
X438017Y41435D01*
X437919Y41452D01*
X437822Y41480D01*
X437722Y41488D01*
X437674Y41496D01*
X437639Y41494D01*
X437578Y41499D01*
X422921Y41499D01*
X422867Y41553D01*
X422768Y41632D01*
X422675Y41716D01*
X422632Y41740D01*
X422594Y41770D01*
X422480Y41824D01*
X422370Y41885D01*
X422323Y41898D01*
X422279Y41919D01*
X422156Y41945D01*
X422034Y41980D01*
X421973Y41985D01*
X421939Y41992D01*
X421891Y41991D01*
X421790Y41999D01*
X389498Y41999D01*
X389373Y41985D01*
X389247Y41978D01*
X389200Y41965D01*
X389152Y41959D01*
X389033Y41917D01*
X388912Y41882D01*
X388870Y41858D01*
X388824Y41842D01*
X388718Y41773D01*
X388608Y41712D01*
X388561Y41672D01*
X388531Y41653D01*
X388498Y41618D01*
X388421Y41553D01*
X383597Y36729D01*
X357027Y36729D01*
X350227Y43529D01*
X350128Y43608D01*
X350034Y43692D01*
X349992Y43716D01*
X349954Y43746D01*
X349840Y43800D01*
X349729Y43861D01*
X349683Y43874D01*
X349639Y43895D01*
X349516Y43921D01*
X349394Y43956D01*
X349333Y43961D01*
X349298Y43968D01*
X349250Y43967D01*
X349150Y43975D01*
X346919Y43975D01*
X343975Y46919D01*
X343975Y51081D01*
X346919Y54025D01*
X351081Y54025D01*
X351923Y53183D01*
X351943Y53167D01*
X351960Y53147D01*
X352080Y53058D01*
X352196Y52967D01*
X352220Y52955D01*
X352241Y52940D01*
X352377Y52881D01*
X352511Y52818D01*
X352537Y52812D01*
X352561Y52802D01*
X352707Y52775D01*
X352852Y52744D01*
X352878Y52745D01*
X352904Y52740D01*
X353052Y52748D01*
X353200Y52750D01*
X353226Y52757D01*
X353252Y52758D01*
X353394Y52799D01*
X353538Y52835D01*
X353561Y52847D01*
X353587Y52854D01*
X353716Y52927D01*
X353848Y52995D01*
X353868Y53012D01*
X353891Y53025D01*
X354077Y53183D01*
X355919Y55025D01*
X360081Y55025D01*
X363025Y52081D01*
X363025Y49850D01*
X363039Y49724D01*
X363046Y49598D01*
X363059Y49552D01*
X363065Y49504D01*
X363107Y49385D01*
X363142Y49263D01*
X363166Y49221D01*
X363182Y49176D01*
X363251Y49069D01*
X363312Y48959D01*
X363352Y48913D01*
X363371Y48883D01*
X363406Y48849D01*
X363471Y48773D01*
X364797Y47447D01*
X364896Y47368D01*
X364990Y47284D01*
X365032Y47260D01*
X365070Y47230D01*
X365184Y47176D01*
X365295Y47115D01*
X365341Y47102D01*
X365385Y47081D01*
X365508Y47055D01*
X365630Y47020D01*
X365691Y47015D01*
X365726Y47008D01*
X365774Y47009D01*
X365874Y47001D01*
X371452Y47001D01*
X371478Y47004D01*
X371504Y47002D01*
X371651Y47024D01*
X371798Y47041D01*
X371823Y47049D01*
X371849Y47053D01*
X371987Y47108D01*
X372126Y47158D01*
X372148Y47172D01*
X372173Y47182D01*
X372294Y47267D01*
X372419Y47347D01*
X372437Y47366D01*
X372459Y47381D01*
X372558Y47491D01*
X372661Y47598D01*
X372675Y47620D01*
X372692Y47640D01*
X372764Y47770D01*
X372840Y47897D01*
X372848Y47922D01*
X372861Y47945D01*
X372901Y48088D01*
X372946Y48229D01*
X372948Y48255D01*
X372956Y48280D01*
X372975Y48524D01*
X372975Y53081D01*
X375919Y56025D01*
X380150Y56025D01*
X380151Y56024D01*
X380172Y56009D01*
X380308Y55950D01*
X380442Y55886D01*
X380468Y55881D01*
X380492Y55871D01*
X380638Y55844D01*
X380783Y55813D01*
X380809Y55813D01*
X380835Y55809D01*
X380983Y55816D01*
X381131Y55819D01*
X381157Y55825D01*
X381183Y55827D01*
X381325Y55868D01*
X381469Y55904D01*
X381493Y55916D01*
X381518Y55923D01*
X381647Y55996D01*
X381779Y56064D01*
X381799Y56081D01*
X381822Y56093D01*
X382008Y56252D01*
X405553Y79797D01*
X405632Y79896D01*
X405716Y79990D01*
X405740Y80032D01*
X405770Y80070D01*
X405824Y80184D01*
X405885Y80295D01*
X405898Y80341D01*
X405919Y80385D01*
X405945Y80508D01*
X405980Y80630D01*
X405985Y80691D01*
X405992Y80726D01*
X405991Y80774D01*
X405999Y80874D01*
X405999Y101452D01*
X405996Y101478D01*
X405998Y101504D01*
X405976Y101651D01*
X405959Y101798D01*
X405951Y101823D01*
X405947Y101849D01*
X405892Y101987D01*
X405842Y102126D01*
X405828Y102148D01*
X405818Y102173D01*
X405733Y102294D01*
X405653Y102419D01*
X405634Y102437D01*
X405619Y102459D01*
X405509Y102558D01*
X405402Y102661D01*
X405380Y102675D01*
X405360Y102692D01*
X405230Y102764D01*
X405103Y102840D01*
X405078Y102848D01*
X405055Y102861D01*
X404912Y102901D01*
X404771Y102946D01*
X404745Y102948D01*
X404720Y102956D01*
X404476Y102975D01*
X400919Y102975D01*
X397975Y105919D01*
X397975Y110081D01*
X399553Y111659D01*
X399632Y111758D01*
X399716Y111852D01*
X399740Y111894D01*
X399770Y111932D01*
X399824Y112046D01*
X399885Y112157D01*
X399898Y112204D01*
X399919Y112247D01*
X399945Y112371D01*
X399980Y112492D01*
X399985Y112553D01*
X399992Y112588D01*
X399991Y112636D01*
X399999Y112736D01*
X399999Y116126D01*
X399985Y116252D01*
X399978Y116378D01*
X399965Y116424D01*
X399959Y116472D01*
X399917Y116591D01*
X399882Y116713D01*
X399858Y116755D01*
X399842Y116800D01*
X399773Y116907D01*
X399712Y117017D01*
X399672Y117063D01*
X399653Y117093D01*
X399618Y117127D01*
X399553Y117203D01*
X390999Y125757D01*
X390999Y159243D01*
X405365Y173609D01*
X405428Y173687D01*
X405497Y173760D01*
X405536Y173824D01*
X405582Y173882D01*
X405625Y173973D01*
X405655Y174023D01*
X405685Y174042D01*
X405721Y174056D01*
X405832Y174133D01*
X405948Y174206D01*
X405983Y174238D01*
X406007Y174255D01*
X406040Y174292D01*
X406127Y174373D01*
X406180Y174447D01*
X406240Y174514D01*
X406281Y174588D01*
X406331Y174656D01*
X406365Y174740D01*
X406409Y174819D01*
X406432Y174900D01*
X406464Y174978D01*
X406479Y175067D01*
X406504Y175154D01*
X406513Y175273D01*
X406521Y175322D01*
X406520Y175351D01*
X406523Y175398D01*
X406523Y177266D01*
X406519Y177308D01*
X406521Y177351D01*
X406511Y177409D01*
X406510Y177466D01*
X406492Y177538D01*
X406484Y177612D01*
X406469Y177652D01*
X406462Y177694D01*
X406439Y177748D01*
X406425Y177804D01*
X406391Y177870D01*
X406366Y177940D01*
X406343Y177976D01*
X406327Y178015D01*
X406284Y178078D01*
X406265Y178114D01*
X406237Y178148D01*
X406190Y178218D01*
X406189Y178218D01*
X406182Y178225D01*
X406177Y178233D01*
X406105Y178303D01*
X406040Y178380D01*
X405988Y178418D01*
X405942Y178463D01*
X405933Y178469D01*
X405926Y178475D01*
X405841Y178527D01*
X405759Y178587D01*
X405700Y178612D01*
X405645Y178646D01*
X405635Y178649D01*
X405627Y178654D01*
X405533Y178685D01*
X405439Y178725D01*
X405376Y178736D01*
X405315Y178757D01*
X405304Y178758D01*
X405295Y178761D01*
X405197Y178768D01*
X405096Y178787D01*
X405032Y178783D01*
X404968Y178789D01*
X404957Y178788D01*
X404948Y178789D01*
X404948Y178788D01*
X404850Y178774D01*
X404748Y178769D01*
X404686Y178751D01*
X404623Y178742D01*
X404612Y178738D01*
X404603Y178737D01*
X404511Y178700D01*
X404413Y178672D01*
X404357Y178641D01*
X404297Y178618D01*
X404288Y178612D01*
X404279Y178608D01*
X404197Y178551D01*
X404109Y178502D01*
X404045Y178447D01*
X404008Y178422D01*
X404001Y178415D01*
X403993Y178409D01*
X403969Y178383D01*
X403923Y178343D01*
X403850Y178252D01*
X403771Y178167D01*
X403766Y178158D01*
X403759Y178150D01*
X403736Y178108D01*
X403706Y178070D01*
X403656Y177964D01*
X403599Y177864D01*
X403596Y177855D01*
X403591Y177845D01*
X403578Y177799D01*
X403557Y177755D01*
X403532Y177640D01*
X403500Y177530D01*
X403499Y177520D01*
X403496Y177510D01*
X403491Y177449D01*
X403484Y177414D01*
X403485Y177366D01*
X403477Y177266D01*
X403477Y176209D01*
X403165Y176209D01*
X402519Y176382D01*
X402237Y176545D01*
X402144Y176586D01*
X402055Y176635D01*
X401985Y176655D01*
X401918Y176684D01*
X401818Y176702D01*
X401720Y176730D01*
X401622Y176738D01*
X401575Y176746D01*
X401538Y176744D01*
X401476Y176749D01*
X384524Y176749D01*
X384498Y176746D01*
X384472Y176748D01*
X384325Y176726D01*
X384178Y176709D01*
X384153Y176701D01*
X384127Y176697D01*
X383989Y176642D01*
X383850Y176592D01*
X383828Y176578D01*
X383803Y176568D01*
X383681Y176483D01*
X383557Y176403D01*
X383539Y176384D01*
X383517Y176369D01*
X383418Y176259D01*
X383315Y176152D01*
X383301Y176130D01*
X383284Y176110D01*
X383212Y175980D01*
X383136Y175853D01*
X383128Y175828D01*
X383115Y175805D01*
X383075Y175662D01*
X383030Y175521D01*
X383028Y175495D01*
X383020Y175470D01*
X383001Y175226D01*
X383001Y129736D01*
X383015Y129611D01*
X383022Y129484D01*
X383035Y129438D01*
X383041Y129390D01*
X383083Y129271D01*
X383118Y129150D01*
X383142Y129107D01*
X383158Y129062D01*
X383227Y128956D01*
X383288Y128845D01*
X383328Y128799D01*
X383347Y128769D01*
X383382Y128736D01*
X383447Y128659D01*
X386525Y125581D01*
X386525Y121419D01*
X385927Y120821D01*
X385910Y120800D01*
X385890Y120783D01*
X385802Y120664D01*
X385710Y120548D01*
X385699Y120524D01*
X385683Y120503D01*
X385624Y120367D01*
X385561Y120232D01*
X385556Y120207D01*
X385545Y120183D01*
X385519Y120037D01*
X385488Y119892D01*
X385488Y119866D01*
X385483Y119840D01*
X385491Y119691D01*
X385494Y119543D01*
X385500Y119518D01*
X385501Y119492D01*
X385542Y119349D01*
X385579Y119205D01*
X385591Y119182D01*
X385598Y119157D01*
X385670Y119027D01*
X385738Y118896D01*
X385755Y118876D01*
X385768Y118853D01*
X385927Y118666D01*
X387268Y117325D01*
X387268Y115093D01*
X387283Y114968D01*
X387289Y114841D01*
X387303Y114795D01*
X387308Y114747D01*
X387351Y114628D01*
X387386Y114507D01*
X387409Y114465D01*
X387426Y114419D01*
X387494Y114313D01*
X387556Y114202D01*
X387595Y114156D01*
X387615Y114126D01*
X387649Y114093D01*
X387714Y114016D01*
X388001Y113730D01*
X388001Y98757D01*
X374936Y85693D01*
X374875Y85653D01*
X374805Y85581D01*
X374728Y85516D01*
X374684Y85456D01*
X374633Y85402D01*
X374581Y85316D01*
X374521Y85235D01*
X374492Y85167D01*
X374454Y85103D01*
X374423Y85007D01*
X374383Y84915D01*
X374370Y84842D01*
X374347Y84771D01*
X374339Y84671D01*
X374322Y84572D01*
X374325Y84498D01*
X374319Y84424D01*
X374334Y84324D01*
X374340Y84224D01*
X374360Y84153D01*
X374371Y84079D01*
X374408Y83986D01*
X374436Y83889D01*
X374472Y83824D01*
X374500Y83755D01*
X374557Y83673D01*
X374606Y83585D01*
X374671Y83509D01*
X374699Y83469D01*
X374725Y83445D01*
X374765Y83399D01*
X377525Y80639D01*
X377525Y76476D01*
X374581Y73533D01*
X370419Y73533D01*
X368606Y75346D01*
X368585Y75362D01*
X368568Y75382D01*
X368449Y75470D01*
X368333Y75562D01*
X368309Y75573D01*
X368288Y75589D01*
X368152Y75648D01*
X368018Y75711D01*
X367992Y75717D01*
X367968Y75727D01*
X367822Y75753D01*
X367677Y75785D01*
X367651Y75784D01*
X367625Y75789D01*
X367477Y75781D01*
X367329Y75779D01*
X367303Y75772D01*
X367277Y75771D01*
X367135Y75730D01*
X366991Y75694D01*
X366967Y75682D01*
X366942Y75674D01*
X366813Y75602D01*
X366681Y75534D01*
X366661Y75517D01*
X366638Y75504D01*
X366452Y75346D01*
X365081Y73975D01*
X361548Y73975D01*
X361522Y73972D01*
X361496Y73974D01*
X361349Y73952D01*
X361202Y73935D01*
X361177Y73927D01*
X361151Y73923D01*
X361013Y73868D01*
X360874Y73818D01*
X360852Y73804D01*
X360827Y73794D01*
X360706Y73709D01*
X360581Y73629D01*
X360563Y73610D01*
X360541Y73595D01*
X360442Y73485D01*
X360339Y73378D01*
X360325Y73356D01*
X360308Y73336D01*
X360236Y73206D01*
X360160Y73079D01*
X360152Y73054D01*
X360141Y73035D01*
X357081Y69975D01*
X352919Y69975D01*
X349859Y73035D01*
X349818Y73150D01*
X349804Y73172D01*
X349794Y73197D01*
X349709Y73318D01*
X349629Y73443D01*
X349610Y73461D01*
X349595Y73483D01*
X349485Y73582D01*
X349378Y73685D01*
X349356Y73699D01*
X349336Y73716D01*
X349206Y73788D01*
X349079Y73864D01*
X349054Y73872D01*
X349031Y73885D01*
X348888Y73925D01*
X348747Y73970D01*
X348721Y73972D01*
X348696Y73980D01*
X348452Y73999D01*
X339757Y73999D01*
X286999Y126757D01*
X286999Y150126D01*
X286985Y150252D01*
X286978Y150378D01*
X286965Y150424D01*
X286959Y150472D01*
X286917Y150591D01*
X286882Y150713D01*
X286858Y150755D01*
X286842Y150800D01*
X286773Y150907D01*
X286712Y151017D01*
X286672Y151063D01*
X286653Y151093D01*
X286618Y151127D01*
X286553Y151203D01*
X281203Y156553D01*
X281104Y156632D01*
X281010Y156716D01*
X280968Y156740D01*
X280930Y156770D01*
X280816Y156824D01*
X280705Y156885D01*
X280659Y156898D01*
X280615Y156919D01*
X280492Y156945D01*
X280370Y156980D01*
X280309Y156985D01*
X280274Y156992D01*
X280226Y156991D01*
X280126Y156999D01*
X279774Y156999D01*
X279748Y156996D01*
X279722Y156998D01*
X279575Y156976D01*
X279428Y156959D01*
X279403Y156951D01*
X279377Y156947D01*
X279239Y156892D01*
X279100Y156842D01*
X279078Y156828D01*
X279053Y156818D01*
X278932Y156733D01*
X278807Y156653D01*
X278789Y156634D01*
X278767Y156619D01*
X278668Y156509D01*
X278565Y156402D01*
X278551Y156380D01*
X278534Y156360D01*
X278462Y156230D01*
X278386Y156103D01*
X278378Y156078D01*
X278365Y156055D01*
X278325Y155912D01*
X278280Y155771D01*
X278278Y155745D01*
X278270Y155720D01*
X278251Y155476D01*
X278251Y64524D01*
X278254Y64498D01*
X278252Y64472D01*
X278274Y64325D01*
X278291Y64178D01*
X278299Y64153D01*
X278303Y64127D01*
X278358Y63989D01*
X278408Y63850D01*
X278422Y63828D01*
X278432Y63803D01*
X278517Y63682D01*
X278597Y63557D01*
X278616Y63539D01*
X278631Y63517D01*
X278741Y63418D01*
X278848Y63315D01*
X278870Y63301D01*
X278890Y63284D01*
X279020Y63212D01*
X279147Y63136D01*
X279172Y63128D01*
X279195Y63115D01*
X279338Y63075D01*
X279479Y63030D01*
X279505Y63028D01*
X279530Y63020D01*
X279774Y63001D01*
X281264Y63001D01*
X281389Y63015D01*
X281516Y63022D01*
X281562Y63035D01*
X281610Y63041D01*
X281729Y63083D01*
X281850Y63118D01*
X281893Y63142D01*
X281938Y63158D01*
X282044Y63227D01*
X282155Y63288D01*
X282201Y63328D01*
X282231Y63347D01*
X282264Y63382D01*
X282341Y63447D01*
X283919Y65025D01*
X288081Y65025D01*
X291025Y62081D01*
X291025Y57919D01*
X288081Y54975D01*
X286946Y54975D01*
X286846Y54964D01*
X286746Y54962D01*
X286673Y54944D01*
X286600Y54935D01*
X286505Y54902D01*
X286408Y54877D01*
X286342Y54843D01*
X286272Y54818D01*
X286187Y54763D01*
X286098Y54717D01*
X286041Y54669D01*
X285979Y54629D01*
X285909Y54557D01*
X285832Y54492D01*
X285788Y54432D01*
X285737Y54378D01*
X285685Y54292D01*
X285625Y54211D01*
X285596Y54143D01*
X285558Y54079D01*
X285527Y53983D01*
X285487Y53891D01*
X285474Y53818D01*
X285451Y53747D01*
X285443Y53647D01*
X285426Y53548D01*
X285429Y53474D01*
X285423Y53400D01*
X285438Y53300D01*
X285444Y53200D01*
X285464Y53129D01*
X285475Y53055D01*
X285512Y52962D01*
X285540Y52865D01*
X285576Y52800D01*
X285604Y52731D01*
X285661Y52649D01*
X285710Y52561D01*
X285775Y52484D01*
X285803Y52445D01*
X285829Y52421D01*
X285869Y52375D01*
X287001Y51243D01*
X287001Y39757D01*
X277510Y30266D01*
X277478Y30226D01*
X277440Y30192D01*
X277370Y30090D01*
X277293Y29993D01*
X277271Y29947D01*
X277242Y29905D01*
X277197Y29790D01*
X277144Y29678D01*
X277134Y29628D01*
X277115Y29581D01*
X277097Y29458D01*
X277071Y29337D01*
X277072Y29286D01*
X277064Y29236D01*
X277075Y29112D01*
X277077Y28989D01*
X277089Y28940D01*
X277094Y28888D01*
X277132Y28771D01*
X277162Y28651D01*
X277185Y28606D01*
X277201Y28557D01*
X277265Y28451D01*
X277322Y28341D01*
X277355Y28302D01*
X277381Y28258D01*
X277467Y28170D01*
X277547Y28076D01*
X277588Y28045D01*
X277624Y28009D01*
X277825Y27870D01*
X277828Y27869D01*
X278019Y27758D01*
X279828Y25949D01*
X276010Y22132D01*
X272642Y25500D01*
X272682Y25541D01*
X272753Y25629D01*
X272830Y25713D01*
X272861Y25766D01*
X272899Y25814D01*
X272947Y25916D01*
X273004Y26015D01*
X273022Y26073D01*
X273048Y26129D01*
X273072Y26240D01*
X273104Y26349D01*
X273108Y26410D01*
X273121Y26469D01*
X273119Y26583D01*
X273126Y26696D01*
X273116Y26757D01*
X273115Y26818D01*
X273087Y26928D01*
X273069Y27040D01*
X273045Y27096D01*
X273030Y27156D01*
X272978Y27257D01*
X272934Y27362D01*
X272899Y27411D01*
X272871Y27466D01*
X272797Y27552D01*
X272730Y27644D01*
X272684Y27685D01*
X272645Y27731D01*
X272553Y27799D01*
X272468Y27873D01*
X272414Y27902D01*
X272364Y27938D01*
X272260Y27983D01*
X272160Y28036D01*
X272100Y28052D01*
X272044Y28076D01*
X271933Y28096D01*
X271823Y28125D01*
X271744Y28130D01*
X271701Y28138D01*
X271658Y28136D01*
X271579Y28141D01*
X270827Y28128D01*
X270715Y28113D01*
X270602Y28107D01*
X270543Y28090D01*
X270482Y28082D01*
X270376Y28042D01*
X270267Y28010D01*
X270213Y27980D01*
X270156Y27959D01*
X270062Y27896D01*
X269963Y27840D01*
X269902Y27789D01*
X269866Y27765D01*
X269837Y27733D01*
X269777Y27682D01*
X264178Y22083D01*
X264161Y22062D01*
X264141Y22045D01*
X264053Y21926D01*
X263961Y21810D01*
X263950Y21786D01*
X263934Y21765D01*
X263875Y21629D01*
X263812Y21495D01*
X263806Y21469D01*
X263796Y21445D01*
X263770Y21299D01*
X263739Y21154D01*
X263739Y21128D01*
X263734Y21102D01*
X263742Y20953D01*
X263745Y20805D01*
X263751Y20780D01*
X263752Y20754D01*
X263793Y20611D01*
X263830Y20467D01*
X263842Y20444D01*
X263849Y20419D01*
X263921Y20289D01*
X263989Y20158D01*
X264006Y20138D01*
X264019Y20115D01*
X264039Y20092D01*
X264039Y20089D01*
X264045Y19964D01*
X264059Y19916D01*
X264065Y19867D01*
X264107Y19749D01*
X264141Y19629D01*
X264165Y19585D01*
X264182Y19538D01*
X264250Y19433D01*
X264311Y19324D01*
X264344Y19287D01*
X264371Y19246D01*
X264461Y19159D01*
X264545Y19066D01*
X264586Y19038D01*
X264622Y19003D01*
X264729Y18939D01*
X264832Y18868D01*
X264878Y18850D01*
X264921Y18825D01*
X265040Y18786D01*
X265156Y18741D01*
X265206Y18733D01*
X265253Y18718D01*
X265377Y18708D01*
X265501Y18690D01*
X265551Y18694D01*
X265600Y18690D01*
X265724Y18709D01*
X265848Y18719D01*
X265896Y18735D01*
X265945Y18742D01*
X266061Y18788D01*
X266180Y18827D01*
X266223Y18852D01*
X266269Y18871D01*
X266371Y18942D01*
X266479Y19007D01*
X266514Y19041D01*
X266555Y19070D01*
X266639Y19163D01*
X266728Y19250D01*
X266764Y19301D01*
X266788Y19329D01*
X266811Y19370D01*
X266867Y19451D01*
X267242Y20101D01*
X269500Y22358D01*
X272868Y18990D01*
X269051Y15172D01*
X267242Y16980D01*
X266867Y17630D01*
X266793Y17730D01*
X266725Y17836D01*
X266689Y17870D01*
X266660Y17910D01*
X266564Y17991D01*
X266474Y18078D01*
X266432Y18103D01*
X266394Y18135D01*
X266282Y18192D01*
X266175Y18257D01*
X266128Y18272D01*
X266084Y18294D01*
X265962Y18325D01*
X265843Y18363D01*
X265794Y18367D01*
X265745Y18379D01*
X265620Y18381D01*
X265496Y18391D01*
X265447Y18383D01*
X265397Y18384D01*
X265275Y18358D01*
X265151Y18339D01*
X265105Y18321D01*
X265056Y18310D01*
X264943Y18256D01*
X264827Y18210D01*
X264787Y18182D01*
X264742Y18161D01*
X264644Y18083D01*
X264541Y18011D01*
X264508Y17975D01*
X264469Y17944D01*
X264391Y17845D01*
X264308Y17753D01*
X264284Y17709D01*
X264253Y17670D01*
X264200Y17557D01*
X264139Y17448D01*
X264126Y17400D01*
X264104Y17355D01*
X264078Y17232D01*
X264044Y17112D01*
X264039Y17050D01*
X264032Y17014D01*
X264033Y16966D01*
X264025Y16868D01*
X264025Y15919D01*
X261081Y12975D01*
X256919Y12975D01*
X253975Y15919D01*
X253975Y17409D01*
X253961Y17535D01*
X253954Y17661D01*
X253941Y17707D01*
X253935Y17755D01*
X253893Y17874D01*
X253858Y17996D01*
X253834Y18038D01*
X253818Y18083D01*
X253749Y18190D01*
X253688Y18300D01*
X253648Y18346D01*
X253629Y18376D01*
X253594Y18410D01*
X253529Y18486D01*
X247475Y24540D01*
X247475Y39952D01*
X247472Y39978D01*
X247474Y40004D01*
X247452Y40151D01*
X247435Y40298D01*
X247427Y40323D01*
X247423Y40349D01*
X247368Y40487D01*
X247318Y40626D01*
X247304Y40648D01*
X247294Y40673D01*
X247209Y40794D01*
X247129Y40919D01*
X247110Y40937D01*
X247095Y40959D01*
X246985Y41058D01*
X246878Y41161D01*
X246856Y41175D01*
X246836Y41192D01*
X246706Y41264D01*
X246579Y41340D01*
X246554Y41348D01*
X246531Y41361D01*
X246388Y41401D01*
X246247Y41446D01*
X246221Y41448D01*
X246196Y41456D01*
X245952Y41475D01*
X237524Y41475D01*
X237498Y41472D01*
X237472Y41474D01*
X237325Y41452D01*
X237178Y41435D01*
X237153Y41427D01*
X237127Y41423D01*
X236989Y41368D01*
X236850Y41318D01*
X236828Y41304D01*
X236803Y41294D01*
X236682Y41209D01*
X236557Y41129D01*
X236539Y41110D01*
X236517Y41095D01*
X236418Y40985D01*
X236315Y40878D01*
X236301Y40856D01*
X236284Y40836D01*
X236212Y40706D01*
X236136Y40579D01*
X236128Y40554D01*
X236115Y40531D01*
X236075Y40388D01*
X236030Y40247D01*
X236028Y40221D01*
X236020Y40196D01*
X236001Y39952D01*
X236001Y38171D01*
X234829Y36999D01*
X219171Y36999D01*
X217999Y38171D01*
X217999Y55829D01*
X219171Y57001D01*
X221952Y57001D01*
X221978Y57004D01*
X222004Y57002D01*
X222151Y57024D01*
X222298Y57041D01*
X222323Y57049D01*
X222349Y57053D01*
X222487Y57108D01*
X222626Y57158D01*
X222648Y57172D01*
X222673Y57182D01*
X222794Y57267D01*
X222919Y57347D01*
X222937Y57366D01*
X222959Y57381D01*
X223058Y57491D01*
X223161Y57598D01*
X223175Y57620D01*
X223192Y57640D01*
X223264Y57770D01*
X223340Y57897D01*
X223348Y57922D01*
X223361Y57945D01*
X223401Y58088D01*
X223446Y58229D01*
X223448Y58255D01*
X223456Y58280D01*
X223475Y58524D01*
X223475Y68460D01*
X225986Y70971D01*
X229529Y74514D01*
X229608Y74613D01*
X229692Y74707D01*
X229716Y74749D01*
X229746Y74787D01*
X229800Y74901D01*
X229861Y75012D01*
X229874Y75058D01*
X229895Y75102D01*
X229921Y75225D01*
X229956Y75347D01*
X229961Y75408D01*
X229968Y75443D01*
X229967Y75491D01*
X229975Y75591D01*
X229975Y78960D01*
X229961Y79086D01*
X229954Y79212D01*
X229941Y79259D01*
X229935Y79307D01*
X229893Y79425D01*
X229858Y79547D01*
X229834Y79589D01*
X229818Y79635D01*
X229749Y79741D01*
X229688Y79851D01*
X229648Y79897D01*
X229629Y79927D01*
X229594Y79961D01*
X229529Y80037D01*
X228705Y80861D01*
X228705Y90139D01*
X229877Y91311D01*
X233695Y91311D01*
X233821Y91325D01*
X233947Y91332D01*
X233993Y91345D01*
X234041Y91351D01*
X234160Y91393D01*
X234282Y91428D01*
X234324Y91452D01*
X234369Y91468D01*
X234476Y91537D01*
X234586Y91598D01*
X234632Y91638D01*
X234662Y91657D01*
X234696Y91692D01*
X234772Y91757D01*
X243029Y100014D01*
X243108Y100113D01*
X243192Y100207D01*
X243216Y100249D01*
X243246Y100287D01*
X243300Y100401D01*
X243361Y100512D01*
X243374Y100558D01*
X243395Y100602D01*
X243421Y100725D01*
X243456Y100847D01*
X243461Y100908D01*
X243468Y100943D01*
X243467Y100991D01*
X243475Y101091D01*
X243475Y106302D01*
X243472Y106328D01*
X243474Y106354D01*
X243452Y106501D01*
X243435Y106648D01*
X243427Y106673D01*
X243423Y106699D01*
X243368Y106837D01*
X243318Y106976D01*
X243304Y106998D01*
X243294Y107023D01*
X243209Y107144D01*
X243129Y107269D01*
X243110Y107287D01*
X243095Y107309D01*
X242985Y107408D01*
X242878Y107511D01*
X242856Y107525D01*
X242836Y107542D01*
X242706Y107614D01*
X242579Y107690D01*
X242554Y107698D01*
X242531Y107711D01*
X242388Y107751D01*
X242247Y107796D01*
X242221Y107798D01*
X242196Y107806D01*
X241952Y107825D01*
X209124Y107825D01*
X209098Y107822D01*
X209072Y107824D01*
X208925Y107802D01*
X208778Y107785D01*
X208753Y107777D01*
X208727Y107773D01*
X208589Y107718D01*
X208450Y107668D01*
X208428Y107654D01*
X208403Y107644D01*
X208282Y107559D01*
X208157Y107479D01*
X208139Y107460D01*
X208117Y107445D01*
X208018Y107335D01*
X207915Y107228D01*
X207901Y107206D01*
X207884Y107186D01*
X207812Y107056D01*
X207736Y106929D01*
X207735Y106928D01*
X201157Y100349D01*
X192043Y100349D01*
X186041Y106352D01*
X186020Y106368D01*
X186003Y106388D01*
X185884Y106476D01*
X185768Y106568D01*
X185744Y106580D01*
X185723Y106595D01*
X185587Y106654D01*
X185453Y106717D01*
X185427Y106723D01*
X185403Y106733D01*
X185257Y106760D01*
X185112Y106791D01*
X185086Y106790D01*
X185060Y106795D01*
X184911Y106787D01*
X184764Y106785D01*
X184738Y106778D01*
X184712Y106777D01*
X184569Y106736D01*
X184426Y106700D01*
X184402Y106688D01*
X184377Y106681D01*
X184248Y106608D01*
X184116Y106540D01*
X184096Y106523D01*
X184073Y106510D01*
X183887Y106352D01*
X182548Y105013D01*
X182532Y104993D01*
X182512Y104976D01*
X182424Y104856D01*
X182332Y104740D01*
X182320Y104717D01*
X182305Y104695D01*
X182246Y104559D01*
X182183Y104425D01*
X182177Y104400D01*
X182167Y104375D01*
X182140Y104230D01*
X182109Y104085D01*
X182110Y104058D01*
X182105Y104032D01*
X182113Y103884D01*
X182115Y103736D01*
X182122Y103711D01*
X182123Y103684D01*
X182164Y103542D01*
X182200Y103398D01*
X182201Y103397D01*
X182201Y94093D01*
X175757Y87649D01*
X166643Y87649D01*
X160199Y94093D01*
X160199Y94126D01*
X160196Y94152D01*
X160198Y94178D01*
X160176Y94325D01*
X160159Y94472D01*
X160151Y94497D01*
X160147Y94523D01*
X160092Y94661D01*
X160042Y94800D01*
X160028Y94822D01*
X160018Y94847D01*
X159933Y94968D01*
X159853Y95093D01*
X159834Y95111D01*
X159819Y95133D01*
X159709Y95232D01*
X159602Y95335D01*
X159580Y95349D01*
X159560Y95366D01*
X159430Y95438D01*
X159303Y95514D01*
X159278Y95522D01*
X159255Y95535D01*
X159112Y95575D01*
X158971Y95620D01*
X158945Y95622D01*
X158920Y95630D01*
X158676Y95649D01*
X117474Y95649D01*
X117348Y95635D01*
X117222Y95628D01*
X117176Y95615D01*
X117128Y95609D01*
X117009Y95567D01*
X116887Y95532D01*
X116845Y95508D01*
X116800Y95492D01*
X116693Y95423D01*
X116583Y95362D01*
X116537Y95322D01*
X116507Y95303D01*
X116473Y95268D01*
X116397Y95203D01*
X67687Y46493D01*
X67608Y46394D01*
X67524Y46300D01*
X67500Y46258D01*
X67470Y46220D01*
X67416Y46106D01*
X67355Y45995D01*
X67342Y45949D01*
X67321Y45905D01*
X67295Y45782D01*
X67260Y45660D01*
X67255Y45599D01*
X67248Y45564D01*
X67249Y45516D01*
X67241Y45416D01*
X67241Y38212D01*
X62238Y33209D01*
X55162Y33209D01*
X50159Y38212D01*
X50159Y45416D01*
X50145Y45542D01*
X50138Y45668D01*
X50125Y45714D01*
X50119Y45762D01*
X50077Y45881D01*
X50042Y46003D01*
X50018Y46045D01*
X50002Y46090D01*
X49933Y46197D01*
X49872Y46307D01*
X49832Y46353D01*
X49813Y46383D01*
X49778Y46417D01*
X49713Y46493D01*
X39999Y56207D01*
X39999Y153793D01*
X49713Y163507D01*
X49792Y163606D01*
X49876Y163700D01*
X49900Y163742D01*
X49930Y163780D01*
X49984Y163894D01*
X50045Y164005D01*
X50058Y164051D01*
X50079Y164095D01*
X50105Y164218D01*
X50140Y164340D01*
X50145Y164401D01*
X50152Y164436D01*
X50151Y164484D01*
X50159Y164584D01*
X50159Y171788D01*
X55162Y176791D01*
X62238Y176791D01*
X67241Y171788D01*
X67241Y164712D01*
X62238Y159709D01*
X55034Y159709D01*
X54908Y159695D01*
X54782Y159688D01*
X54736Y159675D01*
X54688Y159669D01*
X54569Y159627D01*
X54447Y159592D01*
X54405Y159568D01*
X54360Y159552D01*
X54253Y159483D01*
X54143Y159422D01*
X54097Y159382D01*
X54067Y159363D01*
X54033Y159328D01*
X53957Y159263D01*
X46447Y151753D01*
X46368Y151654D01*
X46284Y151560D01*
X46260Y151518D01*
X46230Y151480D01*
X46176Y151366D01*
X46115Y151255D01*
X46102Y151209D01*
X46081Y151165D01*
X46055Y151042D01*
X46020Y150920D01*
X46015Y150859D01*
X46008Y150824D01*
X46009Y150776D01*
X46001Y150676D01*
X46001Y59324D01*
X46015Y59198D01*
X46022Y59072D01*
X46035Y59026D01*
X46041Y58978D01*
X46083Y58859D01*
X46118Y58737D01*
X46142Y58695D01*
X46158Y58650D01*
X46227Y58543D01*
X46288Y58433D01*
X46328Y58387D01*
X46347Y58357D01*
X46382Y58323D01*
X46447Y58247D01*
X53957Y50737D01*
X54056Y50658D01*
X54150Y50574D01*
X54192Y50550D01*
X54230Y50520D01*
X54344Y50466D01*
X54455Y50405D01*
X54501Y50392D01*
X54545Y50371D01*
X54668Y50345D01*
X54790Y50310D01*
X54851Y50305D01*
X54886Y50298D01*
X54934Y50299D01*
X55034Y50291D01*
X62366Y50291D01*
X62492Y50305D01*
X62618Y50312D01*
X62664Y50325D01*
X62712Y50331D01*
X62831Y50373D01*
X62953Y50408D01*
X62995Y50432D01*
X63040Y50448D01*
X63147Y50517D01*
X63257Y50578D01*
X63303Y50618D01*
X63333Y50637D01*
X63367Y50672D01*
X63443Y50737D01*
X114357Y101651D01*
X158676Y101651D01*
X158702Y101654D01*
X158728Y101652D01*
X158875Y101674D01*
X159022Y101691D01*
X159047Y101699D01*
X159073Y101703D01*
X159211Y101758D01*
X159350Y101808D01*
X159372Y101822D01*
X159397Y101832D01*
X159518Y101917D01*
X159643Y101997D01*
X159661Y102016D01*
X159683Y102031D01*
X159782Y102141D01*
X159885Y102248D01*
X159899Y102270D01*
X159916Y102290D01*
X159988Y102420D01*
X160064Y102547D01*
X160072Y102572D01*
X160085Y102595D01*
X160125Y102738D01*
X160170Y102879D01*
X160172Y102905D01*
X160180Y102930D01*
X160199Y103174D01*
X160199Y103207D01*
X166643Y109651D01*
X175959Y109651D01*
X175997Y109633D01*
X176023Y109627D01*
X176047Y109617D01*
X176193Y109591D01*
X176338Y109559D01*
X176364Y109560D01*
X176390Y109555D01*
X176538Y109563D01*
X176686Y109565D01*
X176712Y109572D01*
X176738Y109573D01*
X176881Y109614D01*
X177024Y109650D01*
X177048Y109662D01*
X177073Y109669D01*
X177203Y109742D01*
X177334Y109810D01*
X177354Y109827D01*
X177377Y109840D01*
X177563Y109998D01*
X179929Y112364D01*
X182440Y114875D01*
X184076Y114875D01*
X184102Y114878D01*
X184128Y114876D01*
X184275Y114898D01*
X184422Y114915D01*
X184447Y114923D01*
X184473Y114927D01*
X184611Y114982D01*
X184750Y115032D01*
X184772Y115046D01*
X184797Y115056D01*
X184918Y115141D01*
X185043Y115221D01*
X185061Y115240D01*
X185083Y115255D01*
X185182Y115365D01*
X185285Y115472D01*
X185299Y115494D01*
X185316Y115514D01*
X185388Y115644D01*
X185464Y115771D01*
X185465Y115772D01*
X188142Y118449D01*
X188204Y118527D01*
X188274Y118600D01*
X188312Y118664D01*
X188358Y118722D01*
X188401Y118813D01*
X188453Y118899D01*
X188475Y118970D01*
X188507Y119037D01*
X188528Y119135D01*
X188559Y119231D01*
X188565Y119305D01*
X188580Y119378D01*
X188579Y119478D01*
X188587Y119578D01*
X188576Y119652D01*
X188574Y119726D01*
X188550Y119823D01*
X188535Y119923D01*
X188508Y119992D01*
X188489Y120064D01*
X188443Y120153D01*
X188406Y120247D01*
X188364Y120308D01*
X188330Y120374D01*
X188265Y120450D01*
X188207Y120533D01*
X188152Y120583D01*
X188104Y120639D01*
X188023Y120699D01*
X187949Y120766D01*
X187884Y120802D01*
X187824Y120847D01*
X187732Y120886D01*
X187644Y120935D01*
X187572Y120955D01*
X187504Y120985D01*
X187405Y121002D01*
X187308Y121030D01*
X187208Y121038D01*
X187161Y121046D01*
X187125Y121044D01*
X187064Y121049D01*
X183724Y121049D01*
X183698Y121046D01*
X183672Y121048D01*
X183525Y121026D01*
X183378Y121009D01*
X183353Y121001D01*
X183327Y120997D01*
X183189Y120942D01*
X183050Y120892D01*
X183028Y120878D01*
X183003Y120868D01*
X182882Y120783D01*
X182757Y120703D01*
X182739Y120684D01*
X182717Y120669D01*
X182618Y120559D01*
X182515Y120452D01*
X182501Y120430D01*
X182484Y120410D01*
X182412Y120280D01*
X182336Y120153D01*
X182328Y120128D01*
X182315Y120105D01*
X182275Y119962D01*
X182230Y119821D01*
X182228Y119795D01*
X182220Y119770D01*
X182201Y119526D01*
X182201Y119493D01*
X175757Y113049D01*
X166643Y113049D01*
X160199Y119493D01*
X160199Y128607D01*
X166643Y135051D01*
X175757Y135051D01*
X182201Y128607D01*
X182201Y128574D01*
X182204Y128548D01*
X182202Y128522D01*
X182224Y128375D01*
X182241Y128228D01*
X182249Y128203D01*
X182253Y128177D01*
X182308Y128039D01*
X182358Y127900D01*
X182372Y127878D01*
X182382Y127853D01*
X182467Y127732D01*
X182547Y127607D01*
X182566Y127589D01*
X182581Y127567D01*
X182691Y127468D01*
X182798Y127365D01*
X182820Y127351D01*
X182840Y127334D01*
X182970Y127262D01*
X183097Y127186D01*
X183122Y127178D01*
X183145Y127165D01*
X183288Y127125D01*
X183429Y127080D01*
X183455Y127078D01*
X183480Y127070D01*
X183724Y127051D01*
X187064Y127051D01*
X187164Y127062D01*
X187265Y127064D01*
X187337Y127082D01*
X187411Y127091D01*
X187505Y127124D01*
X187603Y127149D01*
X187669Y127183D01*
X187739Y127208D01*
X187823Y127263D01*
X187912Y127309D01*
X187969Y127357D01*
X188032Y127397D01*
X188101Y127469D01*
X188178Y127534D01*
X188222Y127594D01*
X188274Y127648D01*
X188325Y127734D01*
X188385Y127815D01*
X188414Y127883D01*
X188453Y127947D01*
X188483Y128043D01*
X188523Y128135D01*
X188536Y128208D01*
X188559Y128279D01*
X188567Y128379D01*
X188585Y128478D01*
X188581Y128552D01*
X188587Y128626D01*
X188572Y128726D01*
X188567Y128826D01*
X188546Y128897D01*
X188535Y128971D01*
X188498Y129064D01*
X188470Y129161D01*
X188434Y129226D01*
X188406Y129295D01*
X188349Y129377D01*
X188300Y129465D01*
X188235Y129541D01*
X188207Y129581D01*
X188181Y129605D01*
X188142Y129651D01*
X185599Y132193D01*
X185599Y141307D01*
X192043Y147751D01*
X201157Y147751D01*
X204961Y143947D01*
X205060Y143868D01*
X205153Y143784D01*
X205196Y143760D01*
X205234Y143730D01*
X205348Y143676D01*
X205458Y143615D01*
X205505Y143602D01*
X205549Y143581D01*
X205672Y143555D01*
X205794Y143520D01*
X205855Y143515D01*
X205889Y143508D01*
X205937Y143509D01*
X206038Y143501D01*
X214182Y143501D01*
X214208Y143504D01*
X214234Y143502D01*
X214381Y143524D01*
X214528Y143541D01*
X214553Y143549D01*
X214579Y143553D01*
X214717Y143608D01*
X214856Y143658D01*
X214878Y143672D01*
X214903Y143682D01*
X215024Y143767D01*
X215149Y143847D01*
X215167Y143866D01*
X215189Y143881D01*
X215288Y143991D01*
X215391Y144098D01*
X215405Y144120D01*
X215422Y144140D01*
X215494Y144270D01*
X215570Y144397D01*
X215578Y144422D01*
X215591Y144445D01*
X215631Y144588D01*
X215676Y144729D01*
X215678Y144755D01*
X215686Y144780D01*
X215705Y145024D01*
X215705Y145139D01*
X216877Y146311D01*
X224123Y146311D01*
X225295Y145139D01*
X225295Y135861D01*
X224123Y134689D01*
X216877Y134689D01*
X215705Y135861D01*
X215705Y135976D01*
X215702Y136002D01*
X215704Y136028D01*
X215682Y136175D01*
X215665Y136322D01*
X215657Y136347D01*
X215653Y136373D01*
X215598Y136511D01*
X215548Y136650D01*
X215534Y136672D01*
X215524Y136697D01*
X215439Y136818D01*
X215359Y136943D01*
X215340Y136961D01*
X215325Y136983D01*
X215215Y137082D01*
X215108Y137185D01*
X215086Y137199D01*
X215066Y137216D01*
X214936Y137288D01*
X214809Y137364D01*
X214784Y137372D01*
X214761Y137385D01*
X214618Y137425D01*
X214477Y137470D01*
X214451Y137472D01*
X214426Y137480D01*
X214182Y137499D01*
X209124Y137499D01*
X209098Y137496D01*
X209072Y137498D01*
X208925Y137476D01*
X208778Y137459D01*
X208753Y137451D01*
X208727Y137447D01*
X208589Y137392D01*
X208450Y137342D01*
X208428Y137328D01*
X208403Y137318D01*
X208282Y137233D01*
X208157Y137153D01*
X208139Y137134D01*
X208117Y137119D01*
X208018Y137009D01*
X207915Y136902D01*
X207901Y136880D01*
X207884Y136860D01*
X207812Y136730D01*
X207736Y136603D01*
X207728Y136578D01*
X207715Y136555D01*
X207675Y136412D01*
X207630Y136271D01*
X207628Y136245D01*
X207620Y136220D01*
X207601Y135976D01*
X207601Y132193D01*
X205058Y129651D01*
X204996Y129573D01*
X204926Y129500D01*
X204888Y129436D01*
X204842Y129378D01*
X204799Y129287D01*
X204747Y129201D01*
X204725Y129130D01*
X204693Y129063D01*
X204672Y128965D01*
X204641Y128869D01*
X204635Y128795D01*
X204620Y128722D01*
X204621Y128622D01*
X204613Y128522D01*
X204624Y128448D01*
X204626Y128374D01*
X204650Y128277D01*
X204665Y128177D01*
X204692Y128108D01*
X204711Y128036D01*
X204757Y127947D01*
X204794Y127853D01*
X204836Y127792D01*
X204870Y127726D01*
X204935Y127650D01*
X204993Y127567D01*
X205048Y127517D01*
X205096Y127461D01*
X205177Y127401D01*
X205251Y127334D01*
X205316Y127298D01*
X205376Y127253D01*
X205468Y127214D01*
X205556Y127165D01*
X205628Y127145D01*
X205696Y127115D01*
X205795Y127098D01*
X205892Y127070D01*
X205992Y127062D01*
X206039Y127054D01*
X206075Y127056D01*
X206136Y127051D01*
X214182Y127051D01*
X214208Y127054D01*
X214234Y127052D01*
X214381Y127074D01*
X214528Y127091D01*
X214553Y127099D01*
X214579Y127103D01*
X214717Y127158D01*
X214856Y127208D01*
X214878Y127222D01*
X214903Y127232D01*
X215024Y127317D01*
X215149Y127397D01*
X215167Y127416D01*
X215189Y127431D01*
X215288Y127541D01*
X215391Y127648D01*
X215405Y127670D01*
X215422Y127690D01*
X215494Y127820D01*
X215570Y127947D01*
X215578Y127972D01*
X215591Y127995D01*
X215631Y128138D01*
X215676Y128279D01*
X215678Y128305D01*
X215686Y128330D01*
X215705Y128574D01*
X215705Y128639D01*
X216877Y129811D01*
X224123Y129811D01*
X225295Y128639D01*
X225295Y119361D01*
X224123Y118189D01*
X216877Y118189D01*
X215705Y119361D01*
X215705Y119526D01*
X215702Y119552D01*
X215704Y119578D01*
X215682Y119725D01*
X215665Y119872D01*
X215657Y119897D01*
X215653Y119923D01*
X215598Y120061D01*
X215548Y120200D01*
X215534Y120222D01*
X215524Y120247D01*
X215439Y120368D01*
X215359Y120493D01*
X215340Y120511D01*
X215325Y120533D01*
X215215Y120632D01*
X215108Y120735D01*
X215086Y120749D01*
X215066Y120766D01*
X214936Y120838D01*
X214809Y120914D01*
X214784Y120922D01*
X214761Y120935D01*
X214618Y120975D01*
X214477Y121020D01*
X214451Y121022D01*
X214426Y121030D01*
X214182Y121049D01*
X206136Y121049D01*
X206036Y121038D01*
X205935Y121036D01*
X205863Y121018D01*
X205789Y121009D01*
X205695Y120976D01*
X205597Y120951D01*
X205531Y120917D01*
X205461Y120892D01*
X205377Y120837D01*
X205288Y120791D01*
X205231Y120743D01*
X205168Y120703D01*
X205099Y120631D01*
X205022Y120566D01*
X204978Y120506D01*
X204926Y120452D01*
X204875Y120366D01*
X204815Y120285D01*
X204786Y120217D01*
X204747Y120153D01*
X204717Y120057D01*
X204677Y119965D01*
X204664Y119892D01*
X204641Y119821D01*
X204633Y119721D01*
X204615Y119622D01*
X204619Y119548D01*
X204613Y119474D01*
X204628Y119374D01*
X204633Y119274D01*
X204654Y119203D01*
X204665Y119129D01*
X204702Y119036D01*
X204730Y118939D01*
X204766Y118874D01*
X204794Y118805D01*
X204851Y118723D01*
X204900Y118635D01*
X204965Y118559D01*
X204993Y118519D01*
X205019Y118495D01*
X205058Y118449D01*
X207744Y115764D01*
X207758Y115724D01*
X207772Y115702D01*
X207782Y115677D01*
X207867Y115556D01*
X207947Y115431D01*
X207966Y115413D01*
X207981Y115391D01*
X208091Y115292D01*
X208198Y115189D01*
X208220Y115175D01*
X208240Y115158D01*
X208370Y115086D01*
X208497Y115010D01*
X208522Y115002D01*
X208545Y114989D01*
X208688Y114949D01*
X208829Y114904D01*
X208855Y114902D01*
X208880Y114894D01*
X209124Y114875D01*
X241952Y114875D01*
X241978Y114878D01*
X242004Y114876D01*
X242151Y114898D01*
X242298Y114915D01*
X242323Y114923D01*
X242349Y114927D01*
X242487Y114982D01*
X242626Y115032D01*
X242648Y115046D01*
X242673Y115056D01*
X242794Y115141D01*
X242919Y115221D01*
X242937Y115240D01*
X242959Y115255D01*
X243058Y115365D01*
X243161Y115472D01*
X243175Y115494D01*
X243192Y115514D01*
X243264Y115644D01*
X243340Y115771D01*
X243348Y115796D01*
X243361Y115819D01*
X243401Y115962D01*
X243446Y116103D01*
X243448Y116129D01*
X243456Y116154D01*
X243475Y116398D01*
X243475Y119476D01*
X243472Y119502D01*
X243474Y119528D01*
X243452Y119675D01*
X243435Y119822D01*
X243427Y119847D01*
X243423Y119873D01*
X243368Y120011D01*
X243318Y120150D01*
X243304Y120172D01*
X243294Y120197D01*
X243209Y120318D01*
X243129Y120443D01*
X243110Y120461D01*
X243095Y120483D01*
X242985Y120582D01*
X242878Y120685D01*
X242856Y120699D01*
X242836Y120716D01*
X242706Y120788D01*
X242579Y120864D01*
X242554Y120872D01*
X242531Y120885D01*
X242388Y120925D01*
X242247Y120970D01*
X242221Y120972D01*
X242196Y120980D01*
X241952Y120999D01*
X239818Y120999D01*
X239792Y120996D01*
X239766Y120998D01*
X239619Y120976D01*
X239472Y120959D01*
X239447Y120951D01*
X239421Y120947D01*
X239283Y120892D01*
X239144Y120842D01*
X239122Y120828D01*
X239097Y120818D01*
X238976Y120733D01*
X238851Y120653D01*
X238833Y120634D01*
X238811Y120619D01*
X238712Y120509D01*
X238609Y120402D01*
X238595Y120380D01*
X238578Y120360D01*
X238506Y120230D01*
X238430Y120103D01*
X238422Y120078D01*
X238409Y120055D01*
X238369Y119912D01*
X238324Y119771D01*
X238322Y119745D01*
X238314Y119720D01*
X238295Y119476D01*
X238295Y119361D01*
X237123Y118189D01*
X229877Y118189D01*
X228705Y119361D01*
X228705Y128639D01*
X229877Y129811D01*
X237123Y129811D01*
X238295Y128639D01*
X238295Y128524D01*
X238298Y128498D01*
X238296Y128472D01*
X238318Y128325D01*
X238335Y128178D01*
X238343Y128153D01*
X238347Y128127D01*
X238402Y127989D01*
X238452Y127850D01*
X238466Y127828D01*
X238476Y127803D01*
X238561Y127682D01*
X238641Y127557D01*
X238660Y127539D01*
X238675Y127517D01*
X238785Y127418D01*
X238892Y127315D01*
X238914Y127301D01*
X238934Y127284D01*
X239064Y127212D01*
X239191Y127136D01*
X239216Y127128D01*
X239239Y127115D01*
X239382Y127075D01*
X239523Y127030D01*
X239549Y127028D01*
X239574Y127020D01*
X239818Y127001D01*
X241952Y127001D01*
X241978Y127004D01*
X242004Y127002D01*
X242151Y127024D01*
X242298Y127041D01*
X242323Y127049D01*
X242349Y127053D01*
X242487Y127108D01*
X242626Y127158D01*
X242648Y127172D01*
X242673Y127182D01*
X242794Y127267D01*
X242919Y127347D01*
X242937Y127366D01*
X242959Y127381D01*
X243058Y127491D01*
X243161Y127598D01*
X243175Y127620D01*
X243192Y127640D01*
X243264Y127770D01*
X243340Y127897D01*
X243348Y127922D01*
X243361Y127945D01*
X243401Y128088D01*
X243446Y128229D01*
X243448Y128255D01*
X243456Y128280D01*
X243475Y128524D01*
X243475Y135976D01*
X243472Y136002D01*
X243474Y136028D01*
X243452Y136175D01*
X243435Y136322D01*
X243427Y136347D01*
X243423Y136373D01*
X243368Y136511D01*
X243318Y136650D01*
X243304Y136672D01*
X243294Y136697D01*
X243209Y136818D01*
X243129Y136943D01*
X243110Y136961D01*
X243095Y136983D01*
X242985Y137082D01*
X242878Y137185D01*
X242856Y137199D01*
X242836Y137216D01*
X242706Y137288D01*
X242579Y137364D01*
X242554Y137372D01*
X242531Y137385D01*
X242388Y137425D01*
X242247Y137470D01*
X242221Y137472D01*
X242196Y137480D01*
X241952Y137499D01*
X239818Y137499D01*
X239792Y137496D01*
X239766Y137498D01*
X239619Y137476D01*
X239472Y137459D01*
X239447Y137451D01*
X239421Y137447D01*
X239283Y137392D01*
X239144Y137342D01*
X239122Y137328D01*
X239097Y137318D01*
X238976Y137233D01*
X238851Y137153D01*
X238833Y137134D01*
X238811Y137119D01*
X238712Y137009D01*
X238609Y136902D01*
X238595Y136880D01*
X238578Y136860D01*
X238506Y136730D01*
X238430Y136603D01*
X238422Y136578D01*
X238409Y136555D01*
X238369Y136412D01*
X238324Y136271D01*
X238322Y136245D01*
X238314Y136220D01*
X238295Y135976D01*
X238295Y135861D01*
X237123Y134689D01*
X229877Y134689D01*
X228705Y135861D01*
X228705Y145139D01*
X229877Y146311D01*
X237123Y146311D01*
X238295Y145139D01*
X238295Y145024D01*
X238298Y144998D01*
X238296Y144972D01*
X238318Y144825D01*
X238335Y144678D01*
X238343Y144653D01*
X238347Y144627D01*
X238402Y144489D01*
X238452Y144350D01*
X238466Y144328D01*
X238476Y144303D01*
X238561Y144182D01*
X238641Y144057D01*
X238660Y144039D01*
X238675Y144017D01*
X238785Y143918D01*
X238892Y143815D01*
X238914Y143801D01*
X238934Y143784D01*
X239064Y143712D01*
X239191Y143636D01*
X239216Y143628D01*
X239239Y143615D01*
X239382Y143575D01*
X239523Y143530D01*
X239549Y143528D01*
X239574Y143520D01*
X239818Y143501D01*
X241952Y143501D01*
X241978Y143504D01*
X242004Y143502D01*
X242151Y143524D01*
X242298Y143541D01*
X242323Y143549D01*
X242349Y143553D01*
X242487Y143608D01*
X242626Y143658D01*
X242648Y143672D01*
X242673Y143682D01*
X242794Y143767D01*
X242919Y143847D01*
X242937Y143866D01*
X242959Y143881D01*
X243058Y143991D01*
X243161Y144098D01*
X243175Y144120D01*
X243192Y144140D01*
X243264Y144270D01*
X243340Y144397D01*
X243348Y144422D01*
X243361Y144445D01*
X243401Y144588D01*
X243446Y144729D01*
X243448Y144755D01*
X243456Y144780D01*
X243475Y145024D01*
X243475Y152476D01*
X243472Y152502D01*
X243474Y152528D01*
X243452Y152675D01*
X243435Y152822D01*
X243427Y152847D01*
X243423Y152873D01*
X243368Y153011D01*
X243318Y153150D01*
X243304Y153172D01*
X243294Y153197D01*
X243209Y153318D01*
X243129Y153443D01*
X243110Y153461D01*
X243095Y153483D01*
X242985Y153582D01*
X242878Y153685D01*
X242856Y153699D01*
X242836Y153716D01*
X242706Y153788D01*
X242579Y153864D01*
X242554Y153872D01*
X242531Y153885D01*
X242388Y153925D01*
X242247Y153970D01*
X242221Y153972D01*
X242196Y153980D01*
X241952Y153999D01*
X239818Y153999D01*
X239792Y153996D01*
X239766Y153998D01*
X239619Y153976D01*
X239472Y153959D01*
X239447Y153951D01*
X239421Y153947D01*
X239283Y153892D01*
X239144Y153842D01*
X239122Y153828D01*
X239097Y153818D01*
X238976Y153733D01*
X238851Y153653D01*
X238833Y153634D01*
X238811Y153619D01*
X238712Y153509D01*
X238609Y153402D01*
X238595Y153380D01*
X238578Y153360D01*
X238506Y153230D01*
X238430Y153103D01*
X238422Y153078D01*
X238409Y153055D01*
X238369Y152912D01*
X238324Y152771D01*
X238322Y152745D01*
X238314Y152720D01*
X238295Y152476D01*
X238295Y152361D01*
X237123Y151189D01*
X229877Y151189D01*
X228705Y152361D01*
X228705Y161639D01*
X229877Y162811D01*
X237123Y162811D01*
X238295Y161639D01*
X238295Y161524D01*
X238298Y161498D01*
X238296Y161472D01*
X238318Y161325D01*
X238335Y161178D01*
X238343Y161153D01*
X238347Y161127D01*
X238402Y160989D01*
X238452Y160850D01*
X238466Y160828D01*
X238476Y160803D01*
X238561Y160682D01*
X238641Y160557D01*
X238660Y160539D01*
X238675Y160517D01*
X238785Y160418D01*
X238892Y160315D01*
X238914Y160301D01*
X238934Y160284D01*
X239064Y160212D01*
X239191Y160136D01*
X239216Y160128D01*
X239239Y160115D01*
X239382Y160075D01*
X239523Y160030D01*
X239549Y160028D01*
X239574Y160020D01*
X239818Y160001D01*
X241952Y160001D01*
X241978Y160004D01*
X242004Y160002D01*
X242151Y160024D01*
X242298Y160041D01*
X242323Y160049D01*
X242349Y160053D01*
X242487Y160108D01*
X242626Y160158D01*
X242648Y160172D01*
X242673Y160182D01*
X242794Y160267D01*
X242919Y160347D01*
X242937Y160366D01*
X242959Y160381D01*
X243058Y160491D01*
X243161Y160598D01*
X243175Y160620D01*
X243192Y160640D01*
X243264Y160770D01*
X243340Y160897D01*
X243348Y160922D01*
X243361Y160945D01*
X243401Y161088D01*
X243446Y161229D01*
X243448Y161255D01*
X243456Y161280D01*
X243475Y161524D01*
X243475Y170476D01*
X243472Y170502D01*
X243474Y170528D01*
X243452Y170675D01*
X243435Y170822D01*
X243427Y170847D01*
X243423Y170873D01*
X243368Y171011D01*
X243318Y171150D01*
X243304Y171172D01*
X243294Y171197D01*
X243209Y171318D01*
X243129Y171443D01*
X243110Y171461D01*
X243095Y171483D01*
X242985Y171582D01*
X242878Y171685D01*
X242856Y171699D01*
X242836Y171716D01*
X242706Y171788D01*
X242579Y171864D01*
X242554Y171872D01*
X242531Y171885D01*
X242388Y171925D01*
X242247Y171970D01*
X242221Y171972D01*
X242196Y171980D01*
X241952Y171999D01*
X239818Y171999D01*
X239792Y171996D01*
X239766Y171998D01*
X239619Y171976D01*
X239472Y171959D01*
X239447Y171951D01*
X239421Y171947D01*
X239283Y171892D01*
X239144Y171842D01*
X239122Y171828D01*
X239097Y171818D01*
X238976Y171733D01*
X238851Y171653D01*
X238833Y171634D01*
X238811Y171619D01*
X238712Y171509D01*
X238609Y171402D01*
X238595Y171380D01*
X238578Y171360D01*
X238506Y171230D01*
X238430Y171103D01*
X238422Y171078D01*
X238409Y171055D01*
X238369Y170912D01*
X238324Y170771D01*
X238322Y170745D01*
X238314Y170720D01*
X238295Y170476D01*
X238295Y170361D01*
X237123Y169189D01*
X229877Y169189D01*
X228634Y170433D01*
X228615Y170486D01*
X228569Y170628D01*
X228556Y170649D01*
X228548Y170673D01*
X228467Y170798D01*
X228390Y170927D01*
X228372Y170945D01*
X228359Y170965D01*
X228251Y171070D01*
X228147Y171177D01*
X228126Y171190D01*
X228108Y171208D01*
X227980Y171284D01*
X227854Y171365D01*
X227830Y171374D01*
X227809Y171386D01*
X227667Y171432D01*
X227525Y171482D01*
X227501Y171485D01*
X227477Y171493D01*
X227328Y171505D01*
X227179Y171522D01*
X227154Y171519D01*
X227130Y171521D01*
X226982Y171498D01*
X226833Y171481D01*
X226810Y171473D01*
X226785Y171469D01*
X226646Y171414D01*
X226505Y171363D01*
X226484Y171349D01*
X226461Y171340D01*
X226339Y171255D01*
X226213Y171173D01*
X226195Y171155D01*
X226175Y171141D01*
X226075Y171030D01*
X225971Y170922D01*
X225958Y170901D01*
X225942Y170883D01*
X225869Y170751D01*
X225793Y170623D01*
X225783Y170595D01*
X225773Y170577D01*
X225760Y170532D01*
X225711Y170392D01*
X225662Y170209D01*
X225327Y169630D01*
X224854Y169157D01*
X224275Y168822D01*
X223629Y168649D01*
X222023Y168649D01*
X222023Y175000D01*
X222023Y181351D01*
X223629Y181351D01*
X224275Y181178D01*
X224854Y180843D01*
X225327Y180370D01*
X225662Y179791D01*
X225711Y179608D01*
X225766Y179468D01*
X225816Y179327D01*
X225830Y179307D01*
X225839Y179283D01*
X225924Y179160D01*
X226005Y179035D01*
X226023Y179017D01*
X226037Y178997D01*
X226148Y178896D01*
X226256Y178792D01*
X226277Y178780D01*
X226295Y178763D01*
X226426Y178690D01*
X226555Y178614D01*
X226578Y178606D01*
X226600Y178594D01*
X226745Y178553D01*
X226887Y178507D01*
X226912Y178505D01*
X226935Y178499D01*
X227085Y178491D01*
X227234Y178479D01*
X227259Y178483D01*
X227284Y178482D01*
X227431Y178509D01*
X227579Y178531D01*
X227602Y178540D01*
X227626Y178545D01*
X227763Y178604D01*
X227903Y178660D01*
X227923Y178674D01*
X227946Y178684D01*
X228066Y178773D01*
X228189Y178859D01*
X228206Y178877D01*
X228225Y178892D01*
X228322Y179006D01*
X228422Y179117D01*
X228434Y179139D01*
X228450Y179158D01*
X228518Y179291D01*
X228591Y179423D01*
X228598Y179446D01*
X228609Y179469D01*
X228633Y179567D01*
X229877Y180811D01*
X237123Y180811D01*
X238295Y179639D01*
X238295Y179524D01*
X238298Y179498D01*
X238296Y179472D01*
X238318Y179325D01*
X238335Y179178D01*
X238343Y179153D01*
X238347Y179127D01*
X238402Y178989D01*
X238452Y178850D01*
X238466Y178828D01*
X238476Y178803D01*
X238561Y178682D01*
X238641Y178557D01*
X238660Y178539D01*
X238675Y178517D01*
X238785Y178418D01*
X238892Y178315D01*
X238914Y178301D01*
X238934Y178284D01*
X239064Y178212D01*
X239191Y178136D01*
X239216Y178128D01*
X239239Y178115D01*
X239382Y178075D01*
X239523Y178030D01*
X239549Y178028D01*
X239574Y178020D01*
X239818Y178001D01*
X241952Y178001D01*
X241978Y178004D01*
X242004Y178002D01*
X242151Y178024D01*
X242298Y178041D01*
X242323Y178049D01*
X242349Y178053D01*
X242487Y178108D01*
X242626Y178158D01*
X242648Y178172D01*
X242673Y178182D01*
X242794Y178267D01*
X242919Y178347D01*
X242937Y178366D01*
X242959Y178381D01*
X243058Y178491D01*
X243161Y178598D01*
X243175Y178620D01*
X243192Y178640D01*
X243264Y178770D01*
X243340Y178897D01*
X243348Y178922D01*
X243361Y178945D01*
X243401Y179088D01*
X243446Y179229D01*
X243448Y179255D01*
X243456Y179280D01*
X243475Y179524D01*
X243475Y188460D01*
X245986Y190971D01*
X259874Y204859D01*
X259937Y204937D01*
X260006Y205010D01*
X260045Y205074D01*
X260091Y205132D01*
X260134Y205223D01*
X260185Y205309D01*
X260208Y205380D01*
X260240Y205447D01*
X260261Y205545D01*
X260291Y205641D01*
X260297Y205715D01*
X260313Y205788D01*
X260311Y205888D01*
X260319Y205988D01*
X260308Y206062D01*
X260307Y206136D01*
X260283Y206233D01*
X260268Y206333D01*
X260240Y206402D01*
X260222Y206474D01*
X260176Y206564D01*
X260139Y206657D01*
X260097Y206718D01*
X260063Y206784D01*
X259997Y206861D01*
X259940Y206943D01*
X259885Y206993D01*
X259837Y207049D01*
X259756Y207109D01*
X259681Y207176D01*
X259616Y207212D01*
X259556Y207257D01*
X259464Y207296D01*
X259376Y207345D01*
X259305Y207365D01*
X259236Y207395D01*
X259138Y207412D01*
X259041Y207440D01*
X258941Y207448D01*
X258893Y207456D01*
X258858Y207454D01*
X258797Y207459D01*
X4064Y207459D01*
X4038Y207456D01*
X4012Y207458D01*
X3865Y207436D01*
X3718Y207419D01*
X3693Y207411D01*
X3667Y207407D01*
X3529Y207352D01*
X3390Y207302D01*
X3368Y207288D01*
X3343Y207278D01*
X3222Y207193D01*
X3097Y207113D01*
X3079Y207094D01*
X3057Y207079D01*
X2958Y206969D01*
X2855Y206862D01*
X2841Y206840D01*
X2824Y206820D01*
X2752Y206690D01*
X2676Y206563D01*
X2668Y206538D01*
X2655Y206515D01*
X2615Y206372D01*
X2570Y206231D01*
X2568Y206205D01*
X2560Y206180D01*
X2541Y205936D01*
X2541Y4064D01*
X2544Y4038D01*
X2542Y4012D01*
X2564Y3865D01*
X2581Y3718D01*
X2589Y3693D01*
X2593Y3667D01*
X2648Y3529D01*
X2698Y3390D01*
X2712Y3368D01*
X2722Y3343D01*
X2807Y3222D01*
X2887Y3097D01*
X2906Y3079D01*
X2921Y3057D01*
X3031Y2958D01*
X3138Y2855D01*
X3160Y2841D01*
X3180Y2824D01*
X3310Y2752D01*
X3437Y2676D01*
X3462Y2668D01*
X3485Y2655D01*
X3628Y2615D01*
X3769Y2570D01*
X3795Y2568D01*
X3820Y2560D01*
X4064Y2541D01*
X471616Y2541D01*
X471716Y2552D01*
G37*
G36*
X351578Y92435D02*
X351578Y92435D01*
X351652Y92436D01*
X351749Y92460D01*
X351849Y92475D01*
X351918Y92503D01*
X351990Y92521D01*
X352080Y92567D01*
X352173Y92604D01*
X352234Y92646D01*
X352300Y92680D01*
X352377Y92746D01*
X352459Y92803D01*
X352509Y92858D01*
X352565Y92906D01*
X352625Y92987D01*
X352692Y93062D01*
X352728Y93127D01*
X352773Y93187D01*
X352812Y93279D01*
X352861Y93367D01*
X352881Y93438D01*
X352911Y93507D01*
X352928Y93605D01*
X352956Y93702D01*
X352964Y93802D01*
X352972Y93850D01*
X352970Y93885D01*
X352975Y93946D01*
X352975Y97081D01*
X356035Y100141D01*
X356150Y100182D01*
X356172Y100196D01*
X356197Y100206D01*
X356318Y100291D01*
X356443Y100371D01*
X356461Y100390D01*
X356483Y100405D01*
X356582Y100515D01*
X356685Y100622D01*
X356699Y100644D01*
X356716Y100664D01*
X356788Y100794D01*
X356864Y100921D01*
X356872Y100946D01*
X356885Y100969D01*
X356925Y101112D01*
X356970Y101253D01*
X356972Y101279D01*
X356980Y101304D01*
X356999Y101548D01*
X356999Y175226D01*
X356996Y175252D01*
X356998Y175278D01*
X356976Y175425D01*
X356959Y175572D01*
X356951Y175597D01*
X356947Y175623D01*
X356892Y175761D01*
X356842Y175900D01*
X356828Y175922D01*
X356818Y175947D01*
X356733Y176068D01*
X356653Y176193D01*
X356634Y176211D01*
X356619Y176233D01*
X356509Y176332D01*
X356402Y176435D01*
X356380Y176449D01*
X356360Y176466D01*
X356230Y176538D01*
X356103Y176614D01*
X356078Y176622D01*
X356055Y176635D01*
X355912Y176675D01*
X355771Y176720D01*
X355745Y176722D01*
X355720Y176730D01*
X355476Y176749D01*
X349524Y176749D01*
X349498Y176746D01*
X349472Y176748D01*
X349325Y176726D01*
X349178Y176709D01*
X349153Y176701D01*
X349127Y176697D01*
X348989Y176642D01*
X348850Y176592D01*
X348828Y176578D01*
X348803Y176568D01*
X348681Y176483D01*
X348557Y176403D01*
X348539Y176384D01*
X348517Y176369D01*
X348418Y176259D01*
X348315Y176152D01*
X348301Y176130D01*
X348284Y176110D01*
X348212Y175980D01*
X348136Y175853D01*
X348128Y175828D01*
X348115Y175805D01*
X348075Y175662D01*
X348030Y175521D01*
X348028Y175495D01*
X348020Y175470D01*
X348001Y175226D01*
X348001Y172757D01*
X346471Y171227D01*
X346392Y171128D01*
X346308Y171034D01*
X346284Y170992D01*
X346254Y170954D01*
X346200Y170840D01*
X346139Y170729D01*
X346126Y170683D01*
X346105Y170639D01*
X346079Y170516D01*
X346044Y170394D01*
X346039Y170333D01*
X346032Y170298D01*
X346033Y170250D01*
X346025Y170150D01*
X346025Y167919D01*
X343081Y164975D01*
X338919Y164975D01*
X335975Y167919D01*
X335975Y172081D01*
X338043Y174149D01*
X338105Y174227D01*
X338175Y174300D01*
X338213Y174364D01*
X338260Y174422D01*
X338302Y174513D01*
X338354Y174599D01*
X338377Y174670D01*
X338408Y174737D01*
X338430Y174835D01*
X338460Y174931D01*
X338466Y175005D01*
X338482Y175078D01*
X338480Y175178D01*
X338488Y175278D01*
X338477Y175352D01*
X338476Y175426D01*
X338451Y175523D01*
X338436Y175623D01*
X338409Y175692D01*
X338391Y175764D01*
X338345Y175853D01*
X338308Y175947D01*
X338265Y176008D01*
X338231Y176074D01*
X338166Y176150D01*
X338109Y176233D01*
X338054Y176283D01*
X338005Y176339D01*
X337925Y176399D01*
X337850Y176466D01*
X337785Y176502D01*
X337725Y176547D01*
X337633Y176586D01*
X337545Y176635D01*
X337473Y176655D01*
X337405Y176685D01*
X337306Y176702D01*
X337210Y176730D01*
X337110Y176738D01*
X337062Y176746D01*
X337026Y176744D01*
X336966Y176749D01*
X316034Y176749D01*
X315934Y176738D01*
X315834Y176736D01*
X315762Y176718D01*
X315688Y176709D01*
X315594Y176676D01*
X315496Y176651D01*
X315430Y176617D01*
X315360Y176592D01*
X315276Y176537D01*
X315186Y176491D01*
X315130Y176443D01*
X315067Y176403D01*
X314997Y176331D01*
X314921Y176266D01*
X314877Y176206D01*
X314825Y176152D01*
X314773Y176066D01*
X314714Y175985D01*
X314684Y175917D01*
X314646Y175853D01*
X314615Y175757D01*
X314576Y175665D01*
X314563Y175592D01*
X314540Y175521D01*
X314532Y175421D01*
X314514Y175322D01*
X314518Y175248D01*
X314512Y175174D01*
X314527Y175074D01*
X314532Y174974D01*
X314553Y174903D01*
X314564Y174829D01*
X314601Y174736D01*
X314628Y174639D01*
X314665Y174574D01*
X314692Y174505D01*
X314750Y174423D01*
X314799Y174335D01*
X314864Y174259D01*
X314891Y174219D01*
X314918Y174195D01*
X314957Y174149D01*
X317025Y172081D01*
X317025Y167919D01*
X314081Y164975D01*
X309524Y164975D01*
X309498Y164972D01*
X309472Y164974D01*
X309325Y164952D01*
X309178Y164935D01*
X309153Y164927D01*
X309127Y164923D01*
X308989Y164868D01*
X308850Y164818D01*
X308828Y164804D01*
X308803Y164794D01*
X308682Y164709D01*
X308557Y164629D01*
X308539Y164610D01*
X308517Y164595D01*
X308418Y164485D01*
X308315Y164378D01*
X308301Y164356D01*
X308284Y164336D01*
X308212Y164206D01*
X308136Y164079D01*
X308128Y164054D01*
X308115Y164031D01*
X308075Y163888D01*
X308030Y163747D01*
X308028Y163721D01*
X308020Y163696D01*
X308001Y163452D01*
X308001Y135874D01*
X308015Y135748D01*
X308022Y135622D01*
X308035Y135576D01*
X308041Y135528D01*
X308083Y135409D01*
X308118Y135287D01*
X308142Y135245D01*
X308158Y135200D01*
X308227Y135093D01*
X308288Y134983D01*
X308328Y134937D01*
X308347Y134907D01*
X308382Y134873D01*
X308447Y134797D01*
X350375Y92869D01*
X350453Y92806D01*
X350526Y92737D01*
X350590Y92698D01*
X350648Y92652D01*
X350739Y92609D01*
X350825Y92558D01*
X350896Y92535D01*
X350963Y92503D01*
X351061Y92482D01*
X351157Y92451D01*
X351231Y92445D01*
X351304Y92430D01*
X351404Y92432D01*
X351504Y92423D01*
X351578Y92435D01*
G37*
%LPC*%
G36*
X55162Y58609D02*
X55162Y58609D01*
X50159Y63612D01*
X50159Y70688D01*
X55253Y75782D01*
X55332Y75881D01*
X55416Y75974D01*
X55440Y76017D01*
X55470Y76055D01*
X55524Y76169D01*
X55585Y76279D01*
X55598Y76326D01*
X55619Y76370D01*
X55645Y76493D01*
X55680Y76615D01*
X55685Y76676D01*
X55692Y76710D01*
X55691Y76758D01*
X55699Y76859D01*
X55699Y99943D01*
X87155Y131399D01*
X87218Y131477D01*
X87287Y131550D01*
X87326Y131614D01*
X87372Y131672D01*
X87415Y131763D01*
X87466Y131849D01*
X87489Y131920D01*
X87521Y131987D01*
X87542Y132085D01*
X87573Y132181D01*
X87579Y132255D01*
X87594Y132328D01*
X87592Y132428D01*
X87601Y132528D01*
X87589Y132602D01*
X87588Y132676D01*
X87564Y132773D01*
X87549Y132873D01*
X87521Y132942D01*
X87503Y133014D01*
X87457Y133104D01*
X87420Y133197D01*
X87378Y133258D01*
X87344Y133324D01*
X87278Y133401D01*
X87221Y133483D01*
X87166Y133533D01*
X87118Y133589D01*
X87037Y133649D01*
X86962Y133716D01*
X86897Y133752D01*
X86837Y133797D01*
X86745Y133836D01*
X86657Y133885D01*
X86586Y133905D01*
X86517Y133935D01*
X86419Y133952D01*
X86322Y133980D01*
X86222Y133988D01*
X86174Y133996D01*
X86139Y133994D01*
X86078Y133999D01*
X63280Y133999D01*
X63250Y134026D01*
X63208Y134050D01*
X63170Y134080D01*
X63056Y134134D01*
X62945Y134195D01*
X62899Y134208D01*
X62855Y134229D01*
X62732Y134255D01*
X62610Y134290D01*
X62549Y134295D01*
X62514Y134302D01*
X62466Y134301D01*
X62366Y134309D01*
X55162Y134309D01*
X50159Y139312D01*
X50159Y146388D01*
X55162Y151391D01*
X62238Y151391D01*
X67241Y146388D01*
X67241Y141524D01*
X67244Y141498D01*
X67242Y141472D01*
X67264Y141325D01*
X67281Y141178D01*
X67289Y141153D01*
X67293Y141127D01*
X67348Y140989D01*
X67398Y140850D01*
X67412Y140828D01*
X67422Y140803D01*
X67507Y140682D01*
X67587Y140557D01*
X67606Y140539D01*
X67621Y140517D01*
X67731Y140418D01*
X67838Y140315D01*
X67860Y140301D01*
X67880Y140284D01*
X68010Y140212D01*
X68137Y140136D01*
X68162Y140128D01*
X68185Y140115D01*
X68328Y140075D01*
X68469Y140030D01*
X68495Y140028D01*
X68520Y140020D01*
X68764Y140001D01*
X120126Y140001D01*
X120252Y140015D01*
X120378Y140022D01*
X120424Y140035D01*
X120472Y140041D01*
X120591Y140083D01*
X120713Y140118D01*
X120755Y140142D01*
X120800Y140158D01*
X120907Y140227D01*
X121017Y140288D01*
X121063Y140328D01*
X121093Y140347D01*
X121127Y140382D01*
X121203Y140447D01*
X160757Y180001D01*
X190126Y180001D01*
X190252Y180015D01*
X190378Y180022D01*
X190424Y180035D01*
X190472Y180041D01*
X190591Y180083D01*
X190713Y180118D01*
X190755Y180142D01*
X190800Y180158D01*
X190907Y180227D01*
X191017Y180288D01*
X191063Y180328D01*
X191093Y180347D01*
X191127Y180382D01*
X191203Y180447D01*
X191529Y180773D01*
X191608Y180872D01*
X191692Y180966D01*
X191716Y181008D01*
X191746Y181046D01*
X191800Y181160D01*
X191861Y181271D01*
X191874Y181317D01*
X191895Y181361D01*
X191921Y181484D01*
X191956Y181606D01*
X191961Y181667D01*
X191968Y181702D01*
X191967Y181750D01*
X191975Y181850D01*
X191975Y184081D01*
X194919Y187025D01*
X199081Y187025D01*
X202025Y184081D01*
X202025Y179919D01*
X200683Y178577D01*
X200667Y178557D01*
X200647Y178540D01*
X200559Y178420D01*
X200467Y178304D01*
X200455Y178280D01*
X200440Y178259D01*
X200381Y178123D01*
X200318Y177989D01*
X200312Y177963D01*
X200302Y177939D01*
X200275Y177793D01*
X200244Y177648D01*
X200245Y177622D01*
X200240Y177596D01*
X200248Y177448D01*
X200250Y177300D01*
X200257Y177274D01*
X200258Y177248D01*
X200299Y177106D01*
X200335Y176962D01*
X200347Y176939D01*
X200354Y176913D01*
X200427Y176784D01*
X200495Y176652D01*
X200512Y176632D01*
X200525Y176609D01*
X200683Y176423D01*
X202025Y175081D01*
X202025Y170919D01*
X199081Y167975D01*
X194919Y167975D01*
X193341Y169553D01*
X193242Y169632D01*
X193148Y169716D01*
X193106Y169740D01*
X193068Y169770D01*
X192954Y169824D01*
X192843Y169885D01*
X192796Y169898D01*
X192753Y169919D01*
X192629Y169945D01*
X192508Y169980D01*
X192447Y169985D01*
X192412Y169992D01*
X192364Y169991D01*
X192264Y169999D01*
X165874Y169999D01*
X165748Y169985D01*
X165622Y169978D01*
X165576Y169965D01*
X165528Y169959D01*
X165409Y169917D01*
X165287Y169882D01*
X165245Y169858D01*
X165200Y169842D01*
X165093Y169773D01*
X164983Y169712D01*
X164937Y169672D01*
X164907Y169653D01*
X164873Y169618D01*
X164797Y169553D01*
X125243Y129999D01*
X94874Y129999D01*
X94748Y129985D01*
X94622Y129978D01*
X94576Y129965D01*
X94528Y129959D01*
X94409Y129917D01*
X94287Y129882D01*
X94245Y129858D01*
X94200Y129842D01*
X94093Y129773D01*
X93983Y129712D01*
X93937Y129672D01*
X93907Y129653D01*
X93873Y129618D01*
X93797Y129553D01*
X62147Y97903D01*
X62068Y97804D01*
X61984Y97710D01*
X61960Y97668D01*
X61930Y97630D01*
X61876Y97516D01*
X61815Y97405D01*
X61802Y97359D01*
X61781Y97315D01*
X61755Y97192D01*
X61720Y97070D01*
X61715Y97009D01*
X61708Y96974D01*
X61709Y96926D01*
X61701Y96826D01*
X61701Y76859D01*
X61715Y76733D01*
X61722Y76607D01*
X61735Y76560D01*
X61741Y76512D01*
X61783Y76393D01*
X61818Y76272D01*
X61842Y76230D01*
X61858Y76184D01*
X61927Y76078D01*
X61988Y75968D01*
X62028Y75922D01*
X62047Y75892D01*
X62082Y75858D01*
X62147Y75782D01*
X67241Y70688D01*
X67241Y63612D01*
X62238Y58609D01*
X55162Y58609D01*
G37*
%LPD*%
G36*
X259712Y48528D02*
X259712Y48528D01*
X259738Y48526D01*
X259885Y48548D01*
X260032Y48565D01*
X260057Y48573D01*
X260083Y48577D01*
X260221Y48632D01*
X260360Y48682D01*
X260382Y48696D01*
X260407Y48706D01*
X260528Y48791D01*
X260653Y48871D01*
X260671Y48890D01*
X260693Y48905D01*
X260792Y49015D01*
X260895Y49122D01*
X260909Y49144D01*
X260926Y49164D01*
X260998Y49294D01*
X261074Y49421D01*
X261082Y49446D01*
X261095Y49469D01*
X261135Y49612D01*
X261180Y49753D01*
X261182Y49779D01*
X261190Y49804D01*
X261209Y50048D01*
X261209Y51835D01*
X261382Y52481D01*
X261545Y52763D01*
X261586Y52856D01*
X261635Y52945D01*
X261655Y53015D01*
X261684Y53082D01*
X261702Y53182D01*
X261730Y53280D01*
X261738Y53378D01*
X261746Y53425D01*
X261744Y53462D01*
X261749Y53524D01*
X261749Y60476D01*
X261746Y60502D01*
X261748Y60528D01*
X261726Y60675D01*
X261709Y60822D01*
X261701Y60847D01*
X261697Y60873D01*
X261642Y61011D01*
X261592Y61150D01*
X261578Y61172D01*
X261568Y61197D01*
X261483Y61318D01*
X261403Y61443D01*
X261384Y61461D01*
X261369Y61483D01*
X261259Y61582D01*
X261152Y61685D01*
X261130Y61699D01*
X261110Y61716D01*
X260980Y61788D01*
X260853Y61864D01*
X260828Y61872D01*
X260805Y61885D01*
X260662Y61925D01*
X260521Y61970D01*
X260495Y61972D01*
X260470Y61980D01*
X260226Y61999D01*
X259874Y61999D01*
X259748Y61985D01*
X259622Y61978D01*
X259576Y61965D01*
X259528Y61959D01*
X259409Y61917D01*
X259287Y61882D01*
X259245Y61858D01*
X259200Y61842D01*
X259093Y61773D01*
X258983Y61712D01*
X258937Y61672D01*
X258907Y61653D01*
X258873Y61618D01*
X258797Y61553D01*
X257243Y59999D01*
X245736Y59999D01*
X245611Y59985D01*
X245484Y59978D01*
X245438Y59965D01*
X245390Y59959D01*
X245271Y59917D01*
X245150Y59882D01*
X245107Y59858D01*
X245062Y59842D01*
X244956Y59773D01*
X244845Y59712D01*
X244799Y59672D01*
X244769Y59653D01*
X244736Y59618D01*
X244659Y59553D01*
X243081Y57975D01*
X238919Y57975D01*
X235975Y60919D01*
X235975Y65081D01*
X238919Y68025D01*
X242452Y68025D01*
X242478Y68028D01*
X242504Y68026D01*
X242651Y68048D01*
X242798Y68065D01*
X242823Y68073D01*
X242849Y68077D01*
X242987Y68132D01*
X243126Y68182D01*
X243148Y68196D01*
X243173Y68206D01*
X243294Y68291D01*
X243419Y68371D01*
X243437Y68390D01*
X243459Y68405D01*
X243558Y68515D01*
X243661Y68622D01*
X243675Y68644D01*
X243692Y68664D01*
X243764Y68794D01*
X243840Y68921D01*
X243848Y68946D01*
X243861Y68969D01*
X243901Y69112D01*
X243946Y69253D01*
X243948Y69279D01*
X243956Y69304D01*
X243975Y69548D01*
X243975Y72081D01*
X246919Y75025D01*
X251081Y75025D01*
X252659Y73447D01*
X252758Y73368D01*
X252852Y73284D01*
X252894Y73260D01*
X252932Y73230D01*
X253046Y73176D01*
X253157Y73115D01*
X253204Y73102D01*
X253247Y73081D01*
X253371Y73055D01*
X253492Y73020D01*
X253553Y73015D01*
X253588Y73008D01*
X253636Y73009D01*
X253736Y73001D01*
X260226Y73001D01*
X260252Y73004D01*
X260278Y73002D01*
X260425Y73024D01*
X260572Y73041D01*
X260597Y73049D01*
X260623Y73053D01*
X260761Y73108D01*
X260900Y73158D01*
X260922Y73172D01*
X260947Y73182D01*
X261068Y73267D01*
X261193Y73347D01*
X261211Y73366D01*
X261233Y73381D01*
X261332Y73491D01*
X261435Y73598D01*
X261449Y73620D01*
X261466Y73640D01*
X261538Y73770D01*
X261614Y73897D01*
X261622Y73922D01*
X261635Y73945D01*
X261675Y74088D01*
X261720Y74229D01*
X261722Y74255D01*
X261730Y74280D01*
X261749Y74524D01*
X261749Y167329D01*
X262628Y168208D01*
X262675Y168267D01*
X262730Y168320D01*
X262783Y168403D01*
X262845Y168481D01*
X262877Y168549D01*
X262918Y168613D01*
X262951Y168706D01*
X262994Y168796D01*
X263010Y168870D01*
X263035Y168941D01*
X263046Y169040D01*
X263067Y169137D01*
X263066Y169212D01*
X263074Y169288D01*
X263063Y169386D01*
X263061Y169485D01*
X263043Y169558D01*
X263034Y169634D01*
X263000Y169727D01*
X262976Y169823D01*
X262941Y169890D01*
X262916Y169962D01*
X262862Y170045D01*
X262817Y170133D01*
X262767Y170190D01*
X262726Y170254D01*
X262655Y170323D01*
X262591Y170398D01*
X262530Y170443D01*
X262475Y170496D01*
X262390Y170546D01*
X262310Y170605D01*
X262241Y170635D01*
X262176Y170674D01*
X262033Y170725D01*
X261990Y170743D01*
X261972Y170747D01*
X261945Y170756D01*
X261458Y170887D01*
X260878Y171221D01*
X258621Y173479D01*
X261990Y176848D01*
X265807Y173030D01*
X263878Y171101D01*
X263816Y171023D01*
X263746Y170950D01*
X263708Y170886D01*
X263662Y170828D01*
X263619Y170737D01*
X263567Y170651D01*
X263545Y170580D01*
X263513Y170513D01*
X263492Y170415D01*
X263461Y170319D01*
X263455Y170245D01*
X263439Y170172D01*
X263441Y170072D01*
X263433Y169972D01*
X263444Y169898D01*
X263445Y169824D01*
X263470Y169727D01*
X263485Y169627D01*
X263512Y169558D01*
X263530Y169486D01*
X263577Y169396D01*
X263614Y169303D01*
X263656Y169242D01*
X263690Y169176D01*
X263755Y169099D01*
X263812Y169017D01*
X263868Y168967D01*
X263916Y168911D01*
X263997Y168851D01*
X264071Y168784D01*
X264136Y168748D01*
X264196Y168703D01*
X264288Y168664D01*
X264376Y168615D01*
X264448Y168595D01*
X264516Y168565D01*
X264615Y168548D01*
X264712Y168520D01*
X264812Y168512D01*
X264859Y168504D01*
X264895Y168506D01*
X264955Y168501D01*
X277079Y168501D01*
X277133Y168447D01*
X277232Y168368D01*
X277325Y168284D01*
X277368Y168260D01*
X277406Y168230D01*
X277520Y168176D01*
X277630Y168115D01*
X277677Y168102D01*
X277721Y168081D01*
X277844Y168055D01*
X277966Y168020D01*
X278027Y168015D01*
X278061Y168008D01*
X278109Y168009D01*
X278210Y168001D01*
X282078Y168001D01*
X282178Y168012D01*
X282278Y168014D01*
X282350Y168032D01*
X282424Y168041D01*
X282519Y168074D01*
X282616Y168099D01*
X282682Y168133D01*
X282752Y168158D01*
X282837Y168213D01*
X282926Y168259D01*
X282983Y168307D01*
X283045Y168347D01*
X283115Y168419D01*
X283192Y168484D01*
X283236Y168544D01*
X283287Y168598D01*
X283339Y168684D01*
X283399Y168765D01*
X283428Y168833D01*
X283466Y168897D01*
X283497Y168993D01*
X283537Y169085D01*
X283550Y169158D01*
X283573Y169229D01*
X283581Y169329D01*
X283598Y169428D01*
X283595Y169502D01*
X283601Y169576D01*
X283586Y169676D01*
X283580Y169776D01*
X283560Y169847D01*
X283549Y169921D01*
X283512Y170014D01*
X283484Y170111D01*
X283448Y170176D01*
X283420Y170245D01*
X283363Y170327D01*
X283314Y170415D01*
X283249Y170491D01*
X283221Y170531D01*
X283195Y170555D01*
X283155Y170601D01*
X273825Y179931D01*
X273766Y179978D01*
X273713Y180033D01*
X273630Y180086D01*
X273552Y180148D01*
X273484Y180180D01*
X273420Y180221D01*
X273327Y180254D01*
X273237Y180297D01*
X273163Y180313D01*
X273092Y180338D01*
X272993Y180349D01*
X272896Y180370D01*
X272821Y180369D01*
X272745Y180377D01*
X272647Y180366D01*
X272548Y180364D01*
X272475Y180346D01*
X272399Y180337D01*
X272306Y180303D01*
X272210Y180279D01*
X272143Y180244D01*
X272071Y180219D01*
X271988Y180165D01*
X271900Y180119D01*
X271842Y180070D01*
X271779Y180029D01*
X271710Y179958D01*
X271635Y179894D01*
X271590Y179833D01*
X271537Y179778D01*
X271486Y179693D01*
X271428Y179613D01*
X271398Y179544D01*
X271359Y179479D01*
X271308Y179336D01*
X271290Y179293D01*
X271286Y179275D01*
X271277Y179248D01*
X271092Y178560D01*
X270758Y177980D01*
X268949Y176172D01*
X265132Y179990D01*
X268509Y183367D01*
X268560Y183317D01*
X268624Y183279D01*
X268682Y183232D01*
X268773Y183190D01*
X268859Y183138D01*
X268930Y183115D01*
X268997Y183084D01*
X269096Y183062D01*
X269191Y183032D01*
X269265Y183026D01*
X269338Y183010D01*
X269438Y183012D01*
X269539Y183004D01*
X269612Y183015D01*
X269687Y183016D01*
X269784Y183041D01*
X269883Y183056D01*
X269952Y183083D01*
X270025Y183101D01*
X270114Y183147D01*
X270207Y183184D01*
X270268Y183227D01*
X270334Y183261D01*
X270411Y183326D01*
X270493Y183383D01*
X270543Y183438D01*
X270600Y183487D01*
X270660Y183567D01*
X270727Y183642D01*
X270763Y183707D01*
X270807Y183767D01*
X270847Y183859D01*
X270895Y183947D01*
X270916Y184019D01*
X270945Y184087D01*
X270963Y184186D01*
X270990Y184282D01*
X270998Y184382D01*
X271007Y184430D01*
X271005Y184466D01*
X271010Y184526D01*
X271010Y185265D01*
X270995Y185390D01*
X270989Y185516D01*
X270975Y185563D01*
X270970Y185611D01*
X270927Y185730D01*
X270892Y185851D01*
X270869Y185893D01*
X270852Y185939D01*
X270784Y186045D01*
X270722Y186155D01*
X270683Y186202D01*
X270663Y186232D01*
X270629Y186265D01*
X270564Y186342D01*
X265274Y191631D01*
X265274Y193288D01*
X269861Y197875D01*
X269924Y197953D01*
X269993Y198026D01*
X270032Y198090D01*
X270078Y198148D01*
X270121Y198239D01*
X270172Y198325D01*
X270195Y198396D01*
X270227Y198463D01*
X270248Y198561D01*
X270279Y198657D01*
X270285Y198731D01*
X270300Y198804D01*
X270298Y198904D01*
X270307Y199004D01*
X270295Y199078D01*
X270294Y199152D01*
X270270Y199249D01*
X270255Y199349D01*
X270227Y199418D01*
X270209Y199490D01*
X270163Y199580D01*
X270126Y199673D01*
X270084Y199734D01*
X270050Y199800D01*
X269984Y199877D01*
X269927Y199959D01*
X269872Y200009D01*
X269824Y200065D01*
X269743Y200125D01*
X269668Y200192D01*
X269603Y200228D01*
X269543Y200273D01*
X269451Y200312D01*
X269363Y200361D01*
X269292Y200381D01*
X269223Y200411D01*
X269125Y200428D01*
X269028Y200456D01*
X268928Y200464D01*
X268880Y200472D01*
X268845Y200470D01*
X268784Y200475D01*
X266091Y200475D01*
X265965Y200461D01*
X265839Y200454D01*
X265793Y200441D01*
X265745Y200435D01*
X265626Y200393D01*
X265504Y200358D01*
X265462Y200334D01*
X265417Y200318D01*
X265310Y200249D01*
X265200Y200188D01*
X265154Y200148D01*
X265124Y200129D01*
X265090Y200094D01*
X265014Y200029D01*
X250971Y185986D01*
X250892Y185887D01*
X250808Y185793D01*
X250784Y185751D01*
X250754Y185713D01*
X250700Y185599D01*
X250639Y185488D01*
X250626Y185442D01*
X250605Y185398D01*
X250579Y185275D01*
X250544Y185153D01*
X250539Y185092D01*
X250532Y185057D01*
X250533Y185009D01*
X250525Y184909D01*
X250525Y182979D01*
X250536Y182880D01*
X250538Y182779D01*
X250556Y182707D01*
X250565Y182633D01*
X250598Y182539D01*
X250623Y182441D01*
X250657Y182375D01*
X250682Y182305D01*
X250737Y182221D01*
X250783Y182132D01*
X250831Y182075D01*
X250871Y182012D01*
X250943Y181943D01*
X251008Y181866D01*
X251068Y181822D01*
X251122Y181770D01*
X251208Y181719D01*
X251289Y181659D01*
X251357Y181629D01*
X251421Y181591D01*
X251517Y181561D01*
X251609Y181521D01*
X251682Y181508D01*
X251753Y181485D01*
X251853Y181477D01*
X251952Y181459D01*
X252026Y181463D01*
X252100Y181457D01*
X252200Y181472D01*
X252300Y181477D01*
X252371Y181498D01*
X252445Y181509D01*
X252538Y181546D01*
X252635Y181574D01*
X252700Y181610D01*
X252769Y181638D01*
X252851Y181695D01*
X252939Y181744D01*
X253015Y181809D01*
X253055Y181836D01*
X253079Y181863D01*
X253125Y181902D01*
X255030Y183807D01*
X258848Y179990D01*
X255479Y176621D01*
X253125Y178975D01*
X253046Y179037D01*
X252974Y179107D01*
X252910Y179145D01*
X252852Y179191D01*
X252761Y179234D01*
X252675Y179286D01*
X252604Y179308D01*
X252537Y179340D01*
X252439Y179361D01*
X252343Y179392D01*
X252269Y179398D01*
X252196Y179414D01*
X252096Y179412D01*
X251996Y179420D01*
X251922Y179409D01*
X251848Y179408D01*
X251751Y179383D01*
X251651Y179368D01*
X251582Y179341D01*
X251510Y179323D01*
X251421Y179277D01*
X251327Y179240D01*
X251266Y179197D01*
X251200Y179163D01*
X251124Y179098D01*
X251041Y179041D01*
X250991Y178985D01*
X250935Y178937D01*
X250875Y178856D01*
X250808Y178782D01*
X250772Y178717D01*
X250727Y178657D01*
X250688Y178565D01*
X250639Y178477D01*
X250619Y178405D01*
X250589Y178337D01*
X250572Y178238D01*
X250544Y178141D01*
X250536Y178041D01*
X250528Y177994D01*
X250530Y177958D01*
X250525Y177898D01*
X250525Y128212D01*
X250539Y128087D01*
X250546Y127960D01*
X250559Y127914D01*
X250565Y127866D01*
X250607Y127747D01*
X250642Y127626D01*
X250666Y127583D01*
X250682Y127538D01*
X250751Y127432D01*
X250812Y127321D01*
X250852Y127275D01*
X250871Y127245D01*
X250906Y127212D01*
X250971Y127135D01*
X252025Y126081D01*
X252025Y121919D01*
X250971Y120865D01*
X250902Y120778D01*
X250882Y120757D01*
X250877Y120749D01*
X250808Y120672D01*
X250784Y120630D01*
X250754Y120592D01*
X250700Y120478D01*
X250639Y120367D01*
X250626Y120320D01*
X250605Y120277D01*
X250579Y120153D01*
X250544Y120032D01*
X250539Y119971D01*
X250532Y119936D01*
X250533Y119888D01*
X250525Y119788D01*
X250525Y97540D01*
X238741Y85756D01*
X238662Y85657D01*
X238578Y85563D01*
X238554Y85521D01*
X238524Y85483D01*
X238470Y85369D01*
X238409Y85258D01*
X238396Y85212D01*
X238375Y85168D01*
X238349Y85045D01*
X238314Y84923D01*
X238309Y84862D01*
X238302Y84827D01*
X238303Y84779D01*
X238295Y84679D01*
X238295Y80861D01*
X237471Y80037D01*
X237392Y79938D01*
X237308Y79845D01*
X237284Y79802D01*
X237254Y79764D01*
X237200Y79650D01*
X237139Y79539D01*
X237126Y79493D01*
X237105Y79449D01*
X237079Y79326D01*
X237044Y79204D01*
X237039Y79143D01*
X237032Y79109D01*
X237033Y79061D01*
X237025Y78960D01*
X237025Y72040D01*
X230971Y65986D01*
X230892Y65887D01*
X230808Y65793D01*
X230784Y65751D01*
X230754Y65713D01*
X230700Y65599D01*
X230639Y65488D01*
X230626Y65442D01*
X230605Y65398D01*
X230579Y65275D01*
X230544Y65153D01*
X230539Y65092D01*
X230532Y65057D01*
X230533Y65009D01*
X230525Y64909D01*
X230525Y58524D01*
X230528Y58498D01*
X230526Y58472D01*
X230548Y58325D01*
X230565Y58178D01*
X230573Y58153D01*
X230577Y58127D01*
X230632Y57989D01*
X230682Y57850D01*
X230696Y57828D01*
X230706Y57803D01*
X230791Y57682D01*
X230871Y57557D01*
X230890Y57539D01*
X230905Y57517D01*
X231015Y57418D01*
X231122Y57315D01*
X231144Y57301D01*
X231164Y57284D01*
X231294Y57212D01*
X231421Y57136D01*
X231446Y57128D01*
X231469Y57115D01*
X231612Y57075D01*
X231753Y57030D01*
X231779Y57028D01*
X231804Y57020D01*
X232048Y57001D01*
X234829Y57001D01*
X236001Y55829D01*
X236001Y50048D01*
X236004Y50022D01*
X236002Y49996D01*
X236024Y49849D01*
X236041Y49702D01*
X236049Y49677D01*
X236053Y49651D01*
X236108Y49513D01*
X236158Y49374D01*
X236172Y49352D01*
X236182Y49327D01*
X236267Y49206D01*
X236347Y49081D01*
X236366Y49063D01*
X236381Y49041D01*
X236491Y48942D01*
X236598Y48839D01*
X236620Y48825D01*
X236640Y48808D01*
X236770Y48736D01*
X236897Y48660D01*
X236922Y48652D01*
X236945Y48639D01*
X237088Y48599D01*
X237229Y48554D01*
X237255Y48552D01*
X237280Y48544D01*
X237524Y48525D01*
X259686Y48525D01*
X259712Y48528D01*
G37*
G36*
X439926Y83664D02*
X439926Y83664D01*
X440026Y83670D01*
X440097Y83690D01*
X440171Y83701D01*
X440264Y83738D01*
X440361Y83766D01*
X440426Y83802D01*
X440495Y83830D01*
X440577Y83887D01*
X440665Y83936D01*
X440741Y84001D01*
X440781Y84029D01*
X440805Y84055D01*
X440851Y84095D01*
X455553Y98797D01*
X455632Y98896D01*
X455716Y98990D01*
X455740Y99032D01*
X455770Y99070D01*
X455824Y99184D01*
X455885Y99295D01*
X455898Y99341D01*
X455919Y99385D01*
X455945Y99508D01*
X455980Y99630D01*
X455985Y99691D01*
X455992Y99726D01*
X455991Y99774D01*
X455999Y99874D01*
X455999Y112243D01*
X458203Y114447D01*
X459553Y115797D01*
X462020Y118263D01*
X462024Y118267D01*
X462149Y118347D01*
X462167Y118366D01*
X462189Y118381D01*
X462288Y118491D01*
X462391Y118598D01*
X462405Y118620D01*
X462422Y118640D01*
X462494Y118770D01*
X462570Y118897D01*
X462578Y118922D01*
X462591Y118945D01*
X462631Y119088D01*
X462676Y119229D01*
X462678Y119255D01*
X462686Y119280D01*
X462705Y119524D01*
X462705Y119639D01*
X464009Y120942D01*
X464010Y120943D01*
X464080Y120968D01*
X464164Y121023D01*
X464254Y121069D01*
X464310Y121117D01*
X464373Y121157D01*
X464443Y121229D01*
X464519Y121294D01*
X464563Y121354D01*
X464615Y121408D01*
X464667Y121494D01*
X464726Y121575D01*
X464756Y121643D01*
X464794Y121707D01*
X464825Y121803D01*
X464864Y121895D01*
X464877Y121968D01*
X464900Y122039D01*
X464908Y122139D01*
X464926Y122238D01*
X464922Y122312D01*
X464928Y122386D01*
X464913Y122486D01*
X464908Y122586D01*
X464887Y122657D01*
X464876Y122731D01*
X464839Y122824D01*
X464812Y122921D01*
X464775Y122986D01*
X464748Y123055D01*
X464690Y123137D01*
X464641Y123225D01*
X464576Y123301D01*
X464549Y123341D01*
X464522Y123365D01*
X464483Y123411D01*
X461975Y125919D01*
X461975Y130081D01*
X463553Y131659D01*
X463632Y131758D01*
X463716Y131852D01*
X463740Y131894D01*
X463770Y131932D01*
X463824Y132046D01*
X463885Y132157D01*
X463898Y132204D01*
X463919Y132247D01*
X463945Y132371D01*
X463980Y132492D01*
X463985Y132553D01*
X463992Y132588D01*
X463991Y132636D01*
X463999Y132736D01*
X463999Y134216D01*
X463988Y134316D01*
X463986Y134416D01*
X463968Y134488D01*
X463959Y134562D01*
X463926Y134657D01*
X463901Y134754D01*
X463867Y134820D01*
X463842Y134890D01*
X463787Y134975D01*
X463741Y135064D01*
X463693Y135120D01*
X463653Y135183D01*
X463581Y135253D01*
X463516Y135329D01*
X463456Y135373D01*
X463402Y135425D01*
X463316Y135477D01*
X463235Y135536D01*
X463167Y135566D01*
X463103Y135604D01*
X463008Y135635D01*
X462915Y135674D01*
X462842Y135688D01*
X462771Y135710D01*
X462671Y135718D01*
X462572Y135736D01*
X462498Y135732D01*
X462424Y135738D01*
X462325Y135723D01*
X462224Y135718D01*
X462153Y135697D01*
X462079Y135686D01*
X461986Y135649D01*
X461889Y135622D01*
X461824Y135585D01*
X461755Y135558D01*
X461673Y135500D01*
X461585Y135451D01*
X461509Y135386D01*
X461469Y135359D01*
X461445Y135332D01*
X461399Y135293D01*
X461081Y134975D01*
X456919Y134975D01*
X453975Y137919D01*
X453975Y142081D01*
X456919Y145025D01*
X458476Y145025D01*
X458502Y145028D01*
X458528Y145026D01*
X458675Y145048D01*
X458822Y145065D01*
X458847Y145073D01*
X458873Y145077D01*
X459011Y145132D01*
X459150Y145182D01*
X459172Y145196D01*
X459197Y145206D01*
X459318Y145291D01*
X459443Y145371D01*
X459461Y145390D01*
X459483Y145405D01*
X459582Y145515D01*
X459685Y145622D01*
X459699Y145644D01*
X459716Y145664D01*
X459788Y145794D01*
X459864Y145921D01*
X459872Y145946D01*
X459885Y145969D01*
X459925Y146112D01*
X459970Y146253D01*
X459972Y146279D01*
X459980Y146304D01*
X459999Y146548D01*
X459999Y180043D01*
X462203Y182247D01*
X469100Y189144D01*
X469117Y189164D01*
X469136Y189181D01*
X469225Y189301D01*
X469317Y189417D01*
X469328Y189441D01*
X469344Y189462D01*
X469402Y189598D01*
X469466Y189732D01*
X469471Y189758D01*
X469482Y189782D01*
X469508Y189928D01*
X469539Y190073D01*
X469539Y190099D01*
X469543Y190125D01*
X469536Y190273D01*
X469533Y190421D01*
X469527Y190447D01*
X469525Y190473D01*
X469484Y190615D01*
X469448Y190759D01*
X469436Y190782D01*
X469429Y190808D01*
X469357Y190937D01*
X469288Y191069D01*
X469271Y191089D01*
X469259Y191112D01*
X469109Y191287D01*
X469109Y200311D01*
X473657Y204859D01*
X473719Y204937D01*
X473789Y205010D01*
X473828Y205074D01*
X473874Y205132D01*
X473917Y205223D01*
X473968Y205309D01*
X473991Y205380D01*
X474023Y205447D01*
X474044Y205545D01*
X474074Y205641D01*
X474080Y205715D01*
X474096Y205788D01*
X474094Y205888D01*
X474102Y205988D01*
X474091Y206062D01*
X474090Y206136D01*
X474066Y206233D01*
X474051Y206333D01*
X474023Y206402D01*
X474005Y206474D01*
X473959Y206564D01*
X473922Y206657D01*
X473880Y206718D01*
X473845Y206784D01*
X473780Y206861D01*
X473723Y206943D01*
X473668Y206993D01*
X473620Y207049D01*
X473539Y207109D01*
X473464Y207176D01*
X473399Y207212D01*
X473339Y207257D01*
X473247Y207296D01*
X473159Y207345D01*
X473088Y207365D01*
X473019Y207395D01*
X472921Y207412D01*
X472824Y207440D01*
X472724Y207448D01*
X472676Y207456D01*
X472641Y207454D01*
X472580Y207459D01*
X420203Y207459D01*
X420103Y207448D01*
X420003Y207446D01*
X419931Y207428D01*
X419857Y207419D01*
X419762Y207386D01*
X419665Y207361D01*
X419599Y207327D01*
X419529Y207302D01*
X419444Y207247D01*
X419355Y207201D01*
X419298Y207153D01*
X419236Y207113D01*
X419166Y207041D01*
X419090Y206976D01*
X419045Y206916D01*
X418994Y206862D01*
X418942Y206776D01*
X418882Y206695D01*
X418853Y206627D01*
X418815Y206563D01*
X418784Y206467D01*
X418744Y206375D01*
X418731Y206302D01*
X418709Y206231D01*
X418700Y206131D01*
X418683Y206032D01*
X418687Y205958D01*
X418681Y205884D01*
X418695Y205784D01*
X418701Y205684D01*
X418721Y205613D01*
X418732Y205539D01*
X418769Y205446D01*
X418797Y205349D01*
X418833Y205284D01*
X418861Y205215D01*
X418918Y205133D01*
X418967Y205045D01*
X419032Y204969D01*
X419060Y204929D01*
X419086Y204905D01*
X419126Y204859D01*
X429293Y194691D01*
X429314Y194675D01*
X429331Y194655D01*
X429450Y194567D01*
X429566Y194475D01*
X429590Y194463D01*
X429611Y194448D01*
X429747Y194389D01*
X429882Y194326D01*
X429907Y194320D01*
X429931Y194310D01*
X430078Y194284D01*
X430222Y194252D01*
X430248Y194253D01*
X430274Y194248D01*
X430423Y194256D01*
X430571Y194258D01*
X430596Y194265D01*
X430622Y194266D01*
X430765Y194307D01*
X430909Y194343D01*
X430932Y194355D01*
X430957Y194363D01*
X431087Y194435D01*
X431219Y194503D01*
X431239Y194520D01*
X431261Y194533D01*
X431448Y194691D01*
X436757Y200001D01*
X437182Y200001D01*
X437208Y200004D01*
X437234Y200002D01*
X437381Y200024D01*
X437528Y200041D01*
X437553Y200049D01*
X437579Y200053D01*
X437717Y200108D01*
X437856Y200158D01*
X437878Y200172D01*
X437903Y200182D01*
X438024Y200267D01*
X438149Y200347D01*
X438167Y200366D01*
X438189Y200381D01*
X438288Y200491D01*
X438391Y200598D01*
X438405Y200620D01*
X438422Y200640D01*
X438494Y200770D01*
X438570Y200897D01*
X438578Y200922D01*
X438591Y200945D01*
X438631Y201088D01*
X438676Y201229D01*
X438678Y201255D01*
X438686Y201280D01*
X438705Y201524D01*
X438705Y201639D01*
X439877Y202811D01*
X447123Y202811D01*
X448366Y201567D01*
X448385Y201514D01*
X448431Y201372D01*
X448444Y201351D01*
X448452Y201327D01*
X448533Y201202D01*
X448610Y201073D01*
X448628Y201055D01*
X448641Y201035D01*
X448749Y200930D01*
X448853Y200823D01*
X448874Y200810D01*
X448892Y200792D01*
X449020Y200716D01*
X449146Y200635D01*
X449170Y200626D01*
X449191Y200614D01*
X449333Y200568D01*
X449475Y200518D01*
X449499Y200515D01*
X449523Y200507D01*
X449672Y200495D01*
X449821Y200478D01*
X449846Y200481D01*
X449870Y200479D01*
X450018Y200502D01*
X450167Y200519D01*
X450190Y200527D01*
X450215Y200531D01*
X450354Y200586D01*
X450495Y200637D01*
X450516Y200651D01*
X450539Y200660D01*
X450661Y200745D01*
X450787Y200827D01*
X450805Y200845D01*
X450825Y200859D01*
X450925Y200970D01*
X451029Y201078D01*
X451042Y201099D01*
X451058Y201117D01*
X451131Y201249D01*
X451207Y201377D01*
X451217Y201405D01*
X451227Y201423D01*
X451240Y201468D01*
X451289Y201608D01*
X451338Y201791D01*
X451673Y202370D01*
X452146Y202843D01*
X452725Y203178D01*
X453371Y203351D01*
X454977Y203351D01*
X454977Y197000D01*
X454977Y190649D01*
X453371Y190649D01*
X452725Y190822D01*
X452146Y191157D01*
X451673Y191630D01*
X451338Y192209D01*
X451289Y192392D01*
X451234Y192531D01*
X451184Y192673D01*
X451170Y192693D01*
X451161Y192717D01*
X451076Y192840D01*
X450995Y192965D01*
X450977Y192983D01*
X450963Y193003D01*
X450852Y193104D01*
X450744Y193208D01*
X450723Y193220D01*
X450705Y193237D01*
X450574Y193310D01*
X450445Y193386D01*
X450422Y193394D01*
X450400Y193406D01*
X450255Y193447D01*
X450113Y193493D01*
X450088Y193495D01*
X450065Y193501D01*
X449915Y193509D01*
X449766Y193521D01*
X449741Y193517D01*
X449716Y193518D01*
X449569Y193491D01*
X449421Y193469D01*
X449398Y193460D01*
X449374Y193455D01*
X449237Y193396D01*
X449097Y193340D01*
X449077Y193326D01*
X449054Y193316D01*
X448934Y193227D01*
X448811Y193141D01*
X448794Y193123D01*
X448775Y193108D01*
X448678Y192994D01*
X448578Y192883D01*
X448566Y192861D01*
X448550Y192842D01*
X448482Y192709D01*
X448409Y192577D01*
X448402Y192554D01*
X448391Y192531D01*
X448367Y192433D01*
X447123Y191189D01*
X439877Y191189D01*
X439232Y191834D01*
X439212Y191851D01*
X439195Y191871D01*
X439075Y191959D01*
X438959Y192051D01*
X438936Y192062D01*
X438914Y192078D01*
X438778Y192137D01*
X438644Y192200D01*
X438618Y192205D01*
X438594Y192216D01*
X438448Y192242D01*
X438303Y192273D01*
X438277Y192273D01*
X438251Y192277D01*
X438103Y192270D01*
X437955Y192267D01*
X437929Y192261D01*
X437903Y192260D01*
X437761Y192218D01*
X437617Y192182D01*
X437594Y192170D01*
X437568Y192163D01*
X437439Y192091D01*
X437307Y192023D01*
X437287Y192006D01*
X437264Y191993D01*
X437078Y191834D01*
X435691Y190448D01*
X435675Y190427D01*
X435655Y190410D01*
X435567Y190291D01*
X435475Y190175D01*
X435463Y190151D01*
X435448Y190130D01*
X435389Y189994D01*
X435326Y189860D01*
X435320Y189834D01*
X435310Y189810D01*
X435284Y189664D01*
X435252Y189519D01*
X435253Y189493D01*
X435248Y189467D01*
X435256Y189318D01*
X435258Y189170D01*
X435265Y189145D01*
X435266Y189119D01*
X435307Y188976D01*
X435343Y188832D01*
X435355Y188809D01*
X435363Y188784D01*
X435435Y188655D01*
X435503Y188523D01*
X435520Y188503D01*
X435533Y188480D01*
X435691Y188293D01*
X450525Y173460D01*
X450525Y112540D01*
X445610Y107625D01*
X445547Y107547D01*
X445478Y107474D01*
X445439Y107410D01*
X445393Y107352D01*
X445350Y107261D01*
X445299Y107175D01*
X445276Y107104D01*
X445244Y107037D01*
X445223Y106939D01*
X445193Y106843D01*
X445187Y106769D01*
X445171Y106696D01*
X445173Y106596D01*
X445165Y106496D01*
X445176Y106422D01*
X445177Y106348D01*
X445201Y106251D01*
X445216Y106151D01*
X445244Y106082D01*
X445262Y106010D01*
X445308Y105920D01*
X445345Y105827D01*
X445387Y105766D01*
X445421Y105700D01*
X445487Y105623D01*
X445544Y105541D01*
X445599Y105491D01*
X445647Y105435D01*
X445728Y105375D01*
X445759Y105347D01*
X449025Y102081D01*
X449025Y97919D01*
X446081Y94975D01*
X441919Y94975D01*
X440851Y96043D01*
X440772Y96105D01*
X440700Y96175D01*
X440636Y96213D01*
X440578Y96260D01*
X440487Y96302D01*
X440401Y96354D01*
X440330Y96377D01*
X440263Y96408D01*
X440165Y96430D01*
X440069Y96460D01*
X439995Y96466D01*
X439922Y96482D01*
X439822Y96480D01*
X439722Y96488D01*
X439648Y96477D01*
X439574Y96476D01*
X439477Y96451D01*
X439377Y96436D01*
X439308Y96409D01*
X439236Y96391D01*
X439147Y96345D01*
X439053Y96308D01*
X438992Y96265D01*
X438926Y96231D01*
X438850Y96166D01*
X438767Y96109D01*
X438717Y96054D01*
X438661Y96005D01*
X438601Y95925D01*
X438534Y95850D01*
X438498Y95785D01*
X438453Y95725D01*
X438414Y95633D01*
X438365Y95545D01*
X438345Y95473D01*
X438315Y95405D01*
X438298Y95306D01*
X438270Y95210D01*
X438262Y95110D01*
X438254Y95062D01*
X438256Y95026D01*
X438251Y94966D01*
X438251Y93524D01*
X438262Y93423D01*
X438264Y93321D01*
X438282Y93250D01*
X438291Y93178D01*
X438325Y93082D01*
X438350Y92983D01*
X438392Y92895D01*
X438408Y92850D01*
X438428Y92819D01*
X438455Y92763D01*
X438618Y92481D01*
X438791Y91835D01*
X438791Y91523D01*
X437734Y91523D01*
X437608Y91509D01*
X437482Y91502D01*
X437440Y91490D01*
X437398Y91486D01*
X437393Y91484D01*
X437388Y91484D01*
X437269Y91441D01*
X437147Y91406D01*
X437109Y91385D01*
X437069Y91370D01*
X437065Y91368D01*
X437060Y91366D01*
X436953Y91297D01*
X436843Y91236D01*
X436802Y91201D01*
X436775Y91183D01*
X436771Y91180D01*
X436767Y91177D01*
X436733Y91142D01*
X436657Y91077D01*
X436597Y91003D01*
X436531Y90934D01*
X436528Y90930D01*
X436525Y90926D01*
X436486Y90863D01*
X436440Y90804D01*
X436399Y90718D01*
X436350Y90637D01*
X436348Y90631D01*
X436346Y90627D01*
X436323Y90557D01*
X436291Y90489D01*
X436271Y90396D01*
X436241Y90305D01*
X436241Y90300D01*
X436239Y90295D01*
X436234Y90222D01*
X436218Y90148D01*
X436219Y90053D01*
X436211Y89958D01*
X436212Y89952D01*
X436211Y89948D01*
X436212Y89947D01*
X436222Y89875D01*
X436224Y89800D01*
X436247Y89707D01*
X436260Y89613D01*
X436262Y89608D01*
X436263Y89603D01*
X436290Y89535D01*
X436309Y89462D01*
X436352Y89377D01*
X436387Y89288D01*
X436390Y89284D01*
X436392Y89279D01*
X436434Y89219D01*
X436468Y89152D01*
X436530Y89079D01*
X436584Y89001D01*
X436589Y88996D01*
X436591Y88993D01*
X436605Y88980D01*
X436662Y88924D01*
X436694Y88887D01*
X436720Y88867D01*
X436759Y88830D01*
X436807Y88798D01*
X436850Y88759D01*
X436915Y88723D01*
X436974Y88679D01*
X437014Y88662D01*
X437050Y88639D01*
X437104Y88619D01*
X437155Y88591D01*
X437227Y88571D01*
X437294Y88541D01*
X437336Y88534D01*
X437377Y88519D01*
X437435Y88512D01*
X437490Y88496D01*
X437591Y88488D01*
X437637Y88480D01*
X437672Y88482D01*
X437704Y88479D01*
X437723Y88477D01*
X437728Y88477D01*
X437734Y88477D01*
X438791Y88477D01*
X438791Y88165D01*
X438618Y87519D01*
X438455Y87237D01*
X438414Y87144D01*
X438365Y87055D01*
X438345Y86985D01*
X438316Y86918D01*
X438298Y86818D01*
X438270Y86720D01*
X438262Y86622D01*
X438254Y86575D01*
X438256Y86538D01*
X438251Y86476D01*
X438251Y85172D01*
X438262Y85072D01*
X438264Y84972D01*
X438282Y84900D01*
X438291Y84826D01*
X438324Y84731D01*
X438349Y84634D01*
X438383Y84568D01*
X438408Y84498D01*
X438463Y84413D01*
X438509Y84324D01*
X438557Y84267D01*
X438597Y84205D01*
X438669Y84135D01*
X438734Y84058D01*
X438794Y84014D01*
X438848Y83963D01*
X438934Y83911D01*
X439015Y83851D01*
X439083Y83822D01*
X439147Y83784D01*
X439243Y83753D01*
X439335Y83713D01*
X439408Y83700D01*
X439479Y83677D01*
X439579Y83669D01*
X439678Y83652D01*
X439752Y83655D01*
X439826Y83649D01*
X439926Y83664D01*
G37*
%LPC*%
G36*
X104062Y143859D02*
X104062Y143859D01*
X97339Y146644D01*
X92194Y151789D01*
X89409Y158512D01*
X89409Y165788D01*
X92194Y172511D01*
X97339Y177656D01*
X104062Y180441D01*
X111338Y180441D01*
X118061Y177656D01*
X123206Y172511D01*
X125991Y165788D01*
X125991Y158512D01*
X123206Y151789D01*
X118061Y146644D01*
X111338Y143859D01*
X104062Y143859D01*
G37*
%LPD*%
%LPC*%
G36*
X104062Y29559D02*
X104062Y29559D01*
X97339Y32344D01*
X92194Y37489D01*
X89409Y44212D01*
X89409Y51488D01*
X92194Y58211D01*
X97339Y63356D01*
X104062Y66141D01*
X111338Y66141D01*
X118061Y63356D01*
X123206Y58211D01*
X125991Y51488D01*
X125991Y44212D01*
X123206Y37489D01*
X118061Y32344D01*
X111338Y29559D01*
X104062Y29559D01*
G37*
%LPD*%
%LPC*%
G36*
X166643Y138449D02*
X166643Y138449D01*
X160199Y144893D01*
X160199Y154007D01*
X166643Y160451D01*
X175757Y160451D01*
X176280Y159928D01*
X176300Y159911D01*
X176317Y159891D01*
X176436Y159803D01*
X176553Y159711D01*
X176577Y159700D01*
X176598Y159684D01*
X176734Y159626D01*
X176868Y159562D01*
X176893Y159557D01*
X176918Y159546D01*
X177064Y159520D01*
X177209Y159489D01*
X177235Y159489D01*
X177261Y159484D01*
X177409Y159492D01*
X177557Y159495D01*
X177582Y159501D01*
X177609Y159502D01*
X177751Y159544D01*
X177895Y159580D01*
X177918Y159592D01*
X177944Y159599D01*
X178073Y159671D01*
X178205Y159739D01*
X178225Y159756D01*
X178248Y159769D01*
X178434Y159928D01*
X178585Y160079D01*
X179796Y160004D01*
X179831Y160006D01*
X179890Y160001D01*
X214182Y160001D01*
X214208Y160004D01*
X214234Y160002D01*
X214381Y160024D01*
X214528Y160041D01*
X214553Y160049D01*
X214579Y160053D01*
X214717Y160108D01*
X214856Y160158D01*
X214878Y160172D01*
X214903Y160182D01*
X215024Y160267D01*
X215149Y160347D01*
X215167Y160366D01*
X215189Y160381D01*
X215288Y160491D01*
X215391Y160598D01*
X215405Y160620D01*
X215422Y160640D01*
X215494Y160770D01*
X215570Y160897D01*
X215578Y160922D01*
X215591Y160945D01*
X215631Y161088D01*
X215676Y161229D01*
X215678Y161255D01*
X215686Y161280D01*
X215705Y161524D01*
X215705Y161639D01*
X216877Y162811D01*
X224123Y162811D01*
X225295Y161639D01*
X225295Y152361D01*
X224123Y151189D01*
X216877Y151189D01*
X215705Y152361D01*
X215705Y152476D01*
X215702Y152502D01*
X215704Y152528D01*
X215682Y152675D01*
X215665Y152822D01*
X215657Y152847D01*
X215653Y152873D01*
X215598Y153011D01*
X215548Y153150D01*
X215534Y153172D01*
X215524Y153197D01*
X215439Y153318D01*
X215359Y153443D01*
X215340Y153461D01*
X215325Y153483D01*
X215215Y153582D01*
X215108Y153685D01*
X215086Y153699D01*
X215066Y153716D01*
X214936Y153788D01*
X214809Y153864D01*
X214784Y153872D01*
X214761Y153885D01*
X214618Y153925D01*
X214477Y153970D01*
X214451Y153972D01*
X214426Y153980D01*
X214182Y153999D01*
X183724Y153999D01*
X183698Y153996D01*
X183672Y153998D01*
X183525Y153976D01*
X183378Y153959D01*
X183353Y153951D01*
X183327Y153947D01*
X183189Y153892D01*
X183050Y153842D01*
X183028Y153828D01*
X183003Y153818D01*
X182882Y153733D01*
X182757Y153653D01*
X182739Y153634D01*
X182717Y153619D01*
X182618Y153509D01*
X182515Y153402D01*
X182501Y153380D01*
X182484Y153360D01*
X182412Y153230D01*
X182336Y153103D01*
X182328Y153078D01*
X182315Y153055D01*
X182275Y152912D01*
X182230Y152771D01*
X182228Y152745D01*
X182220Y152720D01*
X182201Y152476D01*
X182201Y144893D01*
X175757Y138449D01*
X166643Y138449D01*
G37*
%LPD*%
G36*
X441978Y153004D02*
X441978Y153004D01*
X442004Y153002D01*
X442151Y153024D01*
X442298Y153041D01*
X442323Y153049D01*
X442349Y153053D01*
X442487Y153108D01*
X442626Y153158D01*
X442648Y153172D01*
X442673Y153182D01*
X442794Y153267D01*
X442919Y153347D01*
X442937Y153366D01*
X442959Y153381D01*
X443058Y153491D01*
X443161Y153598D01*
X443175Y153620D01*
X443192Y153640D01*
X443264Y153770D01*
X443340Y153897D01*
X443348Y153922D01*
X443361Y153945D01*
X443401Y154088D01*
X443446Y154229D01*
X443448Y154255D01*
X443456Y154280D01*
X443475Y154524D01*
X443475Y169909D01*
X443461Y170035D01*
X443454Y170161D01*
X443441Y170207D01*
X443435Y170255D01*
X443393Y170374D01*
X443358Y170496D01*
X443334Y170538D01*
X443318Y170583D01*
X443249Y170690D01*
X443188Y170800D01*
X443148Y170846D01*
X443129Y170876D01*
X443094Y170910D01*
X443029Y170986D01*
X413986Y200029D01*
X413887Y200108D01*
X413793Y200192D01*
X413751Y200216D01*
X413713Y200246D01*
X413599Y200300D01*
X413488Y200361D01*
X413442Y200374D01*
X413398Y200395D01*
X413275Y200421D01*
X413153Y200456D01*
X413092Y200461D01*
X413057Y200468D01*
X413009Y200467D01*
X412909Y200475D01*
X406548Y200475D01*
X406522Y200472D01*
X406496Y200474D01*
X406349Y200452D01*
X406202Y200435D01*
X406177Y200427D01*
X406151Y200423D01*
X406013Y200368D01*
X405874Y200318D01*
X405852Y200304D01*
X405827Y200294D01*
X405706Y200209D01*
X405581Y200129D01*
X405563Y200110D01*
X405541Y200095D01*
X405442Y199985D01*
X405339Y199878D01*
X405325Y199856D01*
X405308Y199836D01*
X405236Y199706D01*
X405160Y199579D01*
X405152Y199554D01*
X405139Y199531D01*
X405099Y199388D01*
X405054Y199247D01*
X405052Y199221D01*
X405044Y199196D01*
X405025Y198952D01*
X405025Y195314D01*
X405028Y195288D01*
X405026Y195262D01*
X405048Y195115D01*
X405065Y194968D01*
X405073Y194943D01*
X405077Y194917D01*
X405132Y194779D01*
X405182Y194640D01*
X405196Y194618D01*
X405206Y194593D01*
X405291Y194472D01*
X405371Y194347D01*
X405390Y194329D01*
X405405Y194307D01*
X405515Y194208D01*
X405622Y194105D01*
X405644Y194091D01*
X405664Y194074D01*
X405794Y194002D01*
X405921Y193926D01*
X405946Y193918D01*
X405969Y193905D01*
X406112Y193865D01*
X406253Y193820D01*
X406279Y193818D01*
X406304Y193810D01*
X406548Y193791D01*
X406835Y193791D01*
X407481Y193618D01*
X407763Y193455D01*
X407856Y193414D01*
X407945Y193365D01*
X408015Y193345D01*
X408082Y193316D01*
X408182Y193298D01*
X408280Y193270D01*
X408378Y193262D01*
X408425Y193254D01*
X408462Y193256D01*
X408524Y193251D01*
X412329Y193251D01*
X413501Y192079D01*
X413501Y177921D01*
X413447Y177867D01*
X413368Y177768D01*
X413284Y177675D01*
X413260Y177632D01*
X413230Y177594D01*
X413176Y177480D01*
X413115Y177369D01*
X413102Y177323D01*
X413081Y177279D01*
X413055Y177156D01*
X413020Y177034D01*
X413015Y176973D01*
X413008Y176939D01*
X413009Y176891D01*
X413001Y176790D01*
X413001Y172757D01*
X410845Y170601D01*
X410782Y170523D01*
X410713Y170450D01*
X410674Y170386D01*
X410628Y170328D01*
X410585Y170237D01*
X410534Y170151D01*
X410511Y170080D01*
X410479Y170013D01*
X410458Y169915D01*
X410427Y169819D01*
X410421Y169745D01*
X410406Y169672D01*
X410408Y169572D01*
X410399Y169472D01*
X410411Y169398D01*
X410412Y169324D01*
X410436Y169227D01*
X410451Y169127D01*
X410479Y169058D01*
X410497Y168986D01*
X410543Y168897D01*
X410580Y168803D01*
X410622Y168742D01*
X410656Y168676D01*
X410722Y168600D01*
X410779Y168517D01*
X410834Y168467D01*
X410882Y168411D01*
X410963Y168351D01*
X411038Y168284D01*
X411103Y168248D01*
X411163Y168203D01*
X411255Y168164D01*
X411343Y168115D01*
X411414Y168095D01*
X411483Y168065D01*
X411581Y168048D01*
X411678Y168020D01*
X411778Y168012D01*
X411826Y168004D01*
X411861Y168006D01*
X411922Y168001D01*
X421790Y168001D01*
X421916Y168015D01*
X422042Y168022D01*
X422089Y168035D01*
X422137Y168041D01*
X422255Y168083D01*
X422377Y168118D01*
X422419Y168142D01*
X422465Y168158D01*
X422571Y168227D01*
X422681Y168288D01*
X422727Y168328D01*
X422757Y168347D01*
X422791Y168382D01*
X422867Y168447D01*
X422921Y168501D01*
X437079Y168501D01*
X438251Y167329D01*
X438251Y154524D01*
X438254Y154498D01*
X438252Y154472D01*
X438274Y154325D01*
X438291Y154178D01*
X438299Y154153D01*
X438303Y154127D01*
X438358Y153989D01*
X438408Y153850D01*
X438422Y153828D01*
X438432Y153803D01*
X438517Y153682D01*
X438597Y153557D01*
X438616Y153539D01*
X438631Y153517D01*
X438741Y153418D01*
X438848Y153315D01*
X438870Y153301D01*
X438890Y153284D01*
X439020Y153212D01*
X439147Y153136D01*
X439172Y153128D01*
X439195Y153115D01*
X439338Y153075D01*
X439479Y153030D01*
X439505Y153028D01*
X439530Y153020D01*
X439774Y153001D01*
X441952Y153001D01*
X441978Y153004D01*
G37*
%LPC*%
G36*
X192043Y74949D02*
X192043Y74949D01*
X185599Y81393D01*
X185599Y90507D01*
X192043Y96951D01*
X201157Y96951D01*
X207601Y90507D01*
X207601Y90024D01*
X207604Y89998D01*
X207602Y89972D01*
X207624Y89825D01*
X207641Y89678D01*
X207649Y89653D01*
X207653Y89627D01*
X207708Y89489D01*
X207758Y89350D01*
X207772Y89328D01*
X207782Y89303D01*
X207867Y89182D01*
X207947Y89057D01*
X207966Y89039D01*
X207981Y89017D01*
X208091Y88918D01*
X208198Y88815D01*
X208220Y88801D01*
X208240Y88784D01*
X208370Y88712D01*
X208497Y88636D01*
X208522Y88628D01*
X208545Y88615D01*
X208688Y88575D01*
X208829Y88530D01*
X208855Y88528D01*
X208880Y88520D01*
X209124Y88501D01*
X214182Y88501D01*
X214208Y88504D01*
X214234Y88502D01*
X214381Y88524D01*
X214528Y88541D01*
X214553Y88549D01*
X214579Y88553D01*
X214717Y88608D01*
X214856Y88658D01*
X214878Y88672D01*
X214903Y88682D01*
X215024Y88767D01*
X215149Y88847D01*
X215167Y88866D01*
X215189Y88881D01*
X215288Y88991D01*
X215391Y89098D01*
X215405Y89120D01*
X215422Y89140D01*
X215494Y89270D01*
X215570Y89397D01*
X215578Y89422D01*
X215591Y89445D01*
X215631Y89588D01*
X215676Y89729D01*
X215678Y89755D01*
X215686Y89780D01*
X215705Y90024D01*
X215705Y90139D01*
X216877Y91311D01*
X224123Y91311D01*
X225295Y90139D01*
X225295Y80861D01*
X224123Y79689D01*
X216877Y79689D01*
X215705Y80861D01*
X215705Y80976D01*
X215702Y81002D01*
X215704Y81028D01*
X215682Y81175D01*
X215665Y81322D01*
X215657Y81347D01*
X215653Y81373D01*
X215598Y81511D01*
X215548Y81650D01*
X215534Y81672D01*
X215524Y81697D01*
X215439Y81818D01*
X215359Y81943D01*
X215340Y81961D01*
X215325Y81983D01*
X215215Y82082D01*
X215108Y82185D01*
X215086Y82199D01*
X215066Y82216D01*
X214936Y82288D01*
X214809Y82364D01*
X214784Y82372D01*
X214761Y82385D01*
X214618Y82425D01*
X214477Y82470D01*
X214451Y82472D01*
X214426Y82480D01*
X214182Y82499D01*
X209124Y82499D01*
X209098Y82496D01*
X209072Y82498D01*
X208925Y82476D01*
X208778Y82459D01*
X208753Y82451D01*
X208727Y82447D01*
X208589Y82392D01*
X208450Y82342D01*
X208428Y82328D01*
X208403Y82318D01*
X208282Y82233D01*
X208157Y82153D01*
X208139Y82134D01*
X208117Y82119D01*
X208018Y82009D01*
X207915Y81902D01*
X207901Y81880D01*
X207884Y81860D01*
X207812Y81730D01*
X207736Y81603D01*
X207728Y81578D01*
X207715Y81555D01*
X207696Y81489D01*
X201157Y74949D01*
X192043Y74949D01*
G37*
%LPD*%
G36*
X406052Y119885D02*
X406052Y119885D01*
X406200Y119888D01*
X406226Y119894D01*
X406252Y119896D01*
X406394Y119937D01*
X406538Y119973D01*
X406561Y119985D01*
X406587Y119992D01*
X406716Y120065D01*
X406848Y120132D01*
X406868Y120149D01*
X406891Y120162D01*
X407077Y120321D01*
X419757Y133001D01*
X420226Y133001D01*
X420252Y133004D01*
X420278Y133002D01*
X420425Y133024D01*
X420572Y133041D01*
X420597Y133049D01*
X420623Y133053D01*
X420761Y133108D01*
X420900Y133158D01*
X420922Y133172D01*
X420947Y133182D01*
X421068Y133267D01*
X421193Y133347D01*
X421211Y133366D01*
X421233Y133381D01*
X421332Y133491D01*
X421435Y133598D01*
X421449Y133620D01*
X421466Y133640D01*
X421538Y133770D01*
X421614Y133897D01*
X421622Y133922D01*
X421635Y133945D01*
X421675Y134088D01*
X421720Y134229D01*
X421722Y134255D01*
X421730Y134280D01*
X421749Y134524D01*
X421749Y136476D01*
X421738Y136577D01*
X421736Y136679D01*
X421718Y136750D01*
X421709Y136822D01*
X421675Y136918D01*
X421650Y137017D01*
X421608Y137105D01*
X421592Y137150D01*
X421572Y137181D01*
X421545Y137237D01*
X421382Y137519D01*
X421209Y138165D01*
X421209Y138477D01*
X422266Y138477D01*
X422368Y138488D01*
X422466Y138490D01*
X422491Y138496D01*
X422518Y138498D01*
X422564Y138511D01*
X422612Y138516D01*
X422708Y138551D01*
X422804Y138575D01*
X422827Y138587D01*
X422853Y138594D01*
X422895Y138618D01*
X422940Y138634D01*
X423025Y138689D01*
X423114Y138735D01*
X423134Y138751D01*
X423157Y138764D01*
X423203Y138804D01*
X423233Y138823D01*
X423267Y138858D01*
X423343Y138923D01*
X423360Y138943D01*
X423380Y138960D01*
X423424Y139020D01*
X423475Y139074D01*
X423514Y139137D01*
X423560Y139196D01*
X423571Y139220D01*
X423587Y139241D01*
X423616Y139309D01*
X423654Y139373D01*
X423677Y139443D01*
X423709Y139511D01*
X423714Y139537D01*
X423725Y139561D01*
X423738Y139635D01*
X423761Y139705D01*
X423766Y139778D01*
X423782Y139852D01*
X423782Y139878D01*
X423787Y139904D01*
X423783Y139979D01*
X423789Y140052D01*
X423788Y140052D01*
X423789Y140052D01*
X423778Y140125D01*
X423776Y140200D01*
X423770Y140226D01*
X423769Y140252D01*
X423748Y140324D01*
X423737Y140397D01*
X423710Y140465D01*
X423691Y140538D01*
X423679Y140561D01*
X423672Y140587D01*
X423635Y140652D01*
X423608Y140721D01*
X423566Y140781D01*
X423532Y140848D01*
X423515Y140868D01*
X423502Y140891D01*
X423437Y140968D01*
X423409Y141007D01*
X423383Y141031D01*
X423343Y141077D01*
X423323Y141093D01*
X423306Y141113D01*
X423225Y141173D01*
X423150Y141240D01*
X423108Y141264D01*
X423070Y141294D01*
X423046Y141305D01*
X423026Y141321D01*
X422934Y141360D01*
X422845Y141409D01*
X422799Y141422D01*
X422755Y141443D01*
X422729Y141448D01*
X422706Y141459D01*
X422608Y141476D01*
X422510Y141504D01*
X422449Y141509D01*
X422414Y141516D01*
X422388Y141516D01*
X422363Y141520D01*
X422328Y141518D01*
X422266Y141523D01*
X421209Y141523D01*
X421209Y141835D01*
X421382Y142481D01*
X421545Y142763D01*
X421586Y142856D01*
X421635Y142945D01*
X421655Y143015D01*
X421684Y143082D01*
X421702Y143182D01*
X421730Y143280D01*
X421738Y143378D01*
X421746Y143425D01*
X421744Y143462D01*
X421749Y143524D01*
X421749Y146672D01*
X421738Y146772D01*
X421736Y146872D01*
X421718Y146944D01*
X421709Y147018D01*
X421676Y147113D01*
X421651Y147210D01*
X421617Y147276D01*
X421592Y147346D01*
X421537Y147431D01*
X421491Y147520D01*
X421443Y147576D01*
X421403Y147639D01*
X421331Y147709D01*
X421266Y147785D01*
X421206Y147829D01*
X421152Y147881D01*
X421066Y147933D01*
X420985Y147992D01*
X420917Y148022D01*
X420853Y148060D01*
X420758Y148091D01*
X420665Y148130D01*
X420592Y148144D01*
X420521Y148166D01*
X420421Y148174D01*
X420322Y148192D01*
X420248Y148188D01*
X420174Y148194D01*
X420075Y148179D01*
X419974Y148174D01*
X419903Y148153D01*
X419829Y148142D01*
X419736Y148105D01*
X419639Y148078D01*
X419574Y148041D01*
X419505Y148014D01*
X419423Y147956D01*
X419335Y147907D01*
X419259Y147842D01*
X419219Y147815D01*
X419195Y147788D01*
X419149Y147749D01*
X419081Y147681D01*
X414919Y147681D01*
X411975Y150625D01*
X411975Y152452D01*
X411972Y152478D01*
X411974Y152504D01*
X411952Y152651D01*
X411935Y152798D01*
X411927Y152823D01*
X411923Y152849D01*
X411868Y152987D01*
X411818Y153126D01*
X411804Y153148D01*
X411794Y153173D01*
X411709Y153294D01*
X411629Y153419D01*
X411610Y153437D01*
X411595Y153459D01*
X411485Y153558D01*
X411378Y153661D01*
X411356Y153675D01*
X411336Y153692D01*
X411206Y153764D01*
X411079Y153840D01*
X411054Y153848D01*
X411031Y153861D01*
X410888Y153901D01*
X410747Y153946D01*
X410721Y153948D01*
X410696Y153956D01*
X410452Y153975D01*
X409919Y153975D01*
X406975Y156919D01*
X406975Y157054D01*
X406964Y157154D01*
X406962Y157254D01*
X406944Y157327D01*
X406935Y157400D01*
X406902Y157495D01*
X406877Y157592D01*
X406843Y157658D01*
X406818Y157728D01*
X406763Y157813D01*
X406717Y157902D01*
X406669Y157959D01*
X406629Y158021D01*
X406557Y158091D01*
X406492Y158168D01*
X406432Y158212D01*
X406378Y158263D01*
X406292Y158315D01*
X406211Y158375D01*
X406143Y158404D01*
X406079Y158442D01*
X405983Y158473D01*
X405891Y158513D01*
X405818Y158526D01*
X405747Y158549D01*
X405647Y158557D01*
X405548Y158574D01*
X405474Y158571D01*
X405400Y158577D01*
X405300Y158562D01*
X405200Y158556D01*
X405129Y158536D01*
X405055Y158525D01*
X404962Y158488D01*
X404865Y158460D01*
X404800Y158424D01*
X404731Y158396D01*
X404649Y158339D01*
X404561Y158290D01*
X404485Y158225D01*
X404445Y158197D01*
X404421Y158171D01*
X404375Y158131D01*
X401447Y155203D01*
X401368Y155104D01*
X401284Y155010D01*
X401260Y154968D01*
X401230Y154930D01*
X401176Y154816D01*
X401115Y154705D01*
X401102Y154659D01*
X401081Y154615D01*
X401055Y154492D01*
X401020Y154370D01*
X401015Y154309D01*
X401008Y154274D01*
X401009Y154226D01*
X401001Y154126D01*
X401001Y146548D01*
X401004Y146522D01*
X401002Y146496D01*
X401024Y146349D01*
X401041Y146202D01*
X401049Y146177D01*
X401053Y146151D01*
X401108Y146013D01*
X401158Y145874D01*
X401172Y145852D01*
X401182Y145827D01*
X401267Y145706D01*
X401347Y145581D01*
X401366Y145563D01*
X401381Y145541D01*
X401491Y145442D01*
X401598Y145339D01*
X401620Y145325D01*
X401640Y145308D01*
X401770Y145236D01*
X401897Y145160D01*
X401922Y145152D01*
X401945Y145139D01*
X401976Y145130D01*
X405025Y142081D01*
X405025Y137919D01*
X402081Y134975D01*
X398524Y134975D01*
X398498Y134972D01*
X398472Y134974D01*
X398325Y134952D01*
X398178Y134935D01*
X398153Y134927D01*
X398127Y134923D01*
X397989Y134868D01*
X397850Y134818D01*
X397828Y134804D01*
X397803Y134794D01*
X397682Y134709D01*
X397557Y134629D01*
X397539Y134610D01*
X397517Y134595D01*
X397418Y134485D01*
X397315Y134378D01*
X397301Y134356D01*
X397284Y134336D01*
X397212Y134206D01*
X397136Y134079D01*
X397128Y134054D01*
X397115Y134031D01*
X397075Y133888D01*
X397030Y133747D01*
X397028Y133721D01*
X397020Y133696D01*
X397001Y133452D01*
X397001Y128874D01*
X397015Y128748D01*
X397022Y128622D01*
X397035Y128576D01*
X397041Y128528D01*
X397083Y128409D01*
X397118Y128287D01*
X397142Y128245D01*
X397158Y128200D01*
X397227Y128093D01*
X397288Y127983D01*
X397328Y127937D01*
X397347Y127907D01*
X397382Y127873D01*
X397447Y127797D01*
X403797Y121447D01*
X404923Y120321D01*
X404943Y120304D01*
X404960Y120284D01*
X405079Y120197D01*
X405196Y120104D01*
X405220Y120093D01*
X405241Y120077D01*
X405377Y120019D01*
X405511Y119955D01*
X405537Y119950D01*
X405561Y119939D01*
X405707Y119913D01*
X405852Y119882D01*
X405878Y119882D01*
X405904Y119878D01*
X406052Y119885D01*
G37*
%LPC*%
G36*
X475489Y28509D02*
X475489Y28509D01*
X469011Y34987D01*
X469002Y35011D01*
X468952Y35150D01*
X468938Y35172D01*
X468928Y35197D01*
X468843Y35318D01*
X468763Y35443D01*
X468744Y35461D01*
X468729Y35483D01*
X468619Y35582D01*
X468512Y35685D01*
X468490Y35699D01*
X468470Y35716D01*
X468340Y35788D01*
X468213Y35864D01*
X468188Y35872D01*
X468165Y35885D01*
X468022Y35925D01*
X467881Y35970D01*
X467855Y35972D01*
X467830Y35980D01*
X467586Y35999D01*
X460736Y35999D01*
X460611Y35985D01*
X460484Y35978D01*
X460438Y35965D01*
X460390Y35959D01*
X460271Y35917D01*
X460150Y35882D01*
X460107Y35858D01*
X460062Y35842D01*
X459956Y35773D01*
X459845Y35712D01*
X459799Y35672D01*
X459769Y35653D01*
X459736Y35618D01*
X459659Y35553D01*
X458081Y33975D01*
X453919Y33975D01*
X450975Y36919D01*
X450975Y41081D01*
X453919Y44025D01*
X458081Y44025D01*
X459659Y42447D01*
X459758Y42368D01*
X459852Y42284D01*
X459894Y42260D01*
X459932Y42230D01*
X460046Y42176D01*
X460157Y42115D01*
X460204Y42102D01*
X460247Y42081D01*
X460371Y42055D01*
X460492Y42020D01*
X460553Y42015D01*
X460588Y42008D01*
X460636Y42009D01*
X460736Y42001D01*
X467586Y42001D01*
X467612Y42004D01*
X467638Y42002D01*
X467785Y42024D01*
X467932Y42041D01*
X467957Y42049D01*
X467983Y42053D01*
X468121Y42108D01*
X468260Y42158D01*
X468282Y42172D01*
X468307Y42182D01*
X468428Y42267D01*
X468553Y42347D01*
X468571Y42366D01*
X468593Y42381D01*
X468692Y42491D01*
X468795Y42598D01*
X468809Y42620D01*
X468826Y42640D01*
X468898Y42770D01*
X468974Y42897D01*
X468982Y42922D01*
X468995Y42945D01*
X469035Y43088D01*
X469080Y43229D01*
X469082Y43255D01*
X469090Y43280D01*
X469109Y43524D01*
X469109Y43911D01*
X475489Y50291D01*
X484511Y50291D01*
X490891Y43911D01*
X490891Y34889D01*
X484511Y28509D01*
X475489Y28509D01*
G37*
%LPD*%
%LPC*%
G36*
X166643Y62249D02*
X166643Y62249D01*
X160199Y68693D01*
X160199Y77807D01*
X166643Y84251D01*
X175757Y84251D01*
X182201Y77807D01*
X182201Y68693D01*
X175757Y62249D01*
X166643Y62249D01*
G37*
%LPD*%
%LPC*%
G36*
X192043Y49549D02*
X192043Y49549D01*
X185599Y55993D01*
X185599Y65107D01*
X192043Y71551D01*
X201157Y71551D01*
X207601Y65107D01*
X207601Y55993D01*
X201157Y49549D01*
X192043Y49549D01*
G37*
%LPD*%
%LPC*%
G36*
X475489Y53909D02*
X475489Y53909D01*
X469109Y60289D01*
X469109Y69311D01*
X475489Y75691D01*
X484511Y75691D01*
X490891Y69311D01*
X490891Y60289D01*
X484511Y53909D01*
X475489Y53909D01*
G37*
%LPD*%
%LPC*%
G36*
X504165Y88459D02*
X504165Y88459D01*
X503519Y88632D01*
X502940Y88967D01*
X502467Y89440D01*
X502106Y90065D01*
X502076Y90106D01*
X502052Y90151D01*
X501972Y90246D01*
X501898Y90345D01*
X501860Y90378D01*
X501826Y90417D01*
X501727Y90490D01*
X501633Y90570D01*
X501587Y90593D01*
X501546Y90624D01*
X501432Y90673D01*
X501323Y90729D01*
X501273Y90742D01*
X501226Y90762D01*
X501104Y90784D01*
X500984Y90814D01*
X500933Y90814D01*
X500883Y90823D01*
X500760Y90817D01*
X500636Y90819D01*
X500586Y90808D01*
X500535Y90806D01*
X500416Y90771D01*
X500295Y90745D01*
X500249Y90723D01*
X500200Y90709D01*
X500092Y90649D01*
X499981Y90596D01*
X499941Y90564D01*
X499896Y90539D01*
X499710Y90380D01*
X498329Y88999D01*
X488671Y88999D01*
X487379Y90291D01*
X487359Y90308D01*
X487342Y90328D01*
X487222Y90416D01*
X487106Y90508D01*
X487082Y90519D01*
X487061Y90535D01*
X486925Y90594D01*
X486791Y90657D01*
X486765Y90662D01*
X486741Y90673D01*
X486595Y90699D01*
X486450Y90730D01*
X486424Y90730D01*
X486398Y90735D01*
X486250Y90727D01*
X486102Y90724D01*
X486076Y90718D01*
X486050Y90717D01*
X485908Y90676D01*
X485764Y90639D01*
X485741Y90627D01*
X485715Y90620D01*
X485586Y90548D01*
X485454Y90480D01*
X485434Y90463D01*
X485411Y90450D01*
X485225Y90291D01*
X484123Y89189D01*
X476877Y89189D01*
X475705Y90361D01*
X475705Y99639D01*
X476877Y100811D01*
X484123Y100811D01*
X485225Y99709D01*
X485245Y99692D01*
X485262Y99672D01*
X485382Y99584D01*
X485498Y99492D01*
X485522Y99481D01*
X485543Y99465D01*
X485679Y99406D01*
X485813Y99343D01*
X485839Y99338D01*
X485863Y99327D01*
X486009Y99301D01*
X486154Y99270D01*
X486180Y99270D01*
X486206Y99265D01*
X486354Y99273D01*
X486502Y99276D01*
X486528Y99282D01*
X486554Y99283D01*
X486696Y99324D01*
X486840Y99361D01*
X486863Y99373D01*
X486889Y99380D01*
X487018Y99452D01*
X487150Y99520D01*
X487170Y99537D01*
X487193Y99550D01*
X487379Y99709D01*
X488671Y101001D01*
X498329Y101001D01*
X499710Y99620D01*
X499750Y99588D01*
X499784Y99550D01*
X499886Y99480D01*
X499983Y99403D01*
X500029Y99381D01*
X500071Y99352D01*
X500186Y99307D01*
X500298Y99254D01*
X500348Y99243D01*
X500395Y99225D01*
X500518Y99207D01*
X500639Y99181D01*
X500690Y99182D01*
X500740Y99174D01*
X500864Y99185D01*
X500987Y99187D01*
X501037Y99199D01*
X501087Y99203D01*
X501205Y99242D01*
X501325Y99272D01*
X501370Y99295D01*
X501419Y99311D01*
X501525Y99375D01*
X501635Y99431D01*
X501674Y99464D01*
X501717Y99491D01*
X501806Y99577D01*
X501900Y99657D01*
X501931Y99698D01*
X501967Y99734D01*
X502106Y99935D01*
X502107Y99937D01*
X502108Y99938D01*
X502467Y100560D01*
X502940Y101033D01*
X503519Y101368D01*
X504165Y101541D01*
X506501Y101541D01*
X506501Y95476D01*
X506504Y95450D01*
X506502Y95424D01*
X506524Y95277D01*
X506541Y95130D01*
X506549Y95105D01*
X506553Y95079D01*
X506586Y94998D01*
X506575Y94960D01*
X506530Y94819D01*
X506527Y94793D01*
X506520Y94768D01*
X506501Y94524D01*
X506501Y88459D01*
X504165Y88459D01*
G37*
%LPD*%
%LPC*%
G36*
X504165Y108459D02*
X504165Y108459D01*
X503519Y108632D01*
X502940Y108967D01*
X502467Y109440D01*
X502106Y110065D01*
X502076Y110106D01*
X502052Y110151D01*
X501972Y110246D01*
X501898Y110345D01*
X501860Y110378D01*
X501826Y110417D01*
X501727Y110490D01*
X501633Y110570D01*
X501587Y110593D01*
X501546Y110624D01*
X501432Y110673D01*
X501323Y110729D01*
X501273Y110742D01*
X501226Y110762D01*
X501104Y110784D01*
X500984Y110814D01*
X500933Y110814D01*
X500883Y110823D01*
X500760Y110817D01*
X500636Y110819D01*
X500586Y110808D01*
X500535Y110806D01*
X500416Y110771D01*
X500295Y110745D01*
X500249Y110723D01*
X500200Y110709D01*
X500092Y110649D01*
X499981Y110596D01*
X499941Y110564D01*
X499896Y110539D01*
X499710Y110380D01*
X498329Y108999D01*
X488671Y108999D01*
X487379Y110291D01*
X487359Y110308D01*
X487342Y110328D01*
X487233Y110408D01*
X487232Y110409D01*
X487222Y110416D01*
X487106Y110508D01*
X487082Y110519D01*
X487061Y110535D01*
X486925Y110594D01*
X486791Y110657D01*
X486765Y110662D01*
X486741Y110673D01*
X486595Y110699D01*
X486450Y110730D01*
X486424Y110730D01*
X486398Y110735D01*
X486250Y110727D01*
X486102Y110724D01*
X486076Y110718D01*
X486050Y110717D01*
X485908Y110676D01*
X485764Y110639D01*
X485741Y110627D01*
X485715Y110620D01*
X485586Y110548D01*
X485454Y110480D01*
X485434Y110463D01*
X485411Y110450D01*
X485225Y110291D01*
X484123Y109189D01*
X476877Y109189D01*
X475705Y110361D01*
X475705Y119639D01*
X476877Y120811D01*
X484123Y120811D01*
X485225Y119709D01*
X485245Y119692D01*
X485262Y119672D01*
X485382Y119584D01*
X485498Y119492D01*
X485522Y119481D01*
X485543Y119465D01*
X485679Y119406D01*
X485813Y119343D01*
X485839Y119338D01*
X485863Y119327D01*
X486009Y119301D01*
X486154Y119270D01*
X486180Y119270D01*
X486206Y119265D01*
X486354Y119273D01*
X486502Y119276D01*
X486528Y119282D01*
X486554Y119283D01*
X486696Y119324D01*
X486840Y119361D01*
X486863Y119373D01*
X486889Y119380D01*
X487018Y119452D01*
X487150Y119520D01*
X487170Y119537D01*
X487193Y119550D01*
X487379Y119709D01*
X488671Y121001D01*
X498329Y121001D01*
X499710Y119620D01*
X499750Y119588D01*
X499784Y119550D01*
X499886Y119480D01*
X499983Y119403D01*
X500029Y119381D01*
X500071Y119352D01*
X500186Y119307D01*
X500298Y119254D01*
X500348Y119243D01*
X500395Y119225D01*
X500518Y119207D01*
X500639Y119181D01*
X500690Y119182D01*
X500740Y119174D01*
X500864Y119185D01*
X500987Y119187D01*
X501037Y119199D01*
X501087Y119203D01*
X501205Y119242D01*
X501325Y119272D01*
X501370Y119295D01*
X501419Y119311D01*
X501525Y119375D01*
X501635Y119431D01*
X501674Y119464D01*
X501717Y119491D01*
X501806Y119577D01*
X501900Y119657D01*
X501931Y119698D01*
X501967Y119734D01*
X502106Y119935D01*
X502107Y119937D01*
X502108Y119938D01*
X502467Y120560D01*
X502940Y121033D01*
X503519Y121368D01*
X504165Y121541D01*
X506501Y121541D01*
X506501Y115476D01*
X506504Y115450D01*
X506502Y115424D01*
X506524Y115277D01*
X506541Y115130D01*
X506549Y115105D01*
X506553Y115079D01*
X506586Y114998D01*
X506575Y114960D01*
X506530Y114819D01*
X506527Y114793D01*
X506520Y114768D01*
X506501Y114524D01*
X506501Y108459D01*
X504165Y108459D01*
G37*
%LPD*%
%LPC*%
G36*
X141247Y29047D02*
X141247Y29047D01*
X141247Y40541D01*
X144223Y40541D01*
X152741Y32023D01*
X152741Y29047D01*
X141247Y29047D01*
G37*
%LPD*%
%LPC*%
G36*
X141247Y187047D02*
X141247Y187047D01*
X141247Y198541D01*
X144223Y198541D01*
X152741Y190023D01*
X152741Y187047D01*
X141247Y187047D01*
G37*
%LPD*%
%LPC*%
G36*
X123659Y29047D02*
X123659Y29047D01*
X123659Y32023D01*
X132177Y40541D01*
X135153Y40541D01*
X135153Y29047D01*
X123659Y29047D01*
G37*
%LPD*%
%LPC*%
G36*
X123659Y187047D02*
X123659Y187047D01*
X123659Y190023D01*
X132177Y198541D01*
X135153Y198541D01*
X135153Y187047D01*
X123659Y187047D01*
G37*
%LPD*%
%LPC*%
G36*
X141247Y169459D02*
X141247Y169459D01*
X141247Y180953D01*
X152741Y180953D01*
X152741Y177977D01*
X144223Y169459D01*
X141247Y169459D01*
G37*
%LPD*%
%LPC*%
G36*
X141247Y11459D02*
X141247Y11459D01*
X141247Y22953D01*
X152741Y22953D01*
X152741Y19977D01*
X144223Y11459D01*
X141247Y11459D01*
G37*
%LPD*%
%LPC*%
G36*
X132177Y169459D02*
X132177Y169459D01*
X123659Y177977D01*
X123659Y180953D01*
X135153Y180953D01*
X135153Y169459D01*
X132177Y169459D01*
G37*
%LPD*%
%LPC*%
G36*
X132177Y11459D02*
X132177Y11459D01*
X123659Y19977D01*
X123659Y22953D01*
X135153Y22953D01*
X135153Y11459D01*
X132177Y11459D01*
G37*
%LPD*%
%LPC*%
G36*
X482539Y16539D02*
X482539Y16539D01*
X482539Y25431D01*
X484735Y25431D01*
X491431Y18735D01*
X491431Y16539D01*
X482539Y16539D01*
G37*
%LPD*%
%LPC*%
G36*
X482539Y147539D02*
X482539Y147539D01*
X482539Y156431D01*
X484735Y156431D01*
X491431Y149735D01*
X491431Y147539D01*
X482539Y147539D01*
G37*
%LPD*%
%LPC*%
G36*
X482539Y133569D02*
X482539Y133569D01*
X482539Y142461D01*
X491431Y142461D01*
X491431Y140265D01*
X484735Y133569D01*
X482539Y133569D01*
G37*
%LPD*%
%LPC*%
G36*
X468569Y16539D02*
X468569Y16539D01*
X468569Y18735D01*
X475265Y25431D01*
X477461Y25431D01*
X477461Y16539D01*
X468569Y16539D01*
G37*
%LPD*%
%LPC*%
G36*
X494569Y147539D02*
X494569Y147539D01*
X494569Y149735D01*
X501265Y156431D01*
X503461Y156431D01*
X503461Y147539D01*
X494569Y147539D01*
G37*
%LPD*%
%LPC*%
G36*
X494569Y16539D02*
X494569Y16539D01*
X494569Y18735D01*
X501265Y25431D01*
X503461Y25431D01*
X503461Y16539D01*
X494569Y16539D01*
G37*
%LPD*%
%LPC*%
G36*
X501265Y133569D02*
X501265Y133569D01*
X494569Y140265D01*
X494569Y142461D01*
X503461Y142461D01*
X503461Y133569D01*
X501265Y133569D01*
G37*
%LPD*%
%LPC*%
G36*
X230047Y20047D02*
X230047Y20047D01*
X230047Y27541D01*
X234335Y27541D01*
X234981Y27368D01*
X235560Y27033D01*
X236033Y26560D01*
X236368Y25981D01*
X236541Y25335D01*
X236541Y20047D01*
X230047Y20047D01*
G37*
%LPD*%
%LPC*%
G36*
X230047Y6459D02*
X230047Y6459D01*
X230047Y13953D01*
X236541Y13953D01*
X236541Y8665D01*
X236368Y8019D01*
X236033Y7440D01*
X235560Y6967D01*
X234981Y6632D01*
X234335Y6459D01*
X230047Y6459D01*
G37*
%LPD*%
%LPC*%
G36*
X217459Y20047D02*
X217459Y20047D01*
X217459Y25335D01*
X217632Y25981D01*
X217967Y26560D01*
X218440Y27033D01*
X219019Y27368D01*
X219665Y27541D01*
X223953Y27541D01*
X223953Y20047D01*
X217459Y20047D01*
G37*
%LPD*%
%LPC*%
G36*
X219665Y6459D02*
X219665Y6459D01*
X219019Y6632D01*
X218440Y6967D01*
X217967Y7440D01*
X217632Y8019D01*
X217459Y8665D01*
X217459Y13953D01*
X223953Y13953D01*
X223953Y6459D01*
X219665Y6459D01*
G37*
%LPD*%
%LPC*%
G36*
X258172Y186949D02*
X258172Y186949D01*
X259980Y188758D01*
X260560Y189092D01*
X261206Y189265D01*
X261875Y189265D01*
X262521Y189092D01*
X263101Y188758D01*
X265358Y186500D01*
X261990Y183132D01*
X258172Y186949D01*
G37*
%LPD*%
%LPC*%
G36*
X275227Y9714D02*
X275227Y9714D01*
X274581Y9887D01*
X274001Y10221D01*
X272193Y12030D01*
X276010Y15848D01*
X279379Y12479D01*
X277121Y10221D01*
X276542Y9887D01*
X275896Y9714D01*
X275227Y9714D01*
G37*
%LPD*%
%LPC*%
G36*
X458023Y198523D02*
X458023Y198523D01*
X458023Y203351D01*
X459629Y203351D01*
X460275Y203178D01*
X460854Y202843D01*
X461327Y202370D01*
X461662Y201791D01*
X461835Y201145D01*
X461835Y198523D01*
X458023Y198523D01*
G37*
%LPD*%
%LPC*%
G36*
X458023Y15523D02*
X458023Y15523D01*
X458023Y20351D01*
X459629Y20351D01*
X460275Y20178D01*
X460854Y19843D01*
X461327Y19370D01*
X461662Y18791D01*
X461835Y18145D01*
X461835Y15523D01*
X458023Y15523D01*
G37*
%LPD*%
%LPC*%
G36*
X458023Y190649D02*
X458023Y190649D01*
X458023Y195477D01*
X461835Y195477D01*
X461835Y192855D01*
X461662Y192209D01*
X461327Y191630D01*
X460854Y191157D01*
X460275Y190822D01*
X459629Y190649D01*
X458023Y190649D01*
G37*
%LPD*%
%LPC*%
G36*
X458023Y7649D02*
X458023Y7649D01*
X458023Y12477D01*
X461835Y12477D01*
X461835Y9855D01*
X461662Y9209D01*
X461327Y8630D01*
X460854Y8157D01*
X460275Y7822D01*
X459629Y7649D01*
X458023Y7649D01*
G37*
%LPD*%
%LPC*%
G36*
X215165Y176523D02*
X215165Y176523D01*
X215165Y179145D01*
X215338Y179791D01*
X215673Y180370D01*
X216146Y180843D01*
X216725Y181178D01*
X217371Y181351D01*
X218977Y181351D01*
X218977Y176523D01*
X215165Y176523D01*
G37*
%LPD*%
%LPC*%
G36*
X217371Y168649D02*
X217371Y168649D01*
X216725Y168822D01*
X216146Y169157D01*
X215673Y169630D01*
X215338Y170209D01*
X215165Y170855D01*
X215165Y173477D01*
X218977Y173477D01*
X218977Y168649D01*
X217371Y168649D01*
G37*
%LPD*%
%LPC*%
G36*
X138199Y25999D02*
X138199Y25999D01*
X138199Y26001D01*
X138201Y26001D01*
X138201Y25999D01*
X138199Y25999D01*
G37*
%LPD*%
%LPC*%
G36*
X138199Y183999D02*
X138199Y183999D01*
X138199Y184001D01*
X138201Y184001D01*
X138201Y183999D01*
X138199Y183999D01*
G37*
%LPD*%
%LPC*%
G36*
X226999Y16999D02*
X226999Y16999D01*
X226999Y17001D01*
X227001Y17001D01*
X227001Y16999D01*
X226999Y16999D01*
G37*
%LPD*%
D10*
X196600Y60550D03*
X171200Y73250D03*
X196600Y85950D03*
X196600Y111350D03*
X196600Y136750D03*
X171200Y98650D03*
X171200Y124050D03*
X171200Y149450D03*
D11*
X138200Y184000D03*
X138200Y26000D03*
D12*
X58700Y168250D03*
X58700Y142850D03*
X58700Y67150D03*
X58700Y41750D03*
D13*
X233500Y85500D03*
X220500Y85500D03*
X233500Y124000D03*
X220500Y124000D03*
X233500Y140500D03*
X220500Y140500D03*
X233500Y157000D03*
X220500Y157000D03*
D14*
G36*
X263541Y24275D02*
X257255Y30561D01*
X264439Y37745D01*
X270725Y31459D01*
X263541Y24275D01*
G37*
G36*
X275561Y12255D02*
X269275Y18541D01*
X276459Y25725D01*
X282745Y19439D01*
X275561Y12255D01*
G37*
G36*
X267275Y192459D02*
X273561Y198745D01*
X280745Y191561D01*
X274459Y185275D01*
X267275Y192459D01*
G37*
G36*
X255255Y180439D02*
X261541Y186725D01*
X268725Y179541D01*
X262439Y173255D01*
X255255Y180439D01*
G37*
D15*
X506000Y145000D03*
X506000Y170400D03*
X506000Y195800D03*
X480000Y145000D03*
X480000Y170400D03*
X480000Y195800D03*
X506000Y14000D03*
X506000Y39400D03*
X506000Y64800D03*
X480000Y14000D03*
X480000Y39400D03*
X480000Y64800D03*
D16*
X508500Y115000D03*
X493500Y115000D03*
X508500Y95000D03*
X493500Y95000D03*
D17*
X430000Y45000D03*
X430000Y50000D03*
X430000Y55000D03*
X430000Y60000D03*
X430000Y65000D03*
X430000Y70000D03*
X430000Y75000D03*
X430000Y80000D03*
X430000Y85000D03*
X430000Y90000D03*
X430000Y95000D03*
X430000Y100000D03*
X430000Y105000D03*
X430000Y110000D03*
X430000Y115000D03*
X430000Y120000D03*
X430000Y125000D03*
X430000Y130000D03*
X430000Y135000D03*
X430000Y140000D03*
X430000Y145000D03*
X430000Y150000D03*
X430000Y155000D03*
X430000Y160000D03*
X430000Y165000D03*
D18*
X410000Y185000D03*
X405000Y185000D03*
X400000Y185000D03*
X395000Y185000D03*
X390000Y185000D03*
X385000Y185000D03*
X380000Y185000D03*
X375000Y185000D03*
X370000Y185000D03*
X365000Y185000D03*
X360000Y185000D03*
X355000Y185000D03*
X350000Y185000D03*
X345000Y185000D03*
X340000Y185000D03*
X335000Y185000D03*
X330000Y185000D03*
X325000Y185000D03*
X320000Y185000D03*
X315000Y185000D03*
X310000Y185000D03*
X305000Y185000D03*
X300000Y185000D03*
X295000Y185000D03*
X290000Y185000D03*
D17*
X270000Y165000D03*
X270000Y160000D03*
X270000Y155000D03*
X270000Y150000D03*
X270000Y145000D03*
X270000Y140000D03*
X270000Y135000D03*
X270000Y130000D03*
X270000Y125000D03*
X270000Y120000D03*
X270000Y115000D03*
X270000Y110000D03*
X270000Y105000D03*
X270000Y100000D03*
X270000Y95000D03*
X270000Y90000D03*
X270000Y85000D03*
X270000Y80000D03*
X270000Y75000D03*
X270000Y70000D03*
X270000Y65000D03*
X270000Y60000D03*
X270000Y55000D03*
X270000Y50000D03*
X270000Y45000D03*
D18*
X290000Y25000D03*
X295000Y25000D03*
X300000Y25000D03*
X305000Y25000D03*
X310000Y25000D03*
X315000Y25000D03*
X320000Y25000D03*
X325000Y25000D03*
X330000Y25000D03*
X335000Y25000D03*
X340000Y25000D03*
X345000Y25000D03*
X350000Y25000D03*
X355000Y25000D03*
X360000Y25000D03*
X365000Y25000D03*
X370000Y25000D03*
X375000Y25000D03*
X380000Y25000D03*
X385000Y25000D03*
X390000Y25000D03*
X395000Y25000D03*
X400000Y25000D03*
X405000Y25000D03*
X410000Y25000D03*
D19*
X227000Y47000D03*
X227000Y17000D03*
D13*
X467500Y115000D03*
X480500Y115000D03*
X467500Y95000D03*
X480500Y95000D03*
X443500Y14000D03*
X456500Y14000D03*
X443500Y197000D03*
X456500Y197000D03*
X233500Y175000D03*
X220500Y175000D03*
D20*
X386000Y11000D03*
X379000Y11000D03*
X393000Y11000D03*
D21*
X388000Y168000D03*
X457000Y184000D03*
X330000Y135000D03*
X253000Y53000D03*
X418000Y140000D03*
X426000Y176000D03*
X345000Y160000D03*
D22*
X430000Y90000D02*
X440000Y90000D01*
X430000Y140000D02*
X418000Y140000D01*
X405000Y194000D02*
X407000Y196000D01*
X405000Y194000D02*
X405000Y185000D01*
X405000Y176000D02*
X403000Y174000D01*
X405000Y176000D02*
X405000Y185000D01*
X256000Y50000D02*
X253000Y53000D01*
X256000Y50000D02*
X270000Y50000D01*
D21*
X293500Y107500D03*
D22*
X405000Y35500D02*
X405000Y25000D01*
D21*
X444000Y92000D03*
D23*
X415000Y204000D02*
X400000Y204000D01*
X290000Y204000D01*
X264000Y204000D01*
X247000Y187000D01*
X247000Y99000D02*
X233500Y85500D01*
X247000Y175000D02*
X247000Y187000D01*
X247000Y175000D02*
X247000Y157000D01*
X247000Y141000D01*
X247000Y124000D01*
X247000Y112000D01*
X247000Y99000D01*
D22*
X247000Y157000D02*
X233500Y157000D01*
X233500Y140500D02*
X246500Y140500D01*
D23*
X247000Y141000D01*
D22*
X247000Y124000D02*
X233500Y124000D01*
D23*
X246350Y111350D02*
X196600Y111350D01*
X246350Y111350D02*
X247000Y112000D01*
X183900Y111350D02*
X171200Y98650D01*
X183900Y111350D02*
X196600Y111350D01*
D22*
X290000Y185000D02*
X290000Y204000D01*
X430000Y150000D02*
X447000Y150000D01*
D23*
X447000Y172000D01*
D22*
X400000Y185000D02*
X400000Y198000D01*
X430000Y145000D02*
X447000Y145000D01*
D23*
X447000Y150000D01*
D22*
X447000Y135000D02*
X430000Y135000D01*
D23*
X447000Y135000D02*
X447000Y145000D01*
X233500Y85500D02*
X233500Y73500D01*
X227000Y67000D01*
D21*
X259000Y18000D03*
X443000Y68000D03*
X400000Y198000D03*
D23*
X430000Y189000D02*
X447000Y172000D01*
X430000Y189000D02*
X415000Y204000D01*
D22*
X400000Y204000D02*
X400000Y198000D01*
D23*
X447000Y135000D02*
X447000Y114000D01*
X443000Y110000D01*
X421000Y110000D02*
X418000Y107000D01*
X227000Y67000D02*
X227000Y47000D01*
X227000Y45000D01*
X251000Y45000D02*
X270000Y45000D01*
X251000Y45000D02*
X227000Y45000D01*
X251000Y26000D02*
X259000Y18000D01*
X251000Y26000D02*
X251000Y45000D01*
X418000Y95000D02*
X418000Y107000D01*
X418000Y95000D02*
X418000Y70000D01*
X418000Y67000D01*
X415000Y64000D01*
D21*
X415000Y64000D03*
D22*
X247000Y175000D02*
X233500Y175000D01*
X438000Y197000D02*
X443500Y197000D01*
X438000Y197000D02*
X430000Y189000D01*
D21*
X247000Y124000D03*
D22*
X427000Y13500D02*
X443000Y13500D01*
X443500Y14000D01*
X443000Y39000D02*
X443000Y68000D01*
X443000Y39000D02*
X427000Y23000D01*
X427000Y13500D01*
D23*
X430000Y110000D02*
X421000Y110000D01*
X430000Y110000D02*
X443000Y110000D01*
D22*
X407500Y11000D02*
X393000Y11000D01*
X407500Y11000D02*
X410000Y13500D01*
X427000Y13500D01*
X410000Y13500D02*
X410000Y25000D01*
X171200Y98650D02*
X115600Y98650D01*
X58700Y41750D01*
X43000Y152550D02*
X58700Y168250D01*
X43000Y57450D02*
X58700Y41750D01*
X43000Y57450D02*
X43000Y152550D01*
X418000Y70000D02*
X430000Y70000D01*
X430000Y95000D02*
X418000Y95000D01*
D21*
X197000Y182000D03*
D22*
X162000Y177000D02*
X122000Y137000D01*
X192000Y177000D02*
X197000Y182000D01*
X192000Y177000D02*
X162000Y177000D01*
X122000Y137000D02*
X64550Y137000D01*
X58700Y142850D01*
X58700Y98700D02*
X58700Y67150D01*
X93000Y133000D02*
X124000Y133000D01*
X93000Y133000D02*
X58700Y98700D01*
D21*
X197000Y173000D03*
D22*
X164000Y173000D02*
X124000Y133000D01*
X164000Y173000D02*
X197000Y173000D01*
X179750Y157000D02*
X220500Y157000D01*
X179750Y157000D02*
X171200Y149450D01*
X200350Y140500D02*
X220500Y140500D01*
X200350Y140500D02*
X196600Y136750D01*
X217450Y124050D02*
X220500Y124000D01*
X217450Y124050D02*
X171200Y124050D01*
X197050Y85500D02*
X220500Y85500D01*
X197050Y85500D02*
X196600Y85950D01*
X270000Y55000D02*
X279000Y55000D01*
X284000Y50000D01*
X284000Y41000D01*
X274187Y31187D01*
X263990Y31010D01*
X295000Y172000D02*
X295000Y185000D01*
X295000Y172000D02*
X293000Y170000D01*
X288000Y170000D01*
X274010Y183990D01*
X274010Y192010D01*
X387625Y45000D02*
X382355Y39730D01*
X358270Y39730D01*
X349000Y49000D01*
X387625Y45000D02*
X430000Y45000D01*
D21*
X349000Y49000D03*
D22*
X430000Y120000D02*
X440000Y120000D01*
D21*
X440000Y120000D03*
D22*
X430000Y125000D02*
X422000Y125000D01*
X413000Y116000D02*
X413000Y77000D01*
X413000Y116000D02*
X422000Y125000D01*
X358000Y50000D02*
X364000Y44000D01*
D21*
X358000Y50000D03*
D22*
X380000Y44000D02*
X413000Y77000D01*
X380000Y44000D02*
X364000Y44000D01*
X421000Y130000D02*
X430000Y130000D01*
X421000Y130000D02*
X409000Y118000D01*
X409000Y79000D01*
D21*
X378000Y51000D03*
D22*
X381000Y51000D01*
X409000Y79000D01*
D21*
X417000Y152706D03*
D22*
X419294Y155000D02*
X430000Y155000D01*
X419294Y155000D02*
X417000Y152706D01*
D21*
X412000Y159000D03*
D22*
X413000Y160000D02*
X430000Y160000D01*
X413000Y160000D02*
X412000Y159000D01*
D21*
X400000Y140000D03*
D22*
X398000Y142000D01*
X398000Y156000D01*
X407000Y165000D01*
X430000Y165000D01*
X410000Y174000D02*
X410000Y185000D01*
X410000Y174000D02*
X394000Y158000D01*
D21*
X403000Y108000D03*
D22*
X394000Y127000D02*
X394000Y158000D01*
X394000Y127000D02*
X403000Y118000D01*
X403000Y108000D01*
D21*
X381500Y123500D03*
D22*
X380000Y125000D02*
X380000Y185000D01*
X380000Y125000D02*
X381500Y123500D01*
D21*
X379000Y107000D03*
D22*
X375000Y111000D02*
X375000Y185000D01*
X375000Y111000D02*
X379000Y107000D01*
D21*
X375000Y99000D03*
D22*
X370000Y104000D01*
X370000Y185000D01*
D21*
X367000Y95000D03*
D22*
X365000Y97000D01*
X365000Y185000D01*
D21*
X358000Y95000D03*
D22*
X360000Y97000D01*
X360000Y185000D01*
D21*
X382243Y115243D03*
D22*
X385000Y112487D01*
X385000Y100000D01*
X374000Y89000D01*
X350000Y89000D01*
X305000Y134000D01*
X305000Y185000D01*
X300000Y185000D02*
X300000Y167000D01*
X300000Y132000D01*
X347000Y85000D02*
X366000Y85000D01*
X347000Y85000D02*
X300000Y132000D01*
D21*
X372500Y78558D03*
D22*
X372500Y78500D02*
X366000Y85000D01*
X372500Y78558D02*
X372500Y78500D01*
X283500Y165000D02*
X270000Y165000D01*
X283500Y165000D02*
X295000Y153500D01*
X295000Y130000D01*
D21*
X363000Y79000D03*
D22*
X344000Y81000D02*
X295000Y130000D01*
X361000Y81000D02*
X363000Y79000D01*
X361000Y81000D02*
X344000Y81000D01*
X282000Y160000D02*
X270000Y160000D01*
X282000Y160000D02*
X290000Y152000D01*
X290000Y128000D01*
D21*
X355000Y75000D03*
D22*
X341000Y77000D02*
X290000Y128000D01*
X353000Y77000D02*
X355000Y75000D01*
X353000Y77000D02*
X341000Y77000D01*
X270000Y65000D02*
X258000Y65000D01*
X256000Y63000D01*
X241000Y63000D01*
D21*
X241000Y63000D03*
X249000Y70000D03*
D22*
X270000Y70000D01*
D21*
X363000Y11000D03*
D22*
X370000Y18000D02*
X370000Y25000D01*
X370000Y18000D02*
X363000Y11000D01*
D21*
X371500Y11000D03*
D22*
X371500Y14000D01*
X375000Y17500D01*
X375000Y25000D01*
X340000Y14000D02*
X337000Y11000D01*
D21*
X337000Y11000D03*
D22*
X340000Y14000D02*
X340000Y25000D01*
D21*
X456000Y39000D03*
D22*
X479600Y39000D01*
X480000Y39400D01*
X345000Y25000D02*
X345000Y11000D01*
D21*
X345000Y11000D03*
D22*
X300000Y14000D02*
X300000Y25000D01*
X300000Y14000D02*
X297000Y11000D01*
D21*
X297000Y11000D03*
D22*
X305000Y11000D02*
X305000Y25000D01*
D21*
X305000Y11000D03*
D22*
X463000Y178800D02*
X480000Y195800D01*
X463000Y178800D02*
X463000Y144000D01*
X459000Y140000D01*
D21*
X459000Y140000D03*
D22*
X325000Y25000D02*
X325000Y11000D01*
D21*
X325000Y11000D03*
D22*
X493000Y182800D02*
X506000Y195800D01*
D21*
X467000Y128000D03*
D22*
X472300Y182800D02*
X493000Y182800D01*
X467000Y177500D02*
X467000Y128000D01*
X467000Y177500D02*
X472300Y182800D01*
X310000Y25000D02*
X310000Y14000D01*
X313000Y11000D01*
D21*
X313000Y11000D03*
D22*
X430000Y100000D02*
X444000Y100000D01*
D21*
X444000Y100000D03*
D22*
X480500Y115000D02*
X493500Y115000D01*
X493500Y95000D02*
X480500Y95000D01*
X441000Y80000D02*
X430000Y80000D01*
X459000Y111000D02*
X463000Y115000D01*
X467500Y115000D01*
X459000Y98000D02*
X441000Y80000D01*
X459000Y98000D02*
X459000Y111000D01*
X442000Y75000D02*
X430000Y75000D01*
X442000Y75000D02*
X462000Y95000D01*
X467500Y95000D01*
D21*
X341000Y170000D03*
D22*
X345000Y174000D02*
X345000Y185000D01*
X345000Y174000D02*
X341000Y170000D01*
D21*
X312000Y170000D03*
D22*
X310000Y172000D02*
X310000Y185000D01*
X310000Y172000D02*
X312000Y170000D01*
X286000Y60000D02*
X270000Y60000D01*
D21*
X286000Y60000D03*
D22*
X290000Y34000D02*
X290000Y25000D01*
X290000Y34000D02*
X302000Y46000D01*
X302000Y52000D01*
D21*
X302000Y52000D03*
D22*
X380000Y25000D02*
X380000Y18500D01*
X386000Y12500D01*
X386000Y11000D01*
M02*
