G04 EAGLE Gerber X2 export*
G75*
%MOMM*%
%FSLAX34Y34*%
%LPD*%
%AMOC8*
5,1,8,0,0,1.08239X$1,22.5*%
G01*
%ADD10R,0.558800X0.762000*%
%ADD11P,1.948302X8X292.500000*%
%ADD12P,2.597736X8X292.500000*%
%ADD13P,1.415766X8X292.500000*%
%ADD14P,1.924489X8X202.500000*%
%ADD15R,0.800000X0.800000*%
%ADD16R,1.700000X0.450000*%
%ADD17R,2.100000X1.475000*%
%ADD18R,1.900000X2.375000*%
%ADD19R,0.254000X1.143000*%
%ADD20R,1.143000X0.254000*%
%ADD21R,1.016000X0.762000*%
%ADD22R,0.762000X1.016000*%
%ADD23R,0.990000X0.690000*%
%ADD24R,1.200000X1.700000*%
%ADD25C,0.600000*%
%ADD26R,0.500000X0.500000*%
%ADD27P,0.654629X8X22.500000*%
%ADD28C,0.200000*%
%ADD29C,0.304800*%
%ADD30C,0.406400*%

G36*
X336638Y2552D02*
X336638Y2552D01*
X336738Y2554D01*
X336811Y2572D01*
X336884Y2581D01*
X336979Y2614D01*
X337076Y2639D01*
X337142Y2673D01*
X337212Y2698D01*
X337297Y2753D01*
X337386Y2799D01*
X337443Y2847D01*
X337505Y2887D01*
X337575Y2959D01*
X337652Y3024D01*
X337696Y3084D01*
X337747Y3138D01*
X337799Y3224D01*
X337859Y3305D01*
X337888Y3373D01*
X337926Y3437D01*
X337957Y3532D01*
X337997Y3625D01*
X338010Y3698D01*
X338033Y3769D01*
X338041Y3869D01*
X338058Y3968D01*
X338055Y4042D01*
X338061Y4116D01*
X338046Y4215D01*
X338040Y4316D01*
X338020Y4387D01*
X338009Y4461D01*
X337972Y4554D01*
X337944Y4651D01*
X337908Y4716D01*
X337880Y4785D01*
X337823Y4867D01*
X337774Y4955D01*
X337709Y5031D01*
X337681Y5071D01*
X337655Y5095D01*
X337615Y5141D01*
X337227Y5529D01*
X337128Y5608D01*
X337034Y5692D01*
X336992Y5716D01*
X336954Y5746D01*
X336840Y5800D01*
X336729Y5861D01*
X336683Y5874D01*
X336639Y5895D01*
X336515Y5921D01*
X336394Y5956D01*
X336333Y5961D01*
X336298Y5968D01*
X336250Y5967D01*
X336150Y5975D01*
X334919Y5975D01*
X332077Y8817D01*
X332057Y8833D01*
X332040Y8853D01*
X331920Y8941D01*
X331804Y9033D01*
X331780Y9045D01*
X331759Y9060D01*
X331623Y9119D01*
X331489Y9182D01*
X331463Y9188D01*
X331439Y9198D01*
X331293Y9225D01*
X331148Y9256D01*
X331122Y9255D01*
X331096Y9260D01*
X330948Y9252D01*
X330800Y9250D01*
X330774Y9243D01*
X330748Y9242D01*
X330606Y9201D01*
X330462Y9165D01*
X330439Y9153D01*
X330413Y9146D01*
X330284Y9073D01*
X330152Y9005D01*
X330132Y8988D01*
X330109Y8975D01*
X329923Y8817D01*
X327081Y5975D01*
X322919Y5975D01*
X320077Y8817D01*
X320057Y8833D01*
X320040Y8853D01*
X319920Y8941D01*
X319804Y9033D01*
X319780Y9045D01*
X319759Y9060D01*
X319623Y9119D01*
X319489Y9182D01*
X319463Y9188D01*
X319439Y9198D01*
X319293Y9225D01*
X319148Y9256D01*
X319122Y9255D01*
X319096Y9260D01*
X318948Y9252D01*
X318800Y9250D01*
X318774Y9243D01*
X318748Y9242D01*
X318606Y9201D01*
X318462Y9165D01*
X318439Y9153D01*
X318413Y9146D01*
X318284Y9073D01*
X318152Y9005D01*
X318132Y8988D01*
X318109Y8975D01*
X317923Y8817D01*
X315081Y5975D01*
X310919Y5975D01*
X310077Y6817D01*
X310057Y6833D01*
X310040Y6853D01*
X309920Y6941D01*
X309804Y7033D01*
X309780Y7045D01*
X309759Y7060D01*
X309623Y7119D01*
X309489Y7182D01*
X309463Y7188D01*
X309439Y7198D01*
X309293Y7225D01*
X309148Y7256D01*
X309122Y7255D01*
X309096Y7260D01*
X308948Y7252D01*
X308800Y7250D01*
X308774Y7243D01*
X308748Y7242D01*
X308606Y7201D01*
X308462Y7165D01*
X308439Y7153D01*
X308413Y7146D01*
X308284Y7073D01*
X308152Y7005D01*
X308132Y6988D01*
X308109Y6975D01*
X307923Y6817D01*
X307081Y5975D01*
X302919Y5975D01*
X302077Y6817D01*
X302057Y6833D01*
X302040Y6853D01*
X301920Y6941D01*
X301804Y7033D01*
X301780Y7045D01*
X301759Y7060D01*
X301623Y7119D01*
X301489Y7182D01*
X301463Y7188D01*
X301439Y7198D01*
X301293Y7225D01*
X301148Y7256D01*
X301122Y7255D01*
X301096Y7260D01*
X300948Y7252D01*
X300800Y7250D01*
X300774Y7243D01*
X300748Y7242D01*
X300606Y7201D01*
X300462Y7165D01*
X300439Y7153D01*
X300413Y7146D01*
X300284Y7073D01*
X300152Y7005D01*
X300132Y6988D01*
X300109Y6975D01*
X299923Y6817D01*
X299081Y5975D01*
X294919Y5975D01*
X291975Y8919D01*
X291975Y13081D01*
X294919Y16025D01*
X297150Y16025D01*
X297276Y16039D01*
X297402Y16046D01*
X297448Y16059D01*
X297496Y16065D01*
X297615Y16107D01*
X297737Y16142D01*
X297779Y16166D01*
X297824Y16182D01*
X297931Y16251D01*
X298041Y16312D01*
X298087Y16352D01*
X298117Y16371D01*
X298151Y16406D01*
X298227Y16471D01*
X314257Y32501D01*
X337626Y32501D01*
X337752Y32515D01*
X337878Y32522D01*
X337924Y32535D01*
X337972Y32541D01*
X338091Y32583D01*
X338213Y32618D01*
X338255Y32642D01*
X338300Y32658D01*
X338407Y32727D01*
X338517Y32788D01*
X338563Y32828D01*
X338593Y32847D01*
X338627Y32882D01*
X338703Y32947D01*
X345757Y40001D01*
X419126Y40001D01*
X419252Y40015D01*
X419378Y40022D01*
X419424Y40035D01*
X419472Y40041D01*
X419591Y40083D01*
X419713Y40118D01*
X419755Y40142D01*
X419800Y40158D01*
X419907Y40227D01*
X420017Y40288D01*
X420063Y40328D01*
X420093Y40347D01*
X420127Y40382D01*
X420203Y40447D01*
X440748Y60992D01*
X440764Y61012D01*
X440784Y61029D01*
X440873Y61149D01*
X440965Y61265D01*
X440976Y61288D01*
X440991Y61310D01*
X441050Y61446D01*
X441114Y61580D01*
X441119Y61606D01*
X441129Y61630D01*
X441156Y61776D01*
X441187Y61921D01*
X441187Y61947D01*
X441191Y61973D01*
X441184Y62121D01*
X441181Y62269D01*
X441175Y62294D01*
X441173Y62321D01*
X441132Y62463D01*
X441096Y62607D01*
X441084Y62630D01*
X441077Y62655D01*
X441004Y62785D01*
X440936Y62917D01*
X440919Y62937D01*
X440907Y62960D01*
X440748Y63146D01*
X439865Y64029D01*
X439766Y64108D01*
X439672Y64192D01*
X439630Y64216D01*
X439592Y64246D01*
X439478Y64300D01*
X439367Y64361D01*
X439320Y64374D01*
X439277Y64395D01*
X439153Y64421D01*
X439032Y64456D01*
X438971Y64461D01*
X438936Y64468D01*
X438888Y64467D01*
X438788Y64475D01*
X436091Y64475D01*
X435965Y64461D01*
X435839Y64454D01*
X435793Y64441D01*
X435745Y64435D01*
X435626Y64393D01*
X435504Y64358D01*
X435462Y64334D01*
X435417Y64318D01*
X435310Y64249D01*
X435200Y64188D01*
X435154Y64148D01*
X435124Y64129D01*
X435090Y64094D01*
X435014Y64029D01*
X431460Y60475D01*
X419524Y60475D01*
X419498Y60472D01*
X419472Y60474D01*
X419325Y60452D01*
X419178Y60435D01*
X419153Y60427D01*
X419127Y60423D01*
X418989Y60368D01*
X418850Y60318D01*
X418828Y60304D01*
X418803Y60294D01*
X418682Y60209D01*
X418557Y60129D01*
X418539Y60110D01*
X418517Y60095D01*
X418418Y59985D01*
X418315Y59878D01*
X418301Y59856D01*
X418284Y59836D01*
X418212Y59706D01*
X418136Y59579D01*
X418128Y59554D01*
X418115Y59531D01*
X418075Y59388D01*
X418030Y59247D01*
X418028Y59221D01*
X418020Y59196D01*
X418001Y58952D01*
X418001Y58564D01*
X418015Y58438D01*
X418022Y58312D01*
X418035Y58265D01*
X418041Y58217D01*
X418083Y58098D01*
X418118Y57977D01*
X418142Y57935D01*
X418158Y57889D01*
X418227Y57783D01*
X418288Y57673D01*
X418328Y57627D01*
X418347Y57597D01*
X418382Y57563D01*
X418447Y57487D01*
X419795Y56139D01*
X419795Y46861D01*
X418623Y45689D01*
X411377Y45689D01*
X410134Y46933D01*
X410115Y46986D01*
X410069Y47128D01*
X410056Y47149D01*
X410048Y47173D01*
X409967Y47298D01*
X409890Y47427D01*
X409872Y47445D01*
X409859Y47465D01*
X409751Y47570D01*
X409647Y47677D01*
X409626Y47690D01*
X409608Y47708D01*
X409480Y47784D01*
X409354Y47865D01*
X409330Y47874D01*
X409309Y47886D01*
X409167Y47932D01*
X409025Y47982D01*
X409001Y47985D01*
X408977Y47993D01*
X408828Y48005D01*
X408679Y48022D01*
X408654Y48019D01*
X408630Y48021D01*
X408482Y47998D01*
X408333Y47981D01*
X408310Y47973D01*
X408285Y47969D01*
X408146Y47914D01*
X408005Y47863D01*
X407984Y47849D01*
X407961Y47840D01*
X407839Y47755D01*
X407713Y47673D01*
X407695Y47655D01*
X407675Y47641D01*
X407575Y47530D01*
X407471Y47422D01*
X407458Y47401D01*
X407442Y47383D01*
X407369Y47251D01*
X407293Y47123D01*
X407283Y47095D01*
X407273Y47077D01*
X407260Y47032D01*
X407211Y46892D01*
X407162Y46709D01*
X406827Y46130D01*
X406354Y45657D01*
X405775Y45322D01*
X405129Y45149D01*
X403523Y45149D01*
X403523Y51500D01*
X403523Y57851D01*
X405129Y57851D01*
X405775Y57678D01*
X406354Y57343D01*
X406827Y56870D01*
X407162Y56291D01*
X407211Y56108D01*
X407266Y55968D01*
X407316Y55827D01*
X407330Y55807D01*
X407339Y55783D01*
X407424Y55660D01*
X407505Y55535D01*
X407523Y55517D01*
X407537Y55497D01*
X407648Y55396D01*
X407756Y55292D01*
X407777Y55280D01*
X407795Y55263D01*
X407926Y55190D01*
X408055Y55114D01*
X408078Y55106D01*
X408100Y55094D01*
X408245Y55053D01*
X408387Y55007D01*
X408412Y55005D01*
X408435Y54999D01*
X408585Y54991D01*
X408734Y54979D01*
X408759Y54983D01*
X408784Y54982D01*
X408931Y55009D01*
X409079Y55031D01*
X409102Y55040D01*
X409126Y55045D01*
X409263Y55104D01*
X409403Y55160D01*
X409423Y55174D01*
X409446Y55184D01*
X409566Y55273D01*
X409689Y55359D01*
X409706Y55377D01*
X409725Y55392D01*
X409822Y55506D01*
X409922Y55617D01*
X409934Y55639D01*
X409950Y55658D01*
X410018Y55791D01*
X410091Y55923D01*
X410098Y55946D01*
X410109Y55969D01*
X410133Y56067D01*
X411553Y57487D01*
X411632Y57586D01*
X411716Y57679D01*
X411740Y57722D01*
X411770Y57760D01*
X411824Y57874D01*
X411885Y57984D01*
X411898Y58031D01*
X411919Y58075D01*
X411945Y58198D01*
X411980Y58320D01*
X411985Y58381D01*
X411992Y58415D01*
X411991Y58463D01*
X411999Y58564D01*
X411999Y59264D01*
X411985Y59389D01*
X411978Y59516D01*
X411965Y59562D01*
X411959Y59610D01*
X411917Y59729D01*
X411882Y59850D01*
X411858Y59893D01*
X411842Y59938D01*
X411773Y60044D01*
X411712Y60155D01*
X411672Y60201D01*
X411653Y60231D01*
X411618Y60264D01*
X411553Y60341D01*
X411341Y60553D01*
X411242Y60632D01*
X411148Y60716D01*
X411106Y60740D01*
X411068Y60770D01*
X410954Y60824D01*
X410843Y60885D01*
X410796Y60898D01*
X410753Y60919D01*
X410629Y60945D01*
X410508Y60980D01*
X410447Y60985D01*
X410412Y60992D01*
X410364Y60991D01*
X410264Y60999D01*
X408757Y60999D01*
X401999Y67757D01*
X401999Y71126D01*
X401998Y71136D01*
X401998Y71139D01*
X401996Y71156D01*
X401985Y71252D01*
X401978Y71378D01*
X401965Y71424D01*
X401959Y71472D01*
X401917Y71591D01*
X401882Y71713D01*
X401858Y71755D01*
X401842Y71800D01*
X401773Y71907D01*
X401712Y72017D01*
X401672Y72063D01*
X401653Y72093D01*
X401618Y72127D01*
X401553Y72203D01*
X399973Y73783D01*
X399874Y73862D01*
X399780Y73946D01*
X399738Y73970D01*
X399700Y74000D01*
X399586Y74054D01*
X399475Y74115D01*
X399429Y74128D01*
X399385Y74149D01*
X399262Y74175D01*
X399140Y74210D01*
X399079Y74215D01*
X399044Y74222D01*
X398996Y74221D01*
X398896Y74229D01*
X385956Y74229D01*
X384784Y75401D01*
X384784Y79206D01*
X384773Y79307D01*
X384771Y79409D01*
X384753Y79480D01*
X384744Y79552D01*
X384710Y79648D01*
X384685Y79747D01*
X384643Y79835D01*
X384627Y79880D01*
X384607Y79911D01*
X384580Y79967D01*
X384417Y80249D01*
X384244Y80895D01*
X384244Y80977D01*
X392500Y80977D01*
X401181Y80977D01*
X401246Y80918D01*
X401353Y80815D01*
X401375Y80801D01*
X401395Y80784D01*
X401525Y80712D01*
X401542Y80701D01*
X405797Y76447D01*
X406114Y76130D01*
X406193Y76067D01*
X406265Y75998D01*
X406329Y75959D01*
X406387Y75913D01*
X406478Y75870D01*
X406564Y75819D01*
X406635Y75796D01*
X406702Y75764D01*
X406800Y75743D01*
X406896Y75712D01*
X406970Y75706D01*
X407043Y75691D01*
X407143Y75693D01*
X407243Y75684D01*
X407317Y75695D01*
X407391Y75697D01*
X407489Y75721D01*
X407588Y75736D01*
X407657Y75764D01*
X407729Y75782D01*
X407818Y75828D01*
X407912Y75865D01*
X407973Y75907D01*
X408039Y75941D01*
X408115Y76007D01*
X408198Y76064D01*
X408248Y76119D01*
X408304Y76167D01*
X408364Y76248D01*
X408431Y76323D01*
X408467Y76388D01*
X408512Y76447D01*
X408551Y76540D01*
X408600Y76628D01*
X408620Y76699D01*
X408650Y76767D01*
X408667Y76866D01*
X408695Y76963D01*
X408703Y77063D01*
X408711Y77111D01*
X408709Y77146D01*
X408714Y77207D01*
X408714Y82109D01*
X409886Y83281D01*
X419164Y83281D01*
X420336Y82109D01*
X420336Y70291D01*
X420170Y70125D01*
X420107Y70047D01*
X420037Y69974D01*
X419999Y69910D01*
X419953Y69852D01*
X419910Y69761D01*
X419858Y69675D01*
X419836Y69604D01*
X419804Y69537D01*
X419783Y69439D01*
X419752Y69343D01*
X419746Y69269D01*
X419731Y69196D01*
X419732Y69096D01*
X419724Y68996D01*
X419735Y68922D01*
X419737Y68848D01*
X419761Y68751D01*
X419776Y68651D01*
X419803Y68582D01*
X419822Y68510D01*
X419868Y68421D01*
X419905Y68327D01*
X419947Y68266D01*
X419981Y68200D01*
X420046Y68123D01*
X420104Y68041D01*
X420159Y67991D01*
X420207Y67935D01*
X420288Y67875D01*
X420362Y67808D01*
X420428Y67772D01*
X420487Y67727D01*
X420579Y67688D01*
X420667Y67639D01*
X420739Y67619D01*
X420807Y67589D01*
X420906Y67572D01*
X421003Y67544D01*
X421103Y67536D01*
X421150Y67528D01*
X421186Y67530D01*
X421247Y67525D01*
X426753Y67525D01*
X426853Y67536D01*
X426954Y67538D01*
X427026Y67556D01*
X427100Y67565D01*
X427194Y67598D01*
X427292Y67623D01*
X427358Y67657D01*
X427428Y67682D01*
X427512Y67737D01*
X427601Y67783D01*
X427658Y67831D01*
X427720Y67871D01*
X427790Y67943D01*
X427867Y68008D01*
X427911Y68068D01*
X427963Y68122D01*
X428014Y68208D01*
X428074Y68289D01*
X428103Y68357D01*
X428142Y68421D01*
X428172Y68516D01*
X428212Y68609D01*
X428225Y68682D01*
X428248Y68753D01*
X428256Y68853D01*
X428274Y68952D01*
X428270Y69026D01*
X428276Y69100D01*
X428261Y69199D01*
X428256Y69300D01*
X428235Y69371D01*
X428224Y69445D01*
X428187Y69538D01*
X428159Y69635D01*
X428123Y69700D01*
X428095Y69769D01*
X428038Y69851D01*
X427989Y69939D01*
X427924Y70015D01*
X427896Y70055D01*
X427870Y70079D01*
X427830Y70125D01*
X427664Y70291D01*
X427664Y82109D01*
X428836Y83281D01*
X438114Y83281D01*
X439286Y82109D01*
X439286Y74548D01*
X439289Y74522D01*
X439287Y74496D01*
X439309Y74349D01*
X439326Y74202D01*
X439334Y74177D01*
X439338Y74151D01*
X439393Y74013D01*
X439443Y73874D01*
X439457Y73852D01*
X439467Y73827D01*
X439552Y73706D01*
X439632Y73581D01*
X439651Y73563D01*
X439666Y73541D01*
X439776Y73442D01*
X439883Y73339D01*
X439905Y73325D01*
X439925Y73308D01*
X440055Y73236D01*
X440182Y73160D01*
X440207Y73152D01*
X440230Y73139D01*
X440373Y73099D01*
X440514Y73054D01*
X440540Y73052D01*
X440565Y73044D01*
X440809Y73025D01*
X445081Y73025D01*
X446399Y71707D01*
X446478Y71645D01*
X446550Y71575D01*
X446614Y71537D01*
X446672Y71490D01*
X446763Y71448D01*
X446849Y71396D01*
X446920Y71373D01*
X446987Y71342D01*
X447085Y71320D01*
X447181Y71290D01*
X447255Y71284D01*
X447328Y71268D01*
X447428Y71270D01*
X447528Y71262D01*
X447602Y71273D01*
X447676Y71274D01*
X447773Y71299D01*
X447873Y71314D01*
X447942Y71341D01*
X448014Y71359D01*
X448103Y71405D01*
X448197Y71442D01*
X448258Y71485D01*
X448324Y71519D01*
X448400Y71584D01*
X448483Y71641D01*
X448533Y71696D01*
X448589Y71745D01*
X448649Y71825D01*
X448716Y71900D01*
X448752Y71965D01*
X448797Y72025D01*
X448836Y72117D01*
X448885Y72205D01*
X448905Y72277D01*
X448935Y72345D01*
X448952Y72444D01*
X448980Y72540D01*
X448988Y72640D01*
X448996Y72688D01*
X448994Y72724D01*
X448999Y72784D01*
X448999Y94216D01*
X448988Y94316D01*
X448986Y94416D01*
X448968Y94488D01*
X448959Y94562D01*
X448926Y94656D01*
X448901Y94754D01*
X448867Y94820D01*
X448842Y94890D01*
X448787Y94975D01*
X448741Y95064D01*
X448693Y95120D01*
X448653Y95183D01*
X448581Y95253D01*
X448516Y95329D01*
X448456Y95373D01*
X448402Y95425D01*
X448316Y95477D01*
X448235Y95536D01*
X448167Y95566D01*
X448103Y95604D01*
X448008Y95635D01*
X447915Y95674D01*
X447842Y95688D01*
X447771Y95710D01*
X447671Y95718D01*
X447572Y95736D01*
X447498Y95732D01*
X447424Y95738D01*
X447325Y95723D01*
X447224Y95718D01*
X447153Y95697D01*
X447079Y95686D01*
X446986Y95649D01*
X446889Y95622D01*
X446824Y95585D01*
X446755Y95558D01*
X446673Y95500D01*
X446585Y95451D01*
X446509Y95386D01*
X446469Y95359D01*
X446445Y95332D01*
X446399Y95293D01*
X446081Y94975D01*
X441919Y94975D01*
X441886Y95008D01*
X441808Y95070D01*
X441735Y95140D01*
X441671Y95178D01*
X441613Y95224D01*
X441522Y95267D01*
X441436Y95319D01*
X441365Y95342D01*
X441298Y95373D01*
X441200Y95395D01*
X441104Y95425D01*
X441030Y95431D01*
X440957Y95447D01*
X440857Y95445D01*
X440757Y95453D01*
X440683Y95442D01*
X440609Y95441D01*
X440511Y95416D01*
X440412Y95401D01*
X440343Y95374D01*
X440271Y95356D01*
X440182Y95310D01*
X440088Y95273D01*
X440027Y95230D01*
X439961Y95196D01*
X439885Y95131D01*
X439802Y95074D01*
X439752Y95019D01*
X439696Y94970D01*
X439636Y94890D01*
X439569Y94815D01*
X439533Y94750D01*
X439488Y94690D01*
X439449Y94598D01*
X439400Y94510D01*
X439380Y94438D01*
X439350Y94370D01*
X439350Y94368D01*
X438114Y93132D01*
X428836Y93132D01*
X427664Y94304D01*
X427664Y102461D01*
X427650Y102587D01*
X427643Y102713D01*
X427630Y102759D01*
X427624Y102807D01*
X427582Y102926D01*
X427547Y103048D01*
X427523Y103090D01*
X427507Y103135D01*
X427438Y103242D01*
X427377Y103352D01*
X427337Y103398D01*
X427318Y103428D01*
X427283Y103462D01*
X427218Y103538D01*
X423339Y107418D01*
X423241Y107495D01*
X423148Y107579D01*
X423104Y107604D01*
X423066Y107634D01*
X422981Y107674D01*
X422988Y107755D01*
X422996Y107803D01*
X422994Y107838D01*
X422999Y107899D01*
X422999Y147922D01*
X422988Y148022D01*
X422986Y148122D01*
X422968Y148194D01*
X422959Y148268D01*
X422926Y148362D01*
X422901Y148460D01*
X422867Y148526D01*
X422842Y148596D01*
X422787Y148680D01*
X422741Y148770D01*
X422693Y148826D01*
X422653Y148889D01*
X422581Y148959D01*
X422516Y149035D01*
X422456Y149079D01*
X422402Y149131D01*
X422316Y149183D01*
X422235Y149242D01*
X422167Y149272D01*
X422103Y149310D01*
X422007Y149341D01*
X421915Y149380D01*
X421842Y149393D01*
X421771Y149416D01*
X421671Y149424D01*
X421572Y149442D01*
X421498Y149438D01*
X421424Y149444D01*
X421324Y149429D01*
X421224Y149424D01*
X421153Y149403D01*
X421079Y149392D01*
X420986Y149355D01*
X420889Y149328D01*
X420824Y149291D01*
X420755Y149264D01*
X420673Y149206D01*
X420585Y149157D01*
X420509Y149092D01*
X420469Y149065D01*
X420445Y149038D01*
X420399Y148999D01*
X419081Y147681D01*
X416850Y147681D01*
X416724Y147667D01*
X416598Y147660D01*
X416552Y147647D01*
X416504Y147641D01*
X416385Y147599D01*
X416263Y147564D01*
X416221Y147540D01*
X416176Y147524D01*
X416069Y147455D01*
X415959Y147394D01*
X415913Y147354D01*
X415883Y147335D01*
X415849Y147300D01*
X415773Y147235D01*
X413447Y144909D01*
X413368Y144810D01*
X413284Y144716D01*
X413260Y144674D01*
X413230Y144636D01*
X413176Y144522D01*
X413115Y144411D01*
X413102Y144365D01*
X413081Y144321D01*
X413055Y144198D01*
X413020Y144076D01*
X413015Y144015D01*
X413008Y143980D01*
X413009Y143932D01*
X413001Y143832D01*
X413001Y124757D01*
X410797Y122553D01*
X403869Y115625D01*
X403806Y115547D01*
X403737Y115474D01*
X403698Y115410D01*
X403652Y115352D01*
X403609Y115261D01*
X403558Y115175D01*
X403535Y115104D01*
X403503Y115037D01*
X403482Y114939D01*
X403451Y114843D01*
X403445Y114769D01*
X403430Y114696D01*
X403432Y114596D01*
X403423Y114496D01*
X403435Y114422D01*
X403436Y114348D01*
X403460Y114251D01*
X403475Y114151D01*
X403503Y114082D01*
X403521Y114010D01*
X403567Y113920D01*
X403604Y113827D01*
X403646Y113766D01*
X403680Y113700D01*
X403746Y113623D01*
X403803Y113541D01*
X403858Y113491D01*
X403906Y113435D01*
X403987Y113375D01*
X404062Y113308D01*
X404127Y113272D01*
X404187Y113227D01*
X404279Y113188D01*
X404367Y113139D01*
X404438Y113119D01*
X404507Y113089D01*
X404605Y113072D01*
X404702Y113044D01*
X404802Y113036D01*
X404850Y113028D01*
X404885Y113030D01*
X404946Y113025D01*
X405081Y113025D01*
X408025Y110081D01*
X408025Y109187D01*
X408031Y109136D01*
X408028Y109085D01*
X408050Y108964D01*
X408065Y108841D01*
X408082Y108793D01*
X408091Y108743D01*
X408140Y108629D01*
X408182Y108513D01*
X408210Y108470D01*
X408230Y108423D01*
X408304Y108324D01*
X408371Y108220D01*
X408408Y108184D01*
X408438Y108144D01*
X408533Y108064D01*
X408622Y107978D01*
X408666Y107952D01*
X408705Y107919D01*
X408815Y107863D01*
X408921Y107799D01*
X408969Y107783D01*
X409015Y107760D01*
X409135Y107730D01*
X409253Y107693D01*
X409304Y107689D01*
X409353Y107676D01*
X409477Y107675D01*
X409600Y107665D01*
X409651Y107672D01*
X409702Y107672D01*
X409942Y107716D01*
X409945Y107716D01*
X409945Y107717D01*
X410380Y107833D01*
X412621Y107833D01*
X412621Y102117D01*
X408174Y102117D01*
X408174Y102391D01*
X408163Y102491D01*
X408161Y102591D01*
X408143Y102663D01*
X408134Y102737D01*
X408100Y102832D01*
X408076Y102929D01*
X408042Y102995D01*
X408017Y103065D01*
X407962Y103150D01*
X407916Y103239D01*
X407868Y103295D01*
X407828Y103358D01*
X407756Y103428D01*
X407691Y103504D01*
X407631Y103548D01*
X407577Y103600D01*
X407491Y103652D01*
X407410Y103711D01*
X407342Y103741D01*
X407278Y103779D01*
X407183Y103810D01*
X407090Y103849D01*
X407017Y103863D01*
X406946Y103885D01*
X406846Y103893D01*
X406747Y103911D01*
X406673Y103907D01*
X406599Y103913D01*
X406499Y103898D01*
X406399Y103893D01*
X406328Y103873D01*
X406254Y103861D01*
X406161Y103824D01*
X406064Y103797D01*
X405999Y103760D01*
X405930Y103733D01*
X405848Y103675D01*
X405760Y103626D01*
X405684Y103561D01*
X405644Y103534D01*
X405620Y103507D01*
X405574Y103468D01*
X405081Y102975D01*
X401739Y102975D01*
X401713Y102972D01*
X401687Y102974D01*
X401540Y102952D01*
X401393Y102935D01*
X401368Y102927D01*
X401342Y102923D01*
X401204Y102868D01*
X401065Y102818D01*
X401043Y102804D01*
X401018Y102794D01*
X400897Y102709D01*
X400772Y102629D01*
X400754Y102610D01*
X400732Y102595D01*
X400633Y102485D01*
X400530Y102378D01*
X400516Y102356D01*
X400499Y102336D01*
X400427Y102206D01*
X400351Y102079D01*
X400343Y102054D01*
X400330Y102031D01*
X400290Y101888D01*
X400245Y101747D01*
X400243Y101721D01*
X400235Y101696D01*
X400216Y101452D01*
X400216Y85794D01*
X400227Y85693D01*
X400229Y85591D01*
X400247Y85520D01*
X400256Y85448D01*
X400290Y85352D01*
X400315Y85253D01*
X400357Y85165D01*
X400373Y85120D01*
X400393Y85089D01*
X400420Y85033D01*
X400583Y84751D01*
X400756Y84105D01*
X400756Y84023D01*
X392500Y84023D01*
X383819Y84023D01*
X383755Y84082D01*
X383647Y84185D01*
X383625Y84199D01*
X383605Y84216D01*
X383475Y84288D01*
X383348Y84364D01*
X383323Y84372D01*
X383300Y84385D01*
X383157Y84425D01*
X383016Y84470D01*
X382990Y84472D01*
X382965Y84480D01*
X382721Y84499D01*
X377342Y84499D01*
X377242Y84488D01*
X377142Y84486D01*
X377069Y84468D01*
X376996Y84459D01*
X376901Y84426D01*
X376804Y84401D01*
X376738Y84367D01*
X376668Y84342D01*
X376583Y84287D01*
X376494Y84241D01*
X376437Y84193D01*
X376375Y84153D01*
X376305Y84081D01*
X376228Y84016D01*
X376184Y83956D01*
X376133Y83902D01*
X376081Y83816D01*
X376021Y83735D01*
X375992Y83667D01*
X375954Y83603D01*
X375923Y83507D01*
X375883Y83415D01*
X375870Y83342D01*
X375847Y83271D01*
X375839Y83171D01*
X375822Y83072D01*
X375825Y82998D01*
X375819Y82924D01*
X375834Y82824D01*
X375840Y82724D01*
X375860Y82653D01*
X375871Y82579D01*
X375908Y82486D01*
X375936Y82389D01*
X375972Y82324D01*
X376000Y82255D01*
X376057Y82173D01*
X376106Y82085D01*
X376171Y82009D01*
X376199Y81969D01*
X376225Y81945D01*
X376265Y81899D01*
X377525Y80639D01*
X377525Y76476D01*
X375947Y74898D01*
X375868Y74799D01*
X375784Y74706D01*
X375760Y74663D01*
X375730Y74625D01*
X375676Y74511D01*
X375615Y74401D01*
X375602Y74354D01*
X375581Y74310D01*
X375555Y74187D01*
X375520Y74065D01*
X375515Y74004D01*
X375508Y73970D01*
X375509Y73922D01*
X375501Y73821D01*
X375501Y71739D01*
X375504Y71713D01*
X375502Y71687D01*
X375524Y71540D01*
X375541Y71393D01*
X375549Y71368D01*
X375553Y71342D01*
X375608Y71204D01*
X375658Y71065D01*
X375672Y71043D01*
X375682Y71018D01*
X375767Y70897D01*
X375847Y70772D01*
X375866Y70754D01*
X375881Y70732D01*
X375991Y70633D01*
X376098Y70530D01*
X376120Y70516D01*
X376140Y70499D01*
X376270Y70427D01*
X376397Y70351D01*
X376422Y70343D01*
X376445Y70330D01*
X376588Y70290D01*
X376729Y70245D01*
X376755Y70243D01*
X376780Y70235D01*
X377024Y70216D01*
X379599Y70216D01*
X380771Y69044D01*
X380771Y55966D01*
X380785Y55841D01*
X380792Y55714D01*
X380805Y55668D01*
X380811Y55620D01*
X380853Y55501D01*
X380888Y55380D01*
X380912Y55337D01*
X380928Y55292D01*
X380997Y55186D01*
X381058Y55075D01*
X381098Y55029D01*
X381117Y54999D01*
X381152Y54966D01*
X381217Y54889D01*
X383025Y53081D01*
X383025Y48919D01*
X380081Y45975D01*
X375919Y45975D01*
X372975Y48919D01*
X372975Y53261D01*
X372972Y53287D01*
X372974Y53313D01*
X372952Y53460D01*
X372935Y53607D01*
X372927Y53632D01*
X372923Y53658D01*
X372868Y53796D01*
X372818Y53935D01*
X372804Y53957D01*
X372794Y53982D01*
X372709Y54103D01*
X372629Y54228D01*
X372610Y54246D01*
X372595Y54268D01*
X372485Y54367D01*
X372378Y54470D01*
X372356Y54484D01*
X372336Y54501D01*
X372206Y54573D01*
X372079Y54649D01*
X372054Y54657D01*
X372031Y54670D01*
X371888Y54710D01*
X371747Y54755D01*
X371721Y54757D01*
X371696Y54765D01*
X371452Y54784D01*
X363999Y54784D01*
X363899Y54773D01*
X363799Y54771D01*
X363727Y54753D01*
X363653Y54744D01*
X363558Y54711D01*
X363461Y54686D01*
X363395Y54652D01*
X363325Y54627D01*
X363240Y54572D01*
X363151Y54526D01*
X363095Y54478D01*
X363032Y54438D01*
X362962Y54366D01*
X362886Y54301D01*
X362842Y54241D01*
X362790Y54187D01*
X362738Y54101D01*
X362679Y54020D01*
X362649Y53952D01*
X362611Y53888D01*
X362580Y53793D01*
X362541Y53700D01*
X362527Y53627D01*
X362505Y53556D01*
X362497Y53456D01*
X362479Y53357D01*
X362483Y53283D01*
X362477Y53209D01*
X362492Y53110D01*
X362497Y53009D01*
X362518Y52938D01*
X362529Y52864D01*
X362566Y52771D01*
X362593Y52674D01*
X362630Y52609D01*
X362657Y52540D01*
X362715Y52458D01*
X362764Y52370D01*
X362829Y52294D01*
X362856Y52254D01*
X362883Y52230D01*
X362922Y52184D01*
X363025Y52081D01*
X363025Y47919D01*
X360081Y44975D01*
X355919Y44975D01*
X355077Y45817D01*
X355056Y45833D01*
X355040Y45853D01*
X354920Y45941D01*
X354804Y46033D01*
X354780Y46045D01*
X354759Y46060D01*
X354623Y46119D01*
X354489Y46182D01*
X354463Y46188D01*
X354439Y46198D01*
X354293Y46225D01*
X354148Y46256D01*
X354122Y46255D01*
X354096Y46260D01*
X353948Y46252D01*
X353800Y46250D01*
X353774Y46243D01*
X353748Y46242D01*
X353606Y46201D01*
X353462Y46165D01*
X353439Y46153D01*
X353413Y46146D01*
X353284Y46073D01*
X353152Y46005D01*
X353132Y45988D01*
X353109Y45975D01*
X352923Y45817D01*
X351081Y43975D01*
X346919Y43975D01*
X343975Y46919D01*
X343975Y51081D01*
X345078Y52184D01*
X345140Y52263D01*
X345210Y52335D01*
X345248Y52399D01*
X345295Y52457D01*
X345337Y52548D01*
X345389Y52634D01*
X345412Y52705D01*
X345443Y52772D01*
X345465Y52870D01*
X345495Y52966D01*
X345501Y53040D01*
X345517Y53113D01*
X345515Y53213D01*
X345523Y53313D01*
X345512Y53387D01*
X345511Y53461D01*
X345486Y53558D01*
X345471Y53658D01*
X345444Y53727D01*
X345426Y53799D01*
X345380Y53888D01*
X345343Y53982D01*
X345300Y54043D01*
X345266Y54109D01*
X345201Y54185D01*
X345144Y54268D01*
X345089Y54318D01*
X345040Y54374D01*
X344960Y54434D01*
X344885Y54501D01*
X344820Y54537D01*
X344760Y54582D01*
X344668Y54621D01*
X344580Y54670D01*
X344508Y54690D01*
X344440Y54720D01*
X344341Y54737D01*
X344245Y54765D01*
X344145Y54773D01*
X344097Y54781D01*
X344061Y54779D01*
X344001Y54784D01*
X320401Y54784D01*
X319229Y55956D01*
X319229Y69044D01*
X320401Y70216D01*
X349001Y70216D01*
X349101Y70227D01*
X349201Y70229D01*
X349273Y70247D01*
X349347Y70256D01*
X349442Y70289D01*
X349539Y70314D01*
X349605Y70348D01*
X349675Y70373D01*
X349760Y70428D01*
X349849Y70474D01*
X349905Y70522D01*
X349968Y70562D01*
X350038Y70634D01*
X350114Y70699D01*
X350158Y70759D01*
X350210Y70813D01*
X350262Y70899D01*
X350321Y70980D01*
X350351Y71048D01*
X350389Y71112D01*
X350420Y71207D01*
X350459Y71300D01*
X350473Y71373D01*
X350495Y71444D01*
X350503Y71544D01*
X350521Y71643D01*
X350517Y71717D01*
X350523Y71791D01*
X350508Y71890D01*
X350503Y71991D01*
X350482Y72062D01*
X350471Y72136D01*
X350434Y72229D01*
X350407Y72326D01*
X350370Y72391D01*
X350343Y72460D01*
X350285Y72542D01*
X350236Y72630D01*
X350171Y72706D01*
X350144Y72746D01*
X350117Y72770D01*
X350078Y72816D01*
X349975Y72919D01*
X349975Y77081D01*
X352919Y80025D01*
X356452Y80025D01*
X356478Y80028D01*
X356504Y80026D01*
X356651Y80048D01*
X356798Y80065D01*
X356823Y80073D01*
X356849Y80077D01*
X356987Y80132D01*
X357126Y80182D01*
X357148Y80196D01*
X357173Y80206D01*
X357294Y80291D01*
X357419Y80371D01*
X357437Y80390D01*
X357459Y80405D01*
X357558Y80515D01*
X357661Y80622D01*
X357675Y80644D01*
X357692Y80664D01*
X357764Y80794D01*
X357840Y80921D01*
X357848Y80946D01*
X357859Y80965D01*
X360919Y84025D01*
X361054Y84025D01*
X361154Y84036D01*
X361254Y84038D01*
X361327Y84056D01*
X361400Y84065D01*
X361495Y84098D01*
X361592Y84123D01*
X361658Y84157D01*
X361728Y84182D01*
X361813Y84237D01*
X361902Y84283D01*
X361959Y84331D01*
X362021Y84371D01*
X362091Y84443D01*
X362168Y84508D01*
X362212Y84568D01*
X362263Y84622D01*
X362315Y84708D01*
X362375Y84789D01*
X362404Y84857D01*
X362442Y84921D01*
X362473Y85017D01*
X362513Y85109D01*
X362526Y85182D01*
X362549Y85253D01*
X362557Y85353D01*
X362574Y85452D01*
X362571Y85526D01*
X362577Y85600D01*
X362562Y85700D01*
X362556Y85800D01*
X362536Y85871D01*
X362525Y85945D01*
X362488Y86038D01*
X362460Y86135D01*
X362424Y86200D01*
X362396Y86269D01*
X362339Y86351D01*
X362290Y86439D01*
X362225Y86515D01*
X362197Y86555D01*
X362171Y86579D01*
X362131Y86625D01*
X359227Y89529D01*
X359128Y89608D01*
X359034Y89692D01*
X358992Y89716D01*
X358954Y89746D01*
X358840Y89800D01*
X358729Y89861D01*
X358683Y89874D01*
X358639Y89895D01*
X358516Y89921D01*
X358394Y89956D01*
X358333Y89961D01*
X358298Y89968D01*
X358250Y89967D01*
X358150Y89975D01*
X355919Y89975D01*
X352975Y92919D01*
X352975Y97081D01*
X355919Y100025D01*
X360081Y100025D01*
X361423Y98683D01*
X361443Y98667D01*
X361460Y98647D01*
X361580Y98558D01*
X361696Y98467D01*
X361720Y98455D01*
X361741Y98440D01*
X361877Y98381D01*
X362011Y98318D01*
X362037Y98312D01*
X362061Y98302D01*
X362207Y98275D01*
X362352Y98244D01*
X362378Y98245D01*
X362404Y98240D01*
X362552Y98248D01*
X362700Y98250D01*
X362726Y98257D01*
X362752Y98258D01*
X362894Y98299D01*
X363038Y98335D01*
X363061Y98347D01*
X363087Y98354D01*
X363216Y98427D01*
X363348Y98495D01*
X363368Y98512D01*
X363391Y98525D01*
X363577Y98683D01*
X364919Y100025D01*
X368452Y100025D01*
X368478Y100028D01*
X368504Y100026D01*
X368651Y100048D01*
X368798Y100065D01*
X368823Y100073D01*
X368849Y100077D01*
X368987Y100132D01*
X369126Y100182D01*
X369148Y100196D01*
X369173Y100206D01*
X369294Y100291D01*
X369419Y100371D01*
X369437Y100390D01*
X369459Y100405D01*
X369558Y100515D01*
X369661Y100622D01*
X369675Y100644D01*
X369692Y100664D01*
X369764Y100794D01*
X369840Y100921D01*
X369848Y100946D01*
X369859Y100965D01*
X373048Y104154D01*
X373126Y104182D01*
X373148Y104196D01*
X373173Y104206D01*
X373294Y104291D01*
X373419Y104371D01*
X373437Y104390D01*
X373459Y104405D01*
X373558Y104515D01*
X373661Y104622D01*
X373675Y104644D01*
X373692Y104664D01*
X373764Y104794D01*
X373840Y104921D01*
X373848Y104946D01*
X373861Y104969D01*
X373901Y105112D01*
X373946Y105253D01*
X373948Y105279D01*
X373956Y105304D01*
X373975Y105548D01*
X373975Y109081D01*
X376773Y111879D01*
X376851Y111978D01*
X376936Y112071D01*
X376959Y112114D01*
X376989Y112152D01*
X377043Y112266D01*
X377104Y112376D01*
X377117Y112423D01*
X377138Y112467D01*
X377165Y112590D01*
X377199Y112712D01*
X377204Y112773D01*
X377211Y112807D01*
X377211Y112855D01*
X377219Y112956D01*
X377219Y117325D01*
X377817Y117923D01*
X377833Y117943D01*
X377853Y117960D01*
X377942Y118080D01*
X378033Y118196D01*
X378045Y118220D01*
X378060Y118241D01*
X378119Y118377D01*
X378182Y118511D01*
X378188Y118537D01*
X378198Y118561D01*
X378225Y118707D01*
X378256Y118852D01*
X378255Y118878D01*
X378260Y118904D01*
X378252Y119052D01*
X378250Y119200D01*
X378243Y119226D01*
X378242Y119252D01*
X378201Y119394D01*
X378165Y119538D01*
X378153Y119561D01*
X378146Y119587D01*
X378073Y119716D01*
X378005Y119848D01*
X377988Y119868D01*
X377975Y119891D01*
X377817Y120077D01*
X376475Y121419D01*
X376475Y125581D01*
X377793Y126899D01*
X377855Y126978D01*
X377925Y127050D01*
X377963Y127114D01*
X378010Y127172D01*
X378052Y127263D01*
X378104Y127349D01*
X378127Y127420D01*
X378158Y127487D01*
X378180Y127585D01*
X378210Y127681D01*
X378216Y127755D01*
X378232Y127828D01*
X378230Y127928D01*
X378238Y128028D01*
X378227Y128102D01*
X378226Y128176D01*
X378201Y128273D01*
X378186Y128373D01*
X378159Y128442D01*
X378141Y128514D01*
X378095Y128603D01*
X378058Y128697D01*
X378015Y128758D01*
X377981Y128824D01*
X377916Y128900D01*
X377859Y128983D01*
X377804Y129033D01*
X377755Y129089D01*
X377675Y129149D01*
X377600Y129216D01*
X377535Y129252D01*
X377475Y129297D01*
X377383Y129336D01*
X377295Y129385D01*
X377223Y129405D01*
X377155Y129435D01*
X377056Y129452D01*
X376960Y129480D01*
X376860Y129488D01*
X376812Y129496D01*
X376776Y129494D01*
X376716Y129499D01*
X341874Y129499D01*
X341748Y129485D01*
X341622Y129478D01*
X341576Y129465D01*
X341528Y129459D01*
X341409Y129417D01*
X341287Y129382D01*
X341245Y129358D01*
X341200Y129342D01*
X341093Y129273D01*
X340983Y129212D01*
X340937Y129172D01*
X340907Y129153D01*
X340873Y129118D01*
X340797Y129053D01*
X336243Y124499D01*
X328524Y124499D01*
X328498Y124496D01*
X328472Y124498D01*
X328325Y124476D01*
X328178Y124459D01*
X328153Y124451D01*
X328127Y124447D01*
X327989Y124392D01*
X327850Y124342D01*
X327828Y124328D01*
X327803Y124318D01*
X327682Y124233D01*
X327557Y124153D01*
X327539Y124134D01*
X327517Y124119D01*
X327418Y124009D01*
X327315Y123902D01*
X327301Y123880D01*
X327284Y123860D01*
X327212Y123730D01*
X327136Y123603D01*
X327128Y123578D01*
X327115Y123555D01*
X327075Y123412D01*
X327030Y123271D01*
X327028Y123245D01*
X327020Y123220D01*
X327001Y122976D01*
X327001Y106757D01*
X319743Y99499D01*
X316739Y99499D01*
X316713Y99496D01*
X316687Y99498D01*
X316540Y99476D01*
X316393Y99459D01*
X316368Y99451D01*
X316342Y99447D01*
X316204Y99392D01*
X316065Y99342D01*
X316043Y99328D01*
X316018Y99318D01*
X315896Y99233D01*
X315772Y99153D01*
X315754Y99134D01*
X315732Y99119D01*
X315633Y99009D01*
X315530Y98902D01*
X315516Y98880D01*
X315499Y98860D01*
X315427Y98730D01*
X315351Y98603D01*
X315343Y98578D01*
X315330Y98555D01*
X315290Y98412D01*
X315245Y98271D01*
X315243Y98245D01*
X315235Y98220D01*
X315216Y97976D01*
X315216Y90794D01*
X315227Y90693D01*
X315229Y90591D01*
X315247Y90520D01*
X315256Y90448D01*
X315290Y90352D01*
X315315Y90253D01*
X315357Y90165D01*
X315373Y90120D01*
X315393Y90089D01*
X315420Y90033D01*
X315583Y89751D01*
X315756Y89105D01*
X315756Y89023D01*
X307500Y89023D01*
X307474Y89020D01*
X307448Y89022D01*
X307301Y89000D01*
X307154Y88984D01*
X307129Y88975D01*
X307103Y88971D01*
X306966Y88916D01*
X306826Y88866D01*
X306804Y88852D01*
X306780Y88842D01*
X306658Y88758D01*
X306533Y88677D01*
X306515Y88658D01*
X306493Y88643D01*
X306394Y88533D01*
X306291Y88426D01*
X306278Y88404D01*
X306260Y88384D01*
X306188Y88254D01*
X306112Y88127D01*
X306104Y88102D01*
X306091Y88079D01*
X306051Y87936D01*
X306006Y87795D01*
X306004Y87769D01*
X305997Y87744D01*
X305977Y87500D01*
X305980Y87474D01*
X305978Y87448D01*
X306000Y87301D01*
X306017Y87154D01*
X306026Y87129D01*
X306030Y87103D01*
X306084Y86965D01*
X306134Y86826D01*
X306149Y86803D01*
X306158Y86779D01*
X306243Y86658D01*
X306323Y86533D01*
X306342Y86514D01*
X306357Y86493D01*
X306467Y86394D01*
X306574Y86291D01*
X306597Y86277D01*
X306616Y86259D01*
X306746Y86188D01*
X306873Y86112D01*
X306898Y86104D01*
X306921Y86091D01*
X307064Y86051D01*
X307205Y86005D01*
X307231Y86003D01*
X307257Y85996D01*
X307500Y85977D01*
X315756Y85977D01*
X315756Y85895D01*
X315583Y85249D01*
X315420Y84967D01*
X315379Y84874D01*
X315330Y84785D01*
X315310Y84715D01*
X315281Y84648D01*
X315263Y84548D01*
X315235Y84450D01*
X315227Y84352D01*
X315219Y84305D01*
X315221Y84268D01*
X315216Y84206D01*
X315216Y75401D01*
X314044Y74229D01*
X300916Y74229D01*
X300897Y74240D01*
X300859Y74270D01*
X300745Y74324D01*
X300634Y74385D01*
X300588Y74398D01*
X300544Y74419D01*
X300421Y74445D01*
X300299Y74480D01*
X300238Y74485D01*
X300204Y74492D01*
X300156Y74491D01*
X300055Y74499D01*
X297257Y74499D01*
X292703Y79053D01*
X292604Y79132D01*
X292510Y79216D01*
X292468Y79240D01*
X292430Y79270D01*
X292316Y79324D01*
X292205Y79385D01*
X292159Y79398D01*
X292115Y79419D01*
X291992Y79445D01*
X291870Y79480D01*
X291809Y79485D01*
X291774Y79492D01*
X291726Y79491D01*
X291626Y79499D01*
X206338Y79499D01*
X206212Y79485D01*
X206086Y79478D01*
X206039Y79465D01*
X205991Y79459D01*
X205872Y79417D01*
X205751Y79382D01*
X205709Y79358D01*
X205663Y79342D01*
X205557Y79273D01*
X205447Y79212D01*
X205400Y79172D01*
X205370Y79153D01*
X205337Y79118D01*
X205260Y79053D01*
X201157Y74949D01*
X192043Y74949D01*
X185599Y81393D01*
X185599Y81476D01*
X185596Y81502D01*
X185598Y81528D01*
X185576Y81675D01*
X185559Y81822D01*
X185551Y81847D01*
X185547Y81873D01*
X185492Y82011D01*
X185442Y82150D01*
X185428Y82172D01*
X185418Y82197D01*
X185333Y82318D01*
X185253Y82443D01*
X185234Y82461D01*
X185219Y82483D01*
X185109Y82582D01*
X185002Y82685D01*
X184980Y82699D01*
X184960Y82716D01*
X184830Y82788D01*
X184703Y82864D01*
X184678Y82872D01*
X184655Y82885D01*
X184512Y82925D01*
X184371Y82970D01*
X184345Y82972D01*
X184320Y82980D01*
X184076Y82999D01*
X180686Y82999D01*
X180586Y82988D01*
X180485Y82986D01*
X180413Y82968D01*
X180339Y82959D01*
X180245Y82926D01*
X180147Y82901D01*
X180081Y82867D01*
X180011Y82842D01*
X179927Y82787D01*
X179838Y82741D01*
X179781Y82693D01*
X179718Y82653D01*
X179649Y82581D01*
X179572Y82516D01*
X179528Y82456D01*
X179476Y82402D01*
X179425Y82316D01*
X179365Y82235D01*
X179336Y82167D01*
X179297Y82103D01*
X179267Y82007D01*
X179227Y81915D01*
X179214Y81842D01*
X179191Y81771D01*
X179183Y81671D01*
X179165Y81572D01*
X179169Y81498D01*
X179163Y81424D01*
X179178Y81324D01*
X179183Y81224D01*
X179204Y81153D01*
X179215Y81079D01*
X179252Y80986D01*
X179280Y80889D01*
X179316Y80824D01*
X179344Y80755D01*
X179401Y80673D01*
X179450Y80585D01*
X179515Y80509D01*
X179543Y80469D01*
X179569Y80445D01*
X179608Y80399D01*
X182201Y77807D01*
X182201Y68693D01*
X175757Y62249D01*
X166643Y62249D01*
X160199Y68693D01*
X160199Y77807D01*
X162792Y80399D01*
X162854Y80477D01*
X162924Y80550D01*
X162962Y80614D01*
X163008Y80672D01*
X163051Y80763D01*
X163103Y80849D01*
X163125Y80920D01*
X163157Y80987D01*
X163178Y81085D01*
X163209Y81181D01*
X163215Y81255D01*
X163230Y81328D01*
X163229Y81428D01*
X163237Y81528D01*
X163226Y81602D01*
X163224Y81676D01*
X163200Y81773D01*
X163185Y81873D01*
X163158Y81942D01*
X163139Y82014D01*
X163094Y82103D01*
X163056Y82197D01*
X163014Y82258D01*
X162980Y82324D01*
X162915Y82400D01*
X162857Y82483D01*
X162802Y82533D01*
X162754Y82589D01*
X162673Y82649D01*
X162599Y82716D01*
X162534Y82752D01*
X162474Y82797D01*
X162382Y82836D01*
X162294Y82885D01*
X162222Y82905D01*
X162154Y82935D01*
X162055Y82952D01*
X161958Y82980D01*
X161858Y82988D01*
X161811Y82996D01*
X161775Y82994D01*
X161714Y82999D01*
X155757Y82999D01*
X144499Y94257D01*
X144499Y95436D01*
X144485Y95562D01*
X144478Y95688D01*
X144465Y95735D01*
X144459Y95783D01*
X144417Y95901D01*
X144382Y96023D01*
X144358Y96065D01*
X144342Y96111D01*
X144273Y96217D01*
X144212Y96327D01*
X144172Y96373D01*
X144153Y96403D01*
X144118Y96437D01*
X144109Y96448D01*
X144096Y96466D01*
X144084Y96477D01*
X144053Y96513D01*
X142634Y97933D01*
X142615Y97985D01*
X142569Y98128D01*
X142556Y98149D01*
X142548Y98173D01*
X142467Y98298D01*
X142390Y98427D01*
X142372Y98444D01*
X142359Y98465D01*
X142251Y98569D01*
X142147Y98677D01*
X142126Y98690D01*
X142108Y98708D01*
X141980Y98784D01*
X141854Y98865D01*
X141830Y98874D01*
X141809Y98886D01*
X141667Y98932D01*
X141526Y98982D01*
X141501Y98985D01*
X141477Y98993D01*
X141328Y99005D01*
X141179Y99021D01*
X141155Y99019D01*
X141130Y99021D01*
X140982Y98998D01*
X140833Y98981D01*
X140810Y98973D01*
X140785Y98969D01*
X140646Y98913D01*
X140505Y98863D01*
X140484Y98849D01*
X140461Y98840D01*
X140338Y98755D01*
X140213Y98673D01*
X140195Y98655D01*
X140175Y98641D01*
X140075Y98530D01*
X139971Y98422D01*
X139958Y98401D01*
X139942Y98382D01*
X139869Y98251D01*
X139793Y98123D01*
X139783Y98095D01*
X139773Y98077D01*
X139760Y98032D01*
X139711Y97892D01*
X139662Y97709D01*
X139327Y97130D01*
X138854Y96657D01*
X138275Y96322D01*
X137629Y96149D01*
X136023Y96149D01*
X136023Y102500D01*
X136023Y108851D01*
X137629Y108851D01*
X138275Y108678D01*
X138854Y108343D01*
X139327Y107870D01*
X139662Y107291D01*
X139711Y107108D01*
X139766Y106968D01*
X139816Y106827D01*
X139830Y106807D01*
X139839Y106783D01*
X139924Y106660D01*
X140005Y106535D01*
X140023Y106517D01*
X140037Y106497D01*
X140148Y106397D01*
X140256Y106292D01*
X140277Y106280D01*
X140296Y106263D01*
X140426Y106191D01*
X140555Y106114D01*
X140579Y106106D01*
X140600Y106094D01*
X140744Y106053D01*
X140887Y106007D01*
X140912Y106005D01*
X140935Y105999D01*
X141085Y105991D01*
X141234Y105979D01*
X141259Y105983D01*
X141284Y105982D01*
X141431Y106009D01*
X141579Y106031D01*
X141602Y106040D01*
X141626Y106045D01*
X141764Y106105D01*
X141903Y106160D01*
X141923Y106174D01*
X141946Y106184D01*
X142066Y106273D01*
X142189Y106359D01*
X142205Y106377D01*
X142225Y106392D01*
X142322Y106507D01*
X142422Y106618D01*
X142434Y106639D01*
X142450Y106658D01*
X142518Y106791D01*
X142591Y106923D01*
X142598Y106947D01*
X142609Y106969D01*
X142633Y107067D01*
X143877Y108311D01*
X151123Y108311D01*
X152295Y107139D01*
X152295Y97861D01*
X151916Y97482D01*
X151899Y97462D01*
X151879Y97445D01*
X151791Y97325D01*
X151699Y97209D01*
X151688Y97186D01*
X151672Y97164D01*
X151613Y97028D01*
X151550Y96894D01*
X151545Y96868D01*
X151534Y96844D01*
X151508Y96698D01*
X151477Y96553D01*
X151477Y96527D01*
X151473Y96501D01*
X151480Y96353D01*
X151483Y96205D01*
X151489Y96179D01*
X151490Y96153D01*
X151532Y96011D01*
X151568Y95867D01*
X151580Y95844D01*
X151587Y95818D01*
X151659Y95689D01*
X151727Y95557D01*
X151744Y95537D01*
X151757Y95514D01*
X151916Y95328D01*
X157797Y89447D01*
X157896Y89368D01*
X157990Y89284D01*
X158032Y89260D01*
X158070Y89230D01*
X158184Y89176D01*
X158295Y89115D01*
X158341Y89102D01*
X158385Y89081D01*
X158508Y89055D01*
X158630Y89020D01*
X158691Y89015D01*
X158726Y89008D01*
X158774Y89009D01*
X158874Y89001D01*
X161614Y89001D01*
X161714Y89012D01*
X161815Y89014D01*
X161887Y89032D01*
X161961Y89041D01*
X162055Y89074D01*
X162153Y89099D01*
X162219Y89133D01*
X162289Y89158D01*
X162373Y89213D01*
X162462Y89259D01*
X162519Y89307D01*
X162582Y89347D01*
X162651Y89419D01*
X162728Y89484D01*
X162772Y89544D01*
X162824Y89598D01*
X162875Y89684D01*
X162935Y89765D01*
X162964Y89833D01*
X163003Y89897D01*
X163033Y89993D01*
X163073Y90085D01*
X163086Y90158D01*
X163109Y90229D01*
X163117Y90329D01*
X163135Y90428D01*
X163131Y90502D01*
X163137Y90576D01*
X163122Y90676D01*
X163117Y90776D01*
X163096Y90847D01*
X163085Y90921D01*
X163048Y91014D01*
X163020Y91111D01*
X162984Y91176D01*
X162956Y91245D01*
X162899Y91327D01*
X162850Y91415D01*
X162785Y91491D01*
X162757Y91531D01*
X162731Y91555D01*
X162692Y91601D01*
X160199Y94093D01*
X160199Y103207D01*
X166643Y109651D01*
X175757Y109651D01*
X182201Y103207D01*
X182201Y94093D01*
X179708Y91601D01*
X179646Y91523D01*
X179576Y91450D01*
X179538Y91386D01*
X179492Y91328D01*
X179449Y91237D01*
X179397Y91151D01*
X179375Y91080D01*
X179343Y91013D01*
X179322Y90915D01*
X179291Y90819D01*
X179285Y90745D01*
X179270Y90672D01*
X179271Y90572D01*
X179263Y90472D01*
X179274Y90398D01*
X179276Y90324D01*
X179300Y90227D01*
X179315Y90127D01*
X179342Y90058D01*
X179361Y89986D01*
X179407Y89897D01*
X179444Y89803D01*
X179486Y89742D01*
X179520Y89676D01*
X179585Y89600D01*
X179643Y89517D01*
X179698Y89467D01*
X179746Y89411D01*
X179827Y89351D01*
X179901Y89284D01*
X179966Y89248D01*
X180026Y89203D01*
X180118Y89164D01*
X180206Y89115D01*
X180278Y89095D01*
X180346Y89065D01*
X180445Y89048D01*
X180542Y89020D01*
X180642Y89012D01*
X180689Y89004D01*
X180725Y89006D01*
X180786Y89001D01*
X184076Y89001D01*
X184102Y89004D01*
X184128Y89002D01*
X184275Y89024D01*
X184422Y89041D01*
X184447Y89049D01*
X184473Y89053D01*
X184611Y89108D01*
X184750Y89158D01*
X184772Y89172D01*
X184797Y89182D01*
X184918Y89267D01*
X185043Y89347D01*
X185061Y89366D01*
X185083Y89381D01*
X185182Y89491D01*
X185285Y89598D01*
X185299Y89620D01*
X185316Y89640D01*
X185388Y89770D01*
X185464Y89897D01*
X185472Y89922D01*
X185485Y89945D01*
X185525Y90088D01*
X185570Y90229D01*
X185572Y90255D01*
X185580Y90280D01*
X185598Y90505D01*
X192043Y96951D01*
X201157Y96951D01*
X207601Y90507D01*
X207601Y87024D01*
X207604Y86998D01*
X207602Y86972D01*
X207624Y86825D01*
X207641Y86678D01*
X207649Y86653D01*
X207653Y86627D01*
X207708Y86489D01*
X207758Y86350D01*
X207772Y86328D01*
X207782Y86303D01*
X207867Y86182D01*
X207947Y86057D01*
X207966Y86039D01*
X207981Y86017D01*
X208091Y85918D01*
X208198Y85815D01*
X208220Y85801D01*
X208240Y85784D01*
X208370Y85712D01*
X208497Y85636D01*
X208522Y85628D01*
X208545Y85615D01*
X208688Y85575D01*
X208829Y85530D01*
X208855Y85528D01*
X208880Y85520D01*
X209124Y85501D01*
X233078Y85501D01*
X233178Y85512D01*
X233278Y85514D01*
X233350Y85532D01*
X233424Y85541D01*
X233519Y85574D01*
X233616Y85599D01*
X233682Y85633D01*
X233752Y85658D01*
X233837Y85713D01*
X233926Y85759D01*
X233983Y85807D01*
X234045Y85847D01*
X234115Y85919D01*
X234192Y85984D01*
X234236Y86044D01*
X234287Y86098D01*
X234339Y86184D01*
X234399Y86265D01*
X234428Y86333D01*
X234466Y86397D01*
X234497Y86493D01*
X234537Y86585D01*
X234550Y86658D01*
X234573Y86729D01*
X234581Y86829D01*
X234598Y86928D01*
X234595Y87002D01*
X234601Y87076D01*
X234586Y87176D01*
X234580Y87276D01*
X234560Y87347D01*
X234549Y87421D01*
X234512Y87514D01*
X234484Y87611D01*
X234448Y87676D01*
X234420Y87745D01*
X234363Y87827D01*
X234314Y87915D01*
X234249Y87991D01*
X234221Y88031D01*
X234195Y88055D01*
X234155Y88101D01*
X210201Y112055D01*
X210123Y112118D01*
X210050Y112187D01*
X209986Y112226D01*
X209928Y112272D01*
X209837Y112315D01*
X209751Y112366D01*
X209680Y112389D01*
X209613Y112421D01*
X209515Y112442D01*
X209419Y112473D01*
X209345Y112479D01*
X209272Y112494D01*
X209172Y112492D01*
X209072Y112501D01*
X208998Y112489D01*
X208924Y112488D01*
X208827Y112464D01*
X208727Y112449D01*
X208658Y112421D01*
X208586Y112403D01*
X208496Y112357D01*
X208403Y112320D01*
X208342Y112278D01*
X208276Y112244D01*
X208199Y112178D01*
X208117Y112121D01*
X208067Y112066D01*
X208011Y112018D01*
X207951Y111937D01*
X207884Y111862D01*
X207848Y111797D01*
X207803Y111737D01*
X207764Y111645D01*
X207715Y111557D01*
X207695Y111486D01*
X207665Y111417D01*
X207648Y111319D01*
X207620Y111222D01*
X207612Y111122D01*
X207604Y111074D01*
X207606Y111039D01*
X207601Y110978D01*
X207601Y106793D01*
X201157Y100349D01*
X192043Y100349D01*
X185599Y106793D01*
X185599Y115907D01*
X188142Y118449D01*
X188204Y118527D01*
X188274Y118600D01*
X188312Y118664D01*
X188358Y118722D01*
X188401Y118813D01*
X188453Y118899D01*
X188475Y118970D01*
X188507Y119037D01*
X188528Y119135D01*
X188559Y119231D01*
X188565Y119305D01*
X188580Y119378D01*
X188579Y119478D01*
X188587Y119578D01*
X188576Y119652D01*
X188574Y119726D01*
X188550Y119823D01*
X188535Y119923D01*
X188508Y119992D01*
X188489Y120064D01*
X188443Y120153D01*
X188406Y120247D01*
X188364Y120308D01*
X188330Y120374D01*
X188265Y120450D01*
X188207Y120533D01*
X188152Y120583D01*
X188104Y120639D01*
X188023Y120699D01*
X187949Y120766D01*
X187884Y120802D01*
X187824Y120847D01*
X187732Y120886D01*
X187644Y120935D01*
X187572Y120955D01*
X187504Y120985D01*
X187405Y121002D01*
X187308Y121030D01*
X187208Y121038D01*
X187161Y121046D01*
X187125Y121044D01*
X187064Y121049D01*
X183724Y121049D01*
X183698Y121046D01*
X183672Y121048D01*
X183525Y121026D01*
X183378Y121009D01*
X183353Y121001D01*
X183327Y120997D01*
X183189Y120942D01*
X183050Y120892D01*
X183028Y120878D01*
X183003Y120868D01*
X182882Y120783D01*
X182757Y120703D01*
X182739Y120684D01*
X182717Y120669D01*
X182618Y120559D01*
X182515Y120452D01*
X182501Y120430D01*
X182484Y120410D01*
X182412Y120280D01*
X182336Y120153D01*
X182328Y120128D01*
X182315Y120105D01*
X182275Y119962D01*
X182230Y119821D01*
X182228Y119795D01*
X182220Y119770D01*
X182201Y119526D01*
X182201Y119493D01*
X175757Y113049D01*
X166643Y113049D01*
X163139Y116553D01*
X163040Y116632D01*
X162947Y116716D01*
X162904Y116740D01*
X162866Y116770D01*
X162752Y116824D01*
X162642Y116885D01*
X162595Y116898D01*
X162551Y116919D01*
X162428Y116945D01*
X162306Y116980D01*
X162245Y116985D01*
X162211Y116992D01*
X162163Y116991D01*
X162062Y116999D01*
X153818Y116999D01*
X153792Y116996D01*
X153766Y116998D01*
X153619Y116976D01*
X153472Y116959D01*
X153447Y116951D01*
X153421Y116947D01*
X153283Y116892D01*
X153144Y116842D01*
X153122Y116828D01*
X153097Y116818D01*
X152976Y116733D01*
X152851Y116653D01*
X152833Y116634D01*
X152811Y116619D01*
X152712Y116509D01*
X152609Y116402D01*
X152595Y116380D01*
X152578Y116360D01*
X152506Y116230D01*
X152430Y116103D01*
X152422Y116078D01*
X152409Y116055D01*
X152369Y115912D01*
X152324Y115771D01*
X152322Y115745D01*
X152314Y115720D01*
X152295Y115476D01*
X152295Y115361D01*
X151123Y114189D01*
X143877Y114189D01*
X142634Y115433D01*
X142615Y115486D01*
X142569Y115628D01*
X142556Y115649D01*
X142548Y115673D01*
X142467Y115798D01*
X142390Y115927D01*
X142372Y115945D01*
X142359Y115965D01*
X142251Y116070D01*
X142147Y116177D01*
X142126Y116190D01*
X142108Y116208D01*
X141980Y116285D01*
X141854Y116365D01*
X141830Y116374D01*
X141809Y116386D01*
X141667Y116432D01*
X141525Y116482D01*
X141501Y116485D01*
X141477Y116493D01*
X141328Y116505D01*
X141179Y116522D01*
X141154Y116519D01*
X141130Y116521D01*
X140982Y116498D01*
X140833Y116481D01*
X140810Y116473D01*
X140785Y116469D01*
X140646Y116414D01*
X140505Y116363D01*
X140484Y116349D01*
X140461Y116340D01*
X140338Y116255D01*
X140213Y116173D01*
X140195Y116155D01*
X140175Y116141D01*
X140075Y116030D01*
X139971Y115922D01*
X139958Y115901D01*
X139942Y115883D01*
X139869Y115751D01*
X139793Y115623D01*
X139783Y115595D01*
X139773Y115578D01*
X139760Y115532D01*
X139711Y115392D01*
X139662Y115209D01*
X139327Y114630D01*
X138854Y114157D01*
X138275Y113822D01*
X137629Y113649D01*
X136023Y113649D01*
X136023Y120000D01*
X136023Y126351D01*
X137629Y126351D01*
X138275Y126178D01*
X138854Y125843D01*
X139327Y125370D01*
X139662Y124791D01*
X139711Y124608D01*
X139766Y124468D01*
X139816Y124327D01*
X139830Y124307D01*
X139839Y124283D01*
X139924Y124160D01*
X140005Y124035D01*
X140023Y124017D01*
X140037Y123997D01*
X140148Y123896D01*
X140256Y123792D01*
X140277Y123780D01*
X140295Y123763D01*
X140427Y123690D01*
X140555Y123614D01*
X140579Y123606D01*
X140600Y123594D01*
X140744Y123553D01*
X140887Y123507D01*
X140912Y123505D01*
X140935Y123499D01*
X141085Y123491D01*
X141234Y123479D01*
X141259Y123483D01*
X141284Y123482D01*
X141431Y123509D01*
X141579Y123531D01*
X141602Y123540D01*
X141626Y123545D01*
X141764Y123604D01*
X141903Y123660D01*
X141923Y123674D01*
X141946Y123684D01*
X142066Y123774D01*
X142189Y123859D01*
X142205Y123877D01*
X142225Y123892D01*
X142322Y124007D01*
X142422Y124117D01*
X142434Y124139D01*
X142450Y124158D01*
X142519Y124292D01*
X142591Y124422D01*
X142598Y124446D01*
X142609Y124468D01*
X142633Y124567D01*
X143877Y125811D01*
X151123Y125811D01*
X152295Y124639D01*
X152295Y124524D01*
X152298Y124498D01*
X152296Y124472D01*
X152318Y124325D01*
X152335Y124178D01*
X152343Y124153D01*
X152347Y124127D01*
X152402Y123989D01*
X152452Y123850D01*
X152466Y123828D01*
X152476Y123803D01*
X152561Y123682D01*
X152641Y123557D01*
X152660Y123539D01*
X152675Y123517D01*
X152785Y123418D01*
X152892Y123315D01*
X152914Y123301D01*
X152934Y123284D01*
X153064Y123212D01*
X153191Y123136D01*
X153216Y123128D01*
X153239Y123115D01*
X153382Y123075D01*
X153523Y123030D01*
X153549Y123028D01*
X153574Y123020D01*
X153818Y123001D01*
X158676Y123001D01*
X158702Y123004D01*
X158728Y123002D01*
X158875Y123024D01*
X159022Y123041D01*
X159047Y123049D01*
X159073Y123053D01*
X159211Y123108D01*
X159350Y123158D01*
X159372Y123172D01*
X159397Y123182D01*
X159518Y123267D01*
X159643Y123347D01*
X159661Y123366D01*
X159683Y123381D01*
X159782Y123491D01*
X159885Y123598D01*
X159899Y123620D01*
X159916Y123640D01*
X159988Y123769D01*
X160064Y123897D01*
X160072Y123922D01*
X160085Y123945D01*
X160125Y124088D01*
X160170Y124229D01*
X160172Y124255D01*
X160180Y124280D01*
X160199Y124524D01*
X160199Y128607D01*
X162992Y131399D01*
X163054Y131477D01*
X163124Y131550D01*
X163162Y131614D01*
X163208Y131672D01*
X163251Y131763D01*
X163303Y131849D01*
X163325Y131920D01*
X163357Y131987D01*
X163378Y132085D01*
X163409Y132181D01*
X163415Y132255D01*
X163430Y132328D01*
X163429Y132428D01*
X163437Y132528D01*
X163426Y132602D01*
X163424Y132676D01*
X163400Y132773D01*
X163385Y132873D01*
X163358Y132942D01*
X163339Y133014D01*
X163293Y133103D01*
X163256Y133197D01*
X163214Y133258D01*
X163180Y133324D01*
X163115Y133400D01*
X163057Y133483D01*
X163002Y133533D01*
X162954Y133589D01*
X162873Y133649D01*
X162799Y133716D01*
X162734Y133752D01*
X162674Y133797D01*
X162582Y133836D01*
X162494Y133885D01*
X162422Y133905D01*
X162354Y133935D01*
X162255Y133952D01*
X162158Y133980D01*
X162058Y133988D01*
X162011Y133996D01*
X161975Y133994D01*
X161914Y133999D01*
X153818Y133999D01*
X153792Y133996D01*
X153766Y133998D01*
X153619Y133976D01*
X153472Y133959D01*
X153447Y133951D01*
X153421Y133947D01*
X153283Y133892D01*
X153144Y133842D01*
X153122Y133828D01*
X153097Y133818D01*
X152976Y133733D01*
X152851Y133653D01*
X152833Y133634D01*
X152811Y133619D01*
X152712Y133509D01*
X152609Y133402D01*
X152595Y133380D01*
X152578Y133360D01*
X152506Y133230D01*
X152430Y133103D01*
X152422Y133078D01*
X152409Y133055D01*
X152369Y132912D01*
X152324Y132771D01*
X152322Y132745D01*
X152314Y132720D01*
X152295Y132476D01*
X152295Y132361D01*
X151123Y131189D01*
X143877Y131189D01*
X142634Y132433D01*
X142615Y132486D01*
X142569Y132628D01*
X142556Y132649D01*
X142548Y132673D01*
X142467Y132798D01*
X142390Y132927D01*
X142372Y132945D01*
X142359Y132965D01*
X142251Y133070D01*
X142147Y133177D01*
X142126Y133190D01*
X142108Y133208D01*
X141980Y133284D01*
X141854Y133365D01*
X141830Y133374D01*
X141809Y133386D01*
X141667Y133432D01*
X141525Y133482D01*
X141501Y133485D01*
X141477Y133493D01*
X141328Y133505D01*
X141179Y133522D01*
X141154Y133519D01*
X141130Y133521D01*
X140982Y133498D01*
X140833Y133481D01*
X140810Y133473D01*
X140785Y133469D01*
X140646Y133414D01*
X140505Y133363D01*
X140484Y133349D01*
X140461Y133340D01*
X140339Y133255D01*
X140213Y133173D01*
X140195Y133155D01*
X140175Y133141D01*
X140075Y133030D01*
X139971Y132922D01*
X139958Y132901D01*
X139942Y132883D01*
X139869Y132751D01*
X139793Y132623D01*
X139783Y132595D01*
X139773Y132577D01*
X139760Y132532D01*
X139711Y132392D01*
X139662Y132209D01*
X139327Y131630D01*
X138854Y131157D01*
X138275Y130822D01*
X137629Y130649D01*
X136023Y130649D01*
X136023Y137000D01*
X136023Y143351D01*
X137629Y143351D01*
X138275Y143178D01*
X138854Y142843D01*
X139327Y142370D01*
X139662Y141791D01*
X139711Y141608D01*
X139766Y141468D01*
X139816Y141327D01*
X139830Y141307D01*
X139839Y141283D01*
X139924Y141160D01*
X140005Y141035D01*
X140023Y141017D01*
X140037Y140997D01*
X140148Y140896D01*
X140256Y140792D01*
X140277Y140780D01*
X140295Y140763D01*
X140426Y140690D01*
X140555Y140614D01*
X140578Y140606D01*
X140600Y140594D01*
X140745Y140553D01*
X140887Y140507D01*
X140912Y140505D01*
X140935Y140499D01*
X141085Y140491D01*
X141234Y140479D01*
X141259Y140483D01*
X141284Y140482D01*
X141431Y140509D01*
X141579Y140531D01*
X141602Y140540D01*
X141626Y140545D01*
X141763Y140604D01*
X141903Y140660D01*
X141923Y140674D01*
X141946Y140684D01*
X142066Y140773D01*
X142189Y140859D01*
X142206Y140877D01*
X142225Y140892D01*
X142322Y141006D01*
X142422Y141117D01*
X142434Y141139D01*
X142450Y141158D01*
X142518Y141291D01*
X142591Y141423D01*
X142598Y141446D01*
X142609Y141469D01*
X142633Y141567D01*
X143877Y142811D01*
X151123Y142811D01*
X152295Y141639D01*
X152295Y141524D01*
X152298Y141498D01*
X152296Y141472D01*
X152318Y141325D01*
X152335Y141178D01*
X152343Y141153D01*
X152347Y141127D01*
X152402Y140989D01*
X152452Y140850D01*
X152466Y140828D01*
X152476Y140803D01*
X152561Y140682D01*
X152641Y140557D01*
X152660Y140539D01*
X152675Y140517D01*
X152785Y140418D01*
X152892Y140315D01*
X152914Y140301D01*
X152934Y140284D01*
X153064Y140212D01*
X153191Y140136D01*
X153216Y140128D01*
X153239Y140115D01*
X153382Y140075D01*
X153523Y140030D01*
X153549Y140028D01*
X153574Y140020D01*
X153818Y140001D01*
X161414Y140001D01*
X161514Y140012D01*
X161615Y140014D01*
X161687Y140032D01*
X161761Y140041D01*
X161855Y140074D01*
X161953Y140099D01*
X162019Y140133D01*
X162089Y140158D01*
X162173Y140213D01*
X162262Y140259D01*
X162319Y140307D01*
X162382Y140347D01*
X162451Y140419D01*
X162528Y140484D01*
X162572Y140544D01*
X162624Y140598D01*
X162675Y140684D01*
X162735Y140765D01*
X162764Y140833D01*
X162803Y140897D01*
X162833Y140993D01*
X162873Y141085D01*
X162886Y141158D01*
X162909Y141229D01*
X162917Y141329D01*
X162935Y141428D01*
X162931Y141502D01*
X162937Y141576D01*
X162922Y141676D01*
X162917Y141776D01*
X162896Y141847D01*
X162885Y141921D01*
X162848Y142014D01*
X162820Y142111D01*
X162784Y142176D01*
X162756Y142245D01*
X162699Y142327D01*
X162650Y142415D01*
X162585Y142491D01*
X162557Y142531D01*
X162531Y142555D01*
X162492Y142601D01*
X160199Y144893D01*
X160199Y149476D01*
X160196Y149502D01*
X160198Y149528D01*
X160176Y149675D01*
X160159Y149822D01*
X160151Y149847D01*
X160147Y149873D01*
X160092Y150011D01*
X160042Y150150D01*
X160028Y150172D01*
X160018Y150197D01*
X159933Y150318D01*
X159853Y150443D01*
X159834Y150461D01*
X159819Y150483D01*
X159709Y150582D01*
X159602Y150685D01*
X159580Y150699D01*
X159560Y150716D01*
X159430Y150788D01*
X159303Y150864D01*
X159278Y150872D01*
X159255Y150885D01*
X159112Y150925D01*
X158971Y150970D01*
X158945Y150972D01*
X158920Y150980D01*
X158676Y150999D01*
X153818Y150999D01*
X153792Y150996D01*
X153766Y150998D01*
X153619Y150976D01*
X153472Y150959D01*
X153447Y150951D01*
X153421Y150947D01*
X153283Y150892D01*
X153144Y150842D01*
X153122Y150828D01*
X153097Y150818D01*
X152976Y150733D01*
X152851Y150653D01*
X152833Y150634D01*
X152811Y150619D01*
X152712Y150509D01*
X152609Y150402D01*
X152595Y150380D01*
X152578Y150360D01*
X152506Y150230D01*
X152430Y150103D01*
X152422Y150078D01*
X152409Y150055D01*
X152369Y149912D01*
X152324Y149771D01*
X152322Y149745D01*
X152314Y149720D01*
X152295Y149476D01*
X152295Y149361D01*
X151123Y148189D01*
X143877Y148189D01*
X142634Y149433D01*
X142615Y149486D01*
X142569Y149628D01*
X142556Y149649D01*
X142548Y149673D01*
X142467Y149798D01*
X142390Y149927D01*
X142372Y149945D01*
X142359Y149965D01*
X142251Y150070D01*
X142147Y150177D01*
X142126Y150190D01*
X142108Y150208D01*
X141980Y150284D01*
X141854Y150365D01*
X141830Y150374D01*
X141809Y150386D01*
X141667Y150432D01*
X141525Y150482D01*
X141501Y150485D01*
X141477Y150493D01*
X141328Y150505D01*
X141179Y150522D01*
X141154Y150519D01*
X141130Y150521D01*
X140982Y150498D01*
X140833Y150481D01*
X140810Y150473D01*
X140785Y150469D01*
X140646Y150414D01*
X140505Y150363D01*
X140484Y150349D01*
X140461Y150340D01*
X140339Y150255D01*
X140213Y150173D01*
X140195Y150155D01*
X140175Y150141D01*
X140075Y150030D01*
X139971Y149922D01*
X139958Y149901D01*
X139942Y149883D01*
X139869Y149751D01*
X139793Y149623D01*
X139783Y149595D01*
X139773Y149577D01*
X139760Y149532D01*
X139711Y149392D01*
X139662Y149209D01*
X139327Y148630D01*
X138854Y148157D01*
X138275Y147822D01*
X137629Y147649D01*
X136023Y147649D01*
X136023Y154000D01*
X136023Y160351D01*
X137629Y160351D01*
X138275Y160178D01*
X138854Y159843D01*
X139327Y159370D01*
X139662Y158791D01*
X139711Y158608D01*
X139766Y158468D01*
X139816Y158327D01*
X139830Y158307D01*
X139839Y158283D01*
X139924Y158160D01*
X140005Y158035D01*
X140023Y158017D01*
X140037Y157997D01*
X140148Y157896D01*
X140256Y157792D01*
X140277Y157780D01*
X140295Y157763D01*
X140426Y157690D01*
X140555Y157614D01*
X140578Y157606D01*
X140600Y157594D01*
X140745Y157553D01*
X140887Y157507D01*
X140912Y157505D01*
X140935Y157499D01*
X141085Y157491D01*
X141234Y157479D01*
X141259Y157483D01*
X141284Y157482D01*
X141431Y157509D01*
X141579Y157531D01*
X141602Y157540D01*
X141626Y157545D01*
X141763Y157604D01*
X141903Y157660D01*
X141923Y157674D01*
X141946Y157684D01*
X142066Y157773D01*
X142189Y157859D01*
X142206Y157877D01*
X142225Y157892D01*
X142322Y158006D01*
X142422Y158117D01*
X142434Y158139D01*
X142450Y158158D01*
X142518Y158291D01*
X142591Y158423D01*
X142598Y158446D01*
X142609Y158469D01*
X142633Y158567D01*
X143877Y159811D01*
X151123Y159811D01*
X152295Y158639D01*
X152295Y158524D01*
X152298Y158498D01*
X152296Y158472D01*
X152318Y158325D01*
X152335Y158178D01*
X152343Y158153D01*
X152347Y158127D01*
X152402Y157989D01*
X152452Y157850D01*
X152466Y157828D01*
X152476Y157803D01*
X152561Y157682D01*
X152641Y157557D01*
X152660Y157539D01*
X152675Y157517D01*
X152785Y157418D01*
X152892Y157315D01*
X152914Y157301D01*
X152934Y157284D01*
X153064Y157212D01*
X153191Y157136D01*
X153216Y157128D01*
X153239Y157115D01*
X153382Y157075D01*
X153523Y157030D01*
X153549Y157028D01*
X153574Y157020D01*
X153818Y157001D01*
X162562Y157001D01*
X162688Y157015D01*
X162814Y157022D01*
X162861Y157035D01*
X162909Y157041D01*
X163028Y157083D01*
X163149Y157118D01*
X163191Y157142D01*
X163237Y157158D01*
X163343Y157227D01*
X163453Y157288D01*
X163500Y157328D01*
X163530Y157347D01*
X163563Y157382D01*
X163639Y157447D01*
X166643Y160451D01*
X175757Y160451D01*
X182201Y154007D01*
X182201Y153974D01*
X182204Y153948D01*
X182202Y153922D01*
X182224Y153775D01*
X182241Y153628D01*
X182249Y153603D01*
X182253Y153577D01*
X182308Y153439D01*
X182358Y153300D01*
X182372Y153278D01*
X182382Y153253D01*
X182467Y153132D01*
X182547Y153007D01*
X182566Y152989D01*
X182581Y152967D01*
X182691Y152868D01*
X182798Y152765D01*
X182820Y152751D01*
X182840Y152734D01*
X182970Y152662D01*
X183097Y152586D01*
X183122Y152578D01*
X183145Y152565D01*
X183288Y152525D01*
X183429Y152480D01*
X183455Y152478D01*
X183480Y152470D01*
X183724Y152451D01*
X203793Y152451D01*
X210297Y145947D01*
X212501Y143743D01*
X212501Y132874D01*
X212515Y132748D01*
X212522Y132622D01*
X212535Y132576D01*
X212541Y132528D01*
X212583Y132409D01*
X212618Y132287D01*
X212642Y132245D01*
X212658Y132200D01*
X212727Y132093D01*
X212788Y131983D01*
X212828Y131937D01*
X212847Y131907D01*
X212882Y131873D01*
X212947Y131797D01*
X243797Y100947D01*
X243896Y100868D01*
X243990Y100784D01*
X244032Y100760D01*
X244070Y100730D01*
X244184Y100676D01*
X244295Y100615D01*
X244341Y100602D01*
X244385Y100581D01*
X244508Y100555D01*
X244630Y100520D01*
X244691Y100515D01*
X244726Y100508D01*
X244774Y100509D01*
X244874Y100501D01*
X298261Y100501D01*
X298287Y100504D01*
X298313Y100502D01*
X298460Y100524D01*
X298607Y100541D01*
X298632Y100549D01*
X298658Y100553D01*
X298796Y100608D01*
X298935Y100658D01*
X298957Y100672D01*
X298982Y100682D01*
X299103Y100767D01*
X299228Y100847D01*
X299246Y100866D01*
X299268Y100881D01*
X299367Y100991D01*
X299470Y101098D01*
X299484Y101120D01*
X299501Y101140D01*
X299573Y101270D01*
X299649Y101397D01*
X299657Y101422D01*
X299670Y101445D01*
X299710Y101588D01*
X299755Y101729D01*
X299757Y101755D01*
X299765Y101780D01*
X299784Y102024D01*
X299784Y104206D01*
X299773Y104307D01*
X299771Y104409D01*
X299753Y104480D01*
X299744Y104552D01*
X299710Y104648D01*
X299685Y104747D01*
X299643Y104835D01*
X299627Y104880D01*
X299607Y104911D01*
X299580Y104967D01*
X299417Y105249D01*
X299244Y105895D01*
X299244Y105977D01*
X307500Y105977D01*
X307526Y105980D01*
X307552Y105977D01*
X307699Y105999D01*
X307846Y106016D01*
X307871Y106025D01*
X307897Y106029D01*
X308034Y106084D01*
X308174Y106134D01*
X308196Y106148D01*
X308220Y106158D01*
X308342Y106242D01*
X308467Y106323D01*
X308485Y106342D01*
X308507Y106357D01*
X308606Y106467D01*
X308709Y106574D01*
X308722Y106596D01*
X308740Y106616D01*
X308812Y106746D01*
X308888Y106873D01*
X308896Y106898D01*
X308909Y106921D01*
X308949Y107064D01*
X308994Y107205D01*
X308996Y107231D01*
X309003Y107256D01*
X309023Y107500D01*
X309020Y107526D01*
X309022Y107552D01*
X309000Y107699D01*
X308983Y107846D01*
X308974Y107871D01*
X308970Y107897D01*
X308916Y108035D01*
X308866Y108174D01*
X308851Y108197D01*
X308842Y108221D01*
X308757Y108342D01*
X308677Y108467D01*
X308658Y108486D01*
X308643Y108507D01*
X308533Y108606D01*
X308426Y108709D01*
X308403Y108723D01*
X308384Y108740D01*
X308254Y108812D01*
X308127Y108888D01*
X308102Y108896D01*
X308079Y108909D01*
X307936Y108949D01*
X307795Y108995D01*
X307769Y108997D01*
X307743Y109004D01*
X307500Y109023D01*
X299244Y109023D01*
X299244Y109105D01*
X299417Y109751D01*
X299580Y110033D01*
X299621Y110126D01*
X299670Y110215D01*
X299690Y110285D01*
X299719Y110352D01*
X299737Y110452D01*
X299765Y110550D01*
X299773Y110648D01*
X299781Y110695D01*
X299779Y110732D01*
X299784Y110794D01*
X299784Y117976D01*
X299781Y118002D01*
X299783Y118028D01*
X299761Y118175D01*
X299744Y118322D01*
X299736Y118347D01*
X299732Y118373D01*
X299677Y118511D01*
X299627Y118650D01*
X299613Y118672D01*
X299603Y118697D01*
X299518Y118818D01*
X299438Y118943D01*
X299419Y118961D01*
X299404Y118983D01*
X299294Y119082D01*
X299187Y119185D01*
X299165Y119199D01*
X299145Y119216D01*
X299015Y119288D01*
X298888Y119364D01*
X298863Y119372D01*
X298840Y119385D01*
X298697Y119425D01*
X298556Y119470D01*
X298530Y119472D01*
X298505Y119480D01*
X298261Y119499D01*
X250236Y119499D01*
X250111Y119485D01*
X249984Y119478D01*
X249938Y119465D01*
X249890Y119459D01*
X249771Y119417D01*
X249650Y119382D01*
X249607Y119358D01*
X249562Y119342D01*
X249456Y119273D01*
X249345Y119212D01*
X249299Y119172D01*
X249269Y119153D01*
X249236Y119118D01*
X249159Y119053D01*
X249081Y118975D01*
X244919Y118975D01*
X241975Y121919D01*
X241975Y126081D01*
X244919Y129025D01*
X249081Y129025D01*
X252159Y125947D01*
X252258Y125868D01*
X252352Y125784D01*
X252394Y125760D01*
X252432Y125730D01*
X252546Y125676D01*
X252657Y125615D01*
X252704Y125602D01*
X252747Y125581D01*
X252871Y125555D01*
X252992Y125520D01*
X253053Y125515D01*
X253088Y125508D01*
X253136Y125509D01*
X253236Y125501D01*
X262975Y125501D01*
X263051Y125509D01*
X263127Y125508D01*
X263223Y125529D01*
X263321Y125541D01*
X263393Y125566D01*
X263467Y125582D01*
X263556Y125625D01*
X263650Y125658D01*
X263713Y125699D01*
X263782Y125732D01*
X263859Y125793D01*
X263942Y125847D01*
X263995Y125902D01*
X264054Y125949D01*
X264116Y126027D01*
X264185Y126098D01*
X264223Y126163D01*
X264271Y126222D01*
X264313Y126312D01*
X264363Y126397D01*
X264387Y126469D01*
X264419Y126538D01*
X264439Y126635D01*
X264470Y126729D01*
X264476Y126804D01*
X264492Y126879D01*
X264490Y126978D01*
X264498Y127076D01*
X264486Y127151D01*
X264485Y127227D01*
X264461Y127323D01*
X264446Y127421D01*
X264418Y127491D01*
X264399Y127565D01*
X264348Y127672D01*
X264165Y128355D01*
X264165Y130977D01*
X269500Y130977D01*
X269526Y130980D01*
X269552Y130977D01*
X269699Y130999D01*
X269846Y131016D01*
X269871Y131025D01*
X269897Y131029D01*
X270034Y131084D01*
X270174Y131134D01*
X270196Y131148D01*
X270220Y131158D01*
X270342Y131242D01*
X270467Y131323D01*
X270485Y131342D01*
X270507Y131357D01*
X270606Y131467D01*
X270687Y131550D01*
X270709Y131574D01*
X270723Y131597D01*
X270740Y131616D01*
X270812Y131746D01*
X270888Y131873D01*
X270896Y131898D01*
X270909Y131921D01*
X270949Y132064D01*
X270995Y132205D01*
X270997Y132231D01*
X271004Y132257D01*
X271023Y132500D01*
X271023Y138851D01*
X272629Y138851D01*
X273275Y138678D01*
X273854Y138343D01*
X274327Y137870D01*
X274662Y137291D01*
X274711Y137108D01*
X274766Y136968D01*
X274816Y136827D01*
X274830Y136807D01*
X274839Y136783D01*
X274924Y136660D01*
X275005Y136535D01*
X275023Y136517D01*
X275037Y136497D01*
X275148Y136397D01*
X275256Y136292D01*
X275277Y136280D01*
X275296Y136263D01*
X275426Y136190D01*
X275555Y136114D01*
X275579Y136106D01*
X275600Y136094D01*
X275744Y136053D01*
X275887Y136007D01*
X275912Y136005D01*
X275935Y135999D01*
X276085Y135991D01*
X276234Y135979D01*
X276259Y135983D01*
X276284Y135982D01*
X276431Y136009D01*
X276579Y136031D01*
X276602Y136040D01*
X276626Y136045D01*
X276764Y136105D01*
X276903Y136160D01*
X276923Y136174D01*
X276946Y136184D01*
X277067Y136274D01*
X277189Y136359D01*
X277205Y136377D01*
X277225Y136392D01*
X277322Y136507D01*
X277422Y136618D01*
X277434Y136639D01*
X277450Y136658D01*
X277519Y136792D01*
X277591Y136923D01*
X277598Y136946D01*
X277609Y136969D01*
X277633Y137067D01*
X278877Y138311D01*
X286123Y138311D01*
X287295Y137139D01*
X287295Y137024D01*
X287298Y136998D01*
X287296Y136972D01*
X287318Y136825D01*
X287335Y136678D01*
X287343Y136653D01*
X287347Y136627D01*
X287402Y136489D01*
X287452Y136350D01*
X287466Y136328D01*
X287476Y136303D01*
X287561Y136182D01*
X287641Y136057D01*
X287660Y136039D01*
X287675Y136017D01*
X287785Y135918D01*
X287892Y135815D01*
X287914Y135801D01*
X287934Y135784D01*
X288064Y135712D01*
X288191Y135636D01*
X288216Y135628D01*
X288239Y135615D01*
X288382Y135575D01*
X288523Y135530D01*
X288549Y135528D01*
X288574Y135520D01*
X288818Y135501D01*
X300055Y135501D01*
X300181Y135515D01*
X300307Y135522D01*
X300354Y135535D01*
X300402Y135541D01*
X300520Y135583D01*
X300642Y135618D01*
X300684Y135642D01*
X300730Y135658D01*
X300836Y135727D01*
X300915Y135771D01*
X314044Y135771D01*
X315216Y134599D01*
X315216Y132024D01*
X315219Y131998D01*
X315217Y131972D01*
X315239Y131825D01*
X315256Y131678D01*
X315264Y131653D01*
X315268Y131627D01*
X315323Y131489D01*
X315373Y131350D01*
X315387Y131327D01*
X315397Y131303D01*
X315482Y131182D01*
X315562Y131057D01*
X315581Y131039D01*
X315596Y131017D01*
X315706Y130918D01*
X315813Y130815D01*
X315835Y130801D01*
X315855Y130784D01*
X315985Y130712D01*
X316112Y130636D01*
X316137Y130628D01*
X316160Y130615D01*
X316303Y130575D01*
X316444Y130530D01*
X316470Y130528D01*
X316495Y130520D01*
X316739Y130501D01*
X333126Y130501D01*
X333252Y130515D01*
X333378Y130522D01*
X333424Y130535D01*
X333472Y130541D01*
X333591Y130583D01*
X333713Y130618D01*
X333755Y130642D01*
X333800Y130658D01*
X333907Y130727D01*
X334017Y130788D01*
X334063Y130828D01*
X334093Y130847D01*
X334127Y130882D01*
X334203Y130947D01*
X338757Y135501D01*
X344078Y135501D01*
X344178Y135512D01*
X344278Y135514D01*
X344350Y135532D01*
X344424Y135541D01*
X344519Y135575D01*
X344616Y135599D01*
X344682Y135633D01*
X344752Y135658D01*
X344837Y135713D01*
X344926Y135759D01*
X344983Y135807D01*
X345045Y135847D01*
X345115Y135919D01*
X345192Y135984D01*
X345236Y136044D01*
X345287Y136098D01*
X345339Y136184D01*
X345399Y136265D01*
X345428Y136333D01*
X345466Y136397D01*
X345497Y136493D01*
X345537Y136585D01*
X345550Y136658D01*
X345573Y136729D01*
X345581Y136829D01*
X345598Y136928D01*
X345595Y137002D01*
X345601Y137076D01*
X345586Y137176D01*
X345580Y137276D01*
X345560Y137347D01*
X345549Y137421D01*
X345512Y137514D01*
X345484Y137611D01*
X345448Y137676D01*
X345420Y137745D01*
X345363Y137827D01*
X345314Y137915D01*
X345249Y137991D01*
X345221Y138031D01*
X345195Y138055D01*
X345155Y138101D01*
X344354Y138903D01*
X344342Y138935D01*
X344328Y138957D01*
X344318Y138982D01*
X344233Y139103D01*
X344153Y139228D01*
X344134Y139246D01*
X344119Y139268D01*
X344009Y139367D01*
X343902Y139470D01*
X343880Y139484D01*
X343860Y139501D01*
X343730Y139573D01*
X343603Y139649D01*
X343578Y139657D01*
X343555Y139670D01*
X343412Y139710D01*
X343271Y139755D01*
X343245Y139757D01*
X343220Y139765D01*
X342976Y139784D01*
X320401Y139784D01*
X319229Y140956D01*
X319229Y154476D01*
X319226Y154502D01*
X319228Y154528D01*
X319206Y154674D01*
X319189Y154822D01*
X319181Y154847D01*
X319177Y154873D01*
X319122Y155011D01*
X319072Y155150D01*
X319058Y155172D01*
X319048Y155197D01*
X318963Y155318D01*
X318883Y155443D01*
X318864Y155461D01*
X318849Y155483D01*
X318739Y155582D01*
X318632Y155685D01*
X318610Y155699D01*
X318590Y155716D01*
X318460Y155788D01*
X318333Y155864D01*
X318308Y155872D01*
X318285Y155885D01*
X318142Y155925D01*
X318001Y155970D01*
X317975Y155972D01*
X317950Y155980D01*
X317706Y155999D01*
X299874Y155999D01*
X299748Y155985D01*
X299622Y155978D01*
X299576Y155965D01*
X299528Y155959D01*
X299409Y155917D01*
X299287Y155882D01*
X299245Y155858D01*
X299200Y155842D01*
X299093Y155773D01*
X298983Y155712D01*
X298937Y155672D01*
X298907Y155653D01*
X298873Y155618D01*
X298797Y155553D01*
X290243Y146999D01*
X288818Y146999D01*
X288792Y146996D01*
X288766Y146998D01*
X288619Y146976D01*
X288472Y146959D01*
X288447Y146951D01*
X288421Y146947D01*
X288283Y146892D01*
X288144Y146842D01*
X288122Y146828D01*
X288097Y146818D01*
X287976Y146733D01*
X287851Y146653D01*
X287833Y146634D01*
X287811Y146619D01*
X287712Y146509D01*
X287609Y146402D01*
X287595Y146380D01*
X287578Y146360D01*
X287506Y146230D01*
X287430Y146103D01*
X287422Y146078D01*
X287409Y146055D01*
X287369Y145912D01*
X287324Y145771D01*
X287322Y145745D01*
X287314Y145720D01*
X287295Y145476D01*
X287295Y145361D01*
X286123Y144189D01*
X278877Y144189D01*
X277705Y145361D01*
X277705Y154639D01*
X278489Y155423D01*
X278506Y155443D01*
X278526Y155460D01*
X278614Y155580D01*
X278706Y155696D01*
X278717Y155720D01*
X278733Y155741D01*
X278792Y155877D01*
X278855Y156011D01*
X278860Y156037D01*
X278871Y156061D01*
X278897Y156207D01*
X278928Y156352D01*
X278928Y156378D01*
X278933Y156404D01*
X278925Y156552D01*
X278922Y156700D01*
X278916Y156726D01*
X278915Y156752D01*
X278874Y156894D01*
X278837Y157038D01*
X278825Y157061D01*
X278818Y157087D01*
X278746Y157216D01*
X278678Y157348D01*
X278661Y157368D01*
X278648Y157391D01*
X278489Y157577D01*
X277705Y158361D01*
X277705Y167639D01*
X278877Y168811D01*
X286123Y168811D01*
X287295Y167639D01*
X287295Y167524D01*
X287298Y167498D01*
X287296Y167472D01*
X287318Y167325D01*
X287335Y167178D01*
X287343Y167153D01*
X287347Y167127D01*
X287402Y166989D01*
X287452Y166850D01*
X287466Y166828D01*
X287476Y166803D01*
X287561Y166682D01*
X287641Y166557D01*
X287660Y166539D01*
X287675Y166517D01*
X287785Y166418D01*
X287892Y166315D01*
X287914Y166301D01*
X287934Y166284D01*
X288064Y166212D01*
X288191Y166136D01*
X288216Y166128D01*
X288239Y166115D01*
X288382Y166075D01*
X288523Y166030D01*
X288549Y166028D01*
X288574Y166020D01*
X288818Y166001D01*
X291078Y166001D01*
X291178Y166012D01*
X291278Y166014D01*
X291350Y166032D01*
X291424Y166041D01*
X291519Y166074D01*
X291616Y166099D01*
X291682Y166133D01*
X291752Y166158D01*
X291837Y166213D01*
X291926Y166259D01*
X291983Y166307D01*
X292045Y166347D01*
X292115Y166419D01*
X292192Y166484D01*
X292236Y166544D01*
X292287Y166598D01*
X292339Y166684D01*
X292399Y166765D01*
X292428Y166833D01*
X292466Y166897D01*
X292497Y166993D01*
X292537Y167085D01*
X292550Y167158D01*
X292573Y167229D01*
X292581Y167329D01*
X292598Y167428D01*
X292595Y167502D01*
X292601Y167576D01*
X292586Y167676D01*
X292580Y167776D01*
X292560Y167847D01*
X292549Y167921D01*
X292512Y168014D01*
X292484Y168111D01*
X292448Y168176D01*
X292420Y168245D01*
X292363Y168327D01*
X292314Y168415D01*
X292249Y168491D01*
X292221Y168531D01*
X292195Y168555D01*
X292155Y168601D01*
X281703Y179053D01*
X281604Y179132D01*
X281510Y179216D01*
X281468Y179240D01*
X281430Y179270D01*
X281316Y179324D01*
X281205Y179385D01*
X281159Y179398D01*
X281115Y179419D01*
X280992Y179445D01*
X280870Y179480D01*
X280809Y179485D01*
X280774Y179492D01*
X280726Y179491D01*
X280626Y179499D01*
X272171Y179499D01*
X270999Y180671D01*
X270999Y199329D01*
X272171Y200501D01*
X285829Y200501D01*
X287001Y199329D01*
X287001Y182874D01*
X287015Y182748D01*
X287022Y182622D01*
X287035Y182576D01*
X287041Y182528D01*
X287083Y182409D01*
X287118Y182287D01*
X287142Y182245D01*
X287158Y182200D01*
X287227Y182093D01*
X287288Y181983D01*
X287328Y181937D01*
X287347Y181907D01*
X287382Y181873D01*
X287447Y181797D01*
X295797Y173447D01*
X295896Y173368D01*
X295990Y173284D01*
X296032Y173260D01*
X296070Y173230D01*
X296184Y173176D01*
X296295Y173115D01*
X296341Y173102D01*
X296385Y173081D01*
X296508Y173055D01*
X296630Y173020D01*
X296691Y173015D01*
X296726Y173008D01*
X296774Y173009D01*
X296874Y173001D01*
X307264Y173001D01*
X307389Y173015D01*
X307516Y173022D01*
X307562Y173035D01*
X307610Y173041D01*
X307729Y173083D01*
X307850Y173118D01*
X307893Y173142D01*
X307938Y173158D01*
X308044Y173227D01*
X308155Y173288D01*
X308201Y173328D01*
X308231Y173347D01*
X308264Y173382D01*
X308341Y173447D01*
X309919Y175025D01*
X314081Y175025D01*
X317025Y172081D01*
X317025Y167524D01*
X317028Y167498D01*
X317026Y167472D01*
X317048Y167325D01*
X317065Y167178D01*
X317073Y167153D01*
X317077Y167127D01*
X317132Y166989D01*
X317182Y166850D01*
X317196Y166828D01*
X317206Y166803D01*
X317291Y166682D01*
X317371Y166557D01*
X317390Y166539D01*
X317405Y166517D01*
X317515Y166418D01*
X317622Y166315D01*
X317644Y166301D01*
X317664Y166284D01*
X317794Y166212D01*
X317921Y166136D01*
X317946Y166128D01*
X317969Y166115D01*
X318112Y166075D01*
X318253Y166030D01*
X318279Y166028D01*
X318304Y166020D01*
X318548Y166001D01*
X330743Y166001D01*
X340646Y156097D01*
X340658Y156065D01*
X340672Y156043D01*
X340682Y156018D01*
X340767Y155897D01*
X340847Y155772D01*
X340866Y155754D01*
X340881Y155732D01*
X340991Y155633D01*
X341098Y155530D01*
X341120Y155516D01*
X341140Y155499D01*
X341270Y155427D01*
X341397Y155351D01*
X341422Y155343D01*
X341445Y155330D01*
X341588Y155290D01*
X341729Y155245D01*
X341755Y155243D01*
X341780Y155235D01*
X342024Y155216D01*
X347976Y155216D01*
X348002Y155219D01*
X348028Y155217D01*
X348175Y155239D01*
X348322Y155256D01*
X348347Y155264D01*
X348373Y155268D01*
X348511Y155323D01*
X348650Y155373D01*
X348672Y155387D01*
X348697Y155397D01*
X348818Y155482D01*
X348943Y155562D01*
X348961Y155581D01*
X348983Y155596D01*
X349082Y155706D01*
X349185Y155813D01*
X349199Y155835D01*
X349216Y155855D01*
X349288Y155985D01*
X349364Y156112D01*
X349372Y156137D01*
X349385Y156160D01*
X349425Y156303D01*
X349470Y156444D01*
X349472Y156470D01*
X349480Y156495D01*
X349499Y156739D01*
X349499Y192743D01*
X361615Y204859D01*
X361678Y204937D01*
X361747Y205010D01*
X361786Y205074D01*
X361832Y205132D01*
X361875Y205223D01*
X361926Y205309D01*
X361949Y205380D01*
X361981Y205447D01*
X362002Y205545D01*
X362033Y205641D01*
X362039Y205715D01*
X362054Y205788D01*
X362052Y205888D01*
X362061Y205988D01*
X362049Y206062D01*
X362048Y206136D01*
X362024Y206233D01*
X362009Y206333D01*
X361981Y206402D01*
X361963Y206474D01*
X361917Y206564D01*
X361880Y206657D01*
X361838Y206718D01*
X361804Y206784D01*
X361738Y206861D01*
X361681Y206943D01*
X361626Y206993D01*
X361578Y207049D01*
X361497Y207109D01*
X361422Y207176D01*
X361357Y207212D01*
X361297Y207257D01*
X361205Y207296D01*
X361117Y207345D01*
X361046Y207365D01*
X360977Y207395D01*
X360879Y207412D01*
X360782Y207440D01*
X360682Y207448D01*
X360634Y207456D01*
X360599Y207454D01*
X360538Y207459D01*
X4064Y207459D01*
X4038Y207456D01*
X4012Y207458D01*
X3865Y207436D01*
X3718Y207419D01*
X3693Y207411D01*
X3667Y207407D01*
X3529Y207352D01*
X3390Y207302D01*
X3368Y207288D01*
X3343Y207278D01*
X3222Y207193D01*
X3097Y207113D01*
X3079Y207094D01*
X3057Y207079D01*
X2958Y206969D01*
X2855Y206862D01*
X2841Y206840D01*
X2824Y206820D01*
X2752Y206690D01*
X2676Y206563D01*
X2668Y206538D01*
X2655Y206515D01*
X2615Y206372D01*
X2570Y206231D01*
X2568Y206205D01*
X2560Y206180D01*
X2541Y205936D01*
X2541Y150439D01*
X2544Y150413D01*
X2542Y150387D01*
X2564Y150240D01*
X2581Y150093D01*
X2589Y150068D01*
X2593Y150042D01*
X2648Y149904D01*
X2698Y149765D01*
X2712Y149743D01*
X2722Y149718D01*
X2807Y149597D01*
X2887Y149472D01*
X2906Y149454D01*
X2921Y149432D01*
X3031Y149333D01*
X3138Y149230D01*
X3160Y149216D01*
X3180Y149199D01*
X3310Y149127D01*
X3437Y149051D01*
X3462Y149043D01*
X3485Y149030D01*
X3628Y148990D01*
X3769Y148945D01*
X3795Y148943D01*
X3820Y148935D01*
X4064Y148916D01*
X9453Y148916D01*
X9453Y136024D01*
X9456Y135998D01*
X9454Y135972D01*
X9476Y135825D01*
X9493Y135678D01*
X9501Y135653D01*
X9505Y135627D01*
X9560Y135489D01*
X9610Y135350D01*
X9624Y135328D01*
X9634Y135303D01*
X9719Y135182D01*
X9799Y135057D01*
X9818Y135039D01*
X9833Y135017D01*
X9943Y134918D01*
X10050Y134815D01*
X10072Y134801D01*
X10092Y134784D01*
X10222Y134712D01*
X10349Y134636D01*
X10374Y134628D01*
X10397Y134615D01*
X10540Y134575D01*
X10681Y134530D01*
X10707Y134528D01*
X10732Y134520D01*
X10976Y134501D01*
X14024Y134501D01*
X14050Y134504D01*
X14076Y134502D01*
X14223Y134524D01*
X14370Y134541D01*
X14395Y134550D01*
X14421Y134553D01*
X14559Y134608D01*
X14698Y134658D01*
X14720Y134672D01*
X14745Y134682D01*
X14866Y134767D01*
X14991Y134847D01*
X15009Y134866D01*
X15031Y134881D01*
X15130Y134991D01*
X15233Y135098D01*
X15247Y135120D01*
X15264Y135140D01*
X15336Y135270D01*
X15412Y135397D01*
X15420Y135422D01*
X15433Y135445D01*
X15473Y135588D01*
X15518Y135729D01*
X15520Y135755D01*
X15528Y135780D01*
X15547Y136024D01*
X15547Y148916D01*
X22335Y148916D01*
X22981Y148743D01*
X23560Y148408D01*
X24033Y147935D01*
X24368Y147356D01*
X24541Y146710D01*
X24541Y141439D01*
X24544Y141413D01*
X24542Y141387D01*
X24564Y141240D01*
X24581Y141093D01*
X24589Y141068D01*
X24593Y141042D01*
X24648Y140904D01*
X24698Y140765D01*
X24712Y140743D01*
X24722Y140718D01*
X24807Y140597D01*
X24887Y140472D01*
X24906Y140454D01*
X24921Y140432D01*
X25031Y140333D01*
X25138Y140230D01*
X25160Y140216D01*
X25180Y140199D01*
X25310Y140127D01*
X25437Y140051D01*
X25462Y140043D01*
X25485Y140030D01*
X25628Y139990D01*
X25769Y139945D01*
X25795Y139943D01*
X25820Y139935D01*
X26064Y139916D01*
X32453Y139916D01*
X32453Y131524D01*
X32456Y131498D01*
X32454Y131472D01*
X32476Y131325D01*
X32493Y131178D01*
X32501Y131153D01*
X32505Y131127D01*
X32560Y130989D01*
X32610Y130850D01*
X32624Y130828D01*
X32634Y130803D01*
X32719Y130682D01*
X32799Y130557D01*
X32818Y130539D01*
X32833Y130517D01*
X32943Y130418D01*
X33050Y130315D01*
X33072Y130301D01*
X33092Y130284D01*
X33222Y130212D01*
X33349Y130136D01*
X33374Y130128D01*
X33397Y130115D01*
X33540Y130075D01*
X33681Y130030D01*
X33707Y130028D01*
X33732Y130020D01*
X33976Y130001D01*
X35501Y130001D01*
X35501Y128476D01*
X35504Y128450D01*
X35502Y128424D01*
X35524Y128277D01*
X35541Y128130D01*
X35550Y128105D01*
X35553Y128079D01*
X35608Y127941D01*
X35658Y127802D01*
X35672Y127780D01*
X35682Y127755D01*
X35767Y127634D01*
X35847Y127509D01*
X35866Y127491D01*
X35881Y127469D01*
X35991Y127370D01*
X36098Y127267D01*
X36120Y127253D01*
X36140Y127236D01*
X36270Y127164D01*
X36397Y127088D01*
X36422Y127080D01*
X36445Y127067D01*
X36588Y127027D01*
X36729Y126982D01*
X36755Y126980D01*
X36780Y126972D01*
X37024Y126953D01*
X48541Y126953D01*
X48541Y124172D01*
X48541Y124171D01*
X48541Y124170D01*
X48561Y123993D01*
X48581Y123826D01*
X48581Y123825D01*
X48581Y123823D01*
X48640Y123659D01*
X48698Y123498D01*
X48699Y123497D01*
X48699Y123496D01*
X48795Y123347D01*
X48887Y123205D01*
X48888Y123204D01*
X48889Y123203D01*
X49011Y123086D01*
X49138Y122963D01*
X49139Y122962D01*
X49140Y122961D01*
X49286Y122874D01*
X49437Y122784D01*
X49438Y122784D01*
X49439Y122783D01*
X49670Y122701D01*
X49981Y122618D01*
X50560Y122283D01*
X51033Y121810D01*
X51368Y121231D01*
X51541Y120585D01*
X51541Y119523D01*
X40500Y119523D01*
X40474Y119520D01*
X40448Y119522D01*
X40301Y119500D01*
X40154Y119484D01*
X40129Y119475D01*
X40103Y119471D01*
X39966Y119416D01*
X39826Y119366D01*
X39804Y119352D01*
X39780Y119342D01*
X39658Y119258D01*
X39533Y119177D01*
X39515Y119158D01*
X39493Y119143D01*
X39394Y119033D01*
X39291Y118926D01*
X39278Y118904D01*
X39260Y118884D01*
X39188Y118754D01*
X39112Y118627D01*
X39104Y118602D01*
X39091Y118579D01*
X39051Y118436D01*
X39006Y118295D01*
X39004Y118269D01*
X38997Y118244D01*
X38977Y118000D01*
X38980Y117974D01*
X38978Y117948D01*
X39000Y117801D01*
X39017Y117654D01*
X39026Y117629D01*
X39030Y117603D01*
X39084Y117465D01*
X39134Y117326D01*
X39149Y117303D01*
X39158Y117279D01*
X39243Y117158D01*
X39323Y117033D01*
X39342Y117014D01*
X39357Y116993D01*
X39467Y116894D01*
X39574Y116791D01*
X39597Y116777D01*
X39616Y116759D01*
X39746Y116688D01*
X39873Y116612D01*
X39898Y116604D01*
X39921Y116591D01*
X40064Y116551D01*
X40205Y116505D01*
X40231Y116503D01*
X40257Y116496D01*
X40500Y116477D01*
X51541Y116477D01*
X51541Y115415D01*
X51368Y114769D01*
X51205Y114487D01*
X51175Y114419D01*
X51143Y114365D01*
X51135Y114341D01*
X51115Y114305D01*
X51095Y114235D01*
X51066Y114168D01*
X51049Y114070D01*
X51037Y114033D01*
X51036Y114025D01*
X51020Y113970D01*
X51012Y113872D01*
X51004Y113825D01*
X51006Y113788D01*
X51001Y113726D01*
X51001Y109524D01*
X51004Y109498D01*
X51002Y109472D01*
X51024Y109325D01*
X51041Y109178D01*
X51049Y109153D01*
X51053Y109127D01*
X51108Y108989D01*
X51158Y108850D01*
X51172Y108828D01*
X51182Y108803D01*
X51267Y108682D01*
X51347Y108557D01*
X51366Y108539D01*
X51381Y108517D01*
X51491Y108418D01*
X51598Y108315D01*
X51620Y108301D01*
X51640Y108284D01*
X51770Y108212D01*
X51897Y108136D01*
X51922Y108128D01*
X51945Y108115D01*
X52088Y108075D01*
X52229Y108030D01*
X52255Y108028D01*
X52280Y108020D01*
X52524Y108001D01*
X109743Y108001D01*
X172797Y44947D01*
X172896Y44868D01*
X172990Y44784D01*
X173032Y44760D01*
X173070Y44730D01*
X173184Y44676D01*
X173295Y44615D01*
X173341Y44602D01*
X173385Y44581D01*
X173508Y44555D01*
X173630Y44520D01*
X173691Y44515D01*
X173726Y44508D01*
X173774Y44509D01*
X173874Y44501D01*
X208126Y44501D01*
X208252Y44515D01*
X208378Y44522D01*
X208424Y44535D01*
X208472Y44541D01*
X208591Y44583D01*
X208713Y44618D01*
X208755Y44642D01*
X208800Y44658D01*
X208907Y44727D01*
X209017Y44788D01*
X209063Y44828D01*
X209093Y44847D01*
X209127Y44882D01*
X209203Y44947D01*
X230257Y66001D01*
X236264Y66001D01*
X236389Y66015D01*
X236516Y66022D01*
X236562Y66035D01*
X236610Y66041D01*
X236729Y66083D01*
X236850Y66118D01*
X236893Y66142D01*
X236938Y66158D01*
X237044Y66227D01*
X237155Y66288D01*
X237201Y66328D01*
X237231Y66347D01*
X237264Y66382D01*
X237341Y66447D01*
X238919Y68025D01*
X242452Y68025D01*
X242478Y68028D01*
X242504Y68026D01*
X242651Y68048D01*
X242798Y68065D01*
X242823Y68073D01*
X242849Y68077D01*
X242987Y68132D01*
X243126Y68182D01*
X243148Y68196D01*
X243173Y68206D01*
X243294Y68291D01*
X243419Y68371D01*
X243437Y68390D01*
X243459Y68405D01*
X243558Y68515D01*
X243661Y68622D01*
X243675Y68644D01*
X243692Y68664D01*
X243764Y68794D01*
X243840Y68921D01*
X243848Y68946D01*
X243861Y68969D01*
X243901Y69112D01*
X243946Y69253D01*
X243948Y69279D01*
X243956Y69304D01*
X243975Y69548D01*
X243975Y72081D01*
X246919Y75025D01*
X251081Y75025D01*
X254025Y72081D01*
X254025Y67919D01*
X252447Y66341D01*
X252368Y66242D01*
X252284Y66148D01*
X252260Y66106D01*
X252230Y66068D01*
X252176Y65954D01*
X252115Y65843D01*
X252102Y65796D01*
X252081Y65753D01*
X252055Y65629D01*
X252020Y65508D01*
X252015Y65447D01*
X252008Y65412D01*
X252009Y65364D01*
X252001Y65264D01*
X252001Y59757D01*
X245243Y52999D01*
X232874Y52999D01*
X232748Y52985D01*
X232622Y52978D01*
X232576Y52965D01*
X232528Y52959D01*
X232409Y52917D01*
X232287Y52882D01*
X232245Y52858D01*
X232200Y52842D01*
X232093Y52773D01*
X231983Y52712D01*
X231937Y52672D01*
X231907Y52653D01*
X231873Y52618D01*
X231797Y52553D01*
X213243Y33999D01*
X172381Y33999D01*
X172281Y33988D01*
X172181Y33986D01*
X172109Y33968D01*
X172035Y33959D01*
X171941Y33926D01*
X171843Y33901D01*
X171777Y33867D01*
X171707Y33842D01*
X171623Y33787D01*
X171533Y33741D01*
X171477Y33693D01*
X171414Y33653D01*
X171344Y33581D01*
X171268Y33516D01*
X171224Y33456D01*
X171172Y33402D01*
X171120Y33316D01*
X171061Y33235D01*
X171031Y33167D01*
X170993Y33103D01*
X170963Y33007D01*
X170923Y32915D01*
X170910Y32842D01*
X170887Y32771D01*
X170879Y32671D01*
X170861Y32572D01*
X170865Y32498D01*
X170859Y32424D01*
X170874Y32324D01*
X170879Y32224D01*
X170900Y32153D01*
X170911Y32079D01*
X170948Y31986D01*
X170976Y31889D01*
X171012Y31824D01*
X171039Y31755D01*
X171097Y31673D01*
X171146Y31585D01*
X171211Y31509D01*
X171238Y31469D01*
X171265Y31445D01*
X171304Y31399D01*
X179224Y23479D01*
X179323Y23400D01*
X179417Y23316D01*
X179459Y23292D01*
X179497Y23262D01*
X179611Y23208D01*
X179722Y23147D01*
X179769Y23134D01*
X179812Y23113D01*
X179936Y23087D01*
X180058Y23052D01*
X180118Y23047D01*
X180153Y23040D01*
X180201Y23041D01*
X180301Y23033D01*
X226444Y23033D01*
X226470Y23036D01*
X226496Y23034D01*
X226643Y23056D01*
X226790Y23073D01*
X226815Y23081D01*
X226841Y23085D01*
X226979Y23140D01*
X227118Y23190D01*
X227140Y23204D01*
X227165Y23214D01*
X227286Y23299D01*
X227411Y23379D01*
X227429Y23398D01*
X227451Y23413D01*
X227550Y23523D01*
X227653Y23630D01*
X227667Y23652D01*
X227684Y23672D01*
X227756Y23802D01*
X227832Y23929D01*
X227840Y23954D01*
X227853Y23977D01*
X227893Y24120D01*
X227938Y24261D01*
X227940Y24287D01*
X227948Y24312D01*
X227967Y24556D01*
X227967Y39170D01*
X230330Y41533D01*
X238272Y41533D01*
X238398Y41547D01*
X238524Y41554D01*
X238571Y41567D01*
X238619Y41573D01*
X238737Y41615D01*
X238859Y41650D01*
X238901Y41674D01*
X238947Y41690D01*
X239053Y41759D01*
X239163Y41820D01*
X239209Y41860D01*
X239239Y41879D01*
X239273Y41914D01*
X239349Y41979D01*
X240321Y42951D01*
X251879Y42951D01*
X253051Y41779D01*
X253051Y33474D01*
X253062Y33373D01*
X253064Y33271D01*
X253082Y33200D01*
X253091Y33128D01*
X253125Y33032D01*
X253150Y32933D01*
X253192Y32845D01*
X253208Y32800D01*
X253228Y32769D01*
X253255Y32713D01*
X253418Y32431D01*
X253591Y31785D01*
X253591Y29724D01*
X246301Y29724D01*
X246275Y29721D01*
X246249Y29723D01*
X246102Y29701D01*
X245955Y29684D01*
X245930Y29676D01*
X245904Y29672D01*
X245767Y29617D01*
X245627Y29567D01*
X245605Y29553D01*
X245580Y29543D01*
X245459Y29458D01*
X245334Y29378D01*
X245316Y29359D01*
X245294Y29344D01*
X245195Y29234D01*
X245092Y29127D01*
X245078Y29105D01*
X245061Y29085D01*
X244989Y28955D01*
X244913Y28828D01*
X244905Y28803D01*
X244892Y28780D01*
X244852Y28637D01*
X244807Y28496D01*
X244805Y28470D01*
X244798Y28445D01*
X244778Y28201D01*
X244778Y27799D01*
X244781Y27773D01*
X244779Y27747D01*
X244801Y27600D01*
X244818Y27453D01*
X244827Y27428D01*
X244831Y27402D01*
X244885Y27264D01*
X244935Y27125D01*
X244950Y27103D01*
X244959Y27078D01*
X245044Y26957D01*
X245124Y26832D01*
X245143Y26814D01*
X245158Y26792D01*
X245268Y26693D01*
X245375Y26590D01*
X245398Y26576D01*
X245417Y26559D01*
X245547Y26487D01*
X245674Y26411D01*
X245699Y26403D01*
X245722Y26390D01*
X245865Y26350D01*
X246006Y26305D01*
X246032Y26302D01*
X246057Y26295D01*
X246301Y26276D01*
X253591Y26276D01*
X253591Y24215D01*
X253408Y23534D01*
X253390Y23410D01*
X253363Y23288D01*
X253364Y23238D01*
X253357Y23189D01*
X253367Y23065D01*
X253369Y22939D01*
X253382Y22891D01*
X253386Y22842D01*
X253424Y22723D01*
X253454Y22602D01*
X253477Y22557D01*
X253492Y22510D01*
X253557Y22403D01*
X253614Y22292D01*
X253646Y22254D01*
X253672Y22211D01*
X253759Y22121D01*
X253840Y22026D01*
X253880Y21997D01*
X253914Y21961D01*
X254020Y21893D01*
X254120Y21819D01*
X254166Y21799D01*
X254208Y21773D01*
X254326Y21731D01*
X254440Y21681D01*
X254489Y21672D01*
X254536Y21656D01*
X254660Y21642D01*
X254783Y21619D01*
X254833Y21622D01*
X254882Y21616D01*
X255006Y21631D01*
X255131Y21637D01*
X255179Y21651D01*
X255228Y21657D01*
X255346Y21699D01*
X255466Y21734D01*
X255510Y21758D01*
X255556Y21775D01*
X255661Y21843D01*
X255770Y21904D01*
X255818Y21945D01*
X255849Y21965D01*
X255882Y21999D01*
X255957Y22063D01*
X256919Y23025D01*
X261081Y23025D01*
X261635Y22471D01*
X261734Y22392D01*
X261828Y22308D01*
X261870Y22284D01*
X261908Y22254D01*
X262022Y22200D01*
X262133Y22139D01*
X262180Y22126D01*
X262223Y22105D01*
X262347Y22079D01*
X262468Y22044D01*
X262529Y22039D01*
X262564Y22032D01*
X262612Y22033D01*
X262712Y22025D01*
X263664Y22025D01*
X263790Y22039D01*
X263916Y22046D01*
X263963Y22059D01*
X264011Y22065D01*
X264129Y22107D01*
X264251Y22142D01*
X264293Y22166D01*
X264339Y22182D01*
X264445Y22251D01*
X264555Y22312D01*
X264601Y22352D01*
X264631Y22371D01*
X264665Y22406D01*
X264741Y22471D01*
X266221Y23951D01*
X277779Y23951D01*
X278951Y22779D01*
X278951Y14221D01*
X277779Y13049D01*
X266221Y13049D01*
X264765Y14505D01*
X264745Y14521D01*
X264728Y14541D01*
X264609Y14630D01*
X264492Y14722D01*
X264469Y14733D01*
X264448Y14749D01*
X264311Y14807D01*
X264177Y14871D01*
X264152Y14876D01*
X264128Y14887D01*
X263981Y14913D01*
X263837Y14944D01*
X263810Y14944D01*
X263785Y14948D01*
X263636Y14941D01*
X263488Y14938D01*
X263463Y14932D01*
X263436Y14930D01*
X263294Y14889D01*
X263150Y14853D01*
X263127Y14841D01*
X263102Y14834D01*
X262972Y14761D01*
X262840Y14693D01*
X262820Y14676D01*
X262797Y14664D01*
X262611Y14505D01*
X261081Y12975D01*
X256919Y12975D01*
X255439Y14455D01*
X255418Y14471D01*
X255401Y14491D01*
X255282Y14580D01*
X255166Y14672D01*
X255142Y14683D01*
X255121Y14699D01*
X254985Y14757D01*
X254851Y14821D01*
X254825Y14826D01*
X254801Y14837D01*
X254655Y14863D01*
X254510Y14894D01*
X254484Y14894D01*
X254458Y14898D01*
X254309Y14891D01*
X254162Y14888D01*
X254136Y14882D01*
X254110Y14880D01*
X253967Y14839D01*
X253824Y14803D01*
X253800Y14791D01*
X253775Y14784D01*
X253645Y14711D01*
X253514Y14643D01*
X253494Y14626D01*
X253471Y14614D01*
X253285Y14455D01*
X251879Y13049D01*
X240321Y13049D01*
X238849Y14521D01*
X238750Y14600D01*
X238657Y14684D01*
X238614Y14708D01*
X238576Y14738D01*
X238462Y14792D01*
X238351Y14853D01*
X238305Y14866D01*
X238261Y14887D01*
X238138Y14913D01*
X238016Y14948D01*
X237955Y14953D01*
X237921Y14960D01*
X237873Y14959D01*
X237772Y14967D01*
X176330Y14967D01*
X103776Y87521D01*
X103677Y87600D01*
X103583Y87684D01*
X103541Y87708D01*
X103503Y87738D01*
X103389Y87792D01*
X103278Y87853D01*
X103231Y87866D01*
X103188Y87887D01*
X103064Y87913D01*
X102942Y87948D01*
X102882Y87953D01*
X102847Y87960D01*
X102799Y87959D01*
X102699Y87967D01*
X50678Y87967D01*
X50552Y87953D01*
X50426Y87946D01*
X50379Y87933D01*
X50331Y87927D01*
X50213Y87885D01*
X50091Y87850D01*
X50049Y87826D01*
X50003Y87810D01*
X49897Y87741D01*
X49872Y87727D01*
X49865Y87726D01*
X49718Y87709D01*
X49693Y87701D01*
X49667Y87697D01*
X49529Y87642D01*
X49390Y87592D01*
X49368Y87578D01*
X49343Y87568D01*
X49222Y87483D01*
X49097Y87403D01*
X49079Y87384D01*
X49057Y87369D01*
X48958Y87259D01*
X48855Y87152D01*
X48841Y87130D01*
X48824Y87110D01*
X48752Y86980D01*
X48676Y86853D01*
X48668Y86828D01*
X48655Y86805D01*
X48615Y86662D01*
X48570Y86521D01*
X48568Y86495D01*
X48560Y86470D01*
X48541Y86226D01*
X48541Y83047D01*
X37024Y83047D01*
X36998Y83044D01*
X36972Y83046D01*
X36825Y83024D01*
X36678Y83007D01*
X36653Y82998D01*
X36627Y82995D01*
X36489Y82940D01*
X36350Y82890D01*
X36328Y82876D01*
X36303Y82866D01*
X36182Y82781D01*
X36057Y82701D01*
X36039Y82682D01*
X36017Y82667D01*
X35918Y82557D01*
X35815Y82450D01*
X35801Y82428D01*
X35784Y82408D01*
X35712Y82278D01*
X35636Y82151D01*
X35628Y82126D01*
X35615Y82103D01*
X35575Y81960D01*
X35530Y81819D01*
X35528Y81793D01*
X35520Y81768D01*
X35501Y81524D01*
X35501Y79999D01*
X33976Y79999D01*
X33950Y79996D01*
X33924Y79998D01*
X33777Y79976D01*
X33630Y79959D01*
X33605Y79950D01*
X33579Y79947D01*
X33441Y79892D01*
X33302Y79842D01*
X33280Y79828D01*
X33255Y79818D01*
X33134Y79733D01*
X33009Y79653D01*
X32991Y79634D01*
X32969Y79619D01*
X32870Y79509D01*
X32767Y79402D01*
X32753Y79380D01*
X32736Y79360D01*
X32664Y79230D01*
X32588Y79103D01*
X32580Y79078D01*
X32567Y79055D01*
X32527Y78912D01*
X32482Y78771D01*
X32480Y78745D01*
X32472Y78720D01*
X32453Y78476D01*
X32453Y70084D01*
X26064Y70084D01*
X26038Y70081D01*
X26012Y70083D01*
X25865Y70061D01*
X25718Y70044D01*
X25693Y70036D01*
X25667Y70032D01*
X25529Y69977D01*
X25390Y69927D01*
X25368Y69913D01*
X25343Y69903D01*
X25222Y69818D01*
X25097Y69738D01*
X25079Y69719D01*
X25057Y69704D01*
X24958Y69594D01*
X24855Y69487D01*
X24841Y69465D01*
X24824Y69445D01*
X24752Y69315D01*
X24676Y69188D01*
X24668Y69163D01*
X24655Y69140D01*
X24615Y68997D01*
X24570Y68856D01*
X24568Y68830D01*
X24560Y68805D01*
X24541Y68561D01*
X24541Y63290D01*
X24368Y62644D01*
X24033Y62065D01*
X23560Y61592D01*
X22981Y61257D01*
X22335Y61084D01*
X15547Y61084D01*
X15547Y73976D01*
X15544Y74002D01*
X15546Y74028D01*
X15524Y74175D01*
X15507Y74322D01*
X15498Y74347D01*
X15495Y74373D01*
X15440Y74511D01*
X15390Y74650D01*
X15376Y74672D01*
X15366Y74697D01*
X15281Y74818D01*
X15201Y74943D01*
X15182Y74961D01*
X15167Y74983D01*
X15057Y75082D01*
X14950Y75185D01*
X14928Y75199D01*
X14908Y75216D01*
X14778Y75288D01*
X14651Y75364D01*
X14626Y75372D01*
X14603Y75385D01*
X14460Y75425D01*
X14319Y75470D01*
X14293Y75472D01*
X14268Y75480D01*
X14024Y75499D01*
X10976Y75499D01*
X10950Y75496D01*
X10924Y75498D01*
X10777Y75476D01*
X10630Y75459D01*
X10605Y75450D01*
X10579Y75447D01*
X10441Y75392D01*
X10302Y75342D01*
X10280Y75328D01*
X10255Y75318D01*
X10134Y75233D01*
X10009Y75153D01*
X9991Y75134D01*
X9969Y75119D01*
X9870Y75009D01*
X9767Y74902D01*
X9753Y74880D01*
X9736Y74860D01*
X9664Y74730D01*
X9588Y74603D01*
X9580Y74578D01*
X9567Y74555D01*
X9527Y74412D01*
X9482Y74271D01*
X9480Y74245D01*
X9472Y74220D01*
X9453Y73976D01*
X9453Y61084D01*
X4064Y61084D01*
X4038Y61081D01*
X4012Y61083D01*
X3865Y61061D01*
X3718Y61044D01*
X3693Y61036D01*
X3667Y61032D01*
X3529Y60977D01*
X3390Y60927D01*
X3368Y60913D01*
X3343Y60903D01*
X3222Y60818D01*
X3097Y60738D01*
X3079Y60719D01*
X3057Y60704D01*
X2958Y60594D01*
X2855Y60487D01*
X2841Y60465D01*
X2824Y60445D01*
X2752Y60315D01*
X2676Y60188D01*
X2668Y60163D01*
X2655Y60140D01*
X2615Y59997D01*
X2570Y59856D01*
X2568Y59830D01*
X2560Y59805D01*
X2541Y59561D01*
X2541Y4064D01*
X2544Y4038D01*
X2542Y4012D01*
X2564Y3865D01*
X2581Y3718D01*
X2589Y3693D01*
X2593Y3667D01*
X2648Y3529D01*
X2698Y3390D01*
X2712Y3368D01*
X2722Y3343D01*
X2807Y3222D01*
X2887Y3097D01*
X2906Y3079D01*
X2921Y3057D01*
X3031Y2958D01*
X3138Y2855D01*
X3160Y2841D01*
X3180Y2824D01*
X3310Y2752D01*
X3437Y2676D01*
X3462Y2668D01*
X3485Y2655D01*
X3628Y2615D01*
X3769Y2570D01*
X3795Y2568D01*
X3820Y2560D01*
X4064Y2541D01*
X336538Y2541D01*
X336638Y2552D01*
G37*
G36*
X491452Y55015D02*
X491452Y55015D01*
X491578Y55022D01*
X491624Y55035D01*
X491672Y55041D01*
X491791Y55083D01*
X491913Y55118D01*
X491955Y55142D01*
X492000Y55158D01*
X492107Y55227D01*
X492217Y55288D01*
X492263Y55328D01*
X492293Y55347D01*
X492327Y55382D01*
X492403Y55447D01*
X495100Y58144D01*
X495117Y58164D01*
X495136Y58181D01*
X495225Y58301D01*
X495317Y58417D01*
X495328Y58441D01*
X495344Y58462D01*
X495402Y58598D01*
X495466Y58732D01*
X495471Y58758D01*
X495482Y58782D01*
X495508Y58928D01*
X495539Y59073D01*
X495539Y59099D01*
X495543Y59125D01*
X495536Y59273D01*
X495533Y59421D01*
X495527Y59447D01*
X495525Y59473D01*
X495484Y59615D01*
X495448Y59759D01*
X495436Y59782D01*
X495429Y59808D01*
X495356Y59937D01*
X495288Y60069D01*
X495272Y60089D01*
X495259Y60112D01*
X495109Y60287D01*
X495109Y69311D01*
X501489Y75691D01*
X510511Y75691D01*
X514859Y71343D01*
X514937Y71281D01*
X515010Y71211D01*
X515074Y71172D01*
X515132Y71126D01*
X515223Y71083D01*
X515309Y71032D01*
X515380Y71009D01*
X515447Y70977D01*
X515545Y70956D01*
X515641Y70926D01*
X515715Y70920D01*
X515788Y70904D01*
X515888Y70906D01*
X515988Y70898D01*
X516062Y70909D01*
X516136Y70910D01*
X516233Y70934D01*
X516333Y70949D01*
X516402Y70977D01*
X516474Y70995D01*
X516564Y71041D01*
X516657Y71078D01*
X516718Y71120D01*
X516784Y71155D01*
X516861Y71220D01*
X516943Y71277D01*
X516993Y71332D01*
X517049Y71380D01*
X517109Y71461D01*
X517176Y71536D01*
X517212Y71601D01*
X517257Y71661D01*
X517296Y71753D01*
X517345Y71841D01*
X517365Y71912D01*
X517395Y71981D01*
X517412Y72079D01*
X517440Y72176D01*
X517448Y72276D01*
X517456Y72324D01*
X517454Y72359D01*
X517459Y72420D01*
X517459Y136616D01*
X517458Y136630D01*
X517458Y136639D01*
X517451Y136688D01*
X517448Y136716D01*
X517446Y136817D01*
X517428Y136889D01*
X517419Y136963D01*
X517386Y137057D01*
X517361Y137155D01*
X517327Y137221D01*
X517302Y137291D01*
X517247Y137375D01*
X517201Y137464D01*
X517153Y137521D01*
X517113Y137583D01*
X517041Y137653D01*
X516976Y137730D01*
X516916Y137774D01*
X516862Y137826D01*
X516776Y137877D01*
X516695Y137937D01*
X516627Y137966D01*
X516563Y138005D01*
X516467Y138035D01*
X516375Y138075D01*
X516302Y138088D01*
X516231Y138111D01*
X516131Y138119D01*
X516032Y138137D01*
X515958Y138133D01*
X515884Y138139D01*
X515784Y138124D01*
X515684Y138119D01*
X515613Y138098D01*
X515539Y138087D01*
X515446Y138050D01*
X515349Y138022D01*
X515284Y137986D01*
X515215Y137958D01*
X515133Y137901D01*
X515045Y137852D01*
X514969Y137787D01*
X514929Y137759D01*
X514905Y137733D01*
X514859Y137693D01*
X510735Y133569D01*
X508539Y133569D01*
X508539Y143984D01*
X508536Y144010D01*
X508538Y144036D01*
X508516Y144183D01*
X508499Y144330D01*
X508491Y144355D01*
X508487Y144381D01*
X508432Y144518D01*
X508382Y144658D01*
X508368Y144680D01*
X508358Y144705D01*
X508273Y144826D01*
X508193Y144951D01*
X508174Y144969D01*
X508159Y144991D01*
X508143Y145005D01*
X508225Y145090D01*
X508239Y145113D01*
X508256Y145132D01*
X508328Y145262D01*
X508404Y145389D01*
X508412Y145414D01*
X508425Y145437D01*
X508465Y145580D01*
X508510Y145721D01*
X508512Y145747D01*
X508520Y145772D01*
X508539Y146016D01*
X508539Y156431D01*
X510735Y156431D01*
X514859Y152307D01*
X514937Y152244D01*
X515010Y152174D01*
X515074Y152136D01*
X515132Y152090D01*
X515223Y152047D01*
X515309Y151995D01*
X515380Y151973D01*
X515447Y151941D01*
X515545Y151920D01*
X515641Y151889D01*
X515715Y151883D01*
X515788Y151868D01*
X515888Y151869D01*
X515988Y151861D01*
X516062Y151872D01*
X516136Y151874D01*
X516233Y151898D01*
X516333Y151913D01*
X516402Y151940D01*
X516474Y151959D01*
X516564Y152005D01*
X516657Y152042D01*
X516718Y152084D01*
X516784Y152118D01*
X516861Y152183D01*
X516943Y152241D01*
X516993Y152296D01*
X517049Y152344D01*
X517109Y152425D01*
X517176Y152499D01*
X517212Y152565D01*
X517257Y152624D01*
X517296Y152717D01*
X517345Y152804D01*
X517365Y152876D01*
X517395Y152944D01*
X517412Y153043D01*
X517440Y153140D01*
X517448Y153240D01*
X517456Y153287D01*
X517454Y153323D01*
X517459Y153384D01*
X517459Y162780D01*
X517448Y162880D01*
X517446Y162980D01*
X517428Y163052D01*
X517419Y163126D01*
X517386Y163221D01*
X517361Y163318D01*
X517327Y163384D01*
X517302Y163454D01*
X517247Y163539D01*
X517201Y163628D01*
X517153Y163685D01*
X517113Y163747D01*
X517041Y163817D01*
X516976Y163893D01*
X516916Y163938D01*
X516862Y163989D01*
X516776Y164041D01*
X516695Y164101D01*
X516627Y164130D01*
X516563Y164168D01*
X516467Y164199D01*
X516375Y164239D01*
X516302Y164252D01*
X516231Y164274D01*
X516131Y164282D01*
X516032Y164300D01*
X515958Y164296D01*
X515884Y164302D01*
X515784Y164287D01*
X515684Y164282D01*
X515613Y164262D01*
X515539Y164251D01*
X515446Y164214D01*
X515349Y164186D01*
X515284Y164149D01*
X515215Y164122D01*
X515133Y164065D01*
X515045Y164016D01*
X514969Y163950D01*
X514929Y163923D01*
X514905Y163897D01*
X514859Y163857D01*
X510511Y159509D01*
X501487Y159509D01*
X501478Y159516D01*
X501460Y159536D01*
X501341Y159625D01*
X501225Y159717D01*
X501201Y159728D01*
X501180Y159744D01*
X501044Y159802D01*
X500910Y159866D01*
X500884Y159871D01*
X500860Y159882D01*
X500714Y159908D01*
X500569Y159939D01*
X500543Y159939D01*
X500517Y159943D01*
X500369Y159936D01*
X500221Y159933D01*
X500195Y159927D01*
X500169Y159925D01*
X500027Y159884D01*
X499883Y159848D01*
X499860Y159836D01*
X499834Y159829D01*
X499705Y159756D01*
X499573Y159689D01*
X499553Y159672D01*
X499530Y159659D01*
X499344Y159500D01*
X496447Y156603D01*
X494243Y154399D01*
X490444Y154399D01*
X490344Y154388D01*
X490243Y154386D01*
X490171Y154368D01*
X490097Y154359D01*
X490003Y154326D01*
X489905Y154301D01*
X489839Y154267D01*
X489769Y154242D01*
X489685Y154187D01*
X489596Y154141D01*
X489539Y154093D01*
X489477Y154053D01*
X489407Y153981D01*
X489330Y153916D01*
X489286Y153856D01*
X489234Y153802D01*
X489183Y153716D01*
X489123Y153635D01*
X489094Y153567D01*
X489055Y153503D01*
X489025Y153407D01*
X488985Y153315D01*
X488972Y153242D01*
X488949Y153171D01*
X488941Y153071D01*
X488923Y152972D01*
X488927Y152898D01*
X488921Y152824D01*
X488936Y152724D01*
X488941Y152624D01*
X488962Y152553D01*
X488973Y152479D01*
X489010Y152386D01*
X489038Y152289D01*
X489074Y152224D01*
X489102Y152155D01*
X489159Y152073D01*
X489208Y151985D01*
X489273Y151909D01*
X489301Y151869D01*
X489327Y151845D01*
X489367Y151799D01*
X491431Y149735D01*
X491431Y147539D01*
X481016Y147539D01*
X480990Y147536D01*
X480964Y147538D01*
X480817Y147516D01*
X480670Y147499D01*
X480645Y147491D01*
X480619Y147487D01*
X480482Y147432D01*
X480342Y147382D01*
X480320Y147368D01*
X480295Y147358D01*
X480174Y147273D01*
X480049Y147193D01*
X480031Y147174D01*
X480009Y147159D01*
X479910Y147049D01*
X479807Y146942D01*
X479793Y146920D01*
X479776Y146900D01*
X479704Y146770D01*
X479628Y146643D01*
X479620Y146618D01*
X479607Y146595D01*
X479567Y146452D01*
X479522Y146311D01*
X479520Y146285D01*
X479513Y146260D01*
X479493Y146016D01*
X479493Y145507D01*
X478984Y145507D01*
X478958Y145504D01*
X478932Y145506D01*
X478785Y145484D01*
X478638Y145467D01*
X478613Y145458D01*
X478587Y145454D01*
X478449Y145400D01*
X478310Y145350D01*
X478288Y145335D01*
X478263Y145326D01*
X478142Y145241D01*
X478017Y145161D01*
X477999Y145142D01*
X477977Y145127D01*
X477878Y145017D01*
X477775Y144910D01*
X477761Y144887D01*
X477744Y144868D01*
X477672Y144738D01*
X477596Y144611D01*
X477588Y144586D01*
X477575Y144563D01*
X477535Y144420D01*
X477490Y144279D01*
X477487Y144253D01*
X477480Y144228D01*
X477461Y143984D01*
X477461Y133569D01*
X475265Y133569D01*
X472116Y136718D01*
X472096Y136735D01*
X472079Y136755D01*
X471959Y136843D01*
X471843Y136935D01*
X471820Y136946D01*
X471798Y136962D01*
X471662Y137021D01*
X471528Y137084D01*
X471502Y137089D01*
X471478Y137100D01*
X471332Y137126D01*
X471187Y137157D01*
X471161Y137157D01*
X471135Y137161D01*
X470987Y137154D01*
X470839Y137151D01*
X470813Y137145D01*
X470787Y137144D01*
X470645Y137102D01*
X470501Y137066D01*
X470478Y137054D01*
X470452Y137047D01*
X470323Y136975D01*
X470191Y136907D01*
X470171Y136890D01*
X470148Y136877D01*
X469962Y136718D01*
X468752Y135508D01*
X468736Y135488D01*
X468716Y135471D01*
X468627Y135351D01*
X468535Y135235D01*
X468524Y135212D01*
X468509Y135190D01*
X468450Y135054D01*
X468386Y134920D01*
X468381Y134895D01*
X468371Y134870D01*
X468344Y134724D01*
X468313Y134579D01*
X468313Y134553D01*
X468309Y134527D01*
X468316Y134379D01*
X468319Y134231D01*
X468325Y134206D01*
X468327Y134179D01*
X468368Y134037D01*
X468404Y133893D01*
X468416Y133870D01*
X468423Y133845D01*
X468496Y133715D01*
X468564Y133583D01*
X468581Y133563D01*
X468593Y133540D01*
X468752Y133354D01*
X472025Y130081D01*
X472025Y125919D01*
X469081Y122975D01*
X468524Y122975D01*
X468498Y122972D01*
X468472Y122974D01*
X468325Y122952D01*
X468178Y122935D01*
X468153Y122927D01*
X468127Y122923D01*
X467989Y122868D01*
X467850Y122818D01*
X467828Y122804D01*
X467803Y122794D01*
X467682Y122709D01*
X467557Y122629D01*
X467539Y122610D01*
X467517Y122595D01*
X467418Y122485D01*
X467315Y122378D01*
X467301Y122356D01*
X467284Y122336D01*
X467212Y122206D01*
X467136Y122079D01*
X467128Y122054D01*
X467115Y122031D01*
X467075Y121888D01*
X467030Y121747D01*
X467028Y121721D01*
X467020Y121696D01*
X467001Y121452D01*
X467001Y70880D01*
X467012Y70780D01*
X467014Y70680D01*
X467032Y70608D01*
X467041Y70534D01*
X467074Y70439D01*
X467099Y70342D01*
X467133Y70276D01*
X467158Y70206D01*
X467213Y70121D01*
X467259Y70032D01*
X467307Y69975D01*
X467347Y69913D01*
X467419Y69843D01*
X467484Y69767D01*
X467544Y69722D01*
X467598Y69671D01*
X467684Y69619D01*
X467765Y69559D01*
X467833Y69530D01*
X467897Y69492D01*
X467993Y69461D01*
X468085Y69421D01*
X468158Y69408D01*
X468229Y69386D01*
X468329Y69378D01*
X468428Y69360D01*
X468502Y69364D01*
X468576Y69358D01*
X468676Y69373D01*
X468776Y69378D01*
X468847Y69398D01*
X468921Y69409D01*
X469014Y69446D01*
X469111Y69474D01*
X469176Y69511D01*
X469245Y69538D01*
X469327Y69595D01*
X469415Y69644D01*
X469491Y69710D01*
X469531Y69737D01*
X469555Y69763D01*
X469601Y69803D01*
X475489Y75691D01*
X484511Y75691D01*
X490891Y69311D01*
X490891Y60289D01*
X488203Y57601D01*
X488141Y57523D01*
X488071Y57450D01*
X488032Y57386D01*
X487986Y57328D01*
X487943Y57237D01*
X487892Y57151D01*
X487869Y57080D01*
X487837Y57013D01*
X487816Y56915D01*
X487786Y56819D01*
X487780Y56745D01*
X487764Y56672D01*
X487766Y56572D01*
X487758Y56472D01*
X487769Y56398D01*
X487770Y56324D01*
X487794Y56227D01*
X487809Y56127D01*
X487837Y56058D01*
X487855Y55986D01*
X487901Y55897D01*
X487938Y55803D01*
X487981Y55742D01*
X488015Y55676D01*
X488080Y55600D01*
X488137Y55517D01*
X488192Y55467D01*
X488240Y55411D01*
X488321Y55351D01*
X488396Y55284D01*
X488461Y55248D01*
X488521Y55203D01*
X488613Y55164D01*
X488701Y55115D01*
X488772Y55095D01*
X488841Y55065D01*
X488939Y55048D01*
X489036Y55020D01*
X489136Y55012D01*
X489184Y55004D01*
X489219Y55006D01*
X489280Y55001D01*
X491326Y55001D01*
X491452Y55015D01*
G37*
G36*
X447602Y104273D02*
X447602Y104273D01*
X447676Y104274D01*
X447773Y104299D01*
X447873Y104314D01*
X447942Y104341D01*
X448014Y104359D01*
X448103Y104405D01*
X448197Y104442D01*
X448258Y104485D01*
X448324Y104519D01*
X448401Y104584D01*
X448483Y104641D01*
X448533Y104696D01*
X448589Y104745D01*
X448649Y104825D01*
X448716Y104900D01*
X448752Y104965D01*
X448797Y105025D01*
X448836Y105117D01*
X448885Y105205D01*
X448905Y105277D01*
X448935Y105345D01*
X448952Y105444D01*
X448980Y105540D01*
X448988Y105640D01*
X448996Y105688D01*
X448994Y105724D01*
X448999Y105784D01*
X448999Y143643D01*
X451203Y145847D01*
X469100Y163744D01*
X469117Y163764D01*
X469136Y163781D01*
X469225Y163901D01*
X469317Y164017D01*
X469328Y164041D01*
X469344Y164062D01*
X469402Y164198D01*
X469466Y164332D01*
X469471Y164358D01*
X469482Y164382D01*
X469508Y164528D01*
X469539Y164673D01*
X469539Y164699D01*
X469543Y164725D01*
X469536Y164873D01*
X469533Y165021D01*
X469527Y165047D01*
X469525Y165073D01*
X469484Y165215D01*
X469448Y165359D01*
X469436Y165382D01*
X469429Y165408D01*
X469357Y165537D01*
X469288Y165669D01*
X469271Y165689D01*
X469259Y165712D01*
X469109Y165887D01*
X469109Y174911D01*
X475489Y181291D01*
X484511Y181291D01*
X490891Y174911D01*
X490891Y165889D01*
X488003Y163001D01*
X487941Y162923D01*
X487871Y162850D01*
X487832Y162786D01*
X487786Y162728D01*
X487743Y162637D01*
X487692Y162551D01*
X487669Y162480D01*
X487637Y162413D01*
X487616Y162315D01*
X487586Y162219D01*
X487580Y162145D01*
X487564Y162072D01*
X487566Y161972D01*
X487558Y161872D01*
X487569Y161798D01*
X487570Y161724D01*
X487594Y161627D01*
X487609Y161527D01*
X487637Y161458D01*
X487655Y161386D01*
X487701Y161297D01*
X487738Y161203D01*
X487781Y161142D01*
X487815Y161076D01*
X487880Y161000D01*
X487937Y160917D01*
X487992Y160867D01*
X488040Y160811D01*
X488121Y160751D01*
X488196Y160684D01*
X488261Y160648D01*
X488321Y160603D01*
X488413Y160564D01*
X488501Y160515D01*
X488572Y160495D01*
X488641Y160465D01*
X488739Y160448D01*
X488836Y160420D01*
X488936Y160412D01*
X488984Y160404D01*
X489019Y160406D01*
X489080Y160401D01*
X491126Y160401D01*
X491252Y160415D01*
X491378Y160422D01*
X491424Y160435D01*
X491472Y160441D01*
X491591Y160483D01*
X491713Y160518D01*
X491755Y160542D01*
X491800Y160558D01*
X491907Y160627D01*
X492017Y160688D01*
X492063Y160728D01*
X492093Y160747D01*
X492127Y160782D01*
X492203Y160847D01*
X495100Y163744D01*
X495117Y163764D01*
X495136Y163781D01*
X495225Y163901D01*
X495317Y164017D01*
X495328Y164041D01*
X495344Y164062D01*
X495402Y164198D01*
X495466Y164332D01*
X495471Y164358D01*
X495482Y164382D01*
X495508Y164528D01*
X495539Y164673D01*
X495539Y164699D01*
X495543Y164725D01*
X495536Y164873D01*
X495533Y165021D01*
X495527Y165047D01*
X495525Y165073D01*
X495484Y165215D01*
X495448Y165359D01*
X495436Y165382D01*
X495429Y165408D01*
X495357Y165537D01*
X495288Y165669D01*
X495271Y165689D01*
X495259Y165712D01*
X495109Y165887D01*
X495109Y174911D01*
X501489Y181291D01*
X510511Y181291D01*
X514859Y176943D01*
X514937Y176881D01*
X515010Y176811D01*
X515074Y176772D01*
X515132Y176726D01*
X515223Y176683D01*
X515309Y176632D01*
X515380Y176609D01*
X515447Y176577D01*
X515545Y176556D01*
X515641Y176526D01*
X515715Y176520D01*
X515788Y176504D01*
X515888Y176506D01*
X515988Y176498D01*
X516062Y176509D01*
X516136Y176510D01*
X516233Y176534D01*
X516333Y176549D01*
X516402Y176577D01*
X516474Y176595D01*
X516564Y176641D01*
X516657Y176678D01*
X516718Y176720D01*
X516784Y176755D01*
X516861Y176820D01*
X516943Y176877D01*
X516993Y176932D01*
X517049Y176980D01*
X517109Y177061D01*
X517176Y177136D01*
X517212Y177201D01*
X517257Y177261D01*
X517296Y177353D01*
X517345Y177441D01*
X517365Y177512D01*
X517395Y177581D01*
X517412Y177679D01*
X517440Y177776D01*
X517448Y177876D01*
X517456Y177924D01*
X517454Y177959D01*
X517459Y178020D01*
X517459Y188180D01*
X517448Y188280D01*
X517446Y188380D01*
X517428Y188452D01*
X517419Y188526D01*
X517386Y188621D01*
X517361Y188718D01*
X517327Y188784D01*
X517302Y188854D01*
X517247Y188939D01*
X517201Y189028D01*
X517153Y189085D01*
X517113Y189147D01*
X517041Y189217D01*
X516976Y189293D01*
X516916Y189338D01*
X516862Y189389D01*
X516776Y189441D01*
X516695Y189501D01*
X516627Y189530D01*
X516563Y189568D01*
X516467Y189599D01*
X516375Y189639D01*
X516302Y189652D01*
X516231Y189674D01*
X516131Y189682D01*
X516032Y189700D01*
X515958Y189696D01*
X515884Y189702D01*
X515784Y189687D01*
X515684Y189682D01*
X515613Y189662D01*
X515539Y189651D01*
X515446Y189614D01*
X515349Y189586D01*
X515284Y189549D01*
X515215Y189522D01*
X515133Y189465D01*
X515045Y189416D01*
X514969Y189350D01*
X514929Y189323D01*
X514905Y189297D01*
X514859Y189257D01*
X510511Y184909D01*
X501489Y184909D01*
X495109Y191289D01*
X495109Y200311D01*
X499657Y204859D01*
X499719Y204937D01*
X499789Y205010D01*
X499828Y205074D01*
X499874Y205132D01*
X499917Y205223D01*
X499968Y205309D01*
X499991Y205380D01*
X500023Y205447D01*
X500044Y205545D01*
X500074Y205641D01*
X500080Y205715D01*
X500096Y205788D01*
X500094Y205888D01*
X500102Y205988D01*
X500091Y206062D01*
X500090Y206136D01*
X500066Y206233D01*
X500051Y206333D01*
X500023Y206402D01*
X500005Y206474D01*
X499959Y206564D01*
X499922Y206657D01*
X499880Y206718D01*
X499845Y206784D01*
X499780Y206861D01*
X499723Y206943D01*
X499668Y206993D01*
X499620Y207049D01*
X499539Y207109D01*
X499464Y207176D01*
X499399Y207212D01*
X499339Y207257D01*
X499247Y207296D01*
X499159Y207345D01*
X499088Y207365D01*
X499019Y207395D01*
X498921Y207412D01*
X498824Y207440D01*
X498724Y207448D01*
X498676Y207456D01*
X498641Y207454D01*
X498580Y207459D01*
X487420Y207459D01*
X487320Y207448D01*
X487220Y207446D01*
X487148Y207428D01*
X487074Y207419D01*
X486979Y207386D01*
X486882Y207361D01*
X486816Y207327D01*
X486746Y207302D01*
X486661Y207247D01*
X486572Y207201D01*
X486515Y207153D01*
X486453Y207113D01*
X486383Y207041D01*
X486307Y206976D01*
X486262Y206916D01*
X486211Y206862D01*
X486159Y206776D01*
X486099Y206695D01*
X486070Y206627D01*
X486032Y206563D01*
X486001Y206467D01*
X485961Y206375D01*
X485948Y206302D01*
X485926Y206231D01*
X485918Y206131D01*
X485900Y206032D01*
X485904Y205958D01*
X485898Y205884D01*
X485913Y205784D01*
X485918Y205684D01*
X485938Y205613D01*
X485949Y205539D01*
X485986Y205446D01*
X486014Y205349D01*
X486051Y205284D01*
X486078Y205215D01*
X486135Y205133D01*
X486184Y205045D01*
X486250Y204969D01*
X486277Y204929D01*
X486303Y204905D01*
X486343Y204859D01*
X490891Y200311D01*
X490891Y191289D01*
X484511Y184909D01*
X475489Y184909D01*
X469109Y191289D01*
X469109Y200311D01*
X473657Y204859D01*
X473719Y204937D01*
X473789Y205010D01*
X473828Y205074D01*
X473874Y205132D01*
X473917Y205223D01*
X473968Y205309D01*
X473991Y205380D01*
X474023Y205447D01*
X474044Y205545D01*
X474074Y205641D01*
X474080Y205715D01*
X474096Y205788D01*
X474094Y205888D01*
X474102Y205988D01*
X474091Y206062D01*
X474090Y206136D01*
X474066Y206233D01*
X474051Y206333D01*
X474023Y206402D01*
X474005Y206474D01*
X473959Y206564D01*
X473922Y206657D01*
X473880Y206718D01*
X473845Y206784D01*
X473780Y206861D01*
X473723Y206943D01*
X473668Y206993D01*
X473620Y207049D01*
X473539Y207109D01*
X473464Y207176D01*
X473399Y207212D01*
X473339Y207257D01*
X473247Y207296D01*
X473159Y207345D01*
X473088Y207365D01*
X473019Y207395D01*
X472921Y207412D01*
X472824Y207440D01*
X472724Y207448D01*
X472676Y207456D01*
X472641Y207454D01*
X472580Y207459D01*
X428462Y207459D01*
X428362Y207448D01*
X428262Y207446D01*
X428190Y207428D01*
X428116Y207419D01*
X428021Y207386D01*
X427924Y207361D01*
X427858Y207327D01*
X427788Y207302D01*
X427703Y207247D01*
X427614Y207201D01*
X427557Y207153D01*
X427495Y207113D01*
X427425Y207041D01*
X427348Y206976D01*
X427304Y206916D01*
X427253Y206862D01*
X427201Y206776D01*
X427141Y206695D01*
X427112Y206627D01*
X427074Y206563D01*
X427043Y206467D01*
X427003Y206375D01*
X426990Y206302D01*
X426967Y206231D01*
X426959Y206131D01*
X426942Y206032D01*
X426945Y205958D01*
X426939Y205884D01*
X426954Y205784D01*
X426960Y205684D01*
X426980Y205613D01*
X426991Y205539D01*
X427028Y205446D01*
X427056Y205349D01*
X427092Y205284D01*
X427120Y205215D01*
X427177Y205133D01*
X427226Y205045D01*
X427291Y204969D01*
X427319Y204929D01*
X427345Y204905D01*
X427385Y204859D01*
X440797Y191447D01*
X443001Y189243D01*
X443001Y124736D01*
X443015Y124611D01*
X443022Y124484D01*
X443035Y124438D01*
X443041Y124390D01*
X443083Y124271D01*
X443118Y124150D01*
X443142Y124107D01*
X443158Y124062D01*
X443227Y123956D01*
X443288Y123845D01*
X443328Y123799D01*
X443347Y123769D01*
X443382Y123736D01*
X443447Y123659D01*
X445025Y122081D01*
X445025Y117919D01*
X442081Y114975D01*
X437919Y114975D01*
X434975Y117919D01*
X434975Y122081D01*
X436553Y123659D01*
X436632Y123758D01*
X436716Y123852D01*
X436740Y123894D01*
X436770Y123932D01*
X436824Y124046D01*
X436885Y124157D01*
X436898Y124204D01*
X436919Y124247D01*
X436945Y124371D01*
X436980Y124492D01*
X436985Y124553D01*
X436992Y124588D01*
X436991Y124636D01*
X436999Y124736D01*
X436999Y186126D01*
X436985Y186252D01*
X436978Y186378D01*
X436965Y186424D01*
X436959Y186472D01*
X436917Y186591D01*
X436882Y186713D01*
X436858Y186755D01*
X436842Y186800D01*
X436773Y186907D01*
X436712Y187017D01*
X436672Y187063D01*
X436653Y187093D01*
X436618Y187127D01*
X436553Y187203D01*
X433935Y189821D01*
X433857Y189884D01*
X433784Y189953D01*
X433720Y189992D01*
X433662Y190038D01*
X433571Y190081D01*
X433485Y190132D01*
X433414Y190155D01*
X433347Y190187D01*
X433249Y190208D01*
X433153Y190239D01*
X433079Y190245D01*
X433006Y190260D01*
X432906Y190258D01*
X432806Y190267D01*
X432732Y190255D01*
X432658Y190254D01*
X432561Y190230D01*
X432461Y190215D01*
X432392Y190187D01*
X432320Y190169D01*
X432231Y190123D01*
X432137Y190086D01*
X432076Y190044D01*
X432010Y190010D01*
X431934Y189944D01*
X431851Y189887D01*
X431801Y189832D01*
X431745Y189784D01*
X431685Y189703D01*
X431618Y189628D01*
X431582Y189563D01*
X431537Y189503D01*
X431498Y189411D01*
X431449Y189323D01*
X431429Y189252D01*
X431399Y189183D01*
X431382Y189085D01*
X431354Y188988D01*
X431346Y188888D01*
X431338Y188840D01*
X431340Y188805D01*
X431335Y188744D01*
X431335Y188023D01*
X427523Y188023D01*
X427523Y192885D01*
X427574Y192891D01*
X427669Y192924D01*
X427766Y192949D01*
X427832Y192983D01*
X427902Y193008D01*
X427987Y193063D01*
X428076Y193109D01*
X428133Y193157D01*
X428195Y193197D01*
X428265Y193269D01*
X428342Y193334D01*
X428386Y193394D01*
X428437Y193448D01*
X428489Y193534D01*
X428549Y193615D01*
X428578Y193683D01*
X428616Y193747D01*
X428647Y193843D01*
X428687Y193935D01*
X428700Y194008D01*
X428723Y194079D01*
X428731Y194179D01*
X428748Y194278D01*
X428745Y194352D01*
X428751Y194426D01*
X428736Y194526D01*
X428730Y194626D01*
X428710Y194697D01*
X428699Y194771D01*
X428662Y194864D01*
X428634Y194961D01*
X428598Y195026D01*
X428570Y195095D01*
X428513Y195177D01*
X428464Y195265D01*
X428399Y195341D01*
X428371Y195381D01*
X428345Y195405D01*
X428305Y195451D01*
X421203Y202553D01*
X421104Y202632D01*
X421010Y202716D01*
X420968Y202740D01*
X420930Y202770D01*
X420816Y202824D01*
X420705Y202885D01*
X420659Y202898D01*
X420615Y202919D01*
X420492Y202945D01*
X420370Y202980D01*
X420309Y202985D01*
X420274Y202992D01*
X420226Y202991D01*
X420126Y202999D01*
X405784Y202999D01*
X405684Y202988D01*
X405584Y202986D01*
X405512Y202968D01*
X405438Y202959D01*
X405343Y202926D01*
X405246Y202901D01*
X405180Y202867D01*
X405110Y202842D01*
X405025Y202787D01*
X404936Y202741D01*
X404880Y202693D01*
X404817Y202653D01*
X404747Y202581D01*
X404671Y202516D01*
X404627Y202456D01*
X404575Y202402D01*
X404523Y202316D01*
X404464Y202235D01*
X404434Y202167D01*
X404396Y202103D01*
X404365Y202008D01*
X404326Y201915D01*
X404312Y201842D01*
X404290Y201771D01*
X404282Y201671D01*
X404264Y201572D01*
X404268Y201498D01*
X404262Y201424D01*
X404277Y201325D01*
X404282Y201224D01*
X404303Y201153D01*
X404314Y201079D01*
X404351Y200986D01*
X404378Y200889D01*
X404415Y200824D01*
X404442Y200755D01*
X404500Y200673D01*
X404549Y200585D01*
X404614Y200509D01*
X404641Y200469D01*
X404668Y200445D01*
X404707Y200399D01*
X405025Y200081D01*
X405025Y195919D01*
X403992Y194886D01*
X403930Y194807D01*
X403860Y194735D01*
X403822Y194671D01*
X403775Y194613D01*
X403733Y194522D01*
X403681Y194436D01*
X403658Y194365D01*
X403627Y194298D01*
X403605Y194200D01*
X403575Y194104D01*
X403569Y194030D01*
X403553Y193957D01*
X403555Y193857D01*
X403547Y193757D01*
X403558Y193683D01*
X403559Y193609D01*
X403584Y193512D01*
X403599Y193412D01*
X403626Y193343D01*
X403644Y193271D01*
X403690Y193182D01*
X403727Y193088D01*
X403770Y193027D01*
X403804Y192961D01*
X403869Y192885D01*
X403926Y192802D01*
X403981Y192752D01*
X404030Y192696D01*
X404110Y192636D01*
X404185Y192569D01*
X404250Y192533D01*
X404310Y192488D01*
X404402Y192449D01*
X404490Y192400D01*
X404562Y192380D01*
X404630Y192350D01*
X404729Y192333D01*
X404825Y192305D01*
X404925Y192297D01*
X404973Y192289D01*
X405009Y192291D01*
X405069Y192286D01*
X405709Y192286D01*
X406453Y191541D01*
X406474Y191525D01*
X406491Y191505D01*
X406610Y191417D01*
X406726Y191324D01*
X406750Y191313D01*
X406771Y191298D01*
X406907Y191239D01*
X407041Y191176D01*
X407067Y191170D01*
X407091Y191160D01*
X407237Y191133D01*
X407382Y191102D01*
X407408Y191103D01*
X407434Y191098D01*
X407583Y191106D01*
X407731Y191108D01*
X407756Y191115D01*
X407782Y191116D01*
X407925Y191157D01*
X408069Y191193D01*
X408092Y191205D01*
X408117Y191212D01*
X408247Y191285D01*
X408378Y191353D01*
X408398Y191370D01*
X408421Y191383D01*
X408608Y191541D01*
X409377Y192311D01*
X416623Y192311D01*
X417866Y191067D01*
X417885Y191015D01*
X417931Y190872D01*
X417944Y190851D01*
X417952Y190827D01*
X418033Y190702D01*
X418110Y190573D01*
X418128Y190555D01*
X418141Y190535D01*
X418249Y190431D01*
X418353Y190323D01*
X418374Y190310D01*
X418392Y190292D01*
X418520Y190216D01*
X418646Y190135D01*
X418670Y190126D01*
X418691Y190114D01*
X418834Y190068D01*
X418974Y190018D01*
X418999Y190015D01*
X419023Y190007D01*
X419172Y189995D01*
X419321Y189978D01*
X419346Y189981D01*
X419370Y189979D01*
X419518Y190002D01*
X419667Y190019D01*
X419690Y190027D01*
X419715Y190031D01*
X419854Y190086D01*
X419995Y190137D01*
X420016Y190151D01*
X420039Y190160D01*
X420162Y190245D01*
X420287Y190327D01*
X420305Y190345D01*
X420325Y190359D01*
X420425Y190470D01*
X420529Y190578D01*
X420542Y190599D01*
X420558Y190618D01*
X420631Y190749D01*
X420707Y190877D01*
X420717Y190905D01*
X420727Y190923D01*
X420740Y190968D01*
X420789Y191108D01*
X420838Y191291D01*
X421173Y191870D01*
X421646Y192343D01*
X422225Y192678D01*
X422871Y192851D01*
X424477Y192851D01*
X424477Y186500D01*
X424477Y180149D01*
X422871Y180149D01*
X422225Y180322D01*
X421646Y180657D01*
X421173Y181130D01*
X420838Y181709D01*
X420789Y181892D01*
X420734Y182031D01*
X420684Y182173D01*
X420670Y182193D01*
X420661Y182217D01*
X420576Y182340D01*
X420495Y182465D01*
X420477Y182483D01*
X420463Y182503D01*
X420352Y182603D01*
X420244Y182708D01*
X420223Y182720D01*
X420204Y182737D01*
X420074Y182810D01*
X419945Y182886D01*
X419921Y182894D01*
X419900Y182906D01*
X419756Y182947D01*
X419613Y182993D01*
X419588Y182995D01*
X419565Y183001D01*
X419415Y183009D01*
X419266Y183021D01*
X419241Y183017D01*
X419216Y183018D01*
X419069Y182991D01*
X418921Y182969D01*
X418898Y182960D01*
X418874Y182955D01*
X418736Y182895D01*
X418597Y182840D01*
X418577Y182826D01*
X418554Y182816D01*
X418433Y182726D01*
X418311Y182641D01*
X418295Y182623D01*
X418275Y182608D01*
X418178Y182493D01*
X418078Y182382D01*
X418066Y182361D01*
X418050Y182342D01*
X417981Y182208D01*
X417909Y182077D01*
X417902Y182054D01*
X417891Y182031D01*
X417867Y181933D01*
X416916Y180982D01*
X416899Y180962D01*
X416879Y180945D01*
X416791Y180825D01*
X416699Y180709D01*
X416688Y180685D01*
X416672Y180664D01*
X416614Y180528D01*
X416550Y180394D01*
X416545Y180368D01*
X416534Y180344D01*
X416508Y180198D01*
X416477Y180053D01*
X416477Y180027D01*
X416473Y180001D01*
X416480Y179853D01*
X416483Y179705D01*
X416489Y179679D01*
X416490Y179653D01*
X416531Y179511D01*
X416568Y179367D01*
X416580Y179343D01*
X416587Y179318D01*
X416659Y179189D01*
X416727Y179057D01*
X416744Y179037D01*
X416757Y179014D01*
X416916Y178828D01*
X417947Y177797D01*
X422001Y173743D01*
X422001Y173524D01*
X422004Y173498D01*
X422002Y173472D01*
X422024Y173325D01*
X422041Y173178D01*
X422049Y173153D01*
X422053Y173127D01*
X422108Y172989D01*
X422158Y172850D01*
X422172Y172828D01*
X422182Y172803D01*
X422267Y172682D01*
X422347Y172557D01*
X422366Y172539D01*
X422381Y172517D01*
X422491Y172418D01*
X422598Y172315D01*
X422620Y172301D01*
X422640Y172284D01*
X422770Y172212D01*
X422897Y172136D01*
X422922Y172128D01*
X422945Y172115D01*
X423088Y172075D01*
X423229Y172030D01*
X423255Y172028D01*
X423280Y172020D01*
X423524Y172001D01*
X429329Y172001D01*
X430501Y170829D01*
X430501Y164171D01*
X429447Y163117D01*
X429368Y163018D01*
X429284Y162925D01*
X429260Y162882D01*
X429230Y162844D01*
X429176Y162730D01*
X429115Y162619D01*
X429102Y162573D01*
X429081Y162529D01*
X429055Y162406D01*
X429020Y162284D01*
X429015Y162223D01*
X429008Y162189D01*
X429009Y162141D01*
X429001Y162040D01*
X429001Y110874D01*
X429015Y110748D01*
X429022Y110622D01*
X429035Y110576D01*
X429041Y110528D01*
X429083Y110409D01*
X429118Y110287D01*
X429142Y110245D01*
X429158Y110200D01*
X429227Y110093D01*
X429288Y109983D01*
X429328Y109937D01*
X429347Y109907D01*
X429382Y109873D01*
X429447Y109797D01*
X431504Y107739D01*
X431603Y107661D01*
X431697Y107576D01*
X431739Y107553D01*
X431777Y107523D01*
X431891Y107469D01*
X432002Y107408D01*
X432049Y107394D01*
X432092Y107374D01*
X432216Y107347D01*
X432338Y107313D01*
X432398Y107308D01*
X432433Y107300D01*
X432481Y107301D01*
X432581Y107293D01*
X438114Y107293D01*
X439286Y106121D01*
X439286Y106069D01*
X439297Y105969D01*
X439299Y105869D01*
X439317Y105797D01*
X439326Y105723D01*
X439359Y105628D01*
X439384Y105531D01*
X439418Y105465D01*
X439443Y105395D01*
X439498Y105310D01*
X439544Y105221D01*
X439592Y105165D01*
X439632Y105102D01*
X439704Y105032D01*
X439769Y104956D01*
X439829Y104912D01*
X439883Y104860D01*
X439969Y104808D01*
X440050Y104749D01*
X440118Y104719D01*
X440182Y104681D01*
X440277Y104650D01*
X440370Y104611D01*
X440443Y104597D01*
X440514Y104575D01*
X440614Y104567D01*
X440713Y104549D01*
X440787Y104553D01*
X440861Y104547D01*
X440960Y104562D01*
X441061Y104567D01*
X441132Y104588D01*
X441206Y104599D01*
X441299Y104636D01*
X441396Y104663D01*
X441461Y104700D01*
X441530Y104727D01*
X441612Y104785D01*
X441700Y104834D01*
X441776Y104899D01*
X441816Y104926D01*
X441840Y104953D01*
X441886Y104992D01*
X441919Y105025D01*
X446081Y105025D01*
X446399Y104707D01*
X446478Y104645D01*
X446550Y104575D01*
X446614Y104537D01*
X446672Y104490D01*
X446763Y104448D01*
X446849Y104396D01*
X446920Y104373D01*
X446987Y104342D01*
X447085Y104320D01*
X447181Y104290D01*
X447255Y104284D01*
X447328Y104268D01*
X447428Y104270D01*
X447528Y104262D01*
X447602Y104273D01*
G37*
G36*
X471716Y2552D02*
X471716Y2552D01*
X471817Y2554D01*
X471889Y2572D01*
X471963Y2581D01*
X472057Y2614D01*
X472155Y2639D01*
X472221Y2673D01*
X472291Y2698D01*
X472375Y2753D01*
X472464Y2799D01*
X472521Y2847D01*
X472583Y2887D01*
X472653Y2959D01*
X472730Y3024D01*
X472774Y3084D01*
X472826Y3138D01*
X472877Y3224D01*
X472937Y3305D01*
X472966Y3373D01*
X473005Y3437D01*
X473035Y3533D01*
X473075Y3625D01*
X473088Y3698D01*
X473111Y3769D01*
X473119Y3869D01*
X473137Y3968D01*
X473133Y4042D01*
X473139Y4116D01*
X473124Y4216D01*
X473119Y4316D01*
X473098Y4387D01*
X473087Y4461D01*
X473050Y4554D01*
X473022Y4651D01*
X472986Y4716D01*
X472958Y4785D01*
X472901Y4867D01*
X472852Y4955D01*
X472787Y5031D01*
X472759Y5071D01*
X472733Y5095D01*
X472693Y5141D01*
X468569Y9265D01*
X468569Y11461D01*
X478984Y11461D01*
X479010Y11464D01*
X479036Y11462D01*
X479183Y11484D01*
X479330Y11501D01*
X479355Y11509D01*
X479381Y11513D01*
X479518Y11568D01*
X479658Y11618D01*
X479680Y11632D01*
X479705Y11642D01*
X479826Y11727D01*
X479951Y11807D01*
X479969Y11826D01*
X479991Y11841D01*
X480005Y11857D01*
X480090Y11775D01*
X480113Y11761D01*
X480132Y11744D01*
X480262Y11672D01*
X480389Y11596D01*
X480414Y11588D01*
X480437Y11575D01*
X480580Y11535D01*
X480721Y11490D01*
X480747Y11487D01*
X480772Y11480D01*
X481016Y11461D01*
X491431Y11461D01*
X491431Y9265D01*
X487307Y5141D01*
X487244Y5063D01*
X487174Y4990D01*
X487136Y4926D01*
X487090Y4868D01*
X487047Y4777D01*
X486995Y4691D01*
X486973Y4620D01*
X486941Y4553D01*
X486920Y4455D01*
X486889Y4359D01*
X486883Y4285D01*
X486868Y4212D01*
X486869Y4112D01*
X486861Y4012D01*
X486872Y3938D01*
X486874Y3864D01*
X486898Y3767D01*
X486913Y3667D01*
X486940Y3598D01*
X486959Y3526D01*
X487005Y3436D01*
X487042Y3343D01*
X487084Y3282D01*
X487118Y3216D01*
X487183Y3139D01*
X487241Y3057D01*
X487296Y3007D01*
X487344Y2951D01*
X487425Y2891D01*
X487499Y2824D01*
X487565Y2788D01*
X487624Y2743D01*
X487717Y2704D01*
X487804Y2655D01*
X487876Y2635D01*
X487944Y2605D01*
X488043Y2588D01*
X488140Y2560D01*
X488240Y2552D01*
X488287Y2544D01*
X488323Y2546D01*
X488384Y2541D01*
X497616Y2541D01*
X497716Y2552D01*
X497817Y2554D01*
X497889Y2572D01*
X497963Y2581D01*
X498057Y2614D01*
X498155Y2639D01*
X498221Y2673D01*
X498291Y2698D01*
X498375Y2753D01*
X498464Y2799D01*
X498521Y2847D01*
X498583Y2887D01*
X498653Y2959D01*
X498730Y3024D01*
X498774Y3084D01*
X498826Y3138D01*
X498877Y3224D01*
X498937Y3305D01*
X498966Y3373D01*
X499005Y3437D01*
X499035Y3533D01*
X499075Y3625D01*
X499088Y3698D01*
X499111Y3769D01*
X499119Y3869D01*
X499137Y3968D01*
X499133Y4042D01*
X499139Y4116D01*
X499124Y4216D01*
X499119Y4316D01*
X499098Y4387D01*
X499087Y4461D01*
X499050Y4554D01*
X499022Y4651D01*
X498986Y4716D01*
X498958Y4785D01*
X498901Y4867D01*
X498852Y4955D01*
X498787Y5031D01*
X498759Y5071D01*
X498733Y5095D01*
X498693Y5141D01*
X494569Y9265D01*
X494569Y11461D01*
X504984Y11461D01*
X505010Y11464D01*
X505036Y11462D01*
X505183Y11484D01*
X505330Y11501D01*
X505355Y11509D01*
X505381Y11513D01*
X505518Y11568D01*
X505658Y11618D01*
X505680Y11632D01*
X505705Y11642D01*
X505826Y11727D01*
X505951Y11807D01*
X505969Y11826D01*
X505991Y11841D01*
X506090Y11951D01*
X506193Y12058D01*
X506207Y12080D01*
X506224Y12100D01*
X506296Y12230D01*
X506372Y12357D01*
X506380Y12382D01*
X506393Y12405D01*
X506433Y12548D01*
X506478Y12689D01*
X506480Y12715D01*
X506487Y12740D01*
X506507Y12984D01*
X506507Y13493D01*
X507016Y13493D01*
X507042Y13496D01*
X507068Y13494D01*
X507215Y13516D01*
X507362Y13533D01*
X507387Y13542D01*
X507413Y13546D01*
X507551Y13600D01*
X507690Y13650D01*
X507712Y13665D01*
X507737Y13674D01*
X507858Y13759D01*
X507983Y13839D01*
X508001Y13858D01*
X508023Y13873D01*
X508122Y13983D01*
X508225Y14090D01*
X508239Y14113D01*
X508256Y14132D01*
X508328Y14262D01*
X508404Y14389D01*
X508412Y14414D01*
X508425Y14437D01*
X508465Y14580D01*
X508510Y14721D01*
X508512Y14747D01*
X508520Y14772D01*
X508539Y15016D01*
X508539Y25431D01*
X510735Y25431D01*
X514859Y21307D01*
X514937Y21244D01*
X515010Y21174D01*
X515074Y21136D01*
X515132Y21090D01*
X515223Y21047D01*
X515309Y20995D01*
X515380Y20973D01*
X515447Y20941D01*
X515545Y20920D01*
X515641Y20889D01*
X515715Y20883D01*
X515788Y20868D01*
X515888Y20869D01*
X515988Y20861D01*
X516062Y20872D01*
X516136Y20874D01*
X516233Y20898D01*
X516333Y20913D01*
X516402Y20940D01*
X516474Y20959D01*
X516564Y21005D01*
X516657Y21042D01*
X516718Y21084D01*
X516784Y21118D01*
X516861Y21183D01*
X516943Y21241D01*
X516993Y21296D01*
X517049Y21344D01*
X517109Y21425D01*
X517176Y21499D01*
X517212Y21565D01*
X517257Y21624D01*
X517296Y21717D01*
X517345Y21804D01*
X517365Y21876D01*
X517395Y21944D01*
X517412Y22043D01*
X517440Y22140D01*
X517448Y22240D01*
X517456Y22287D01*
X517454Y22323D01*
X517459Y22384D01*
X517459Y31780D01*
X517448Y31880D01*
X517446Y31980D01*
X517428Y32052D01*
X517419Y32126D01*
X517386Y32221D01*
X517361Y32318D01*
X517327Y32384D01*
X517302Y32454D01*
X517247Y32539D01*
X517201Y32628D01*
X517153Y32685D01*
X517113Y32747D01*
X517041Y32817D01*
X516976Y32893D01*
X516916Y32938D01*
X516862Y32989D01*
X516776Y33041D01*
X516695Y33101D01*
X516627Y33130D01*
X516563Y33168D01*
X516467Y33199D01*
X516375Y33239D01*
X516302Y33252D01*
X516231Y33274D01*
X516131Y33282D01*
X516032Y33300D01*
X515958Y33296D01*
X515884Y33302D01*
X515784Y33287D01*
X515684Y33282D01*
X515613Y33262D01*
X515539Y33251D01*
X515446Y33214D01*
X515349Y33186D01*
X515284Y33149D01*
X515215Y33122D01*
X515133Y33065D01*
X515045Y33016D01*
X514969Y32950D01*
X514929Y32923D01*
X514905Y32897D01*
X514859Y32857D01*
X510511Y28509D01*
X501487Y28509D01*
X501477Y28516D01*
X501460Y28536D01*
X501341Y28625D01*
X501225Y28717D01*
X501201Y28728D01*
X501180Y28744D01*
X501044Y28802D01*
X500910Y28866D01*
X500884Y28871D01*
X500860Y28882D01*
X500714Y28908D01*
X500569Y28939D01*
X500543Y28939D01*
X500517Y28943D01*
X500369Y28936D01*
X500221Y28933D01*
X500195Y28927D01*
X500169Y28925D01*
X500027Y28884D01*
X499883Y28848D01*
X499860Y28836D01*
X499834Y28829D01*
X499704Y28756D01*
X499573Y28689D01*
X499553Y28672D01*
X499530Y28659D01*
X499344Y28500D01*
X497047Y26203D01*
X494843Y23999D01*
X489844Y23999D01*
X489744Y23988D01*
X489643Y23986D01*
X489571Y23968D01*
X489497Y23959D01*
X489403Y23926D01*
X489305Y23901D01*
X489239Y23867D01*
X489169Y23842D01*
X489085Y23787D01*
X488996Y23741D01*
X488939Y23693D01*
X488877Y23653D01*
X488807Y23581D01*
X488730Y23516D01*
X488686Y23456D01*
X488634Y23402D01*
X488583Y23316D01*
X488523Y23235D01*
X488494Y23167D01*
X488455Y23103D01*
X488425Y23007D01*
X488385Y22915D01*
X488372Y22842D01*
X488349Y22771D01*
X488341Y22671D01*
X488323Y22572D01*
X488327Y22498D01*
X488321Y22424D01*
X488336Y22324D01*
X488341Y22224D01*
X488362Y22153D01*
X488373Y22079D01*
X488410Y21986D01*
X488438Y21889D01*
X488474Y21824D01*
X488502Y21755D01*
X488559Y21673D01*
X488608Y21585D01*
X488673Y21509D01*
X488701Y21469D01*
X488727Y21445D01*
X488767Y21399D01*
X491431Y18735D01*
X491431Y16539D01*
X481016Y16539D01*
X480990Y16536D01*
X480964Y16538D01*
X480817Y16516D01*
X480670Y16499D01*
X480645Y16491D01*
X480619Y16487D01*
X480482Y16432D01*
X480342Y16382D01*
X480320Y16368D01*
X480295Y16358D01*
X480174Y16273D01*
X480049Y16193D01*
X480031Y16174D01*
X480009Y16159D01*
X479995Y16143D01*
X479910Y16225D01*
X479887Y16239D01*
X479868Y16256D01*
X479738Y16328D01*
X479611Y16404D01*
X479586Y16412D01*
X479563Y16425D01*
X479420Y16465D01*
X479279Y16510D01*
X479253Y16512D01*
X479228Y16520D01*
X478984Y16539D01*
X468569Y16539D01*
X468569Y18735D01*
X471233Y21399D01*
X471296Y21477D01*
X471366Y21550D01*
X471404Y21614D01*
X471450Y21672D01*
X471493Y21763D01*
X471545Y21849D01*
X471567Y21920D01*
X471599Y21987D01*
X471620Y22085D01*
X471651Y22181D01*
X471657Y22255D01*
X471672Y22328D01*
X471671Y22428D01*
X471679Y22528D01*
X471668Y22602D01*
X471666Y22676D01*
X471642Y22773D01*
X471627Y22873D01*
X471600Y22942D01*
X471581Y23014D01*
X471535Y23103D01*
X471498Y23197D01*
X471456Y23258D01*
X471422Y23324D01*
X471357Y23400D01*
X471299Y23483D01*
X471244Y23533D01*
X471196Y23589D01*
X471115Y23649D01*
X471041Y23716D01*
X470975Y23752D01*
X470916Y23797D01*
X470823Y23836D01*
X470736Y23885D01*
X470664Y23905D01*
X470596Y23935D01*
X470497Y23952D01*
X470400Y23980D01*
X470300Y23988D01*
X470253Y23996D01*
X470217Y23994D01*
X470156Y23999D01*
X455374Y23999D01*
X455248Y23985D01*
X455122Y23978D01*
X455076Y23965D01*
X455028Y23959D01*
X454909Y23917D01*
X454787Y23882D01*
X454745Y23858D01*
X454700Y23842D01*
X454593Y23773D01*
X454483Y23712D01*
X454437Y23672D01*
X454407Y23653D01*
X454373Y23618D01*
X454297Y23553D01*
X436743Y5999D01*
X379874Y5999D01*
X379748Y5985D01*
X379622Y5978D01*
X379576Y5965D01*
X379528Y5959D01*
X379409Y5917D01*
X379287Y5882D01*
X379245Y5858D01*
X379200Y5842D01*
X379093Y5773D01*
X378983Y5712D01*
X378937Y5672D01*
X378907Y5653D01*
X378873Y5618D01*
X378797Y5553D01*
X378385Y5141D01*
X378322Y5062D01*
X378253Y4990D01*
X378214Y4926D01*
X378168Y4868D01*
X378125Y4777D01*
X378074Y4691D01*
X378051Y4620D01*
X378019Y4553D01*
X377998Y4455D01*
X377967Y4359D01*
X377961Y4285D01*
X377946Y4212D01*
X377948Y4112D01*
X377939Y4012D01*
X377950Y3938D01*
X377952Y3864D01*
X377976Y3766D01*
X377991Y3667D01*
X378019Y3598D01*
X378037Y3526D01*
X378083Y3437D01*
X378120Y3343D01*
X378162Y3282D01*
X378196Y3216D01*
X378262Y3140D01*
X378319Y3057D01*
X378374Y3007D01*
X378422Y2951D01*
X378503Y2891D01*
X378578Y2824D01*
X378643Y2788D01*
X378702Y2743D01*
X378795Y2704D01*
X378883Y2655D01*
X378954Y2635D01*
X379023Y2605D01*
X379121Y2588D01*
X379218Y2560D01*
X379318Y2552D01*
X379366Y2544D01*
X379401Y2546D01*
X379462Y2541D01*
X471616Y2541D01*
X471716Y2552D01*
G37*
%LPC*%
G36*
X265877Y144189D02*
X265877Y144189D01*
X264705Y145361D01*
X264705Y145476D01*
X264702Y145502D01*
X264704Y145528D01*
X264682Y145675D01*
X264665Y145822D01*
X264657Y145847D01*
X264653Y145873D01*
X264598Y146011D01*
X264548Y146150D01*
X264534Y146172D01*
X264524Y146197D01*
X264439Y146318D01*
X264359Y146443D01*
X264340Y146461D01*
X264325Y146483D01*
X264215Y146582D01*
X264108Y146685D01*
X264086Y146699D01*
X264066Y146716D01*
X263936Y146788D01*
X263809Y146864D01*
X263784Y146872D01*
X263761Y146885D01*
X263618Y146925D01*
X263477Y146970D01*
X263451Y146972D01*
X263426Y146980D01*
X263182Y146999D01*
X261757Y146999D01*
X253203Y155553D01*
X253104Y155632D01*
X253010Y155716D01*
X252968Y155740D01*
X252930Y155770D01*
X252816Y155824D01*
X252705Y155885D01*
X252659Y155898D01*
X252615Y155919D01*
X252492Y155945D01*
X252370Y155980D01*
X252309Y155985D01*
X252274Y155992D01*
X252226Y155991D01*
X252126Y155999D01*
X209757Y155999D01*
X198227Y167529D01*
X198128Y167608D01*
X198034Y167692D01*
X197992Y167716D01*
X197954Y167746D01*
X197840Y167800D01*
X197729Y167861D01*
X197683Y167874D01*
X197639Y167895D01*
X197516Y167921D01*
X197394Y167956D01*
X197333Y167961D01*
X197298Y167968D01*
X197250Y167967D01*
X197150Y167975D01*
X194919Y167975D01*
X191975Y170919D01*
X191975Y175081D01*
X193317Y176423D01*
X193333Y176443D01*
X193353Y176460D01*
X193442Y176580D01*
X193533Y176696D01*
X193545Y176720D01*
X193560Y176741D01*
X193619Y176877D01*
X193682Y177011D01*
X193688Y177037D01*
X193698Y177061D01*
X193725Y177207D01*
X193756Y177352D01*
X193755Y177378D01*
X193760Y177404D01*
X193752Y177552D01*
X193750Y177700D01*
X193743Y177726D01*
X193742Y177752D01*
X193701Y177894D01*
X193665Y178038D01*
X193653Y178061D01*
X193646Y178087D01*
X193573Y178216D01*
X193505Y178348D01*
X193488Y178368D01*
X193475Y178391D01*
X193317Y178577D01*
X191975Y179919D01*
X191975Y184081D01*
X194919Y187025D01*
X199081Y187025D01*
X202025Y184081D01*
X202025Y181850D01*
X202039Y181724D01*
X202046Y181598D01*
X202059Y181552D01*
X202065Y181504D01*
X202107Y181385D01*
X202142Y181263D01*
X202166Y181221D01*
X202182Y181176D01*
X202251Y181069D01*
X202312Y180959D01*
X202352Y180913D01*
X202371Y180883D01*
X202406Y180849D01*
X202471Y180773D01*
X216797Y166447D01*
X216896Y166368D01*
X216990Y166284D01*
X217032Y166260D01*
X217070Y166230D01*
X217184Y166176D01*
X217295Y166115D01*
X217341Y166102D01*
X217385Y166081D01*
X217508Y166055D01*
X217630Y166020D01*
X217691Y166015D01*
X217726Y166008D01*
X217774Y166009D01*
X217874Y166001D01*
X263182Y166001D01*
X263208Y166004D01*
X263234Y166002D01*
X263381Y166024D01*
X263528Y166041D01*
X263553Y166049D01*
X263579Y166053D01*
X263717Y166108D01*
X263856Y166158D01*
X263878Y166172D01*
X263903Y166182D01*
X264024Y166267D01*
X264149Y166347D01*
X264167Y166366D01*
X264189Y166381D01*
X264288Y166491D01*
X264391Y166598D01*
X264405Y166620D01*
X264422Y166640D01*
X264494Y166770D01*
X264570Y166897D01*
X264578Y166922D01*
X264591Y166945D01*
X264631Y167088D01*
X264676Y167229D01*
X264678Y167255D01*
X264686Y167280D01*
X264705Y167524D01*
X264705Y167639D01*
X265877Y168811D01*
X273123Y168811D01*
X274295Y167639D01*
X274295Y158361D01*
X273511Y157577D01*
X273494Y157557D01*
X273474Y157540D01*
X273386Y157420D01*
X273294Y157304D01*
X273283Y157280D01*
X273267Y157259D01*
X273208Y157123D01*
X273145Y156989D01*
X273140Y156963D01*
X273129Y156939D01*
X273103Y156793D01*
X273072Y156648D01*
X273072Y156622D01*
X273067Y156596D01*
X273075Y156448D01*
X273078Y156300D01*
X273084Y156274D01*
X273085Y156248D01*
X273127Y156105D01*
X273163Y155962D01*
X273175Y155939D01*
X273182Y155913D01*
X273254Y155784D01*
X273322Y155652D01*
X273339Y155632D01*
X273352Y155609D01*
X273511Y155423D01*
X274295Y154639D01*
X274295Y145361D01*
X273123Y144189D01*
X265877Y144189D01*
G37*
%LPD*%
%LPC*%
G36*
X104062Y143859D02*
X104062Y143859D01*
X97339Y146644D01*
X92194Y151789D01*
X89409Y158512D01*
X89409Y165788D01*
X92194Y172511D01*
X97339Y177656D01*
X104062Y180441D01*
X111338Y180441D01*
X118061Y177656D01*
X123206Y172511D01*
X125991Y165788D01*
X125991Y158512D01*
X123206Y151789D01*
X118061Y146644D01*
X111338Y143859D01*
X104062Y143859D01*
G37*
%LPD*%
%LPC*%
G36*
X104062Y29559D02*
X104062Y29559D01*
X97339Y32344D01*
X92194Y37489D01*
X89409Y44212D01*
X89409Y51488D01*
X92194Y58211D01*
X97339Y63356D01*
X104062Y66141D01*
X111338Y66141D01*
X118061Y63356D01*
X123206Y58211D01*
X125991Y51488D01*
X125991Y44212D01*
X123206Y37489D01*
X118061Y32344D01*
X111338Y29559D01*
X104062Y29559D01*
G37*
%LPD*%
G36*
X395389Y143015D02*
X395389Y143015D01*
X395516Y143022D01*
X395562Y143035D01*
X395610Y143041D01*
X395729Y143083D01*
X395850Y143118D01*
X395893Y143142D01*
X395938Y143158D01*
X396044Y143227D01*
X396155Y143288D01*
X396201Y143328D01*
X396231Y143347D01*
X396264Y143382D01*
X396341Y143447D01*
X397919Y145025D01*
X401476Y145025D01*
X401502Y145028D01*
X401528Y145026D01*
X401675Y145048D01*
X401822Y145065D01*
X401847Y145073D01*
X401873Y145077D01*
X402011Y145132D01*
X402150Y145182D01*
X402172Y145196D01*
X402197Y145206D01*
X402318Y145291D01*
X402443Y145371D01*
X402461Y145390D01*
X402483Y145405D01*
X402582Y145515D01*
X402685Y145622D01*
X402699Y145644D01*
X402716Y145664D01*
X402788Y145794D01*
X402864Y145921D01*
X402872Y145946D01*
X402885Y145969D01*
X402925Y146112D01*
X402970Y146253D01*
X402972Y146279D01*
X402980Y146304D01*
X402999Y146548D01*
X402999Y154243D01*
X406529Y157773D01*
X406608Y157872D01*
X406692Y157966D01*
X406716Y158008D01*
X406746Y158046D01*
X406800Y158160D01*
X406861Y158271D01*
X406874Y158317D01*
X406895Y158361D01*
X406921Y158484D01*
X406956Y158606D01*
X406961Y158667D01*
X406968Y158702D01*
X406967Y158750D01*
X406975Y158850D01*
X406975Y160191D01*
X406972Y160217D01*
X406974Y160243D01*
X406952Y160390D01*
X406935Y160537D01*
X406927Y160562D01*
X406923Y160588D01*
X406868Y160726D01*
X406818Y160865D01*
X406804Y160887D01*
X406794Y160912D01*
X406709Y161033D01*
X406629Y161158D01*
X406610Y161176D01*
X406595Y161198D01*
X406485Y161297D01*
X406378Y161400D01*
X406356Y161414D01*
X406336Y161431D01*
X406206Y161503D01*
X406079Y161579D01*
X406054Y161587D01*
X406031Y161600D01*
X405888Y161640D01*
X405747Y161685D01*
X405721Y161687D01*
X405696Y161695D01*
X405452Y161714D01*
X393891Y161714D01*
X392719Y162886D01*
X392719Y172476D01*
X392716Y172502D01*
X392718Y172528D01*
X392696Y172675D01*
X392679Y172822D01*
X392671Y172847D01*
X392667Y172873D01*
X392612Y173011D01*
X392562Y173150D01*
X392548Y173172D01*
X392538Y173197D01*
X392453Y173318D01*
X392373Y173443D01*
X392354Y173461D01*
X392339Y173483D01*
X392229Y173582D01*
X392122Y173685D01*
X392100Y173699D01*
X392080Y173716D01*
X391990Y173766D01*
X389553Y176203D01*
X384471Y181285D01*
X384451Y181301D01*
X384434Y181321D01*
X384314Y181410D01*
X384198Y181502D01*
X384175Y181513D01*
X384153Y181529D01*
X384017Y181587D01*
X383883Y181651D01*
X383857Y181656D01*
X383833Y181667D01*
X383687Y181693D01*
X383542Y181724D01*
X383516Y181724D01*
X383490Y181728D01*
X383342Y181721D01*
X383194Y181718D01*
X383169Y181712D01*
X383142Y181710D01*
X383000Y181669D01*
X382856Y181633D01*
X382833Y181621D01*
X382808Y181614D01*
X382678Y181541D01*
X382546Y181473D01*
X382526Y181456D01*
X382503Y181444D01*
X382317Y181285D01*
X381696Y180664D01*
X369879Y180664D01*
X368491Y182052D01*
X368449Y182134D01*
X368401Y182190D01*
X368360Y182253D01*
X368288Y182323D01*
X368223Y182399D01*
X368163Y182443D01*
X368110Y182495D01*
X368023Y182547D01*
X367943Y182606D01*
X367874Y182636D01*
X367811Y182674D01*
X367715Y182704D01*
X367623Y182744D01*
X367549Y182757D01*
X367479Y182780D01*
X367379Y182788D01*
X367280Y182806D01*
X367205Y182802D01*
X367131Y182808D01*
X367032Y182793D01*
X366932Y182788D01*
X366860Y182767D01*
X366787Y182756D01*
X366693Y182719D01*
X366597Y182691D01*
X366532Y182655D01*
X366463Y182628D01*
X366380Y182570D01*
X366293Y182521D01*
X366216Y182456D01*
X366177Y182429D01*
X366153Y182402D01*
X366106Y182363D01*
X365947Y182203D01*
X365868Y182104D01*
X365784Y182010D01*
X365760Y181968D01*
X365730Y181930D01*
X365676Y181816D01*
X365615Y181705D01*
X365602Y181659D01*
X365581Y181615D01*
X365555Y181491D01*
X365520Y181370D01*
X365515Y181309D01*
X365508Y181274D01*
X365509Y181226D01*
X365501Y181126D01*
X365501Y173083D01*
X365515Y172959D01*
X365521Y172834D01*
X365535Y172786D01*
X365541Y172737D01*
X365583Y172619D01*
X365617Y172499D01*
X365641Y172455D01*
X365658Y172409D01*
X365726Y172303D01*
X365787Y172194D01*
X365820Y172158D01*
X365847Y172116D01*
X365937Y172029D01*
X366021Y171936D01*
X366062Y171908D01*
X366098Y171874D01*
X366205Y171809D01*
X366308Y171738D01*
X366354Y171720D01*
X366397Y171695D01*
X366516Y171657D01*
X366632Y171611D01*
X366682Y171604D01*
X366729Y171589D01*
X366853Y171578D01*
X366977Y171560D01*
X367027Y171565D01*
X367076Y171561D01*
X367200Y171579D01*
X367325Y171590D01*
X367372Y171605D01*
X367421Y171612D01*
X367537Y171658D01*
X367656Y171697D01*
X367699Y171723D01*
X367745Y171741D01*
X367848Y171812D01*
X367955Y171877D01*
X367990Y171912D01*
X368031Y171940D01*
X368115Y172033D01*
X368204Y172120D01*
X368240Y172171D01*
X368264Y172199D01*
X368287Y172241D01*
X368343Y172321D01*
X368674Y172895D01*
X369147Y173368D01*
X369727Y173703D01*
X370373Y173876D01*
X373883Y173876D01*
X373883Y167906D01*
X373886Y167880D01*
X373884Y167854D01*
X373906Y167707D01*
X373923Y167560D01*
X373932Y167535D01*
X373935Y167512D01*
X373912Y167439D01*
X373910Y167413D01*
X373903Y167388D01*
X373883Y167144D01*
X373883Y161174D01*
X370373Y161174D01*
X369727Y161347D01*
X369147Y161682D01*
X368674Y162155D01*
X368343Y162729D01*
X368269Y162829D01*
X368201Y162934D01*
X368165Y162969D01*
X368136Y163009D01*
X368040Y163090D01*
X367950Y163176D01*
X367908Y163202D01*
X367870Y163234D01*
X367758Y163291D01*
X367651Y163355D01*
X367604Y163370D01*
X367560Y163393D01*
X367438Y163423D01*
X367319Y163461D01*
X367270Y163465D01*
X367221Y163477D01*
X367096Y163479D01*
X366972Y163489D01*
X366923Y163482D01*
X366873Y163483D01*
X366751Y163456D01*
X366627Y163438D01*
X366581Y163419D01*
X366532Y163409D01*
X366419Y163355D01*
X366303Y163309D01*
X366263Y163281D01*
X366218Y163259D01*
X366120Y163181D01*
X366017Y163110D01*
X365984Y163073D01*
X365945Y163042D01*
X365867Y162944D01*
X365784Y162851D01*
X365760Y162808D01*
X365729Y162769D01*
X365676Y162656D01*
X365615Y162546D01*
X365602Y162499D01*
X365580Y162454D01*
X365554Y162331D01*
X365520Y162211D01*
X365515Y162148D01*
X365508Y162113D01*
X365509Y162065D01*
X365501Y161967D01*
X365501Y161374D01*
X365515Y161248D01*
X365522Y161122D01*
X365535Y161076D01*
X365541Y161028D01*
X365583Y160909D01*
X365618Y160787D01*
X365642Y160745D01*
X365658Y160700D01*
X365727Y160593D01*
X365788Y160483D01*
X365828Y160437D01*
X365847Y160407D01*
X365882Y160373D01*
X365947Y160297D01*
X370042Y156202D01*
X370141Y156123D01*
X370235Y156039D01*
X370277Y156015D01*
X370315Y155985D01*
X370429Y155931D01*
X370540Y155870D01*
X370586Y155857D01*
X370630Y155836D01*
X370753Y155810D01*
X370875Y155775D01*
X370936Y155770D01*
X370971Y155763D01*
X370977Y155763D01*
X370977Y154882D01*
X370992Y154746D01*
X371001Y154608D01*
X371012Y154573D01*
X371016Y154536D01*
X371063Y154406D01*
X371103Y154275D01*
X371121Y154243D01*
X371134Y154208D01*
X371209Y154092D01*
X371277Y153973D01*
X371303Y153946D01*
X371323Y153915D01*
X371422Y153819D01*
X371516Y153719D01*
X371547Y153699D01*
X371574Y153673D01*
X371692Y153602D01*
X371806Y153526D01*
X371841Y153513D01*
X371873Y153494D01*
X372004Y153452D01*
X372133Y153404D01*
X372169Y153399D01*
X372205Y153388D01*
X372342Y153377D01*
X372478Y153359D01*
X372515Y153363D01*
X372552Y153360D01*
X372688Y153380D01*
X372825Y153394D01*
X372860Y153406D01*
X372897Y153411D01*
X373025Y153462D01*
X373155Y153507D01*
X373186Y153526D01*
X373221Y153540D01*
X373334Y153619D01*
X373450Y153692D01*
X373476Y153718D01*
X373507Y153739D01*
X373599Y153841D01*
X373696Y153939D01*
X373721Y153977D01*
X373740Y153998D01*
X373764Y154042D01*
X373831Y154142D01*
X373832Y154143D01*
X373866Y154225D01*
X373909Y154303D01*
X373932Y154386D01*
X373965Y154465D01*
X373979Y154553D01*
X374004Y154639D01*
X374013Y154759D01*
X374022Y154809D01*
X374020Y154837D01*
X374023Y154883D01*
X374023Y155756D01*
X374104Y155756D01*
X374606Y155621D01*
X374706Y155607D01*
X374805Y155582D01*
X374878Y155581D01*
X374950Y155570D01*
X375052Y155579D01*
X375154Y155577D01*
X375250Y155595D01*
X375298Y155599D01*
X375333Y155610D01*
X375394Y155621D01*
X375895Y155756D01*
X375977Y155756D01*
X375977Y154883D01*
X375985Y154811D01*
X375983Y154739D01*
X376005Y154638D01*
X376016Y154537D01*
X376041Y154469D01*
X376056Y154398D01*
X376119Y154250D01*
X376134Y154208D01*
X376143Y154195D01*
X376152Y154173D01*
X376239Y154046D01*
X376323Y153915D01*
X376338Y153901D01*
X376349Y153885D01*
X376463Y153780D01*
X376574Y153673D01*
X376591Y153663D01*
X376606Y153649D01*
X376740Y153573D01*
X376873Y153494D01*
X376892Y153488D01*
X376909Y153478D01*
X377058Y153435D01*
X377205Y153388D01*
X377225Y153386D01*
X377244Y153381D01*
X377398Y153372D01*
X377552Y153360D01*
X377572Y153363D01*
X377592Y153362D01*
X377744Y153389D01*
X377897Y153411D01*
X377915Y153419D01*
X377935Y153422D01*
X378077Y153483D01*
X378221Y153540D01*
X378237Y153552D01*
X378255Y153559D01*
X378380Y153651D01*
X378507Y153739D01*
X378520Y153754D01*
X378536Y153766D01*
X378637Y153883D01*
X378740Y153998D01*
X378750Y154015D01*
X378763Y154030D01*
X378834Y154168D01*
X378909Y154303D01*
X378914Y154322D01*
X378924Y154340D01*
X378962Y154489D01*
X379004Y154638D01*
X379006Y154662D01*
X379010Y154677D01*
X379010Y154721D01*
X379023Y154882D01*
X379023Y155756D01*
X379105Y155756D01*
X379751Y155583D01*
X380330Y155248D01*
X380803Y154775D01*
X381138Y154196D01*
X381311Y153550D01*
X381311Y152150D01*
X381325Y152024D01*
X381332Y151898D01*
X381345Y151851D01*
X381351Y151803D01*
X381393Y151684D01*
X381428Y151563D01*
X381452Y151521D01*
X381468Y151475D01*
X381537Y151369D01*
X381598Y151259D01*
X381638Y151213D01*
X381657Y151183D01*
X381692Y151149D01*
X381757Y151073D01*
X382001Y150829D01*
X382001Y144524D01*
X382004Y144498D01*
X382002Y144472D01*
X382024Y144325D01*
X382041Y144178D01*
X382049Y144153D01*
X382053Y144127D01*
X382108Y143989D01*
X382158Y143850D01*
X382172Y143828D01*
X382182Y143803D01*
X382267Y143682D01*
X382347Y143557D01*
X382366Y143539D01*
X382381Y143517D01*
X382491Y143418D01*
X382598Y143315D01*
X382620Y143301D01*
X382640Y143284D01*
X382770Y143212D01*
X382897Y143136D01*
X382922Y143128D01*
X382945Y143115D01*
X383088Y143075D01*
X383229Y143030D01*
X383255Y143028D01*
X383280Y143020D01*
X383524Y143001D01*
X395264Y143001D01*
X395389Y143015D01*
G37*
G36*
X14050Y75504D02*
X14050Y75504D01*
X14076Y75502D01*
X14223Y75524D01*
X14370Y75541D01*
X14395Y75550D01*
X14421Y75553D01*
X14559Y75608D01*
X14698Y75658D01*
X14720Y75672D01*
X14745Y75682D01*
X14866Y75767D01*
X14991Y75847D01*
X15009Y75866D01*
X15031Y75881D01*
X15130Y75991D01*
X15233Y76098D01*
X15247Y76120D01*
X15264Y76140D01*
X15336Y76270D01*
X15412Y76397D01*
X15420Y76422D01*
X15433Y76445D01*
X15473Y76588D01*
X15518Y76729D01*
X15520Y76755D01*
X15528Y76780D01*
X15547Y77024D01*
X15547Y89916D01*
X20976Y89916D01*
X21002Y89919D01*
X21028Y89917D01*
X21175Y89939D01*
X21322Y89956D01*
X21347Y89964D01*
X21373Y89968D01*
X21511Y90023D01*
X21650Y90073D01*
X21672Y90087D01*
X21697Y90097D01*
X21818Y90182D01*
X21943Y90262D01*
X21961Y90281D01*
X21983Y90296D01*
X22082Y90406D01*
X22185Y90513D01*
X22199Y90535D01*
X22216Y90555D01*
X22288Y90685D01*
X22364Y90812D01*
X22372Y90837D01*
X22385Y90860D01*
X22425Y91003D01*
X22470Y91144D01*
X22472Y91170D01*
X22480Y91195D01*
X22499Y91439D01*
X22499Y118561D01*
X22496Y118587D01*
X22498Y118613D01*
X22476Y118760D01*
X22459Y118907D01*
X22451Y118932D01*
X22447Y118958D01*
X22392Y119096D01*
X22342Y119235D01*
X22328Y119257D01*
X22318Y119282D01*
X22233Y119403D01*
X22153Y119528D01*
X22134Y119546D01*
X22119Y119568D01*
X22009Y119667D01*
X21902Y119770D01*
X21880Y119784D01*
X21860Y119801D01*
X21730Y119873D01*
X21603Y119949D01*
X21578Y119957D01*
X21555Y119970D01*
X21412Y120010D01*
X21271Y120055D01*
X21245Y120057D01*
X21220Y120065D01*
X20976Y120084D01*
X15547Y120084D01*
X15547Y132976D01*
X15544Y133002D01*
X15546Y133028D01*
X15524Y133175D01*
X15507Y133322D01*
X15498Y133347D01*
X15495Y133373D01*
X15440Y133511D01*
X15390Y133650D01*
X15376Y133672D01*
X15366Y133697D01*
X15282Y133818D01*
X15201Y133943D01*
X15182Y133961D01*
X15167Y133983D01*
X15057Y134082D01*
X14950Y134185D01*
X14928Y134199D01*
X14908Y134216D01*
X14778Y134288D01*
X14651Y134364D01*
X14626Y134372D01*
X14603Y134385D01*
X14460Y134425D01*
X14319Y134470D01*
X14293Y134472D01*
X14268Y134480D01*
X14024Y134499D01*
X10976Y134499D01*
X10950Y134496D01*
X10924Y134498D01*
X10777Y134476D01*
X10630Y134459D01*
X10605Y134450D01*
X10579Y134447D01*
X10441Y134392D01*
X10302Y134342D01*
X10280Y134328D01*
X10255Y134318D01*
X10134Y134233D01*
X10009Y134153D01*
X9991Y134134D01*
X9969Y134119D01*
X9870Y134009D01*
X9767Y133902D01*
X9753Y133880D01*
X9736Y133860D01*
X9664Y133730D01*
X9588Y133603D01*
X9580Y133578D01*
X9567Y133555D01*
X9527Y133412D01*
X9482Y133271D01*
X9480Y133245D01*
X9472Y133220D01*
X9453Y132976D01*
X9453Y120084D01*
X4064Y120084D01*
X4038Y120081D01*
X4012Y120083D01*
X3865Y120061D01*
X3718Y120044D01*
X3693Y120036D01*
X3667Y120032D01*
X3529Y119977D01*
X3390Y119927D01*
X3368Y119913D01*
X3343Y119903D01*
X3222Y119818D01*
X3097Y119738D01*
X3079Y119719D01*
X3057Y119704D01*
X2958Y119594D01*
X2855Y119487D01*
X2841Y119465D01*
X2824Y119445D01*
X2752Y119315D01*
X2676Y119188D01*
X2668Y119163D01*
X2655Y119140D01*
X2615Y118997D01*
X2570Y118856D01*
X2568Y118830D01*
X2560Y118805D01*
X2541Y118561D01*
X2541Y91439D01*
X2544Y91413D01*
X2542Y91387D01*
X2564Y91240D01*
X2581Y91093D01*
X2589Y91068D01*
X2593Y91042D01*
X2648Y90904D01*
X2698Y90765D01*
X2712Y90743D01*
X2722Y90718D01*
X2807Y90597D01*
X2887Y90472D01*
X2906Y90454D01*
X2921Y90432D01*
X3031Y90333D01*
X3138Y90230D01*
X3160Y90216D01*
X3180Y90199D01*
X3310Y90127D01*
X3437Y90051D01*
X3462Y90043D01*
X3485Y90030D01*
X3628Y89990D01*
X3769Y89945D01*
X3795Y89943D01*
X3820Y89935D01*
X4064Y89916D01*
X9453Y89916D01*
X9453Y77024D01*
X9456Y76998D01*
X9454Y76972D01*
X9476Y76825D01*
X9493Y76678D01*
X9501Y76653D01*
X9505Y76627D01*
X9560Y76489D01*
X9610Y76350D01*
X9624Y76328D01*
X9634Y76303D01*
X9719Y76182D01*
X9799Y76057D01*
X9818Y76039D01*
X9833Y76017D01*
X9943Y75918D01*
X10050Y75815D01*
X10072Y75801D01*
X10092Y75784D01*
X10222Y75712D01*
X10349Y75636D01*
X10374Y75628D01*
X10397Y75615D01*
X10540Y75575D01*
X10681Y75530D01*
X10707Y75528D01*
X10732Y75520D01*
X10976Y75501D01*
X14024Y75501D01*
X14050Y75504D01*
G37*
%LPC*%
G36*
X192043Y49549D02*
X192043Y49549D01*
X185599Y55993D01*
X185599Y65107D01*
X192043Y71551D01*
X201157Y71551D01*
X207601Y65107D01*
X207601Y55993D01*
X201157Y49549D01*
X192043Y49549D01*
G37*
%LPD*%
%LPC*%
G36*
X298371Y31149D02*
X298371Y31149D01*
X297725Y31322D01*
X297146Y31657D01*
X296673Y32130D01*
X296338Y32709D01*
X296289Y32892D01*
X296234Y33032D01*
X296184Y33173D01*
X296170Y33193D01*
X296161Y33217D01*
X296076Y33340D01*
X295995Y33465D01*
X295977Y33483D01*
X295963Y33503D01*
X295852Y33603D01*
X295744Y33708D01*
X295723Y33720D01*
X295704Y33737D01*
X295574Y33809D01*
X295445Y33886D01*
X295421Y33894D01*
X295400Y33906D01*
X295256Y33947D01*
X295113Y33993D01*
X295088Y33995D01*
X295065Y34001D01*
X294915Y34009D01*
X294766Y34021D01*
X294741Y34017D01*
X294716Y34018D01*
X294569Y33991D01*
X294421Y33969D01*
X294398Y33960D01*
X294374Y33955D01*
X294236Y33895D01*
X294097Y33840D01*
X294077Y33826D01*
X294054Y33816D01*
X293934Y33726D01*
X293811Y33641D01*
X293795Y33623D01*
X293775Y33608D01*
X293678Y33493D01*
X293578Y33382D01*
X293566Y33361D01*
X293550Y33342D01*
X293482Y33209D01*
X293409Y33077D01*
X293402Y33053D01*
X293391Y33031D01*
X293367Y32933D01*
X292123Y31689D01*
X284877Y31689D01*
X283705Y32861D01*
X283705Y32976D01*
X283702Y33002D01*
X283704Y33028D01*
X283682Y33175D01*
X283665Y33322D01*
X283657Y33347D01*
X283653Y33373D01*
X283598Y33511D01*
X283548Y33650D01*
X283534Y33672D01*
X283524Y33697D01*
X283439Y33818D01*
X283359Y33943D01*
X283340Y33961D01*
X283325Y33983D01*
X283215Y34082D01*
X283108Y34185D01*
X283086Y34199D01*
X283066Y34216D01*
X282936Y34288D01*
X282809Y34364D01*
X282784Y34372D01*
X282761Y34385D01*
X282618Y34425D01*
X282477Y34470D01*
X282451Y34472D01*
X282426Y34480D01*
X282182Y34499D01*
X280474Y34499D01*
X280448Y34496D01*
X280422Y34498D01*
X280275Y34476D01*
X280128Y34459D01*
X280103Y34451D01*
X280077Y34447D01*
X279939Y34392D01*
X279800Y34342D01*
X279778Y34328D01*
X279753Y34318D01*
X279632Y34233D01*
X279507Y34153D01*
X279489Y34134D01*
X279467Y34119D01*
X279368Y34009D01*
X279265Y33902D01*
X279251Y33880D01*
X279234Y33860D01*
X279162Y33730D01*
X279086Y33603D01*
X279078Y33578D01*
X279065Y33555D01*
X279025Y33412D01*
X278980Y33271D01*
X278978Y33248D01*
X277779Y32049D01*
X266221Y32049D01*
X265049Y33221D01*
X265049Y41779D01*
X266221Y42951D01*
X277779Y42951D01*
X278983Y41747D01*
X278991Y41678D01*
X278999Y41653D01*
X279003Y41627D01*
X279058Y41489D01*
X279108Y41350D01*
X279122Y41328D01*
X279132Y41303D01*
X279217Y41182D01*
X279297Y41057D01*
X279316Y41039D01*
X279331Y41017D01*
X279441Y40918D01*
X279548Y40815D01*
X279570Y40801D01*
X279590Y40784D01*
X279720Y40712D01*
X279847Y40636D01*
X279872Y40628D01*
X279895Y40615D01*
X280038Y40575D01*
X280179Y40530D01*
X280205Y40528D01*
X280230Y40520D01*
X280474Y40501D01*
X282182Y40501D01*
X282208Y40504D01*
X282234Y40502D01*
X282381Y40524D01*
X282528Y40541D01*
X282553Y40549D01*
X282579Y40553D01*
X282717Y40608D01*
X282856Y40658D01*
X282878Y40672D01*
X282903Y40682D01*
X283024Y40767D01*
X283149Y40847D01*
X283167Y40866D01*
X283189Y40881D01*
X283288Y40991D01*
X283391Y41098D01*
X283405Y41120D01*
X283422Y41140D01*
X283494Y41270D01*
X283570Y41397D01*
X283578Y41422D01*
X283591Y41445D01*
X283631Y41588D01*
X283676Y41729D01*
X283678Y41755D01*
X283686Y41780D01*
X283705Y42024D01*
X283705Y42139D01*
X284877Y43311D01*
X292123Y43311D01*
X293366Y42067D01*
X293385Y42014D01*
X293431Y41872D01*
X293444Y41851D01*
X293452Y41827D01*
X293533Y41702D01*
X293610Y41573D01*
X293628Y41555D01*
X293641Y41535D01*
X293749Y41430D01*
X293853Y41323D01*
X293874Y41310D01*
X293892Y41292D01*
X294020Y41216D01*
X294146Y41135D01*
X294170Y41126D01*
X294191Y41114D01*
X294333Y41068D01*
X294475Y41018D01*
X294499Y41015D01*
X294523Y41007D01*
X294672Y40995D01*
X294821Y40978D01*
X294846Y40981D01*
X294870Y40979D01*
X295018Y41002D01*
X295167Y41019D01*
X295190Y41027D01*
X295215Y41031D01*
X295353Y41086D01*
X295495Y41137D01*
X295516Y41151D01*
X295539Y41160D01*
X295661Y41245D01*
X295787Y41327D01*
X295805Y41345D01*
X295825Y41359D01*
X295925Y41470D01*
X296029Y41578D01*
X296042Y41599D01*
X296058Y41617D01*
X296131Y41748D01*
X296207Y41877D01*
X296217Y41905D01*
X296227Y41923D01*
X296240Y41968D01*
X296289Y42108D01*
X296338Y42291D01*
X296673Y42870D01*
X297146Y43343D01*
X297725Y43678D01*
X298371Y43851D01*
X299977Y43851D01*
X299977Y37500D01*
X299977Y31149D01*
X298371Y31149D01*
G37*
%LPD*%
%LPC*%
G36*
X301499Y189524D02*
X301499Y189524D01*
X301496Y189550D01*
X301498Y189576D01*
X301476Y189723D01*
X301459Y189870D01*
X301451Y189895D01*
X301447Y189921D01*
X301414Y190002D01*
X301425Y190040D01*
X301470Y190181D01*
X301472Y190207D01*
X301480Y190232D01*
X301499Y190476D01*
X301499Y196541D01*
X303835Y196541D01*
X304481Y196368D01*
X305060Y196033D01*
X305533Y195560D01*
X305894Y194935D01*
X305924Y194894D01*
X305948Y194849D01*
X306028Y194754D01*
X306102Y194655D01*
X306140Y194622D01*
X306174Y194583D01*
X306273Y194510D01*
X306367Y194430D01*
X306413Y194407D01*
X306454Y194376D01*
X306568Y194327D01*
X306677Y194271D01*
X306727Y194258D01*
X306774Y194238D01*
X306896Y194216D01*
X307016Y194186D01*
X307067Y194186D01*
X307117Y194177D01*
X307240Y194183D01*
X307364Y194181D01*
X307414Y194192D01*
X307465Y194194D01*
X307584Y194229D01*
X307705Y194255D01*
X307751Y194277D01*
X307800Y194291D01*
X307908Y194351D01*
X308019Y194404D01*
X308059Y194436D01*
X308104Y194461D01*
X308290Y194620D01*
X309671Y196001D01*
X319329Y196001D01*
X320501Y194829D01*
X320501Y194524D01*
X320504Y194498D01*
X320502Y194472D01*
X320524Y194325D01*
X320541Y194178D01*
X320549Y194153D01*
X320553Y194127D01*
X320608Y193989D01*
X320658Y193850D01*
X320672Y193828D01*
X320682Y193803D01*
X320767Y193682D01*
X320847Y193557D01*
X320866Y193539D01*
X320881Y193517D01*
X320991Y193418D01*
X321098Y193315D01*
X321120Y193301D01*
X321140Y193284D01*
X321270Y193212D01*
X321397Y193136D01*
X321422Y193128D01*
X321445Y193115D01*
X321588Y193075D01*
X321729Y193030D01*
X321755Y193028D01*
X321780Y193020D01*
X322024Y193001D01*
X322182Y193001D01*
X322208Y193004D01*
X322234Y193002D01*
X322381Y193024D01*
X322528Y193041D01*
X322553Y193049D01*
X322579Y193053D01*
X322717Y193108D01*
X322856Y193158D01*
X322878Y193172D01*
X322903Y193182D01*
X323024Y193267D01*
X323149Y193347D01*
X323167Y193366D01*
X323189Y193381D01*
X323288Y193491D01*
X323391Y193598D01*
X323405Y193620D01*
X323422Y193640D01*
X323494Y193770D01*
X323570Y193897D01*
X323578Y193922D01*
X323591Y193945D01*
X323631Y194088D01*
X323676Y194229D01*
X323678Y194255D01*
X323686Y194280D01*
X323705Y194524D01*
X323705Y194639D01*
X324877Y195811D01*
X332123Y195811D01*
X333295Y194639D01*
X333295Y185361D01*
X332123Y184189D01*
X324877Y184189D01*
X323705Y185361D01*
X323705Y185476D01*
X323702Y185502D01*
X323704Y185528D01*
X323682Y185675D01*
X323665Y185822D01*
X323657Y185847D01*
X323653Y185873D01*
X323598Y186011D01*
X323548Y186150D01*
X323534Y186172D01*
X323524Y186197D01*
X323439Y186318D01*
X323359Y186443D01*
X323340Y186461D01*
X323325Y186483D01*
X323215Y186582D01*
X323108Y186685D01*
X323086Y186699D01*
X323066Y186716D01*
X322936Y186788D01*
X322809Y186864D01*
X322784Y186872D01*
X322761Y186885D01*
X322618Y186925D01*
X322477Y186970D01*
X322451Y186972D01*
X322426Y186980D01*
X322182Y186999D01*
X322024Y186999D01*
X321998Y186996D01*
X321972Y186998D01*
X321825Y186976D01*
X321678Y186959D01*
X321653Y186951D01*
X321627Y186947D01*
X321489Y186892D01*
X321350Y186842D01*
X321328Y186828D01*
X321303Y186818D01*
X321181Y186733D01*
X321057Y186653D01*
X321039Y186634D01*
X321017Y186619D01*
X320918Y186509D01*
X320815Y186402D01*
X320801Y186380D01*
X320784Y186360D01*
X320712Y186230D01*
X320636Y186103D01*
X320628Y186078D01*
X320615Y186055D01*
X320575Y185912D01*
X320530Y185771D01*
X320528Y185745D01*
X320520Y185720D01*
X320501Y185476D01*
X320501Y185171D01*
X319329Y183999D01*
X309671Y183999D01*
X308290Y185380D01*
X308250Y185412D01*
X308216Y185450D01*
X308114Y185520D01*
X308017Y185597D01*
X307971Y185619D01*
X307929Y185648D01*
X307814Y185693D01*
X307702Y185746D01*
X307652Y185757D01*
X307605Y185775D01*
X307482Y185793D01*
X307361Y185819D01*
X307310Y185818D01*
X307260Y185826D01*
X307136Y185815D01*
X307013Y185813D01*
X306963Y185801D01*
X306913Y185797D01*
X306795Y185758D01*
X306675Y185728D01*
X306630Y185705D01*
X306581Y185689D01*
X306475Y185625D01*
X306365Y185569D01*
X306326Y185536D01*
X306283Y185509D01*
X306194Y185423D01*
X306100Y185343D01*
X306069Y185302D01*
X306033Y185266D01*
X305894Y185065D01*
X305893Y185063D01*
X305892Y185062D01*
X305533Y184440D01*
X305060Y183967D01*
X304481Y183632D01*
X303835Y183459D01*
X301499Y183459D01*
X301499Y189524D01*
G37*
%LPD*%
%LPC*%
G36*
X38547Y133047D02*
X38547Y133047D01*
X38547Y139916D01*
X46335Y139916D01*
X46981Y139743D01*
X47561Y139407D01*
X47637Y139347D01*
X47710Y139277D01*
X47774Y139239D01*
X47832Y139193D01*
X47923Y139150D01*
X48009Y139098D01*
X48080Y139075D01*
X48147Y139044D01*
X48245Y139023D01*
X48341Y138992D01*
X48415Y138986D01*
X48488Y138970D01*
X48588Y138972D01*
X48688Y138964D01*
X48762Y138975D01*
X48836Y138976D01*
X48933Y139001D01*
X49033Y139016D01*
X49102Y139043D01*
X49174Y139061D01*
X49263Y139107D01*
X49357Y139144D01*
X49418Y139187D01*
X49484Y139221D01*
X49560Y139286D01*
X49643Y139343D01*
X49693Y139398D01*
X49749Y139447D01*
X49809Y139528D01*
X49876Y139602D01*
X49912Y139667D01*
X49956Y139727D01*
X49996Y139819D01*
X50045Y139907D01*
X50065Y139979D01*
X50095Y140047D01*
X50112Y140146D01*
X50140Y140243D01*
X50148Y140343D01*
X50156Y140390D01*
X50154Y140426D01*
X50159Y140486D01*
X50159Y146388D01*
X55162Y151391D01*
X62238Y151391D01*
X67241Y146388D01*
X67241Y139312D01*
X62238Y134309D01*
X55162Y134309D01*
X51141Y138331D01*
X51063Y138393D01*
X50990Y138463D01*
X50926Y138501D01*
X50868Y138547D01*
X50777Y138590D01*
X50691Y138642D01*
X50620Y138664D01*
X50553Y138696D01*
X50455Y138717D01*
X50359Y138748D01*
X50285Y138754D01*
X50212Y138769D01*
X50112Y138768D01*
X50012Y138776D01*
X49938Y138765D01*
X49864Y138763D01*
X49767Y138739D01*
X49667Y138724D01*
X49598Y138697D01*
X49526Y138678D01*
X49436Y138632D01*
X49343Y138595D01*
X49282Y138553D01*
X49216Y138519D01*
X49139Y138454D01*
X49057Y138396D01*
X49007Y138341D01*
X48951Y138293D01*
X48891Y138212D01*
X48824Y138138D01*
X48788Y138073D01*
X48743Y138013D01*
X48704Y137920D01*
X48655Y137833D01*
X48635Y137761D01*
X48605Y137693D01*
X48588Y137594D01*
X48560Y137497D01*
X48552Y137397D01*
X48544Y137350D01*
X48546Y137314D01*
X48541Y137253D01*
X48541Y133047D01*
X38547Y133047D01*
G37*
%LPD*%
%LPC*%
G36*
X55162Y58609D02*
X55162Y58609D01*
X50159Y63612D01*
X50159Y69514D01*
X50148Y69613D01*
X50146Y69714D01*
X50128Y69786D01*
X50119Y69860D01*
X50086Y69954D01*
X50061Y70052D01*
X50027Y70118D01*
X50002Y70188D01*
X49947Y70272D01*
X49901Y70362D01*
X49853Y70418D01*
X49813Y70481D01*
X49741Y70551D01*
X49675Y70627D01*
X49616Y70671D01*
X49562Y70723D01*
X49476Y70775D01*
X49395Y70834D01*
X49327Y70864D01*
X49263Y70902D01*
X49167Y70932D01*
X49075Y70972D01*
X49002Y70985D01*
X48931Y71008D01*
X48831Y71016D01*
X48732Y71034D01*
X48658Y71030D01*
X48584Y71036D01*
X48485Y71021D01*
X48384Y71016D01*
X48313Y70995D01*
X48239Y70984D01*
X48146Y70947D01*
X48049Y70919D01*
X47984Y70883D01*
X47915Y70856D01*
X47833Y70798D01*
X47745Y70749D01*
X47669Y70684D01*
X47629Y70657D01*
X47605Y70630D01*
X47561Y70592D01*
X46981Y70257D01*
X46335Y70084D01*
X38547Y70084D01*
X38547Y76953D01*
X48541Y76953D01*
X48541Y72747D01*
X48552Y72647D01*
X48554Y72546D01*
X48572Y72474D01*
X48581Y72400D01*
X48614Y72306D01*
X48639Y72208D01*
X48673Y72142D01*
X48698Y72072D01*
X48753Y71988D01*
X48799Y71899D01*
X48847Y71842D01*
X48887Y71779D01*
X48959Y71710D01*
X49024Y71633D01*
X49084Y71589D01*
X49138Y71537D01*
X49224Y71486D01*
X49305Y71426D01*
X49373Y71397D01*
X49437Y71358D01*
X49533Y71328D01*
X49625Y71288D01*
X49698Y71275D01*
X49769Y71252D01*
X49869Y71244D01*
X49968Y71226D01*
X50042Y71230D01*
X50116Y71224D01*
X50216Y71239D01*
X50316Y71244D01*
X50387Y71265D01*
X50461Y71276D01*
X50554Y71313D01*
X50651Y71341D01*
X50716Y71377D01*
X50785Y71405D01*
X50867Y71462D01*
X50955Y71511D01*
X51031Y71576D01*
X51071Y71604D01*
X51095Y71630D01*
X51141Y71669D01*
X55162Y75691D01*
X62238Y75691D01*
X67241Y70688D01*
X67241Y63612D01*
X62238Y58609D01*
X55162Y58609D01*
G37*
%LPD*%
%LPC*%
G36*
X338919Y164975D02*
X338919Y164975D01*
X335975Y167919D01*
X335975Y172081D01*
X337553Y173659D01*
X337632Y173758D01*
X337716Y173852D01*
X337740Y173894D01*
X337770Y173932D01*
X337824Y174046D01*
X337885Y174157D01*
X337898Y174204D01*
X337919Y174247D01*
X337945Y174371D01*
X337980Y174492D01*
X337985Y174553D01*
X337992Y174588D01*
X337991Y174636D01*
X337999Y174736D01*
X337999Y183436D01*
X337985Y183562D01*
X337978Y183688D01*
X337965Y183735D01*
X337959Y183783D01*
X337917Y183901D01*
X337882Y184023D01*
X337858Y184065D01*
X337842Y184111D01*
X337773Y184217D01*
X337712Y184327D01*
X337672Y184373D01*
X337653Y184403D01*
X337618Y184437D01*
X337553Y184513D01*
X336705Y185361D01*
X336705Y194639D01*
X337877Y195811D01*
X345123Y195811D01*
X346295Y194639D01*
X346295Y185361D01*
X345033Y184099D01*
X344989Y184082D01*
X344850Y184032D01*
X344828Y184018D01*
X344803Y184008D01*
X344682Y183923D01*
X344557Y183843D01*
X344539Y183824D01*
X344517Y183809D01*
X344418Y183699D01*
X344315Y183592D01*
X344301Y183570D01*
X344284Y183550D01*
X344212Y183420D01*
X344136Y183293D01*
X344128Y183268D01*
X344115Y183245D01*
X344075Y183102D01*
X344030Y182961D01*
X344028Y182935D01*
X344020Y182910D01*
X344001Y182666D01*
X344001Y174736D01*
X344015Y174611D01*
X344022Y174484D01*
X344035Y174438D01*
X344041Y174390D01*
X344083Y174271D01*
X344118Y174150D01*
X344142Y174107D01*
X344158Y174062D01*
X344227Y173956D01*
X344288Y173845D01*
X344328Y173799D01*
X344347Y173769D01*
X344382Y173736D01*
X344447Y173659D01*
X346025Y172081D01*
X346025Y167919D01*
X343081Y164975D01*
X338919Y164975D01*
G37*
%LPD*%
%LPC*%
G36*
X55162Y33209D02*
X55162Y33209D01*
X50159Y38212D01*
X50159Y45288D01*
X55162Y50291D01*
X62238Y50291D01*
X67241Y45288D01*
X67241Y38212D01*
X62238Y33209D01*
X55162Y33209D01*
G37*
%LPD*%
%LPC*%
G36*
X55162Y159709D02*
X55162Y159709D01*
X50159Y164712D01*
X50159Y171788D01*
X55162Y176791D01*
X62238Y176791D01*
X67241Y171788D01*
X67241Y164712D01*
X62238Y159709D01*
X55162Y159709D01*
G37*
%LPD*%
%LPC*%
G36*
X299919Y46975D02*
X299919Y46975D01*
X296975Y49919D01*
X296975Y54081D01*
X297834Y54940D01*
X297850Y54960D01*
X297870Y54977D01*
X297958Y55097D01*
X298050Y55213D01*
X298062Y55237D01*
X298077Y55258D01*
X298136Y55394D01*
X298199Y55528D01*
X298205Y55554D01*
X298215Y55578D01*
X298242Y55724D01*
X298273Y55869D01*
X298272Y55895D01*
X298277Y55921D01*
X298269Y56069D01*
X298267Y56217D01*
X298260Y56243D01*
X298259Y56269D01*
X298218Y56411D01*
X298182Y56555D01*
X298170Y56579D01*
X298162Y56604D01*
X298090Y56733D01*
X298022Y56865D01*
X298005Y56885D01*
X297992Y56908D01*
X297834Y57094D01*
X297761Y57167D01*
X296999Y59005D01*
X296999Y60995D01*
X297761Y62833D01*
X299167Y64239D01*
X301005Y65001D01*
X302995Y65001D01*
X304833Y64239D01*
X306239Y62833D01*
X307001Y60995D01*
X307001Y59005D01*
X306239Y57167D01*
X306166Y57094D01*
X306150Y57074D01*
X306130Y57057D01*
X306042Y56937D01*
X305950Y56821D01*
X305938Y56797D01*
X305923Y56776D01*
X305864Y56640D01*
X305801Y56506D01*
X305795Y56480D01*
X305785Y56456D01*
X305758Y56310D01*
X305727Y56165D01*
X305728Y56139D01*
X305723Y56113D01*
X305731Y55965D01*
X305733Y55817D01*
X305740Y55791D01*
X305741Y55765D01*
X305782Y55623D01*
X305818Y55479D01*
X305830Y55456D01*
X305838Y55430D01*
X305910Y55301D01*
X305978Y55169D01*
X305995Y55149D01*
X306008Y55126D01*
X306166Y54940D01*
X307025Y54081D01*
X307025Y49919D01*
X304081Y46975D01*
X299919Y46975D01*
G37*
%LPD*%
%LPC*%
G36*
X285005Y46999D02*
X285005Y46999D01*
X283167Y47761D01*
X281761Y49167D01*
X280999Y51005D01*
X280999Y52995D01*
X281761Y54833D01*
X281834Y54906D01*
X281850Y54926D01*
X281870Y54943D01*
X281958Y55063D01*
X282050Y55179D01*
X282062Y55203D01*
X282077Y55224D01*
X282136Y55360D01*
X282199Y55494D01*
X282205Y55520D01*
X282215Y55544D01*
X282242Y55690D01*
X282273Y55835D01*
X282272Y55861D01*
X282277Y55887D01*
X282269Y56035D01*
X282267Y56183D01*
X282260Y56209D01*
X282259Y56235D01*
X282218Y56377D01*
X282182Y56521D01*
X282170Y56544D01*
X282162Y56570D01*
X282090Y56699D01*
X282022Y56831D01*
X282005Y56851D01*
X281992Y56874D01*
X281834Y57060D01*
X280975Y57919D01*
X280975Y62081D01*
X283919Y65025D01*
X288081Y65025D01*
X291025Y62081D01*
X291025Y57919D01*
X290166Y57060D01*
X290150Y57040D01*
X290130Y57023D01*
X290042Y56903D01*
X289950Y56787D01*
X289938Y56763D01*
X289923Y56742D01*
X289864Y56606D01*
X289801Y56472D01*
X289795Y56446D01*
X289785Y56422D01*
X289758Y56276D01*
X289727Y56131D01*
X289728Y56105D01*
X289723Y56079D01*
X289731Y55931D01*
X289733Y55783D01*
X289740Y55757D01*
X289741Y55731D01*
X289782Y55589D01*
X289818Y55445D01*
X289830Y55421D01*
X289838Y55396D01*
X289910Y55267D01*
X289978Y55135D01*
X289995Y55115D01*
X290008Y55092D01*
X290166Y54906D01*
X290239Y54833D01*
X291001Y52995D01*
X291001Y51005D01*
X290239Y49167D01*
X288833Y47761D01*
X286995Y46999D01*
X285005Y46999D01*
G37*
%LPD*%
%LPC*%
G36*
X141247Y29047D02*
X141247Y29047D01*
X141247Y40541D01*
X144223Y40541D01*
X152741Y32023D01*
X152741Y29047D01*
X141247Y29047D01*
G37*
%LPD*%
%LPC*%
G36*
X141247Y187047D02*
X141247Y187047D01*
X141247Y198541D01*
X144223Y198541D01*
X152741Y190023D01*
X152741Y187047D01*
X141247Y187047D01*
G37*
%LPD*%
%LPC*%
G36*
X123659Y29047D02*
X123659Y29047D01*
X123659Y32023D01*
X132177Y40541D01*
X135153Y40541D01*
X135153Y29047D01*
X123659Y29047D01*
G37*
%LPD*%
%LPC*%
G36*
X123659Y187047D02*
X123659Y187047D01*
X123659Y190023D01*
X132177Y198541D01*
X135153Y198541D01*
X135153Y187047D01*
X123659Y187047D01*
G37*
%LPD*%
%LPC*%
G36*
X141247Y11459D02*
X141247Y11459D01*
X141247Y22953D01*
X152741Y22953D01*
X152741Y19977D01*
X144223Y11459D01*
X141247Y11459D01*
G37*
%LPD*%
%LPC*%
G36*
X141247Y169459D02*
X141247Y169459D01*
X141247Y180953D01*
X152741Y180953D01*
X152741Y177977D01*
X144223Y169459D01*
X141247Y169459D01*
G37*
%LPD*%
%LPC*%
G36*
X132177Y11459D02*
X132177Y11459D01*
X123659Y19977D01*
X123659Y22953D01*
X135153Y22953D01*
X135153Y11459D01*
X132177Y11459D01*
G37*
%LPD*%
%LPC*%
G36*
X132177Y169459D02*
X132177Y169459D01*
X123659Y177977D01*
X123659Y180953D01*
X135153Y180953D01*
X135153Y169459D01*
X132177Y169459D01*
G37*
%LPD*%
%LPC*%
G36*
X494569Y147539D02*
X494569Y147539D01*
X494569Y149735D01*
X501265Y156431D01*
X503461Y156431D01*
X503461Y147539D01*
X494569Y147539D01*
G37*
%LPD*%
%LPC*%
G36*
X494569Y16539D02*
X494569Y16539D01*
X494569Y18735D01*
X501265Y25431D01*
X503461Y25431D01*
X503461Y16539D01*
X494569Y16539D01*
G37*
%LPD*%
%LPC*%
G36*
X482539Y133569D02*
X482539Y133569D01*
X482539Y142461D01*
X491431Y142461D01*
X491431Y140265D01*
X484735Y133569D01*
X482539Y133569D01*
G37*
%LPD*%
%LPC*%
G36*
X501265Y133569D02*
X501265Y133569D01*
X494569Y140265D01*
X494569Y142461D01*
X503461Y142461D01*
X503461Y133569D01*
X501265Y133569D01*
G37*
%LPD*%
%LPC*%
G36*
X241999Y192999D02*
X241999Y192999D01*
X241999Y201041D01*
X245335Y201041D01*
X245981Y200868D01*
X246560Y200533D01*
X247033Y200060D01*
X247368Y199481D01*
X247541Y198835D01*
X247541Y192999D01*
X241999Y192999D01*
G37*
%LPD*%
%LPC*%
G36*
X230459Y192999D02*
X230459Y192999D01*
X230459Y198835D01*
X230632Y199481D01*
X230967Y200060D01*
X231440Y200533D01*
X232019Y200868D01*
X232665Y201041D01*
X236001Y201041D01*
X236001Y192999D01*
X230459Y192999D01*
G37*
%LPD*%
%LPC*%
G36*
X241999Y178959D02*
X241999Y178959D01*
X241999Y187001D01*
X247541Y187001D01*
X247541Y181165D01*
X247368Y180519D01*
X247033Y179940D01*
X246560Y179467D01*
X245981Y179132D01*
X245335Y178959D01*
X241999Y178959D01*
G37*
%LPD*%
%LPC*%
G36*
X232665Y178959D02*
X232665Y178959D01*
X232019Y179132D01*
X231440Y179467D01*
X230967Y179940D01*
X230632Y180519D01*
X230459Y181165D01*
X230459Y187001D01*
X236001Y187001D01*
X236001Y178959D01*
X232665Y178959D01*
G37*
%LPD*%
%LPC*%
G36*
X416429Y102117D02*
X416429Y102117D01*
X416429Y107833D01*
X418670Y107833D01*
X419316Y107660D01*
X419895Y107326D01*
X420399Y106822D01*
X420477Y106759D01*
X420550Y106689D01*
X420614Y106651D01*
X420672Y106605D01*
X420758Y106564D01*
X420751Y106535D01*
X420750Y106486D01*
X420741Y106437D01*
X420748Y106312D01*
X420746Y106187D01*
X420757Y106125D01*
X420759Y106089D01*
X420772Y106043D01*
X420790Y105946D01*
X420876Y105627D01*
X420876Y102117D01*
X416429Y102117D01*
G37*
%LPD*%
%LPC*%
G36*
X377692Y169429D02*
X377692Y169429D01*
X377692Y173876D01*
X381202Y173876D01*
X381848Y173703D01*
X382428Y173368D01*
X382901Y172895D01*
X383235Y172316D01*
X383408Y171670D01*
X383408Y169429D01*
X377692Y169429D01*
G37*
%LPD*%
%LPC*%
G36*
X416429Y92592D02*
X416429Y92592D01*
X416429Y98308D01*
X420876Y98308D01*
X420876Y94798D01*
X420703Y94152D01*
X420368Y93572D01*
X419895Y93099D01*
X419316Y92765D01*
X418670Y92592D01*
X416429Y92592D01*
G37*
%LPD*%
%LPC*%
G36*
X377692Y161174D02*
X377692Y161174D01*
X377692Y165621D01*
X383408Y165621D01*
X383408Y163380D01*
X383235Y162734D01*
X382901Y162155D01*
X382428Y161682D01*
X381848Y161347D01*
X381202Y161174D01*
X377692Y161174D01*
G37*
%LPD*%
%LPC*%
G36*
X410380Y92592D02*
X410380Y92592D01*
X409734Y92765D01*
X409155Y93099D01*
X408682Y93572D01*
X408347Y94152D01*
X408174Y94798D01*
X408174Y98308D01*
X412621Y98308D01*
X412621Y92592D01*
X410380Y92592D01*
G37*
%LPD*%
%LPC*%
G36*
X292959Y191999D02*
X292959Y191999D01*
X292959Y194335D01*
X293132Y194981D01*
X293467Y195560D01*
X293940Y196033D01*
X294519Y196368D01*
X295165Y196541D01*
X297501Y196541D01*
X297501Y191999D01*
X292959Y191999D01*
G37*
%LPD*%
%LPC*%
G36*
X295165Y183459D02*
X295165Y183459D01*
X294519Y183632D01*
X293940Y183967D01*
X293467Y184440D01*
X293132Y185019D01*
X292959Y185665D01*
X292959Y188001D01*
X297501Y188001D01*
X297501Y183459D01*
X295165Y183459D01*
G37*
%LPD*%
%LPC*%
G36*
X303023Y39023D02*
X303023Y39023D01*
X303023Y43851D01*
X304629Y43851D01*
X305275Y43678D01*
X305854Y43343D01*
X306327Y42870D01*
X306662Y42291D01*
X306835Y41645D01*
X306835Y39023D01*
X303023Y39023D01*
G37*
%LPD*%
%LPC*%
G36*
X303023Y31149D02*
X303023Y31149D01*
X303023Y35977D01*
X306835Y35977D01*
X306835Y33355D01*
X306662Y32709D01*
X306327Y32130D01*
X305854Y31657D01*
X305275Y31322D01*
X304629Y31149D01*
X303023Y31149D01*
G37*
%LPD*%
%LPC*%
G36*
X427523Y180149D02*
X427523Y180149D01*
X427523Y184977D01*
X431335Y184977D01*
X431335Y182355D01*
X431162Y181709D01*
X430827Y181130D01*
X430354Y180657D01*
X429775Y180322D01*
X429129Y180149D01*
X427523Y180149D01*
G37*
%LPD*%
%LPC*%
G36*
X129165Y138523D02*
X129165Y138523D01*
X129165Y141145D01*
X129338Y141791D01*
X129673Y142370D01*
X130146Y142843D01*
X130725Y143178D01*
X131371Y143351D01*
X132977Y143351D01*
X132977Y138523D01*
X129165Y138523D01*
G37*
%LPD*%
%LPC*%
G36*
X396665Y53023D02*
X396665Y53023D01*
X396665Y55645D01*
X396838Y56291D01*
X397173Y56870D01*
X397646Y57343D01*
X398225Y57678D01*
X398871Y57851D01*
X400477Y57851D01*
X400477Y53023D01*
X396665Y53023D01*
G37*
%LPD*%
%LPC*%
G36*
X264165Y134023D02*
X264165Y134023D01*
X264165Y136645D01*
X264338Y137291D01*
X264673Y137870D01*
X265146Y138343D01*
X265725Y138678D01*
X266371Y138851D01*
X267977Y138851D01*
X267977Y134023D01*
X264165Y134023D01*
G37*
%LPD*%
%LPC*%
G36*
X129165Y155523D02*
X129165Y155523D01*
X129165Y158145D01*
X129338Y158791D01*
X129673Y159370D01*
X130146Y159843D01*
X130725Y160178D01*
X131371Y160351D01*
X132977Y160351D01*
X132977Y155523D01*
X129165Y155523D01*
G37*
%LPD*%
%LPC*%
G36*
X129165Y104023D02*
X129165Y104023D01*
X129165Y106645D01*
X129338Y107291D01*
X129673Y107870D01*
X130146Y108343D01*
X130725Y108678D01*
X131371Y108851D01*
X132977Y108851D01*
X132977Y104023D01*
X129165Y104023D01*
G37*
%LPD*%
%LPC*%
G36*
X129165Y121523D02*
X129165Y121523D01*
X129165Y124145D01*
X129338Y124791D01*
X129673Y125370D01*
X130146Y125843D01*
X130725Y126178D01*
X131371Y126351D01*
X132977Y126351D01*
X132977Y121523D01*
X129165Y121523D01*
G37*
%LPD*%
%LPC*%
G36*
X131371Y147649D02*
X131371Y147649D01*
X130725Y147822D01*
X130146Y148157D01*
X129673Y148630D01*
X129338Y149209D01*
X129165Y149855D01*
X129165Y152477D01*
X132977Y152477D01*
X132977Y147649D01*
X131371Y147649D01*
G37*
%LPD*%
%LPC*%
G36*
X398871Y45149D02*
X398871Y45149D01*
X398225Y45322D01*
X397646Y45657D01*
X397173Y46130D01*
X396838Y46709D01*
X396665Y47355D01*
X396665Y49977D01*
X400477Y49977D01*
X400477Y45149D01*
X398871Y45149D01*
G37*
%LPD*%
%LPC*%
G36*
X131371Y130649D02*
X131371Y130649D01*
X130725Y130822D01*
X130146Y131157D01*
X129673Y131630D01*
X129338Y132209D01*
X129165Y132855D01*
X129165Y135477D01*
X132977Y135477D01*
X132977Y130649D01*
X131371Y130649D01*
G37*
%LPD*%
%LPC*%
G36*
X131371Y96149D02*
X131371Y96149D01*
X130725Y96322D01*
X130146Y96657D01*
X129673Y97130D01*
X129338Y97709D01*
X129165Y98355D01*
X129165Y100977D01*
X132977Y100977D01*
X132977Y96149D01*
X131371Y96149D01*
G37*
%LPD*%
%LPC*%
G36*
X131371Y113649D02*
X131371Y113649D01*
X130725Y113822D01*
X130146Y114157D01*
X129673Y114630D01*
X129338Y115209D01*
X129165Y115855D01*
X129165Y118477D01*
X132977Y118477D01*
X132977Y113649D01*
X131371Y113649D01*
G37*
%LPD*%
%LPC*%
G36*
X138199Y183999D02*
X138199Y183999D01*
X138199Y184001D01*
X138201Y184001D01*
X138201Y183999D01*
X138199Y183999D01*
G37*
%LPD*%
%LPC*%
G36*
X138199Y25999D02*
X138199Y25999D01*
X138199Y26001D01*
X138201Y26001D01*
X138201Y25999D01*
X138199Y25999D01*
G37*
%LPD*%
D10*
X282500Y150000D03*
X269500Y150000D03*
D11*
X196600Y60550D03*
X171200Y73250D03*
X196600Y85950D03*
X196600Y111350D03*
X196600Y136750D03*
X171200Y98650D03*
X171200Y124050D03*
X171200Y149450D03*
D12*
X138200Y184000D03*
X138200Y26000D03*
D13*
X58700Y168250D03*
X58700Y142850D03*
X58700Y67150D03*
X58700Y41750D03*
D10*
X147500Y102500D03*
X134500Y102500D03*
X282500Y163000D03*
X269500Y163000D03*
X147500Y120000D03*
X134500Y120000D03*
X147500Y137000D03*
X134500Y137000D03*
X147500Y154000D03*
X134500Y154000D03*
D14*
X506000Y145000D03*
X506000Y170400D03*
X506000Y195800D03*
X480000Y145000D03*
X480000Y170400D03*
X480000Y195800D03*
X506000Y14000D03*
X506000Y39400D03*
X506000Y64800D03*
X480000Y14000D03*
X480000Y39400D03*
X480000Y64800D03*
D15*
X299500Y190000D03*
X314500Y190000D03*
D16*
X40500Y105000D03*
X40500Y98500D03*
X40500Y111500D03*
X40500Y118000D03*
X40500Y92000D03*
D17*
X35500Y80000D03*
X35500Y130000D03*
D18*
X12500Y75500D03*
X12500Y134500D03*
D19*
X377500Y62500D03*
X372500Y62500D03*
X367500Y62500D03*
X362500Y62500D03*
X357500Y62500D03*
X352500Y62500D03*
X347500Y62500D03*
X342500Y62500D03*
X337500Y62500D03*
X332500Y62500D03*
X327500Y62500D03*
X322500Y62500D03*
D20*
X307500Y77500D03*
X307500Y82500D03*
X307500Y87500D03*
X307500Y92500D03*
X307500Y97500D03*
X307500Y102500D03*
X307500Y107500D03*
X307500Y112500D03*
X307500Y117500D03*
X307500Y122500D03*
X307500Y127500D03*
X307500Y132500D03*
D19*
X322500Y147500D03*
X327500Y147500D03*
X332500Y147500D03*
X337500Y147500D03*
X342500Y147500D03*
X347500Y147500D03*
X352500Y147500D03*
X357500Y147500D03*
X362500Y147500D03*
X367500Y147500D03*
X372500Y147500D03*
X377500Y147500D03*
D20*
X392500Y132500D03*
X392500Y127500D03*
X392500Y122500D03*
X392500Y117500D03*
X392500Y112500D03*
X392500Y107500D03*
X392500Y102500D03*
X392500Y97500D03*
X392500Y92500D03*
X392500Y87500D03*
X392500Y82500D03*
X392500Y77500D03*
D21*
X399800Y167525D03*
X375788Y167525D03*
X375788Y186475D03*
X399800Y186475D03*
D22*
X414525Y76200D03*
X414525Y100213D03*
X433475Y100213D03*
X433475Y76200D03*
D23*
X246100Y18500D03*
X246100Y28000D03*
X246100Y37500D03*
X272000Y37500D03*
X272000Y18500D03*
D10*
X288500Y37500D03*
X301500Y37500D03*
X341500Y190000D03*
X328500Y190000D03*
D24*
X239000Y190000D03*
X279000Y190000D03*
D10*
X415000Y51500D03*
X402000Y51500D03*
X413000Y186500D03*
X426000Y186500D03*
D25*
X286000Y52000D03*
X302000Y60000D03*
D10*
X282500Y132500D03*
X269500Y132500D03*
D26*
X419000Y167500D03*
X426000Y167500D03*
X412000Y167500D03*
D27*
X388000Y168000D03*
X457000Y184000D03*
X330000Y135000D03*
X253000Y53000D03*
X418000Y140000D03*
X426000Y176000D03*
X345000Y160000D03*
D28*
X377500Y157500D02*
X377500Y147500D01*
X372500Y147500D02*
X372500Y157500D01*
D27*
X293500Y107500D03*
X444000Y92000D03*
D29*
X272000Y18500D02*
X260500Y18500D01*
X260000Y18000D01*
X259000Y18000D01*
D27*
X259000Y18000D03*
X443000Y68000D03*
X400000Y198000D03*
D29*
X400000Y186675D02*
X399800Y186475D01*
X400000Y186675D02*
X400000Y198000D01*
D27*
X415000Y64000D03*
D29*
X433475Y76200D02*
X433675Y76000D01*
X433675Y67675D02*
X430000Y64000D01*
X433675Y67675D02*
X433675Y76000D01*
X430000Y64000D02*
X415000Y64000D01*
X434000Y68000D02*
X443000Y68000D01*
X434000Y68000D02*
X433675Y67675D01*
D28*
X413000Y186500D02*
X399825Y186500D01*
X399800Y186475D01*
X357500Y190000D02*
X357500Y147500D01*
X357500Y190000D02*
X369000Y201500D01*
X396500Y201500D01*
X400000Y198000D01*
X307500Y122500D02*
X248500Y122500D01*
X247000Y124000D01*
D27*
X247000Y124000D03*
D28*
X392500Y77500D02*
X400500Y77500D01*
X405000Y73000D01*
X405000Y69000D01*
X410000Y64000D01*
X415000Y64000D01*
X415000Y51500D01*
D27*
X197000Y182000D03*
D28*
X216000Y163000D01*
X269500Y163000D01*
D27*
X197000Y173000D03*
D28*
X211000Y159000D01*
X254000Y159000D01*
X263000Y150000D01*
X269500Y150000D01*
X202550Y149450D02*
X171200Y149450D01*
X166650Y154000D02*
X147500Y154000D01*
X166650Y154000D02*
X171200Y149450D01*
X202550Y149450D02*
X209500Y142500D01*
X243000Y97500D02*
X307500Y97500D01*
X243000Y97500D02*
X209500Y131000D01*
X209500Y142500D01*
X241000Y92500D02*
X307500Y92500D01*
X196750Y136750D02*
X196600Y136750D01*
X196350Y137000D02*
X147500Y137000D01*
X196350Y137000D02*
X196600Y136750D01*
X196750Y136750D02*
X241000Y92500D01*
X202450Y124050D02*
X171200Y124050D01*
X167150Y120000D02*
X147500Y120000D01*
X167150Y120000D02*
X171200Y124050D01*
X300500Y82500D02*
X307500Y82500D01*
X300500Y82500D02*
X295500Y87500D01*
X239000Y87500D02*
X202450Y124050D01*
X239000Y87500D02*
X295500Y87500D01*
X147500Y95500D02*
X147500Y102500D01*
X147500Y95500D02*
X157000Y86000D01*
X196550Y86000D01*
X196600Y85950D01*
X298500Y77500D02*
X307500Y77500D01*
X298500Y77500D02*
X293500Y82500D01*
X200050Y82500D01*
X196600Y85950D01*
X337500Y147500D02*
X337500Y155000D01*
X329500Y163000D01*
X282500Y163000D01*
X327500Y155000D02*
X327500Y147500D01*
X327500Y155000D02*
X323500Y159000D01*
X298000Y159000D02*
X289000Y150000D01*
X282500Y150000D01*
X298000Y159000D02*
X323500Y159000D01*
D27*
X349000Y49000D03*
D28*
X352500Y52500D02*
X352500Y62500D01*
X352500Y52500D02*
X349000Y49000D01*
D27*
X440000Y120000D03*
D28*
X352500Y147500D02*
X352500Y191500D01*
X422000Y206000D02*
X440000Y188000D01*
X440000Y120000D01*
X367000Y206000D02*
X352500Y191500D01*
X367000Y206000D02*
X422000Y206000D01*
D27*
X358000Y50000D03*
D28*
X357500Y50500D01*
X357500Y62500D01*
D27*
X378000Y51000D03*
D28*
X377500Y51500D01*
X377500Y62500D01*
X392500Y117500D02*
X401500Y117500D01*
D27*
X417000Y152706D03*
D28*
X410000Y126000D02*
X401500Y117500D01*
X410000Y145706D02*
X417000Y152706D01*
X410000Y145706D02*
X410000Y126000D01*
X400500Y127500D02*
X392500Y127500D01*
D27*
X412000Y159000D03*
D28*
X406000Y133000D02*
X400500Y127500D01*
X406000Y153000D02*
X412000Y159000D01*
X406000Y153000D02*
X406000Y133000D01*
X412000Y160000D02*
X412000Y167500D01*
X412000Y160000D02*
X412000Y159000D01*
X347500Y147500D02*
X347500Y140000D01*
X350500Y137000D01*
X381000Y137000D01*
X384000Y140000D01*
X400000Y140000D01*
D27*
X400000Y140000D03*
D28*
X402500Y107500D02*
X392500Y107500D01*
X402500Y107500D02*
X403000Y108000D01*
D27*
X403000Y108000D03*
D28*
X392500Y122500D02*
X382500Y122500D01*
X381500Y123500D01*
D27*
X381500Y123500D03*
D28*
X383500Y102500D02*
X392500Y102500D01*
D27*
X379000Y107000D03*
D28*
X383500Y102500D01*
X376500Y97500D02*
X392500Y97500D01*
X376500Y97500D02*
X375000Y99000D01*
D27*
X375000Y99000D03*
D28*
X369500Y92500D02*
X392500Y92500D01*
X369500Y92500D02*
X367000Y95000D01*
D27*
X367000Y95000D03*
D28*
X365500Y87500D02*
X392500Y87500D01*
X365500Y87500D02*
X358000Y95000D01*
D27*
X358000Y95000D03*
D28*
X385000Y112500D02*
X392500Y112500D01*
X385000Y112500D02*
X382500Y115000D01*
X382243Y115243D01*
D27*
X382243Y115243D03*
X372500Y78558D03*
D28*
X372500Y62500D01*
D27*
X363000Y79000D03*
D28*
X367500Y74500D02*
X367500Y62500D01*
X367500Y74500D02*
X363000Y79000D01*
X362500Y69500D02*
X362500Y62500D01*
X362500Y69500D02*
X357000Y75000D01*
X355000Y75000D01*
D27*
X355000Y75000D03*
D28*
X108500Y105000D02*
X40500Y105000D01*
X108500Y105000D02*
X172000Y41500D01*
X210000Y41500D01*
D27*
X241000Y63000D03*
D28*
X231500Y63000D02*
X210000Y41500D01*
X231500Y63000D02*
X241000Y63000D01*
X108500Y98500D02*
X40500Y98500D01*
X108500Y98500D02*
X170000Y37000D01*
X212000Y37000D01*
D27*
X249000Y70000D03*
D28*
X231000Y56000D02*
X212000Y37000D01*
X231000Y56000D02*
X244000Y56000D01*
X249000Y61000D01*
X249000Y70000D01*
X340000Y132500D02*
X392500Y132500D01*
X324000Y127500D02*
X307500Y127500D01*
X324000Y127500D02*
X335000Y127500D01*
X318500Y102500D02*
X307500Y102500D01*
X318500Y102500D02*
X324000Y108000D01*
X324000Y127500D01*
X335000Y127500D02*
X340000Y132500D01*
D27*
X363000Y11000D03*
D28*
X493600Y27000D02*
X506000Y39400D01*
X378000Y9000D02*
X374000Y5000D01*
X378000Y9000D02*
X435500Y9000D01*
X453500Y27000D01*
X493600Y27000D01*
X374000Y5000D02*
X369000Y5000D01*
X363000Y11000D01*
D27*
X371500Y11000D03*
D28*
X493200Y52000D02*
X506000Y64800D01*
X373500Y13000D02*
X371500Y11000D01*
X373500Y13000D02*
X433000Y13000D01*
X452000Y32000D01*
X460000Y32000D02*
X465000Y37000D01*
X460000Y32000D02*
X452000Y32000D01*
X465000Y37000D02*
X465000Y46000D01*
X471000Y52000D01*
X493200Y52000D01*
D27*
X337000Y11000D03*
D28*
X348000Y5000D02*
X360000Y17000D01*
X348000Y5000D02*
X342000Y5000D01*
X337000Y10000D01*
X337000Y11000D01*
X360000Y17000D02*
X431000Y17000D01*
X453000Y39000D01*
X456000Y39000D01*
D27*
X456000Y39000D03*
X345000Y11000D03*
D28*
X472800Y64800D02*
X480000Y64800D01*
X355000Y21000D02*
X345000Y11000D01*
X429000Y21000D02*
X472800Y64800D01*
X429000Y21000D02*
X355000Y21000D01*
D27*
X297000Y11000D03*
D28*
X452000Y142400D02*
X480000Y170400D01*
X452000Y142400D02*
X452000Y68000D01*
X421000Y37000D01*
X347000Y37000D01*
X339500Y29500D01*
X315500Y29500D01*
X297000Y11000D01*
D27*
X305000Y11000D03*
X459000Y140000D03*
D28*
X456000Y137000D01*
X456000Y66000D01*
X423000Y33000D01*
X349000Y33000D01*
X341500Y25500D01*
X319500Y25500D01*
X305000Y11000D01*
D27*
X325000Y11000D03*
X467000Y128000D03*
D28*
X464000Y62000D02*
X427000Y25000D01*
X464000Y125000D02*
X467000Y128000D01*
X464000Y125000D02*
X464000Y62000D01*
X427000Y25000D02*
X353000Y25000D01*
X345500Y17500D01*
X331500Y17500D02*
X325000Y11000D01*
X331500Y17500D02*
X345500Y17500D01*
D27*
X313000Y11000D03*
D28*
X493000Y157400D02*
X506000Y170400D01*
X467000Y138000D02*
X460000Y131000D01*
X460000Y64000D01*
X425000Y29000D01*
X467000Y138000D02*
X467000Y150000D01*
X474400Y157400D02*
X493000Y157400D01*
X474400Y157400D02*
X467000Y150000D01*
X425000Y29000D02*
X351000Y29000D01*
X343500Y21500D01*
X323500Y21500D01*
X313000Y11000D01*
D27*
X444000Y100000D03*
D28*
X443788Y100213D02*
X433475Y100213D01*
X443788Y100213D02*
X444000Y100000D01*
X426000Y109000D02*
X426000Y167500D01*
X433475Y101525D02*
X433475Y100213D01*
X433475Y101525D02*
X426000Y109000D01*
X288500Y37500D02*
X272000Y37500D01*
D30*
X105000Y92000D02*
X40500Y92000D01*
X245600Y19000D02*
X246100Y18500D01*
X245600Y19000D02*
X232000Y19000D01*
X232000Y37500D02*
X246100Y37500D01*
X232000Y37500D02*
X232000Y19000D01*
X178000Y19000D01*
X105000Y92000D01*
D28*
X314500Y190000D02*
X328500Y190000D01*
D27*
X341000Y170000D03*
D28*
X341000Y189500D01*
X341500Y190000D01*
D27*
X312000Y170000D03*
D28*
X295000Y170000D01*
X279000Y186000D01*
X279000Y190000D01*
D27*
X286000Y60000D03*
D28*
X286000Y52000D01*
D27*
X302000Y52000D03*
D28*
X302000Y60000D01*
X307500Y132500D02*
X282500Y132500D01*
X375788Y186475D02*
X377025Y186475D01*
X375788Y186475D02*
X383525Y186475D01*
X393000Y177000D01*
X367500Y154500D02*
X367500Y147500D01*
X367500Y154500D02*
X362500Y159500D01*
X362500Y183000D02*
X366000Y186500D01*
X366025Y186475D01*
X375788Y186475D01*
X362500Y183000D02*
X362500Y159500D01*
X414500Y177000D02*
X419000Y172500D01*
X419000Y167500D01*
X414500Y177000D02*
X393000Y177000D01*
M02*
