M48
;GenerationSoftware,Autodesk,EAGLE,9.0.1*%
;CreationDate,2018-07-25T07:37:31Z*%
FMAT,2
ICI,OFF
METRIC,TZ,000.000
T7C0.300
T6C0.800
T5C0.900
T4C1.016
T3C1.600
T2C3.150
%
G90
M71
T2
X10770Y4785
X10770Y16215
T3
X13820Y18400
X13820Y2600
T4
X48000Y6480
X50600Y14500
X50600Y17040
X50600Y19580
X48000Y14500
X48000Y17040
X48000Y19580
X50600Y1400
X50600Y3940
X50600Y6480
X48000Y1400
X48000Y3940
T5
X19660Y6055
X17120Y7325
X17120Y12405
X19660Y8595
X19660Y11135
X19660Y13675
X17120Y14945
X17120Y9865
T6
X5870Y16825
X5870Y14285
X5870Y6715
X5870Y4175
T7
X31200Y17000
X29700Y1100
X30500Y1100
X45900Y14000
X32500Y1100
X46700Y12800
X31300Y1100
X44400Y10000
X34100Y17000
X28600Y6000
X30200Y5200
X34500Y1100
X44300Y6800
X37800Y5100
X35800Y5000
X44000Y12000
X34900Y4900
X19700Y17300
X19700Y18200
X24700Y12400
X41500Y6400
X40000Y19800
X41700Y15271
X25900Y1800
X44400Y9200
X29350Y10750
X34500Y16000
X42600Y17600
X41800Y14000
X25300Y5300
X33000Y13500
X45700Y18400
X38224Y11524
X45600Y3900
X33700Y1100
X37150Y1100
X36300Y1100
X24900Y7000
X24100Y6300
X35500Y7500
X36300Y7900
X37250Y7856
X38800Y16800
X35800Y9500
X36700Y9500
X37500Y9900
X37900Y10700
X38150Y12350
X40300Y10800
X40000Y14000
X41200Y15900
M30