G04 EAGLE Gerber X2 export*
G75*
%MOMM*%
%FSLAX34Y34*%
%LPD*%
%AMOC8*
5,1,8,0,0,1.08239X$1,22.5*%
G01*
%ADD10C,0.076200*%
%ADD11C,0.200000*%
%ADD12C,0.127000*%
%ADD13C,0.400000*%
%ADD14C,0.010000*%
%ADD15C,0.100000*%
%ADD16C,0.050000*%


D10*
X118927Y18253D02*
X121384Y18253D01*
X122613Y19482D01*
X122613Y21939D01*
X121384Y23168D01*
X118927Y23168D01*
X117698Y21939D01*
X117698Y20710D01*
X122613Y20710D01*
X113900Y19482D02*
X113900Y24397D01*
X113900Y19482D02*
X112671Y18253D01*
X112671Y23168D02*
X115129Y23168D01*
X110139Y25625D02*
X110139Y18253D01*
X110139Y21939D02*
X108911Y23168D01*
X106453Y23168D01*
X105224Y21939D01*
X105224Y18253D01*
X102655Y21939D02*
X97740Y21939D01*
X95171Y23168D02*
X95171Y19482D01*
X93942Y18253D01*
X90256Y18253D01*
X90256Y23168D01*
X86458Y23168D02*
X84001Y23168D01*
X82772Y21939D01*
X82772Y18253D01*
X86458Y18253D01*
X87687Y19482D01*
X86458Y20710D01*
X82772Y20710D01*
X80203Y18253D02*
X80203Y23168D01*
X80203Y20710D02*
X77745Y23168D01*
X76517Y23168D01*
X72737Y24397D02*
X72737Y19482D01*
X71508Y18253D01*
X71508Y23168D02*
X73966Y23168D01*
X61492Y23168D02*
X59035Y18253D01*
X56577Y23168D01*
X54008Y23168D02*
X51551Y25625D01*
X51551Y18253D01*
X54008Y18253D02*
X49093Y18253D01*
X46524Y18253D02*
X46524Y19482D01*
X45295Y19482D01*
X45295Y18253D01*
X46524Y18253D01*
X42782Y19482D02*
X42782Y24397D01*
X41553Y25625D01*
X39096Y25625D01*
X37867Y24397D01*
X37867Y19482D01*
X39096Y18253D01*
X41553Y18253D01*
X42782Y19482D01*
X37867Y24397D01*
X118927Y3604D02*
X120155Y3604D01*
X118927Y3604D02*
X117698Y4832D01*
X117698Y10976D01*
X121384Y10976D01*
X122613Y9747D01*
X122613Y7290D01*
X121384Y6061D01*
X117698Y6061D01*
X115129Y10976D02*
X113900Y10976D01*
X113900Y6061D01*
X115129Y6061D02*
X112671Y6061D01*
X113900Y13433D02*
X113900Y14662D01*
X108911Y12205D02*
X108911Y7290D01*
X107682Y6061D01*
X107682Y10976D02*
X110139Y10976D01*
X105150Y13433D02*
X105150Y6061D01*
X105150Y9747D02*
X103921Y10976D01*
X101464Y10976D01*
X100235Y9747D01*
X100235Y6061D01*
X97666Y7290D02*
X97666Y10976D01*
X97666Y7290D02*
X96437Y6061D01*
X92751Y6061D01*
X92751Y10976D01*
X90182Y13433D02*
X90182Y6061D01*
X86495Y6061D01*
X85267Y7290D01*
X85267Y9747D01*
X86495Y10976D01*
X90182Y10976D01*
X82697Y7290D02*
X82697Y6061D01*
X82697Y7290D02*
X81469Y7290D01*
X81469Y6061D01*
X82697Y6061D01*
X77727Y10976D02*
X74040Y10976D01*
X77727Y10976D02*
X78955Y9747D01*
X78955Y7290D01*
X77727Y6061D01*
X74040Y6061D01*
X70242Y6061D02*
X67785Y6061D01*
X66556Y7290D01*
X66556Y9747D01*
X67785Y10976D01*
X70242Y10976D01*
X71471Y9747D01*
X71471Y7290D01*
X70242Y6061D01*
X63987Y6061D02*
X63987Y10976D01*
X62758Y10976D01*
X61530Y9747D01*
X61530Y6061D01*
X61530Y9747D02*
X60301Y10976D01*
X59072Y9747D01*
X59072Y6061D01*
X56503Y6061D02*
X51588Y13433D01*
X49019Y10976D02*
X49019Y6061D01*
X49019Y10976D02*
X45333Y10976D01*
X44104Y9747D01*
X44104Y6061D01*
X40306Y6061D02*
X37848Y6061D01*
X40306Y6061D02*
X41535Y7290D01*
X41535Y9747D01*
X40306Y10976D01*
X37848Y10976D01*
X36620Y9747D01*
X36620Y8518D01*
X41535Y8518D01*
X32822Y7290D02*
X32822Y12205D01*
X32822Y7290D02*
X31593Y6061D01*
X31593Y10976D02*
X34050Y10976D01*
X27832Y10976D02*
X24146Y10976D01*
X27832Y10976D02*
X29061Y9747D01*
X29061Y7290D01*
X27832Y6061D01*
X24146Y6061D01*
X20348Y10976D02*
X17891Y10976D01*
X16662Y9747D01*
X16662Y6061D01*
X20348Y6061D01*
X21577Y7290D01*
X20348Y8518D01*
X16662Y8518D01*
X12864Y7290D02*
X12864Y12205D01*
X12864Y7290D02*
X11635Y6061D01*
X11635Y10976D02*
X14093Y10976D01*
X9103Y10976D02*
X9103Y7290D01*
X7874Y6061D01*
X4188Y6061D01*
X4188Y10976D01*
D11*
X414500Y173000D02*
X414500Y175000D01*
X414500Y173000D02*
X416500Y173000D01*
X416500Y175000D01*
X414500Y175000D01*
X421500Y162000D02*
X421500Y160000D01*
X423500Y160000D01*
X423500Y162000D01*
X421500Y162000D01*
D10*
X448082Y164625D02*
X448082Y157253D01*
X445625Y162168D02*
X448082Y164625D01*
X445625Y162168D02*
X443167Y164625D01*
X443167Y157253D01*
X440598Y157253D02*
X438140Y157253D01*
X439369Y157253D02*
X439369Y164625D01*
X440598Y164625D02*
X438140Y164625D01*
X435608Y157253D02*
X433151Y157253D01*
X434380Y157253D02*
X434380Y164625D01*
X435608Y164625D02*
X433151Y164625D01*
X455566Y167753D02*
X455566Y175125D01*
X451880Y175125D01*
X450651Y173897D01*
X450651Y171439D01*
X451880Y170210D01*
X455566Y170210D01*
X453109Y170210D02*
X450651Y167753D01*
X448082Y167753D02*
X448082Y175125D01*
X445625Y172668D01*
X443167Y175125D01*
X443167Y167753D01*
X440598Y167753D02*
X438140Y167753D01*
X439369Y167753D02*
X439369Y175125D01*
X440598Y175125D02*
X438140Y175125D01*
X435608Y167753D02*
X433151Y167753D01*
X434380Y167753D02*
X434380Y175125D01*
X435608Y175125D02*
X433151Y175125D01*
D12*
X278196Y152240D02*
X273804Y152240D01*
X273804Y147760D02*
X278196Y147760D01*
D10*
X303969Y146001D02*
X303969Y153373D01*
X300283Y153373D01*
X299054Y152145D01*
X299054Y149687D01*
X300283Y148458D01*
X303969Y148458D01*
X301512Y148458D02*
X299054Y146001D01*
X296485Y153373D02*
X291570Y153373D01*
X296485Y153373D02*
X296485Y149687D01*
X294027Y150916D01*
X292799Y150916D01*
X291570Y149687D01*
X291570Y147230D01*
X292799Y146001D01*
X295256Y146001D01*
X296485Y147230D01*
D12*
X143196Y104740D02*
X138804Y104740D01*
X138804Y100260D02*
X143196Y100260D01*
D10*
X147283Y73873D02*
X146054Y72645D01*
X147283Y73873D02*
X149740Y73873D01*
X150969Y72645D01*
X150969Y67730D01*
X149740Y66501D01*
X147283Y66501D01*
X146054Y67730D01*
X143485Y72645D02*
X142256Y73873D01*
X139799Y73873D01*
X138570Y72645D01*
X138570Y71416D01*
X139799Y70187D01*
X141027Y70187D01*
X139799Y70187D02*
X138570Y68958D01*
X138570Y67730D01*
X139799Y66501D01*
X142256Y66501D01*
X143485Y67730D01*
D12*
X273804Y165240D02*
X278196Y165240D01*
X278196Y160760D02*
X273804Y160760D01*
D10*
X303969Y159001D02*
X303969Y166373D01*
X300283Y166373D01*
X299054Y165145D01*
X299054Y162687D01*
X300283Y161458D01*
X303969Y161458D01*
X301512Y161458D02*
X299054Y159001D01*
X296485Y165145D02*
X295256Y166373D01*
X292799Y166373D01*
X291570Y165145D01*
X291570Y163916D01*
X292799Y162687D01*
X294027Y162687D01*
X292799Y162687D02*
X291570Y161458D01*
X291570Y160230D01*
X292799Y159001D01*
X295256Y159001D01*
X296485Y160230D01*
D12*
X143196Y122240D02*
X138804Y122240D01*
X138804Y117760D02*
X143196Y117760D01*
D10*
X143283Y88373D02*
X142054Y87145D01*
X143283Y88373D02*
X145740Y88373D01*
X146969Y87145D01*
X146969Y82230D01*
X145740Y81001D01*
X143283Y81001D01*
X142054Y82230D01*
X135799Y81001D02*
X135799Y88373D01*
X139485Y84687D01*
X134570Y84687D01*
D12*
X138804Y139240D02*
X143196Y139240D01*
X143196Y134760D02*
X138804Y134760D01*
D10*
X160554Y172145D02*
X161783Y173373D01*
X164240Y173373D01*
X165469Y172145D01*
X165469Y167230D01*
X164240Y166001D01*
X161783Y166001D01*
X160554Y167230D01*
X157985Y173373D02*
X153070Y173373D01*
X157985Y173373D02*
X157985Y169687D01*
X155527Y170916D01*
X154299Y170916D01*
X153070Y169687D01*
X153070Y167230D01*
X154299Y166001D01*
X156756Y166001D01*
X157985Y167230D01*
D12*
X143196Y156240D02*
X138804Y156240D01*
X138804Y151760D02*
X143196Y151760D01*
D10*
X165554Y185145D02*
X166783Y186373D01*
X169240Y186373D01*
X170469Y185145D01*
X170469Y180230D01*
X169240Y179001D01*
X166783Y179001D01*
X165554Y180230D01*
X160527Y185145D02*
X158070Y186373D01*
X160527Y185145D02*
X162985Y182687D01*
X162985Y180230D01*
X161756Y179001D01*
X159299Y179001D01*
X158070Y180230D01*
X158070Y181458D01*
X159299Y182687D01*
X162985Y182687D01*
D12*
X305730Y190000D02*
X308270Y191270D01*
X308270Y188730D01*
X305730Y190000D01*
X305730Y195080D02*
X308270Y195080D01*
X308270Y184920D02*
X305730Y184920D01*
D10*
X319206Y197903D02*
X319206Y205275D01*
X319206Y197903D02*
X314291Y197903D01*
X311721Y205275D02*
X306807Y205275D01*
X311721Y205275D02*
X311721Y197903D01*
X306807Y197903D01*
X309264Y201589D02*
X311721Y201589D01*
X304237Y205275D02*
X304237Y197903D01*
X300551Y197903D01*
X299322Y199132D01*
X299322Y204047D01*
X300551Y205275D01*
X304237Y205275D01*
X296753Y204047D02*
X295524Y205275D01*
X293067Y205275D01*
X291838Y204047D01*
X291838Y202818D01*
X293067Y201589D01*
X294296Y201589D01*
X293067Y201589D02*
X291838Y200360D01*
X291838Y199132D01*
X293067Y197903D01*
X295524Y197903D01*
X296753Y199132D01*
D12*
X50600Y143100D02*
X50600Y66900D01*
X-200Y66900D02*
X-200Y143100D01*
X25200Y66900D02*
X50600Y66900D01*
X50600Y143100D02*
X25200Y143100D01*
D10*
X20119Y57753D02*
X15204Y50381D01*
X20119Y50381D02*
X15204Y57753D01*
X12635Y57753D02*
X7720Y57753D01*
X12635Y57753D02*
X12635Y54067D01*
X10177Y55296D01*
X8949Y55296D01*
X7720Y54067D01*
X7720Y51610D01*
X8949Y50381D01*
X11406Y50381D01*
X12635Y51610D01*
D12*
X381000Y138750D02*
X383750Y136000D01*
X319000Y138750D02*
X316250Y136000D01*
X316250Y74000D02*
X319000Y71250D01*
X381000Y71250D02*
X383750Y74000D01*
D13*
X377500Y48500D03*
D10*
X403140Y143881D02*
X405598Y143881D01*
X404369Y143881D02*
X404369Y151253D01*
X405598Y151253D02*
X403140Y151253D01*
X396922Y151253D02*
X395694Y150025D01*
X396922Y151253D02*
X399380Y151253D01*
X400608Y150025D01*
X400608Y145110D01*
X399380Y143881D01*
X396922Y143881D01*
X395694Y145110D01*
X393124Y143881D02*
X388209Y143881D01*
X393124Y143881D02*
X388209Y148796D01*
X388209Y150025D01*
X389438Y151253D01*
X391896Y151253D01*
X393124Y150025D01*
D12*
X393247Y191113D02*
X382341Y191113D01*
X405625Y181263D02*
X405625Y172738D01*
X369963Y172738D02*
X369963Y181263D01*
X382341Y162888D02*
X393247Y162888D01*
D13*
X399500Y159000D03*
D10*
X388167Y202305D02*
X385710Y202305D01*
X388167Y202305D02*
X389396Y201077D01*
X389396Y196162D01*
X388167Y194933D01*
X385710Y194933D01*
X384481Y196162D01*
X384481Y201077D01*
X385710Y202305D01*
X378225Y202305D02*
X376997Y201077D01*
X378225Y202305D02*
X380683Y202305D01*
X381911Y201077D01*
X381911Y199848D01*
X380683Y198619D01*
X378225Y198619D01*
X376997Y197390D01*
X376997Y196162D01*
X378225Y194933D01*
X380683Y194933D01*
X381911Y196162D01*
X370741Y202305D02*
X369512Y201077D01*
X370741Y202305D02*
X373199Y202305D01*
X374427Y201077D01*
X374427Y196162D01*
X373199Y194933D01*
X370741Y194933D01*
X369512Y196162D01*
X366943Y194933D02*
X362028Y194933D01*
X366943Y194933D02*
X362028Y199848D01*
X362028Y201077D01*
X363257Y202305D01*
X365714Y202305D01*
X366943Y201077D01*
D12*
X438113Y93659D02*
X438113Y82753D01*
X428263Y70375D02*
X419738Y70375D01*
X419738Y106038D02*
X428263Y106038D01*
X409888Y93659D02*
X409888Y82753D01*
D13*
X406000Y76500D03*
D10*
X434210Y117805D02*
X436667Y117805D01*
X437896Y116577D01*
X437896Y111662D01*
X436667Y110433D01*
X434210Y110433D01*
X432981Y111662D01*
X432981Y116577D01*
X434210Y117805D01*
X426725Y117805D02*
X425497Y116577D01*
X426725Y117805D02*
X429183Y117805D01*
X430411Y116577D01*
X430411Y115348D01*
X429183Y114119D01*
X426725Y114119D01*
X425497Y112890D01*
X425497Y111662D01*
X426725Y110433D01*
X429183Y110433D01*
X430411Y111662D01*
X419241Y117805D02*
X418012Y116577D01*
X419241Y117805D02*
X421699Y117805D01*
X422927Y116577D01*
X422927Y111662D01*
X421699Y110433D01*
X419241Y110433D01*
X418012Y111662D01*
X415443Y115348D02*
X412986Y117805D01*
X412986Y110433D01*
X415443Y110433D02*
X410528Y110433D01*
D14*
X246100Y28000D02*
X246000Y28000D01*
D12*
X253540Y42200D02*
X264460Y42200D01*
X264460Y13800D02*
X253540Y13800D01*
X266620Y24190D02*
X266620Y31810D01*
D10*
X233877Y14353D02*
X231419Y14353D01*
X232648Y14353D02*
X232648Y21725D01*
X233877Y21725D02*
X231419Y21725D01*
X225201Y21725D02*
X223972Y20497D01*
X225201Y21725D02*
X227659Y21725D01*
X228887Y20497D01*
X228887Y15582D01*
X227659Y14353D01*
X225201Y14353D01*
X223972Y15582D01*
X221403Y20497D02*
X220174Y21725D01*
X217717Y21725D01*
X216488Y20497D01*
X216488Y19268D01*
X217717Y18039D01*
X218946Y18039D01*
X217717Y18039D02*
X216488Y16810D01*
X216488Y15582D01*
X217717Y14353D01*
X220174Y14353D01*
X221403Y15582D01*
D12*
X292804Y35260D02*
X297196Y35260D01*
X297196Y39740D02*
X292804Y39740D01*
D10*
X297051Y30005D02*
X295822Y28777D01*
X297051Y30005D02*
X299509Y30005D01*
X300737Y28777D01*
X300737Y23862D01*
X299509Y22633D01*
X297051Y22633D01*
X295822Y23862D01*
X293253Y27548D02*
X290796Y30005D01*
X290796Y22633D01*
X293253Y22633D02*
X288338Y22633D01*
D12*
X332804Y192240D02*
X337196Y192240D01*
X337196Y187760D02*
X332804Y187760D01*
D10*
X333969Y182373D02*
X333969Y175001D01*
X333969Y182373D02*
X330283Y182373D01*
X329054Y181145D01*
X329054Y178687D01*
X330283Y177458D01*
X333969Y177458D01*
X331512Y177458D02*
X329054Y175001D01*
X326485Y176230D02*
X325256Y175001D01*
X322799Y175001D01*
X321570Y176230D01*
X321570Y181145D01*
X322799Y182373D01*
X325256Y182373D01*
X326485Y181145D01*
X326485Y179916D01*
X325256Y178687D01*
X321570Y178687D01*
D12*
X279000Y202000D02*
X239000Y202000D01*
X239000Y178000D02*
X279000Y178000D01*
D10*
X251385Y173625D02*
X250157Y172397D01*
X251385Y173625D02*
X253843Y173625D01*
X255071Y172397D01*
X255071Y171168D01*
X253843Y169939D01*
X251385Y169939D01*
X250157Y168710D01*
X250157Y167482D01*
X251385Y166253D01*
X253843Y166253D01*
X255071Y167482D01*
X247587Y166253D02*
X247587Y173625D01*
X245130Y168710D02*
X247587Y166253D01*
X245130Y168710D02*
X242672Y166253D01*
X242672Y173625D01*
X240103Y171168D02*
X237646Y173625D01*
X237646Y166253D01*
X240103Y166253D02*
X235188Y166253D01*
D12*
X406304Y53740D02*
X410696Y53740D01*
X410696Y49260D02*
X406304Y49260D01*
D10*
X413054Y41645D02*
X414283Y42873D01*
X416740Y42873D01*
X417969Y41645D01*
X417969Y36730D01*
X416740Y35501D01*
X414283Y35501D01*
X413054Y36730D01*
X410485Y40416D02*
X408027Y42873D01*
X408027Y35501D01*
X405570Y35501D02*
X410485Y35501D01*
X403001Y40416D02*
X400543Y42873D01*
X400543Y35501D01*
X398086Y35501D02*
X403001Y35501D01*
D12*
X417304Y184260D02*
X421696Y184260D01*
X421696Y188740D02*
X417304Y188740D01*
D10*
X425054Y201145D02*
X426283Y202373D01*
X428740Y202373D01*
X429969Y201145D01*
X429969Y196230D01*
X428740Y195001D01*
X426283Y195001D01*
X425054Y196230D01*
X422485Y199916D02*
X420027Y202373D01*
X420027Y195001D01*
X417570Y195001D02*
X422485Y195001D01*
X415001Y195001D02*
X410086Y195001D01*
X415001Y195001D02*
X410086Y199916D01*
X410086Y201145D01*
X411315Y202373D01*
X413772Y202373D01*
X415001Y201145D01*
X271752Y52865D02*
X271752Y50407D01*
X271752Y51636D02*
X279124Y51636D01*
X279124Y50407D02*
X279124Y52865D01*
X279124Y56626D02*
X279124Y59083D01*
X279124Y56626D02*
X277896Y55397D01*
X272981Y55397D01*
X271752Y56626D01*
X271752Y59083D01*
X272981Y60312D01*
X277896Y60312D01*
X279124Y59083D01*
X314026Y52296D02*
X315254Y51067D01*
X315254Y48610D01*
X314026Y47381D01*
X309111Y47381D01*
X307882Y48610D01*
X307882Y51067D01*
X309111Y52296D01*
X307882Y54865D02*
X315254Y54865D01*
X307882Y54865D02*
X307882Y59780D01*
X307882Y62349D02*
X315254Y62349D01*
X310339Y62349D02*
X315254Y67264D01*
X311568Y63578D02*
X307882Y67264D01*
D12*
X278196Y134740D02*
X273804Y134740D01*
X273804Y130260D02*
X278196Y130260D01*
D10*
X258969Y129501D02*
X258969Y136873D01*
X255283Y136873D01*
X254054Y135645D01*
X254054Y133187D01*
X255283Y131958D01*
X258969Y131958D01*
X256512Y131958D02*
X254054Y129501D01*
X251485Y134416D02*
X249027Y136873D01*
X249027Y129501D01*
X246570Y129501D02*
X251485Y129501D01*
X244001Y130730D02*
X244001Y135645D01*
X242772Y136873D01*
X240315Y136873D01*
X239086Y135645D01*
X239086Y130730D01*
X240315Y129501D01*
X242772Y129501D01*
X244001Y130730D01*
X239086Y135645D01*
D15*
X121300Y115100D02*
X121060Y116077D01*
X120797Y117048D01*
X120512Y118012D01*
X120204Y118969D01*
X119874Y119919D01*
X119522Y120861D01*
X119149Y121795D01*
X118753Y122720D01*
X118337Y123635D01*
X117899Y124540D01*
X117440Y125435D01*
X116960Y126319D01*
X116460Y127191D01*
X115940Y128052D01*
X115400Y128900D01*
X121300Y115099D02*
X121583Y113866D01*
X121838Y112626D01*
X122067Y111382D01*
X122268Y110132D01*
X122442Y108879D01*
X122589Y107622D01*
X122708Y106362D01*
X122800Y105100D01*
X122799Y105100D02*
X122853Y104238D01*
X122887Y103375D01*
X122903Y102512D01*
X122900Y101648D01*
X122878Y100785D01*
X122837Y99922D01*
X122778Y99061D01*
X122699Y98201D01*
X69501Y113800D02*
X69175Y114776D01*
X68873Y115759D01*
X68594Y116750D01*
X68340Y117747D01*
X68109Y118750D01*
X67902Y119757D01*
X67720Y120770D01*
X67561Y121787D01*
X67427Y122807D01*
X67318Y123830D01*
X67233Y124855D01*
X67172Y125883D01*
X67136Y126911D01*
X67125Y127940D01*
X67138Y128969D01*
X67176Y129997D01*
X67239Y131024D01*
X67326Y132049D01*
X67437Y133072D01*
X67573Y134092D01*
X67734Y135108D01*
X67918Y136120D01*
X68127Y137128D01*
X68360Y138130D01*
X68616Y139127D01*
X68897Y140117D01*
X69201Y141100D01*
X102500Y88001D02*
X103516Y88225D01*
X104526Y88474D01*
X105531Y88747D01*
X106528Y89043D01*
X107518Y89364D01*
X108500Y89707D01*
X109473Y90074D01*
X110438Y90465D01*
X111393Y90877D01*
X112338Y91313D01*
X113272Y91771D01*
X114195Y92251D01*
X115106Y92753D01*
X116005Y93276D01*
X116892Y93821D01*
X117765Y94386D01*
X118625Y94972D01*
X119470Y95579D01*
X120301Y96205D01*
X121116Y96851D01*
X121916Y97516D01*
X122700Y98200D01*
X102399Y88000D02*
X101707Y87859D01*
X101012Y87734D01*
X100315Y87623D01*
X99615Y87528D01*
X98913Y87448D01*
X98210Y87383D01*
X97505Y87334D01*
X96800Y87300D01*
X96700Y87300D02*
X96064Y87252D01*
X95426Y87217D01*
X94788Y87196D01*
X94150Y87189D01*
X93512Y87196D01*
X92874Y87217D01*
X92236Y87252D01*
X91600Y87300D01*
X89944Y87415D01*
X88292Y87568D01*
X86644Y87760D01*
X85001Y87990D01*
X83363Y88259D01*
X81732Y88565D01*
X80109Y88909D01*
X78494Y89291D01*
X76889Y89711D01*
X75293Y90167D01*
X73709Y90661D01*
X72137Y91191D01*
X70577Y91758D01*
X69031Y92361D01*
X67500Y93000D01*
X67442Y94675D01*
X67423Y96350D01*
X67443Y98025D01*
X67502Y99700D01*
X67600Y101372D01*
X67737Y103042D01*
X67913Y104709D01*
X68127Y106370D01*
X68380Y108027D01*
X68672Y109677D01*
X69001Y111319D01*
X69369Y112954D01*
X69775Y114579D01*
X70219Y116195D01*
X70700Y117800D01*
X86500Y129600D02*
X86012Y130212D01*
X85509Y130812D01*
X84992Y131400D01*
X84461Y131976D01*
X83917Y132538D01*
X83359Y133088D01*
X82789Y133624D01*
X82205Y134146D01*
X81610Y134654D01*
X81002Y135148D01*
X80383Y135627D01*
X79752Y136091D01*
X79111Y136540D01*
X78459Y136973D01*
X77797Y137391D01*
X77125Y137793D01*
X76443Y138178D01*
X75753Y138547D01*
X75054Y138900D01*
X74347Y139236D01*
X73632Y139554D01*
X72909Y139856D01*
X72180Y140140D01*
X71443Y140407D01*
X70701Y140656D01*
X69953Y140887D01*
X69200Y141100D01*
X86500Y129600D02*
X86642Y129701D01*
X86786Y129799D01*
X86932Y129893D01*
X87081Y129983D01*
X87231Y130070D01*
X87384Y130154D01*
X87539Y130233D01*
X87696Y130309D01*
X87854Y130381D01*
X88014Y130450D01*
X88176Y130514D01*
X88339Y130575D01*
X88503Y130632D01*
X88669Y130684D01*
X88836Y130733D01*
X89004Y130778D01*
X89173Y130819D01*
X89343Y130855D01*
X89514Y130888D01*
X89686Y130916D01*
X89858Y130941D01*
X90031Y130961D01*
X90204Y130977D01*
X90378Y130989D01*
X90552Y130997D01*
X90726Y131001D01*
X90900Y131000D01*
D16*
X82000Y134300D02*
X81690Y134498D01*
X81375Y134688D01*
X81056Y134871D01*
X80732Y135046D01*
X80405Y135213D01*
X80074Y135373D01*
X79738Y135524D01*
X79400Y135668D01*
X79058Y135804D01*
X78713Y135931D01*
X78365Y136050D01*
X78014Y136161D01*
X77661Y136263D01*
X77305Y136357D01*
X76947Y136443D01*
X76587Y136520D01*
X76226Y136588D01*
X75863Y136648D01*
X75499Y136699D01*
X75133Y136741D01*
X74767Y136775D01*
X74400Y136800D01*
D15*
X90901Y131000D02*
X91477Y131555D01*
X92066Y132097D01*
X92668Y132624D01*
X93283Y133137D01*
X93909Y133636D01*
X94547Y134119D01*
X95197Y134587D01*
X95857Y135039D01*
X96528Y135475D01*
X97209Y135896D01*
X97900Y136300D01*
X98481Y136581D01*
X99069Y136848D01*
X99664Y137100D01*
X100264Y137339D01*
X100870Y137563D01*
X101480Y137773D01*
X102096Y137968D01*
X102716Y138148D01*
X103340Y138314D01*
X103968Y138465D01*
X104600Y138600D01*
X104477Y138189D01*
X104344Y137781D01*
X104202Y137377D01*
X104050Y136975D01*
X103889Y136578D01*
X103718Y136185D01*
X103538Y135795D01*
X103349Y135410D01*
X103150Y135030D01*
X102943Y134655D01*
X102727Y134284D01*
X102502Y133919D01*
X102268Y133559D01*
X102026Y133205D01*
X101775Y132857D01*
X101516Y132515D01*
X101250Y132179D01*
X100975Y131850D01*
X100692Y131527D01*
X100402Y131211D01*
X100105Y130902D01*
X99800Y130600D01*
D16*
X77000Y133900D02*
X76891Y134089D01*
X76777Y134275D01*
X76658Y134458D01*
X76536Y134638D01*
X76409Y134816D01*
X76277Y134990D01*
X76142Y135161D01*
X76002Y135328D01*
X75859Y135493D01*
X75711Y135653D01*
X75560Y135810D01*
X75405Y135963D01*
X75246Y136113D01*
X75083Y136259D01*
X74917Y136400D01*
X74748Y136538D01*
X74576Y136671D01*
X74400Y136800D01*
X99800Y130600D02*
X100107Y130680D01*
X100415Y130752D01*
X100726Y130817D01*
X101038Y130875D01*
X101351Y130924D01*
X101665Y130966D01*
X101981Y131000D01*
X102297Y131027D01*
X102613Y131046D01*
X102930Y131057D01*
X103247Y131060D01*
X103564Y131056D01*
X103881Y131043D01*
X104198Y131023D01*
X104514Y130996D01*
X104829Y130960D01*
X105143Y130917D01*
X105456Y130867D01*
X105768Y130808D01*
X106078Y130742D01*
X106386Y130669D01*
X106693Y130588D01*
X106998Y130499D01*
X107300Y130403D01*
X107600Y130300D01*
X77000Y133900D02*
X76749Y134125D01*
X76493Y134345D01*
X76232Y134558D01*
X75966Y134765D01*
X75694Y134965D01*
X75419Y135159D01*
X75138Y135347D01*
X74853Y135527D01*
X74564Y135701D01*
X74271Y135868D01*
X73974Y136028D01*
X73674Y136181D01*
X73369Y136326D01*
X73062Y136464D01*
X72751Y136595D01*
X72437Y136719D01*
X72120Y136835D01*
X71801Y136943D01*
X71479Y137044D01*
X71155Y137137D01*
X70829Y137222D01*
X70500Y137300D01*
X70499Y137300D02*
X70331Y136934D01*
X70172Y136565D01*
X70022Y136192D01*
X69882Y135815D01*
X69750Y135435D01*
X69627Y135052D01*
X69514Y134667D01*
X69410Y134278D01*
X69316Y133887D01*
X69231Y133494D01*
X69156Y133099D01*
X69090Y132702D01*
X69034Y132304D01*
X68988Y131905D01*
X68951Y131505D01*
X68924Y131103D01*
X68907Y130702D01*
X68899Y130300D01*
X75300Y127000D02*
X75368Y127103D01*
X75439Y127204D01*
X75513Y127303D01*
X75589Y127400D01*
X75669Y127495D01*
X75751Y127587D01*
X75836Y127677D01*
X75923Y127764D01*
X76013Y127849D01*
X76105Y127931D01*
X76200Y128011D01*
X76297Y128087D01*
X76396Y128161D01*
X76497Y128232D01*
X76600Y128300D01*
X76599Y128300D02*
X76501Y128670D01*
X76395Y129037D01*
X76279Y129402D01*
X76155Y129764D01*
X76022Y130122D01*
X75880Y130478D01*
X75730Y130830D01*
X75572Y131178D01*
X75405Y131522D01*
X75230Y131863D01*
X75047Y132198D01*
X74855Y132530D01*
X74656Y132857D01*
X74449Y133178D01*
X74234Y133495D01*
X74012Y133807D01*
X73783Y134113D01*
X73546Y134413D01*
X73301Y134708D01*
X73050Y134996D01*
X72792Y135279D01*
X72528Y135555D01*
X72256Y135825D01*
X71979Y136088D01*
X71695Y136344D01*
X71404Y136594D01*
X71108Y136836D01*
X70807Y137072D01*
X70499Y137299D01*
X102300Y127600D02*
X102567Y127660D01*
X102832Y127726D01*
X103096Y127799D01*
X103358Y127878D01*
X103618Y127963D01*
X103876Y128054D01*
X104131Y128152D01*
X104384Y128255D01*
X104635Y128364D01*
X104883Y128480D01*
X105128Y128601D01*
X105370Y128728D01*
X105609Y128861D01*
X105845Y128999D01*
X106078Y129143D01*
X106307Y129293D01*
X106532Y129448D01*
X106754Y129608D01*
X106972Y129773D01*
X107185Y129944D01*
X107395Y130119D01*
X107600Y130300D01*
X102301Y127600D02*
X102393Y127471D01*
X102483Y127340D01*
X102570Y127207D01*
X102653Y127072D01*
X102733Y126935D01*
X102809Y126796D01*
X102882Y126655D01*
X102952Y126512D01*
X103018Y126368D01*
X103080Y126222D01*
X103139Y126075D01*
X103194Y125926D01*
X103246Y125776D01*
X103293Y125625D01*
X103338Y125472D01*
X103378Y125319D01*
X103415Y125165D01*
X103447Y125009D01*
X103476Y124853D01*
X103501Y124697D01*
X103523Y124539D01*
X103540Y124382D01*
X103554Y124224D01*
X103563Y124065D01*
X103569Y123907D01*
X103571Y123748D01*
X103569Y123589D01*
X103563Y123431D01*
X103553Y123272D01*
X103540Y123114D01*
X103522Y122957D01*
X103501Y122799D01*
X103500Y122800D02*
X102997Y123115D01*
X102487Y123418D01*
X101971Y123711D01*
X101448Y123992D01*
X100919Y124261D01*
X100385Y124519D01*
X99845Y124765D01*
X99300Y125000D01*
D15*
X101700Y132701D02*
X102550Y132729D01*
X103400Y132738D01*
X104250Y132729D01*
X105100Y132701D01*
D16*
X95900Y117300D02*
X96448Y116703D01*
X96981Y116093D01*
X97501Y115471D01*
X98005Y114837D01*
X98495Y114191D01*
X98970Y113534D01*
X99429Y112866D01*
X99872Y112188D01*
X100300Y111500D01*
D15*
X105100Y132700D02*
X105370Y133310D01*
X105654Y133914D01*
X105953Y134510D01*
X106265Y135100D01*
X106591Y135682D01*
X106931Y136256D01*
X107284Y136822D01*
X107651Y137379D01*
X108030Y137928D01*
X108423Y138467D01*
X108828Y138998D01*
X109245Y139518D01*
X109674Y140029D01*
X110116Y140529D01*
X110569Y141019D01*
X111033Y141498D01*
X111509Y141965D01*
X111995Y142422D01*
X112493Y142867D01*
X113000Y143300D01*
X113391Y142569D01*
X113764Y141829D01*
X114119Y141081D01*
X114457Y140324D01*
X114776Y139560D01*
X115077Y138788D01*
X115360Y138009D01*
X115624Y137224D01*
X115869Y136432D01*
X116095Y135635D01*
X116302Y134833D01*
X116490Y134026D01*
X116659Y133215D01*
X116809Y132400D01*
X116939Y131582D01*
X117049Y130761D01*
X117140Y129937D01*
X117212Y129112D01*
X117264Y128285D01*
X117296Y127457D01*
X117308Y126628D01*
X117300Y125800D01*
D16*
X105100Y132700D02*
X105660Y133465D01*
X106239Y134216D01*
X106835Y134954D01*
X107449Y135676D01*
X108079Y136385D01*
X108726Y137077D01*
X109390Y137755D01*
X110070Y138416D01*
X110765Y139061D01*
X111475Y139689D01*
X112200Y140300D01*
X112107Y140102D01*
X112019Y139902D01*
X111936Y139699D01*
X111858Y139495D01*
X111784Y139289D01*
X111716Y139081D01*
X111653Y138872D01*
X111595Y138661D01*
X111542Y138449D01*
X111494Y138236D01*
X111451Y138021D01*
X111414Y137806D01*
X111382Y137589D01*
X111355Y137372D01*
X111333Y137155D01*
X111317Y136937D01*
X111306Y136718D01*
X111300Y136500D01*
X111299Y136500D02*
X111474Y136806D01*
X111656Y137107D01*
X111845Y137404D01*
X112041Y137696D01*
X112244Y137984D01*
X112453Y138266D01*
X112670Y138544D01*
X112893Y138816D01*
X113122Y139083D01*
X113357Y139345D01*
X113599Y139600D01*
X113600Y139600D02*
X113359Y139082D01*
X113130Y138557D01*
X112914Y138028D01*
X112710Y137493D01*
X112520Y136954D01*
X112342Y136410D01*
X112178Y135862D01*
X112027Y135311D01*
X111889Y134756D01*
X111764Y134198D01*
X111653Y133637D01*
X111555Y133073D01*
X111471Y132507D01*
X111400Y131940D01*
X111344Y131371D01*
X111300Y130800D01*
X115300Y133399D02*
X115147Y134189D01*
X114977Y134976D01*
X114789Y135758D01*
X114585Y136537D01*
X114364Y137310D01*
X114126Y138079D01*
X113871Y138842D01*
X113600Y139599D01*
X106100Y114300D02*
X105966Y114056D01*
X105837Y113808D01*
X105714Y113558D01*
X105596Y113304D01*
X105485Y113048D01*
X105380Y112790D01*
X105280Y112529D01*
X105187Y112266D01*
X105100Y112000D01*
D15*
X110700Y115199D02*
X111083Y115673D01*
X111455Y116155D01*
X111816Y116646D01*
X112166Y117145D01*
X112504Y117652D01*
X112829Y118167D01*
X113143Y118689D01*
X113445Y119218D01*
X113734Y119754D01*
X114010Y120297D01*
X114274Y120846D01*
X114525Y121401D01*
X114763Y121962D01*
X114988Y122528D01*
X115200Y123100D01*
X110700Y115200D02*
X110195Y114627D01*
X109676Y114066D01*
X109144Y113518D01*
X108600Y112982D01*
X108043Y112459D01*
X107475Y111949D01*
X106894Y111452D01*
X106303Y110969D01*
X105700Y110500D01*
X116500Y117500D02*
X116392Y118211D01*
X116267Y118920D01*
X116128Y119625D01*
X115973Y120328D01*
X115802Y121027D01*
X115617Y121722D01*
X115416Y122413D01*
X115200Y123100D01*
X116500Y117500D02*
X116520Y115200D01*
X116500Y112900D01*
X116469Y112650D01*
X116432Y112401D01*
X116389Y112153D01*
X116340Y111906D01*
X116285Y111660D01*
X116225Y111415D01*
X116158Y111172D01*
X116086Y110931D01*
X116008Y110691D01*
X115925Y110454D01*
X115835Y110218D01*
X115741Y109985D01*
X115640Y109754D01*
X115535Y109525D01*
X115424Y109299D01*
X115307Y109076D01*
X115185Y108855D01*
X115058Y108638D01*
X114926Y108424D01*
X114789Y108212D01*
X114647Y108004D01*
X114500Y107800D01*
X114499Y107800D02*
X114355Y107647D01*
X114207Y107498D01*
X114055Y107352D01*
X113900Y107210D01*
X113742Y107071D01*
X113580Y106936D01*
X113416Y106805D01*
X113248Y106678D01*
X113078Y106554D01*
X112905Y106435D01*
X112729Y106320D01*
X112550Y106209D01*
X112369Y106102D01*
X112185Y105999D01*
X112000Y105900D01*
X112000Y105901D02*
X111856Y105848D01*
X111711Y105799D01*
X111564Y105753D01*
X111416Y105712D01*
X111268Y105674D01*
X111118Y105639D01*
X110968Y105609D01*
X110817Y105582D01*
X110665Y105559D01*
X110513Y105540D01*
X110360Y105524D01*
X110207Y105512D01*
X110054Y105505D01*
X109900Y105501D01*
X109900Y105499D02*
X109754Y105547D01*
X109610Y105599D01*
X109467Y105654D01*
X109325Y105712D01*
X109185Y105775D01*
X109047Y105840D01*
X108910Y105910D01*
X108775Y105982D01*
X108642Y106058D01*
X108511Y106138D01*
X108382Y106220D01*
X108256Y106306D01*
X108131Y106395D01*
X108008Y106487D01*
X107888Y106582D01*
X107771Y106681D01*
X107656Y106782D01*
X107543Y106886D01*
X107433Y106992D01*
X107326Y107102D01*
X107222Y107214D01*
X107120Y107329D01*
X107022Y107446D01*
X106926Y107566D01*
X106834Y107688D01*
X106744Y107813D01*
X106658Y107939D01*
X106575Y108068D01*
X106496Y108199D01*
X106419Y108332D01*
X106346Y108466D01*
X106276Y108603D01*
X106210Y108741D01*
X106148Y108881D01*
X106088Y109022D01*
X106033Y109165D01*
X105981Y109309D01*
X105933Y109454D01*
X105888Y109601D01*
X105847Y109749D01*
X105810Y109897D01*
X105777Y110047D01*
X105747Y110197D01*
X105721Y110348D01*
X105699Y110500D01*
D16*
X112401Y113300D02*
X112357Y114601D01*
X112290Y115901D01*
X112201Y117200D01*
X112400Y113300D02*
X112371Y112973D01*
X112334Y112648D01*
X112290Y112323D01*
X112237Y112000D01*
X112176Y111678D01*
X112108Y111357D01*
X112032Y111038D01*
X111948Y110721D01*
X111857Y110407D01*
X111758Y110094D01*
X111651Y109784D01*
X111537Y109477D01*
X111416Y109173D01*
X111287Y108871D01*
X111151Y108573D01*
X111008Y108278D01*
X110858Y107987D01*
X110700Y107700D01*
X110700Y107701D02*
X110579Y107821D01*
X110460Y107944D01*
X110345Y108071D01*
X110233Y108200D01*
X110124Y108331D01*
X110019Y108466D01*
X109916Y108602D01*
X109817Y108742D01*
X109722Y108883D01*
X109630Y109027D01*
X109541Y109174D01*
X109456Y109322D01*
X109375Y109472D01*
X109297Y109624D01*
X109224Y109778D01*
X109154Y109934D01*
X109087Y110092D01*
X109025Y110251D01*
X108967Y110412D01*
X108912Y110573D01*
X108862Y110737D01*
X108815Y110901D01*
X108773Y111067D01*
X108734Y111233D01*
X108700Y111400D01*
X108693Y111600D01*
X108690Y111801D01*
X108692Y112002D01*
X108698Y112202D01*
X108709Y112402D01*
X108725Y112603D01*
X108746Y112802D01*
X108771Y113001D01*
X108800Y113200D01*
X107500Y97400D02*
X107426Y97322D01*
X107350Y97246D01*
X107271Y97173D01*
X107190Y97104D01*
X107106Y97037D01*
X107019Y96973D01*
X106931Y96912D01*
X106841Y96854D01*
X106748Y96799D01*
X106654Y96748D01*
X106558Y96699D01*
X106460Y96655D01*
X106361Y96613D01*
X106261Y96576D01*
X106159Y96541D01*
X106056Y96511D01*
X105952Y96483D01*
X105848Y96460D01*
X105742Y96440D01*
X105636Y96424D01*
X105529Y96412D01*
X105422Y96403D01*
X105315Y96398D01*
X105208Y96397D01*
X105100Y96400D01*
X104991Y96420D01*
X104884Y96443D01*
X104777Y96470D01*
X104672Y96501D01*
X104568Y96536D01*
X104464Y96574D01*
X104363Y96616D01*
X104262Y96661D01*
X104164Y96710D01*
X104067Y96762D01*
X103972Y96817D01*
X103879Y96876D01*
X103788Y96938D01*
X103700Y97003D01*
X103613Y97071D01*
X103530Y97142D01*
X103448Y97216D01*
X103369Y97293D01*
X103294Y97372D01*
X103220Y97454D01*
X103150Y97539D01*
X103083Y97626D01*
X103019Y97715D01*
X102958Y97807D01*
X102900Y97900D01*
X102827Y97820D01*
X102751Y97744D01*
X102673Y97670D01*
X102592Y97599D01*
X102508Y97531D01*
X102422Y97466D01*
X102333Y97404D01*
X102243Y97345D01*
X102150Y97290D01*
X102056Y97238D01*
X101959Y97190D01*
X101861Y97145D01*
X101761Y97104D01*
X101660Y97066D01*
X101558Y97032D01*
X101454Y97002D01*
X101350Y96976D01*
X101244Y96953D01*
X101138Y96935D01*
X101031Y96920D01*
X100924Y96909D01*
X100816Y96902D01*
X100708Y96899D01*
X100600Y96900D01*
X100600Y96901D02*
X100501Y96914D01*
X100403Y96932D01*
X100305Y96953D01*
X100208Y96978D01*
X100112Y97006D01*
X100017Y97038D01*
X99924Y97074D01*
X99832Y97113D01*
X99742Y97156D01*
X99653Y97202D01*
X99566Y97251D01*
X99481Y97303D01*
X99398Y97359D01*
X99317Y97418D01*
X99238Y97480D01*
X99162Y97545D01*
X99088Y97612D01*
X99017Y97683D01*
X98949Y97756D01*
X98883Y97831D01*
X98821Y97909D01*
X98761Y97989D01*
X98704Y98072D01*
X98651Y98156D01*
X98601Y98243D01*
X98554Y98331D01*
X98510Y98421D01*
X98470Y98513D01*
X98434Y98606D01*
X98400Y98700D01*
X105300Y94100D02*
X105393Y94171D01*
X105483Y94246D01*
X105571Y94324D01*
X105656Y94404D01*
X105739Y94488D01*
X105818Y94574D01*
X105895Y94663D01*
X105968Y94754D01*
X106039Y94848D01*
X106106Y94944D01*
X106170Y95042D01*
X106231Y95142D01*
X106288Y95244D01*
X106342Y95349D01*
X106393Y95455D01*
X106439Y95562D01*
X106482Y95671D01*
X106522Y95782D01*
X106558Y95893D01*
X106589Y96006D01*
X106618Y96120D01*
X106642Y96235D01*
X106662Y96350D01*
X106679Y96466D01*
X106691Y96583D01*
X106700Y96700D01*
X105100Y96400D02*
X105150Y96310D01*
X105196Y96217D01*
X105239Y96123D01*
X105279Y96027D01*
X105315Y95930D01*
X105347Y95831D01*
X105375Y95731D01*
X105399Y95631D01*
X105420Y95529D01*
X105437Y95427D01*
X105450Y95324D01*
X105459Y95221D01*
X105464Y95117D01*
X105465Y95014D01*
X105462Y94910D01*
X105455Y94807D01*
X105445Y94704D01*
X105430Y94601D01*
X105412Y94499D01*
X105389Y94398D01*
X105363Y94298D01*
X105333Y94199D01*
X105300Y94101D01*
D15*
X100700Y108799D02*
X99411Y109612D01*
X98103Y110394D01*
X96776Y111143D01*
X95431Y111860D01*
X94070Y112544D01*
X92692Y113196D01*
X91299Y113813D01*
X89891Y114397D01*
X88470Y114946D01*
X87036Y115460D01*
X85589Y115940D01*
X84132Y116385D01*
X82664Y116794D01*
X81187Y117167D01*
X79701Y117505D01*
X78207Y117806D01*
X76706Y118071D01*
X75200Y118299D01*
X96100Y102401D02*
X96425Y102699D01*
X96744Y103005D01*
X97054Y103318D01*
X97357Y103639D01*
X97652Y103967D01*
X97939Y104303D01*
X98218Y104645D01*
X98488Y104994D01*
X98750Y105349D01*
X99004Y105710D01*
X99248Y106078D01*
X99483Y106451D01*
X99710Y106830D01*
X99927Y107214D01*
X100134Y107604D01*
X100333Y107998D01*
X100521Y108397D01*
X100700Y108801D01*
X96100Y102400D02*
X95844Y102183D01*
X95583Y101973D01*
X95316Y101769D01*
X95045Y101572D01*
X94770Y101381D01*
X94490Y101197D01*
X94205Y101019D01*
X93916Y100849D01*
X93624Y100685D01*
X93327Y100529D01*
X93027Y100380D01*
X92723Y100238D01*
X92416Y100103D01*
X92106Y99976D01*
X91792Y99856D01*
X91476Y99744D01*
X91158Y99640D01*
X90837Y99543D01*
X90514Y99454D01*
X90188Y99373D01*
X89861Y99299D01*
X89532Y99234D01*
X89202Y99177D01*
X88870Y99127D01*
X88538Y99085D01*
X88204Y99052D01*
X87870Y99027D01*
X87535Y99009D01*
X87200Y99000D01*
X86929Y99021D01*
X86657Y99047D01*
X86387Y99081D01*
X86117Y99121D01*
X85848Y99167D01*
X85581Y99220D01*
X85315Y99279D01*
X85050Y99345D01*
X84787Y99417D01*
X84526Y99495D01*
X84267Y99580D01*
X84010Y99670D01*
X83755Y99767D01*
X83502Y99870D01*
X83252Y99980D01*
X83005Y100095D01*
X82761Y100216D01*
X82520Y100342D01*
X82281Y100475D01*
X82046Y100613D01*
X81815Y100757D01*
X81587Y100907D01*
X81362Y101062D01*
X81142Y101222D01*
X80925Y101387D01*
X80713Y101558D01*
X80504Y101734D01*
X80300Y101915D01*
X80100Y102100D01*
X79815Y102395D01*
X79537Y102696D01*
X79266Y103004D01*
X79002Y103318D01*
X78746Y103638D01*
X78498Y103964D01*
X78257Y104296D01*
X78024Y104634D01*
X77800Y104977D01*
X77584Y105325D01*
X77376Y105678D01*
X77176Y106037D01*
X76986Y106399D01*
X76803Y106767D01*
X76630Y107138D01*
X76466Y107514D01*
X76310Y107893D01*
X76164Y108276D01*
X76026Y108663D01*
X75898Y109052D01*
X75780Y109444D01*
X75670Y109840D01*
X75571Y110237D01*
X75480Y110637D01*
X75399Y111039D01*
X75328Y111443D01*
X75266Y111848D01*
X75214Y112255D01*
X75172Y112663D01*
X75139Y113071D01*
X75117Y113481D01*
X75103Y113890D01*
X75100Y114300D01*
X75099Y114299D02*
X75074Y114800D01*
X75059Y115300D01*
X75055Y115801D01*
X75062Y116302D01*
X75080Y116802D01*
X75109Y117302D01*
X75149Y117801D01*
X75199Y118300D01*
D16*
X92301Y112200D02*
X92236Y111842D01*
X92162Y111485D01*
X92080Y111130D01*
X91989Y110778D01*
X91890Y110427D01*
X91783Y110079D01*
X91668Y109734D01*
X91544Y109391D01*
X91412Y109052D01*
X91272Y108716D01*
X91125Y108383D01*
X90969Y108054D01*
X90806Y107728D01*
X90634Y107407D01*
X90456Y107089D01*
X90269Y106777D01*
X90076Y106468D01*
X89875Y106164D01*
X89667Y105866D01*
X89452Y105572D01*
X89229Y105283D01*
X89001Y105000D01*
X89000Y105000D02*
X88965Y105166D01*
X88926Y105330D01*
X88882Y105493D01*
X88835Y105656D01*
X88784Y105817D01*
X88729Y105977D01*
X88670Y106135D01*
X88608Y106292D01*
X88542Y106447D01*
X88472Y106601D01*
X88398Y106753D01*
X88321Y106904D01*
X88240Y107052D01*
X88155Y107198D01*
X88067Y107343D01*
X87976Y107485D01*
X87881Y107625D01*
X87783Y107762D01*
X87681Y107897D01*
X87577Y108030D01*
X87469Y108160D01*
X87358Y108288D01*
X87244Y108412D01*
X87127Y108534D01*
X87007Y108653D01*
X86885Y108770D01*
X86759Y108883D01*
X86631Y108993D01*
X86500Y109100D01*
X86501Y109100D02*
X86432Y108830D01*
X86370Y108558D01*
X86314Y108284D01*
X86265Y108009D01*
X86223Y107734D01*
X86187Y107457D01*
X86158Y107179D01*
X86136Y106901D01*
X86120Y106622D01*
X86111Y106343D01*
X86109Y106064D01*
X86114Y105785D01*
X86125Y105506D01*
X86143Y105228D01*
X86167Y104950D01*
X86199Y104672D01*
X86237Y104396D01*
X86281Y104120D01*
X86333Y103846D01*
X86390Y103573D01*
X86455Y103301D01*
X86526Y103031D01*
X86603Y102763D01*
X86687Y102497D01*
X86777Y102233D01*
X86874Y101971D01*
X86977Y101712D01*
X87086Y101455D01*
X87201Y101200D01*
X87200Y101200D02*
X86990Y101439D01*
X86786Y101684D01*
X86588Y101933D01*
X86396Y102188D01*
X86210Y102447D01*
X86031Y102710D01*
X85858Y102978D01*
X85692Y103250D01*
X85533Y103525D01*
X85380Y103805D01*
X85234Y104088D01*
X85095Y104375D01*
X84963Y104665D01*
X84838Y104958D01*
X84720Y105254D01*
X84610Y105553D01*
X84507Y105854D01*
X84411Y106158D01*
X84323Y106464D01*
X84242Y106772D01*
X84168Y107082D01*
X84103Y107394D01*
X84045Y107707D01*
X83994Y108022D01*
X83951Y108337D01*
X83916Y108654D01*
X83889Y108972D01*
X83869Y109289D01*
X83857Y109608D01*
X83853Y109926D01*
X83857Y110245D01*
X83868Y110563D01*
X83887Y110881D01*
X83914Y111199D01*
X83948Y111516D01*
X83991Y111831D01*
X84041Y112146D01*
X84098Y112459D01*
X84163Y112771D01*
X84236Y113081D01*
X84317Y113390D01*
X84404Y113696D01*
X84500Y114000D01*
X84839Y113774D01*
X85173Y113540D01*
X85501Y113298D01*
X85823Y113049D01*
X86139Y112792D01*
X86449Y112528D01*
X86752Y112256D01*
X87049Y111977D01*
X87340Y111692D01*
X87623Y111399D01*
X87900Y111100D01*
X87899Y111100D02*
X87951Y111452D01*
X87993Y111805D01*
X88028Y112159D01*
X88054Y112514D01*
X88071Y112869D01*
X88081Y113225D01*
X88081Y113580D01*
X88073Y113936D01*
X88057Y114291D01*
X88032Y114646D01*
X87999Y115000D01*
D15*
X105900Y88900D02*
X105980Y88336D01*
X106046Y87770D01*
X106098Y87203D01*
X106138Y86634D01*
X106164Y86065D01*
X106177Y85496D01*
X106177Y84926D01*
X106164Y84356D01*
X106137Y83787D01*
X106097Y83219D01*
X106044Y82652D01*
X105978Y82086D01*
X105899Y81522D01*
X105806Y80960D01*
X105700Y80400D01*
X105673Y80546D01*
X105642Y80691D01*
X105607Y80836D01*
X105569Y80980D01*
X105527Y81122D01*
X105482Y81264D01*
X105433Y81404D01*
X105380Y81544D01*
X105325Y81681D01*
X105265Y81818D01*
X105203Y81953D01*
X105137Y82086D01*
X105067Y82218D01*
X104995Y82347D01*
X104919Y82475D01*
X104840Y82601D01*
X104758Y82725D01*
X104673Y82847D01*
X104585Y82967D01*
X104494Y83085D01*
X104400Y83200D01*
X104199Y84000D02*
X104237Y83864D01*
X104271Y83726D01*
X104301Y83587D01*
X104328Y83448D01*
X104350Y83308D01*
X104369Y83167D01*
X104384Y83026D01*
X104395Y82885D01*
X104402Y82743D01*
X104406Y82601D01*
X104405Y82460D01*
X104401Y82318D01*
X104393Y82176D01*
X104381Y82035D01*
X104365Y81894D01*
X104345Y81754D01*
X104321Y81614D01*
X104294Y81475D01*
X104263Y81336D01*
X104228Y81199D01*
X104189Y81062D01*
X104147Y80927D01*
X104101Y80793D01*
X104051Y80660D01*
X103998Y80529D01*
X103941Y80399D01*
X103880Y80270D01*
X103816Y80144D01*
X103749Y80019D01*
X103678Y79896D01*
X103604Y79775D01*
X103527Y79656D01*
X103447Y79539D01*
X103363Y79425D01*
X103276Y79312D01*
X103186Y79203D01*
X103094Y79095D01*
X102998Y78991D01*
X102900Y78888D01*
X102798Y78789D01*
X102695Y78692D01*
X102588Y78599D01*
X102479Y78508D01*
X102368Y78420D01*
X102254Y78335D01*
X102138Y78254D01*
X102020Y78176D01*
X101899Y78100D01*
X102300Y78400D02*
X102320Y78541D01*
X102336Y78682D01*
X102349Y78824D01*
X102358Y78966D01*
X102363Y79109D01*
X102365Y79251D01*
X102363Y79393D01*
X102357Y79536D01*
X102347Y79678D01*
X102334Y79820D01*
X102317Y79961D01*
X102296Y80102D01*
X102272Y80242D01*
X102244Y80382D01*
X102212Y80521D01*
X102177Y80659D01*
X102138Y80796D01*
X102095Y80931D01*
X102049Y81066D01*
X102000Y81200D01*
X101978Y81115D01*
X101953Y81031D01*
X101924Y80948D01*
X101892Y80867D01*
X101857Y80787D01*
X101818Y80708D01*
X101776Y80632D01*
X101731Y80557D01*
X101683Y80484D01*
X101632Y80413D01*
X101578Y80344D01*
X101521Y80277D01*
X101461Y80213D01*
X101399Y80152D01*
X101334Y80093D01*
X101267Y80037D01*
X101198Y79983D01*
X101126Y79933D01*
X101053Y79885D01*
X100977Y79841D01*
X100900Y79800D01*
X103800Y80100D02*
X103817Y79254D01*
X103814Y78408D01*
X103791Y77562D01*
X103749Y76717D01*
X103687Y75873D01*
X103606Y75030D01*
X103505Y74190D01*
X103384Y73353D01*
X103244Y72518D01*
X103084Y71687D01*
X102906Y70860D01*
X102708Y70037D01*
X102491Y69219D01*
X102255Y68407D01*
X102000Y67600D01*
X102001Y67599D02*
X101931Y67483D01*
X101859Y67370D01*
X101783Y67258D01*
X101704Y67148D01*
X101622Y67041D01*
X101536Y66936D01*
X101448Y66834D01*
X101357Y66734D01*
X101263Y66637D01*
X101166Y66543D01*
X101066Y66452D01*
X100964Y66364D01*
X100859Y66278D01*
X100752Y66196D01*
X100642Y66117D01*
X100530Y66041D01*
X100417Y65969D01*
X100301Y65899D01*
X100300Y65900D02*
X99425Y65872D01*
X98550Y65862D01*
X97675Y65872D01*
X96800Y65900D01*
X96799Y65900D02*
X96747Y65966D01*
X96697Y66034D01*
X96651Y66105D01*
X96608Y66177D01*
X96568Y66251D01*
X96532Y66328D01*
X96499Y66405D01*
X96470Y66485D01*
X96444Y66565D01*
X96423Y66647D01*
X96405Y66729D01*
X96390Y66812D01*
X96380Y66896D01*
X96374Y66980D01*
X96371Y67064D01*
X96372Y67149D01*
X96377Y67233D01*
X96386Y67317D01*
X96399Y67400D01*
X96400Y67400D02*
X96652Y68279D01*
X96883Y69164D01*
X97093Y70054D01*
X97282Y70948D01*
X97449Y71847D01*
X97595Y72750D01*
X97720Y73655D01*
X97822Y74564D01*
X97903Y75475D01*
X97963Y76387D01*
X98000Y77300D01*
X97948Y76728D01*
X97882Y76158D01*
X97802Y75590D01*
X97709Y75024D01*
X97602Y74460D01*
X97481Y73899D01*
X97346Y73341D01*
X97198Y72786D01*
X97037Y72236D01*
X96862Y71689D01*
X96675Y71147D01*
X96474Y70609D01*
X96260Y70077D01*
X96033Y69549D01*
X95794Y69028D01*
X95542Y68512D01*
X95277Y68003D01*
X95000Y67500D01*
X94915Y67385D01*
X94827Y67273D01*
X94736Y67163D01*
X94642Y67055D01*
X94546Y66950D01*
X94447Y66847D01*
X94345Y66747D01*
X94241Y66649D01*
X94134Y66554D01*
X94025Y66462D01*
X93913Y66373D01*
X93800Y66287D01*
X93684Y66203D01*
X93566Y66123D01*
X93446Y66045D01*
X93324Y65971D01*
X93200Y65900D01*
X93121Y65865D01*
X93040Y65832D01*
X92958Y65803D01*
X92875Y65777D01*
X92791Y65755D01*
X92706Y65736D01*
X92621Y65720D01*
X92534Y65708D01*
X92448Y65700D01*
X92361Y65695D01*
X92274Y65693D01*
X92187Y65695D01*
X92100Y65700D01*
X91990Y65716D01*
X91880Y65736D01*
X91771Y65760D01*
X91663Y65788D01*
X91556Y65820D01*
X91450Y65856D01*
X91346Y65895D01*
X91243Y65938D01*
X91141Y65985D01*
X91042Y66035D01*
X90944Y66089D01*
X90848Y66146D01*
X90755Y66207D01*
X90663Y66271D01*
X90574Y66338D01*
X90487Y66408D01*
X90403Y66482D01*
X90322Y66558D01*
X90243Y66637D01*
X90167Y66719D01*
X90095Y66804D01*
X90025Y66891D01*
X89958Y66980D01*
X89895Y67072D01*
X89835Y67166D01*
X89778Y67262D01*
X89725Y67360D01*
X89676Y67460D01*
X89630Y67562D01*
X89587Y67665D01*
X89549Y67770D01*
X89514Y67876D01*
X89483Y67983D01*
X89455Y68091D01*
X89432Y68200D01*
X89413Y68310D01*
X89397Y68421D01*
X89386Y68532D01*
X89378Y68643D01*
X89374Y68755D01*
X89375Y68866D01*
X89379Y68978D01*
X89387Y69089D01*
X89400Y69200D01*
X89126Y68981D01*
X88848Y68769D01*
X88563Y68563D01*
X88275Y68364D01*
X87981Y68173D01*
X87683Y67988D01*
X87380Y67811D01*
X87074Y67641D01*
X86763Y67478D01*
X86449Y67323D01*
X86131Y67176D01*
X85809Y67036D01*
X85484Y66904D01*
X85156Y66780D01*
X84825Y66664D01*
X84492Y66556D01*
X84156Y66456D01*
X83818Y66364D01*
X83477Y66280D01*
X83135Y66205D01*
X82791Y66137D01*
X82445Y66078D01*
X82098Y66028D01*
X81750Y65985D01*
X81401Y65951D01*
X81052Y65926D01*
X80701Y65909D01*
X80351Y65900D01*
X80000Y65900D01*
X79684Y65895D01*
X79367Y65898D01*
X79050Y65908D01*
X78734Y65926D01*
X78419Y65951D01*
X78104Y65984D01*
X77789Y66024D01*
X77476Y66071D01*
X77164Y66127D01*
X76854Y66189D01*
X76545Y66259D01*
X76238Y66336D01*
X75933Y66421D01*
X75630Y66512D01*
X75329Y66611D01*
X75030Y66717D01*
X74735Y66831D01*
X74442Y66951D01*
X74151Y67078D01*
X73865Y67212D01*
X73581Y67352D01*
X73301Y67500D01*
X73300Y67500D02*
X73424Y68457D01*
X73571Y69411D01*
X73741Y70361D01*
X73933Y71307D01*
X74148Y72248D01*
X74386Y73183D01*
X74646Y74113D01*
X74929Y75036D01*
X75233Y75952D01*
X75560Y76860D01*
X75908Y77761D01*
X76277Y78652D01*
X76668Y79535D01*
X77080Y80408D01*
X77513Y81271D01*
X77966Y82123D01*
X78440Y82964D01*
X78933Y83793D01*
X79447Y84611D01*
X79980Y85415D01*
X80532Y86207D01*
X81103Y86985D01*
X81692Y87750D01*
X82300Y88500D01*
X70000Y77600D02*
X70234Y77276D01*
X70462Y76946D01*
X70681Y76611D01*
X70892Y76270D01*
X71094Y75925D01*
X71289Y75575D01*
X71475Y75221D01*
X71652Y74862D01*
X71821Y74498D01*
X71982Y74131D01*
X72133Y73761D01*
X72275Y73386D01*
X72409Y73009D01*
X72533Y72628D01*
X72648Y72245D01*
X72754Y71859D01*
X72851Y71470D01*
X72939Y71079D01*
X73017Y70687D01*
X73085Y70292D01*
X73144Y69896D01*
X73194Y69499D01*
X73234Y69100D01*
X73265Y68701D01*
X73286Y68301D01*
X73298Y67901D01*
X73300Y67500D01*
D16*
X70000Y77600D02*
X70095Y77652D01*
X70188Y77708D01*
X70279Y77767D01*
X70368Y77829D01*
X70454Y77894D01*
X70539Y77962D01*
X70621Y78033D01*
X70700Y78107D01*
X70777Y78184D01*
X70851Y78263D01*
X70922Y78345D01*
X70990Y78429D01*
X71056Y78515D01*
X71118Y78604D01*
X71177Y78695D01*
X71233Y78788D01*
X71286Y78883D01*
X71335Y78979D01*
X71381Y79077D01*
X71423Y79177D01*
X71462Y79278D01*
X71498Y79381D01*
X71530Y79484D01*
X71558Y79589D01*
X71582Y79695D01*
X71603Y79801D01*
X71620Y79908D01*
X71634Y80016D01*
X71643Y80124D01*
X71649Y80232D01*
X71651Y80340D01*
X71649Y80449D01*
X71644Y80557D01*
X71634Y80665D01*
X71621Y80773D01*
X71604Y80880D01*
X71584Y80986D01*
X71560Y81092D01*
X71532Y81197D01*
X71500Y81300D01*
X70000Y77600D02*
X69904Y77547D01*
X69805Y77496D01*
X69706Y77450D01*
X69604Y77407D01*
X69501Y77367D01*
X69397Y77331D01*
X69292Y77298D01*
X69185Y77270D01*
X69078Y77245D01*
X68970Y77224D01*
X68861Y77206D01*
X68751Y77193D01*
X68641Y77183D01*
X68531Y77177D01*
X68421Y77175D01*
X68311Y77177D01*
X68201Y77182D01*
X68091Y77192D01*
X67981Y77205D01*
X67872Y77222D01*
X67764Y77243D01*
X67657Y77268D01*
X67550Y77296D01*
X67445Y77328D01*
X67340Y77364D01*
X67237Y77404D01*
X67136Y77446D01*
X67036Y77493D01*
X66938Y77543D01*
X66841Y77596D01*
X66746Y77653D01*
X66654Y77713D01*
X66563Y77776D01*
X66475Y77842D01*
X66390Y77911D01*
X66306Y77984D01*
X66226Y78059D01*
X66147Y78137D01*
X66072Y78217D01*
X66000Y78300D01*
X71500Y81300D02*
X71457Y81497D01*
X71411Y81693D01*
X71359Y81888D01*
X71303Y82082D01*
X71243Y82274D01*
X71178Y82465D01*
X71108Y82654D01*
X71035Y82842D01*
X70957Y83028D01*
X70874Y83212D01*
X70788Y83394D01*
X70697Y83574D01*
X70602Y83751D01*
X70503Y83927D01*
X70400Y84100D01*
X64200Y81700D02*
X64282Y81456D01*
X64370Y81213D01*
X64463Y80973D01*
X64562Y80735D01*
X64666Y80499D01*
X64776Y80266D01*
X64892Y80035D01*
X65012Y79808D01*
X65138Y79583D01*
X65269Y79361D01*
X65405Y79142D01*
X65547Y78926D01*
X65693Y78714D01*
X65844Y78505D01*
X66000Y78300D01*
X64199Y81700D02*
X65769Y82250D01*
X67326Y82833D01*
X68869Y83450D01*
X70399Y84100D01*
X70800Y83201D02*
X69788Y82767D01*
X68767Y82356D01*
X67738Y81967D01*
X66700Y81601D01*
X63300Y83000D02*
X65097Y83616D01*
X66880Y84272D01*
X68648Y84967D01*
X70400Y85700D01*
X71000Y85200D02*
X71023Y85150D01*
X71042Y85099D01*
X71057Y85047D01*
X71068Y84994D01*
X71076Y84940D01*
X71080Y84886D01*
X71079Y84832D01*
X71076Y84777D01*
X71068Y84724D01*
X71056Y84670D01*
X71041Y84618D01*
X71022Y84567D01*
X70999Y84518D01*
X70973Y84470D01*
X70944Y84424D01*
X70911Y84381D01*
X70876Y84340D01*
X70837Y84301D01*
X70796Y84265D01*
X70753Y84233D01*
X70707Y84203D01*
X70659Y84177D01*
X70610Y84154D01*
X70559Y84135D01*
X70507Y84119D01*
X70454Y84108D01*
X70400Y84100D01*
X71000Y85200D02*
X70986Y85247D01*
X70968Y85293D01*
X70947Y85337D01*
X70923Y85379D01*
X70895Y85420D01*
X70865Y85459D01*
X70833Y85495D01*
X70797Y85529D01*
X70760Y85560D01*
X70720Y85589D01*
X70678Y85615D01*
X70635Y85637D01*
X70590Y85657D01*
X70544Y85673D01*
X70497Y85685D01*
X70449Y85695D01*
X70400Y85701D01*
X63300Y83000D02*
X63270Y82949D01*
X63243Y82896D01*
X63220Y82841D01*
X63200Y82785D01*
X63183Y82728D01*
X63171Y82670D01*
X63161Y82611D01*
X63156Y82552D01*
X63154Y82493D01*
X63156Y82433D01*
X63161Y82374D01*
X63171Y82315D01*
X63184Y82257D01*
X63200Y82200D01*
X63230Y82148D01*
X63263Y82099D01*
X63299Y82051D01*
X63337Y82006D01*
X63379Y81963D01*
X63423Y81923D01*
X63469Y81886D01*
X63518Y81852D01*
X63569Y81820D01*
X63621Y81792D01*
X63675Y81767D01*
X63730Y81745D01*
X63787Y81727D01*
X63845Y81712D01*
X63903Y81701D01*
X63962Y81694D01*
X64022Y81690D01*
X64081Y81689D01*
X64141Y81693D01*
X64200Y81700D01*
X66800Y87900D02*
X66854Y87914D01*
X66910Y87925D01*
X66965Y87932D01*
X67021Y87936D01*
X67077Y87935D01*
X67133Y87931D01*
X67189Y87923D01*
X67244Y87911D01*
X67298Y87896D01*
X67351Y87877D01*
X67403Y87855D01*
X67452Y87829D01*
X67500Y87800D01*
X66800Y87900D02*
X66764Y87859D01*
X66731Y87816D01*
X66701Y87771D01*
X66675Y87723D01*
X66652Y87673D01*
X66633Y87623D01*
X66618Y87570D01*
X66607Y87517D01*
X66599Y87463D01*
X66595Y87409D01*
X66596Y87355D01*
X66600Y87300D01*
X67500Y87800D02*
X67676Y87462D01*
X67845Y87120D01*
X68007Y86775D01*
X68161Y86426D01*
X68307Y86074D01*
X68446Y85719D01*
X68577Y85361D01*
X68700Y85000D01*
X67700Y84600D02*
X67588Y84947D01*
X67469Y85292D01*
X67343Y85634D01*
X67209Y85974D01*
X67067Y86310D01*
X66919Y86643D01*
X66763Y86973D01*
X66600Y87300D01*
X64900Y86600D02*
X65050Y86285D01*
X65192Y85967D01*
X65328Y85646D01*
X65457Y85322D01*
X65578Y84995D01*
X65693Y84666D01*
X65800Y84334D01*
X65900Y84000D01*
X65000Y83600D02*
X64899Y83922D01*
X64791Y84241D01*
X64676Y84558D01*
X64554Y84872D01*
X64426Y85183D01*
X64290Y85492D01*
X64148Y85798D01*
X64000Y86100D01*
X64200Y86900D02*
X64242Y86915D01*
X64285Y86927D01*
X64329Y86934D01*
X64373Y86938D01*
X64418Y86939D01*
X64462Y86935D01*
X64506Y86928D01*
X64549Y86918D01*
X64592Y86904D01*
X64633Y86886D01*
X64672Y86865D01*
X64709Y86841D01*
X64745Y86814D01*
X64778Y86784D01*
X64808Y86752D01*
X64836Y86717D01*
X64861Y86680D01*
X64882Y86641D01*
X64900Y86600D01*
X64200Y86900D02*
X64162Y86865D01*
X64127Y86827D01*
X64094Y86787D01*
X64065Y86744D01*
X64039Y86700D01*
X64016Y86653D01*
X63996Y86605D01*
X63980Y86556D01*
X63968Y86506D01*
X63959Y86455D01*
X63954Y86404D01*
X63952Y86352D01*
X63954Y86301D01*
X63960Y86249D01*
X63970Y86199D01*
X63983Y86149D01*
X64000Y86100D01*
D10*
X448157Y184397D02*
X449385Y185625D01*
X451843Y185625D01*
X453071Y184397D01*
X453071Y183168D01*
X451843Y181939D01*
X449385Y181939D01*
X448157Y180710D01*
X448157Y179482D01*
X449385Y178253D01*
X451843Y178253D01*
X453071Y179482D01*
X445587Y179482D02*
X444359Y178253D01*
X443130Y178253D01*
X441901Y179482D01*
X441901Y185625D01*
X443130Y185625D02*
X440672Y185625D01*
X438103Y178253D02*
X433188Y178253D01*
X438103Y178253D02*
X433188Y183168D01*
X433188Y184397D01*
X434417Y185625D01*
X436874Y185625D01*
X438103Y184397D01*
M02*
