G04 EAGLE Gerber X2 export*
G75*
%MOMM*%
%FSLAX34Y34*%
%LPD*%
%AMOC8*
5,1,8,0,0,1.08239X$1,22.5*%
G01*
%ADD10R,0.660400X0.863600*%
%ADD11P,2.058273X8X292.500000*%
%ADD12C,3.251600*%
%ADD13P,2.707707X8X292.500000*%
%ADD14P,1.525737X8X292.500000*%
%ADD15P,2.034460X8X202.500000*%
%ADD16R,0.901600X0.901600*%
%ADD17R,1.801600X0.551600*%
%ADD18R,2.201600X1.576600*%
%ADD19R,2.001600X2.476600*%
%ADD20R,0.355600X1.244600*%
%ADD21R,1.244600X0.355600*%
%ADD22R,1.117600X0.863600*%
%ADD23R,0.863600X1.117600*%
%ADD24R,1.091600X0.791600*%
%ADD25R,1.301600X1.801600*%
%ADD26C,0.701600*%
%ADD27R,0.601600X0.601600*%


D10*
X282500Y150000D03*
X269500Y150000D03*
D11*
X196600Y60550D03*
X171200Y73250D03*
X196600Y85950D03*
X196600Y111350D03*
X196600Y136750D03*
X171200Y98650D03*
X171200Y124050D03*
X171200Y149450D03*
D12*
X107700Y162150D03*
X107700Y47850D03*
D13*
X138200Y184000D03*
X138200Y26000D03*
D14*
X58700Y168250D03*
X58700Y142850D03*
X58700Y67150D03*
X58700Y41750D03*
D10*
X147500Y102500D03*
X134500Y102500D03*
X282500Y163000D03*
X269500Y163000D03*
X147500Y120000D03*
X134500Y120000D03*
X147500Y137000D03*
X134500Y137000D03*
X147500Y154000D03*
X134500Y154000D03*
D15*
X506000Y145000D03*
X506000Y170400D03*
X506000Y195800D03*
X480000Y145000D03*
X480000Y170400D03*
X480000Y195800D03*
X506000Y14000D03*
X506000Y39400D03*
X506000Y64800D03*
X480000Y14000D03*
X480000Y39400D03*
X480000Y64800D03*
D16*
X299500Y190000D03*
X314500Y190000D03*
D17*
X40500Y105000D03*
X40500Y98500D03*
X40500Y111500D03*
X40500Y118000D03*
X40500Y92000D03*
D18*
X35500Y80000D03*
X35500Y130000D03*
D19*
X12500Y75500D03*
X12500Y134500D03*
D20*
X377500Y62500D03*
X372500Y62500D03*
X367500Y62500D03*
X362500Y62500D03*
X357500Y62500D03*
X352500Y62500D03*
X347500Y62500D03*
X342500Y62500D03*
X337500Y62500D03*
X332500Y62500D03*
X327500Y62500D03*
X322500Y62500D03*
D21*
X307500Y77500D03*
X307500Y82500D03*
X307500Y87500D03*
X307500Y92500D03*
X307500Y97500D03*
X307500Y102500D03*
X307500Y107500D03*
X307500Y112500D03*
X307500Y117500D03*
X307500Y122500D03*
X307500Y127500D03*
X307500Y132500D03*
D20*
X322500Y147500D03*
X327500Y147500D03*
X332500Y147500D03*
X337500Y147500D03*
X342500Y147500D03*
X347500Y147500D03*
X352500Y147500D03*
X357500Y147500D03*
X362500Y147500D03*
X367500Y147500D03*
X372500Y147500D03*
X377500Y147500D03*
D21*
X392500Y132500D03*
X392500Y127500D03*
X392500Y122500D03*
X392500Y117500D03*
X392500Y112500D03*
X392500Y107500D03*
X392500Y102500D03*
X392500Y97500D03*
X392500Y92500D03*
X392500Y87500D03*
X392500Y82500D03*
X392500Y77500D03*
D22*
X399800Y167525D03*
X375788Y167525D03*
X375788Y186475D03*
X399800Y186475D03*
D23*
X414525Y76200D03*
X414525Y100213D03*
X433475Y100213D03*
X433475Y76200D03*
D24*
X246100Y18500D03*
X246100Y28000D03*
X246100Y37500D03*
X272000Y37500D03*
X272000Y18500D03*
D10*
X288500Y37500D03*
X301500Y37500D03*
X341500Y190000D03*
X328500Y190000D03*
D25*
X239000Y190000D03*
X279000Y190000D03*
D10*
X415000Y51500D03*
X402000Y51500D03*
X413000Y186500D03*
X426000Y186500D03*
D26*
X286000Y52000D03*
X302000Y60000D03*
D10*
X282500Y132500D03*
X269500Y132500D03*
D27*
X419000Y167500D03*
X426000Y167500D03*
X412000Y167500D03*
M02*
