G04 EAGLE Gerber X2 export*
G75*
%MOMM*%
%FSLAX34Y34*%
%LPD*%
%AMOC8*
5,1,8,0,0,1.08239X$1,22.5*%
G01*
%ADD10P,2.058273X8X292.500000*%
%ADD11C,3.251600*%
%ADD12P,2.707707X8X292.500000*%
%ADD13P,1.525737X8X292.500000*%
%ADD14R,0.660400X0.863600*%
%ADD15R,0.990600X1.117600*%
%ADD16P,2.034460X8X202.500000*%
%ADD17R,0.901600X0.901600*%
%ADD18R,1.351600X0.401600*%
%ADD19R,0.401600X1.351600*%
%ADD20R,1.501600X1.701600*%
%ADD21R,0.601600X0.601600*%


D10*
X196600Y60550D03*
X171200Y73250D03*
X196600Y85950D03*
X196600Y111350D03*
X196600Y136750D03*
X171200Y98650D03*
X171200Y124050D03*
X171200Y149450D03*
D11*
X107700Y162150D03*
X107700Y47850D03*
D12*
X138200Y184000D03*
X138200Y26000D03*
D13*
X58700Y168250D03*
X58700Y142850D03*
X58700Y67150D03*
X58700Y41750D03*
D14*
X233500Y85500D03*
X220500Y85500D03*
X233500Y124000D03*
X220500Y124000D03*
X233500Y140500D03*
X220500Y140500D03*
X233500Y157000D03*
X220500Y157000D03*
D15*
G36*
X263541Y23557D02*
X256537Y30561D01*
X264439Y38463D01*
X271443Y31459D01*
X263541Y23557D01*
G37*
G36*
X275561Y11537D02*
X268557Y18541D01*
X276459Y26443D01*
X283463Y19439D01*
X275561Y11537D01*
G37*
G36*
X266557Y192459D02*
X273561Y199463D01*
X281463Y191561D01*
X274459Y184557D01*
X266557Y192459D01*
G37*
G36*
X254537Y180439D02*
X261541Y187443D01*
X269443Y179541D01*
X262439Y172537D01*
X254537Y180439D01*
G37*
D16*
X506000Y145000D03*
X506000Y170400D03*
X506000Y195800D03*
X480000Y145000D03*
X480000Y170400D03*
X480000Y195800D03*
X506000Y14000D03*
X506000Y39400D03*
X506000Y64800D03*
X480000Y14000D03*
X480000Y39400D03*
X480000Y64800D03*
D17*
X508500Y115000D03*
X493500Y115000D03*
X508500Y95000D03*
X493500Y95000D03*
D18*
X430000Y45000D03*
X430000Y50000D03*
X430000Y55000D03*
X430000Y60000D03*
X430000Y65000D03*
X430000Y70000D03*
X430000Y75000D03*
X430000Y80000D03*
X430000Y85000D03*
X430000Y90000D03*
X430000Y95000D03*
X430000Y100000D03*
X430000Y105000D03*
X430000Y110000D03*
X430000Y115000D03*
X430000Y120000D03*
X430000Y125000D03*
X430000Y130000D03*
X430000Y135000D03*
X430000Y140000D03*
X430000Y145000D03*
X430000Y150000D03*
X430000Y155000D03*
X430000Y160000D03*
X430000Y165000D03*
D19*
X410000Y185000D03*
X405000Y185000D03*
X400000Y185000D03*
X395000Y185000D03*
X390000Y185000D03*
X385000Y185000D03*
X380000Y185000D03*
X375000Y185000D03*
X370000Y185000D03*
X365000Y185000D03*
X360000Y185000D03*
X355000Y185000D03*
X350000Y185000D03*
X345000Y185000D03*
X340000Y185000D03*
X335000Y185000D03*
X330000Y185000D03*
X325000Y185000D03*
X320000Y185000D03*
X315000Y185000D03*
X310000Y185000D03*
X305000Y185000D03*
X300000Y185000D03*
X295000Y185000D03*
X290000Y185000D03*
D18*
X270000Y165000D03*
X270000Y160000D03*
X270000Y155000D03*
X270000Y150000D03*
X270000Y145000D03*
X270000Y140000D03*
X270000Y135000D03*
X270000Y130000D03*
X270000Y125000D03*
X270000Y120000D03*
X270000Y115000D03*
X270000Y110000D03*
X270000Y105000D03*
X270000Y100000D03*
X270000Y95000D03*
X270000Y90000D03*
X270000Y85000D03*
X270000Y80000D03*
X270000Y75000D03*
X270000Y70000D03*
X270000Y65000D03*
X270000Y60000D03*
X270000Y55000D03*
X270000Y50000D03*
X270000Y45000D03*
D19*
X290000Y25000D03*
X295000Y25000D03*
X300000Y25000D03*
X305000Y25000D03*
X310000Y25000D03*
X315000Y25000D03*
X320000Y25000D03*
X325000Y25000D03*
X330000Y25000D03*
X335000Y25000D03*
X340000Y25000D03*
X345000Y25000D03*
X350000Y25000D03*
X355000Y25000D03*
X360000Y25000D03*
X365000Y25000D03*
X370000Y25000D03*
X375000Y25000D03*
X380000Y25000D03*
X385000Y25000D03*
X390000Y25000D03*
X395000Y25000D03*
X400000Y25000D03*
X405000Y25000D03*
X410000Y25000D03*
D20*
X227000Y47000D03*
X227000Y17000D03*
D14*
X467500Y115000D03*
X480500Y115000D03*
X467500Y95000D03*
X480500Y95000D03*
X443500Y14000D03*
X456500Y14000D03*
X443500Y197000D03*
X456500Y197000D03*
X233500Y175000D03*
X220500Y175000D03*
D21*
X386000Y11000D03*
X379000Y11000D03*
X393000Y11000D03*
M02*
